<svg width="121" height="192" viewBox="0 0 121 192" fill="none" xmlns="http://www.w3.org/2000/svg">
	<circle cx="43.5" cy="139.5" r="15" stroke="black"/>
	<path fill-rule="evenodd" clip-rule="evenodd" d="M29 139.829C29 131.639 35.6393 125 43.8293 125C52.0192 125 58.6585 131.639 58.6585 139.829C58.6585 148.019 52.0192 154.659 43.8293 154.659C35.6393 154.659 29 148.019 29 139.829ZM41.8649 128.619C41.6572 128.705 41.6067 128.923 41.6876 129.419C41.723 129.663 41.7634 129.911 41.7788 129.972C41.7991 130.068 41.7737 130.088 41.5609 130.134C41.4293 130.159 41.0949 130.25 40.8163 130.336C40.5376 130.417 40.2944 130.473 40.2794 130.453C40.259 130.433 40.1628 130.159 40.0565 129.84C39.945 129.495 39.8183 129.212 39.7475 129.141C39.5246 128.918 39.1194 129.034 39.0433 129.343C39.0282 129.409 39.1091 129.744 39.246 130.134L39.2699 130.207C39.3806 130.548 39.4682 130.818 39.4588 130.828C39.4538 130.833 39.1953 130.964 38.8862 131.116L38.329 131.395L38.025 130.782C37.6552 130.022 37.5436 129.885 37.3208 129.885C37.2296 129.885 37.0979 129.931 37.0218 129.992C36.809 130.159 36.8444 130.351 37.2446 131.147L37.5941 131.851L37.3054 132.069C37.1484 132.185 36.8952 132.383 36.7482 132.509L36.4796 132.737L35.9073 132.17C35.3854 131.658 35.3196 131.608 35.1473 131.608C34.9041 131.608 34.7116 131.79 34.7116 132.018C34.7116 132.155 34.7928 132.266 35.2789 132.758C35.7095 133.193 35.8362 133.35 35.8007 133.401C35.7703 133.441 35.6438 133.593 35.5172 133.745C35.3855 133.892 35.1523 134.196 34.9902 134.419C34.0024 135.802 33.3843 137.312 32.9132 139.485C32.8929 139.576 32.8524 139.586 32.5484 139.586C32.2648 139.586 32.1583 139.612 31.9708 139.723C30.9581 140.321 30.5679 141.907 31.1455 143.107C31.49 143.832 32.0626 144.257 32.6299 144.207C32.7869 144.197 32.9489 144.171 32.9896 144.151C33.0504 144.126 33.1012 144.227 33.2328 144.637C33.871 146.664 35.188 148.406 36.9914 149.617C37.9692 150.27 39.4128 150.863 40.6693 151.132C42.3918 151.492 44.6866 151.557 46.475 151.289C48.9725 150.914 51.1103 149.86 52.6248 148.259C54.2611 146.537 55.097 144.48 55.254 141.826L55.2895 141.233H55.4261C55.6389 141.233 56.0492 141.01 56.2366 140.802C56.6823 140.291 56.8851 139.424 56.7331 138.674C56.556 137.819 56.0645 137.12 55.406 136.795C55.0716 136.628 55.0008 136.613 54.7372 136.633C54.5752 136.648 54.4078 136.674 54.3674 136.694C54.3116 136.714 54.2104 136.557 53.9521 136.025C53.3748 134.835 52.6452 133.827 51.703 132.925C51.2927 132.53 50.2998 131.75 50.1478 131.694C50.1074 131.684 50.1933 131.456 50.4061 131.015C50.7506 130.306 50.7609 130.23 50.5531 129.997C50.4315 129.865 50.1883 129.85 50.0212 129.966C49.9604 130.007 49.778 130.301 49.626 130.61C49.4929 130.876 49.3742 131.102 49.3381 131.171L49.327 131.192C49.317 131.208 48.6027 130.868 48.557 130.827C48.552 130.822 48.6482 130.508 48.7698 130.128C48.9014 129.728 48.9826 129.399 48.9622 129.343C48.8964 129.151 48.7293 129.024 48.5416 129.024C48.2784 129.024 48.1819 129.161 47.959 129.835C47.8527 130.154 47.7512 130.437 47.7311 130.463C47.6957 130.493 46.8699 130.265 46.8699 130.219C46.8699 130.215 46.9434 129.994 47.0335 129.724L47.0473 129.683C47.2905 128.968 47.2855 128.781 47.0169 128.644C46.647 128.452 46.5001 128.588 46.2368 129.384C46.1202 129.728 46.0036 130.012 45.9782 130.012C45.9583 130.012 45.763 129.984 45.5082 129.947L45.2893 129.915L44.6409 129.819V129.333C44.6359 128.826 44.6055 128.735 44.4027 128.629C44.2253 128.532 44.0836 128.558 43.9266 128.715C43.7847 128.857 43.7796 128.882 43.7796 129.318V129.774L43.643 129.804C43.5113 129.824 42.8021 129.89 42.6905 129.89C42.6651 129.89 42.6043 129.662 42.5538 129.384C42.4576 128.811 42.4069 128.684 42.2297 128.619C42.0777 128.558 42.0169 128.558 41.8649 128.619ZM43.7799 131.152C43.7799 131.684 43.8457 131.917 44.0078 131.983C44.1851 132.049 44.3927 132.013 44.5143 131.886C44.6308 131.77 44.6409 131.729 44.6409 131.228C44.6409 130.838 44.656 130.696 44.7067 130.696C44.8333 130.696 45.6642 130.843 45.6946 130.868C45.7097 130.889 45.6692 131.066 45.6034 131.269C45.5072 131.588 45.4969 131.659 45.5526 131.765C45.6489 131.943 45.7604 132.008 45.9478 132.013C46.1807 132.013 46.3277 131.851 46.4646 131.426C46.5048 131.299 46.545 131.185 46.5676 131.12C46.5793 131.088 46.5862 131.068 46.5862 131.066C46.6217 131.025 47.4271 131.319 47.4271 131.37C47.4271 131.405 47.3814 131.578 47.3209 131.75C47.2297 132.018 47.2247 132.079 47.2855 132.201C47.3666 132.373 47.5945 132.489 47.7615 132.449C47.949 132.398 48.0656 132.257 48.1618 131.958C48.2125 131.806 48.258 131.679 48.263 131.669C48.2731 131.659 48.4251 131.73 48.6075 131.816L48.9368 131.983L48.7394 132.378C48.5012 132.849 48.4912 132.986 48.6886 133.184C48.9723 133.462 49.2662 133.32 49.5245 132.778C49.6107 132.606 49.6966 132.469 49.7273 132.469C49.8539 132.474 50.7352 133.189 51.252 133.711C52.6148 135.068 53.481 136.648 54.0129 138.751C54.3473 140.063 54.4639 141.203 54.3727 142.231C54.2561 143.558 54.0179 144.435 53.4557 145.565C52.3208 147.849 50.3807 149.43 47.8527 150.124C45.6541 150.727 42.5234 150.752 40.3145 150.175C38.6528 149.744 37.27 148.959 36.1452 147.814C35.6083 147.262 35.4209 147.029 35.051 146.477C33.9619 144.825 33.4805 142.869 33.6426 140.772C33.825 138.407 34.6963 136.142 36.0743 134.435C36.2467 134.217 36.4138 134.025 36.4442 134.009C36.4695 133.989 36.6366 134.115 36.809 134.288C37.0572 134.536 37.1534 134.597 37.28 134.597C37.5079 134.597 37.5941 134.551 37.6803 134.384C37.7969 134.161 37.736 134.019 37.3916 133.66L37.0876 133.341L37.5232 133.001C37.7614 132.814 37.9742 132.677 37.9943 132.692C38.0097 132.713 38.0855 132.834 38.1564 132.966C38.3641 133.346 38.6629 133.432 38.9164 133.179C39.0583 133.037 39.043 132.819 38.8656 132.469L38.7136 132.165L39.2251 131.912C39.5088 131.77 39.7419 131.659 39.752 131.669C39.757 131.679 39.8027 131.811 39.8532 131.963C39.9595 132.297 40.0457 132.403 40.2331 132.444C40.3952 132.479 40.6587 132.368 40.7092 132.241C40.76 132.105 40.7446 131.886 40.6637 131.659C40.6233 131.542 40.5879 131.41 40.5879 131.375C40.5879 131.289 41.8594 130.889 41.9302 130.954C41.9403 130.969 41.981 131.162 42.0114 131.38C42.0569 131.679 42.1026 131.811 42.1888 131.897C42.3558 132.059 42.6294 132.054 42.8018 131.881C42.8115 131.872 42.8205 131.863 42.8288 131.855C42.8536 131.831 42.8725 131.813 42.8858 131.791C42.9284 131.722 42.9153 131.619 42.8602 131.187L42.8372 131.005L42.8018 130.757L43.1513 130.721C43.4603 130.696 43.6073 130.676 43.7439 130.651C43.7646 130.65 43.7799 130.873 43.7799 131.152ZM55.2035 137.586C55.6442 137.859 55.9786 138.746 55.9279 139.501C55.8975 139.906 55.7912 140.139 55.5681 140.271C55.3199 140.423 55.2387 140.402 55.2033 140.179C55.0867 139.475 54.9043 138.599 54.7727 138.143C54.6918 137.849 54.6209 137.581 54.6209 137.55C54.6209 137.444 55.0159 137.469 55.2035 137.586ZM32.7565 141.613C32.7718 142.251 32.8019 142.89 32.8273 143.021C32.8781 143.295 32.8223 143.361 32.5437 143.361C32.0018 143.361 31.6216 142.464 31.7586 141.511C31.8548 140.838 32.1842 140.397 32.5691 140.432L32.7361 140.447L32.7565 141.613ZM43.1012 135.666C43.7747 134.435 45.0058 133.553 46.3635 133.315C46.4346 133.305 46.7233 133.29 47.0125 133.285C48.2383 133.269 49.3427 133.725 50.2444 134.622C50.7004 135.078 50.8675 135.301 51.1715 135.889C51.4248 136.375 51.5717 136.932 51.6122 137.555C51.6627 138.351 51.3994 139.344 50.913 140.154C50.6547 140.585 50.0012 141.248 49.5048 141.583C48.7702 142.074 47.9747 142.312 47.073 142.307C45.8319 142.307 44.7071 141.811 43.8004 140.873C42.402 139.424 42.1336 137.424 43.1012 135.666ZM49.6362 135.139C49.2714 134.779 48.7649 134.475 48.2531 134.308C47.7466 134.141 46.7891 134.1 46.2369 134.222C45.4922 134.384 44.6563 134.896 44.2106 135.448C43.9775 135.742 43.5368 136.552 43.5876 136.598C43.6129 136.623 50.2188 135.975 50.2492 135.944C50.2896 135.909 49.8997 135.397 49.6362 135.139ZM50.7052 137.616C50.7253 137.601 50.7153 137.423 50.6848 137.226C50.6492 137.028 50.6087 136.846 50.5836 136.831C50.5635 136.811 50.0517 136.846 49.454 136.907C48.8561 136.973 48.2991 137.023 48.223 137.023C48.0963 137.028 48.0863 137.044 48.1217 137.14C48.1418 137.206 48.1622 137.398 48.1622 137.571C48.1622 137.854 48.1722 137.89 48.2634 137.89C48.527 137.885 50.6748 137.646 50.7052 137.616ZM46.5306 137.834C46.4851 137.697 46.4748 137.545 46.4952 137.403C46.5105 137.282 46.5205 137.185 46.5102 137.185C46.5044 137.188 46.2779 137.212 45.9301 137.249C45.6658 137.278 45.3309 137.313 44.9701 137.352L43.4504 137.51L43.4353 137.884C43.425 138.092 43.4303 138.285 43.4453 138.32C43.4604 138.361 43.876 138.335 45.0259 138.214C45.8872 138.123 46.5964 138.047 46.5964 138.047C46.6014 138.042 46.571 137.945 46.5306 137.834ZM48.2734 141.259C49.3729 140.909 50.2746 139.992 50.5936 138.888C50.6391 138.731 50.6695 138.579 50.6595 138.558C50.6444 138.523 43.7343 139.192 43.6888 139.232C43.6584 139.263 43.8966 139.693 44.1144 140.002C45.0061 141.254 46.6828 141.765 48.2734 141.259ZM38.0604 135.463C37.6702 135.529 37.1283 135.726 36.7989 135.924C36.6369 136.015 36.3175 136.283 36.0796 136.521C35.7048 136.891 35.6085 137.028 35.3857 137.484C35.0616 138.147 34.9651 138.543 34.9551 139.242C34.95 139.814 35.0159 140.179 35.2236 140.655C35.8013 141.983 37.2449 142.904 38.7395 142.904C39.3422 142.904 39.8186 142.798 40.31 142.555C41.2929 142.069 42.0071 141.192 42.3212 140.088C42.4936 139.485 42.4832 138.573 42.2958 138.016C41.8903 136.8 40.872 135.883 39.5244 135.529C39.1648 135.432 38.4099 135.397 38.0604 135.463ZM39.4435 136.344C39.8487 136.451 40.3756 136.734 40.6087 136.972L40.7962 137.165L38.3189 138.056C36.9509 138.548 35.8213 138.953 35.801 138.953C35.7502 138.953 35.8161 138.568 35.9326 138.208C36.2113 137.342 36.9813 136.648 37.9692 136.364C38.3644 136.253 39.0533 136.243 39.4435 136.344ZM41.4443 138.279C41.5051 138.452 41.5506 138.624 41.5506 138.659C41.5506 138.7 41.1049 138.887 40.4311 139.13C39.813 139.353 39.2962 139.541 39.2761 139.551C39.2558 139.556 39.2508 139.475 39.2608 139.373C39.2709 139.242 39.2354 139.105 39.1596 138.948L39.038 138.715L40.1575 138.309C40.7705 138.087 41.2871 137.919 41.3074 137.935C41.3227 137.95 41.3886 138.107 41.4443 138.279ZM37.5486 139.379C37.5486 139.561 37.6398 139.769 37.7765 139.916L37.8981 140.042L37.0876 140.336C36.6366 140.498 36.2467 140.62 36.2113 140.61C36.1555 140.589 35.958 140.128 35.9173 139.926C35.9073 139.88 36.1605 139.759 36.6874 139.561C37.118 139.399 37.4878 139.267 37.5132 139.262C37.5335 139.257 37.5486 139.313 37.5486 139.379ZM41.5205 139.926C41.1406 141.365 39.5701 142.332 38.1061 142.023C37.6855 141.937 37.0728 141.658 36.9054 141.476L36.7939 141.359L39.1344 140.513C40.4213 140.047 41.5001 139.667 41.5358 139.662C41.576 139.662 41.576 139.733 41.5205 139.926ZM39.4486 147.576C40.9229 145.2 43.4964 143.609 46.3535 143.31C46.9208 143.254 48.1214 143.295 48.6837 143.392C49.3322 143.503 50.0213 143.696 50.5886 143.923C50.8622 144.03 51.1004 144.116 51.1105 144.101C51.1205 144.091 51.1406 143.994 51.1559 143.888C51.222 143.392 51.3182 143.26 51.6069 143.26C52.0122 143.26 52.1388 143.635 51.9463 144.258C51.6881 145.079 50.9029 145.737 50.0771 145.823C49.7784 145.854 49.758 145.854 49.6111 145.702C49.2817 145.372 49.4641 145.023 49.9909 144.967C50.5733 144.906 50.6037 144.84 50.1276 144.658C46.4346 143.25 42.4273 144.562 40.2895 147.865C39.9501 148.391 39.9551 148.427 40.325 148.427C40.6086 148.427 40.791 148.594 40.791 148.858C40.791 149.126 40.6086 149.288 40.3096 149.288C40.036 149.288 39.5446 149.131 39.2609 148.954C38.41 148.417 37.8882 147.013 38.4404 146.76C38.8002 146.598 39.0331 146.776 39.0838 147.247C39.1142 147.54 39.2054 147.819 39.2662 147.819C39.2816 147.819 39.3624 147.712 39.4486 147.576Z" fill="white"/>
	<path d="M11.8818 145.014V153.896H3.37183V125.662H15.7033C19.1801 125.662 21.8013 126.543 23.607 128.271L23.6083 128.272C25.4443 130.003 26.3708 132.328 26.3708 135.274C26.3708 137.046 25.9614 138.653 25.1453 140.101C24.3326 141.517 23.1252 142.649 21.5126 143.495L21.5112 143.495C19.9322 144.337 17.9998 144.764 15.7033 144.764H12.1318H11.8818V145.014ZM12.1318 132.386H11.8818V132.636V137.912V138.162H12.1318H14.6887C15.6571 138.162 16.4298 137.934 16.9604 137.435C17.4937 136.932 17.739 136.196 17.739 135.274C17.739 134.352 17.4937 133.616 16.9604 133.114C16.4298 132.614 15.6571 132.386 14.6887 132.386H12.1318Z" fill="white" stroke="black" stroke-width="0.5"/>
	<path d="M70.2233 139.698V153.896H61.7134V125.662H70.3375L79.8012 140.24L80.2609 140.948V140.104V125.662H88.7708V153.896H80.1454L70.6819 139.56L70.2233 138.866V139.698Z" fill="white" stroke="black" stroke-width="0.5"/>
	<path d="M112.897 143.669H105.963V137.797H120.115V146.489C118.892 148.568 117.212 150.362 115.067 151.871C112.928 153.35 110.207 154.099 106.89 154.099C103.949 154.099 101.396 153.498 99.2197 152.305C97.0702 151.083 95.4135 149.386 94.2456 147.211C93.1037 145.033 92.5295 142.544 92.5295 139.738C92.5295 136.933 93.1037 134.444 94.2456 132.266C95.4135 130.09 97.0702 128.407 99.2194 127.213L99.2194 127.213L99.2213 127.212C101.37 125.992 103.896 125.378 106.809 125.378C110.53 125.378 113.53 126.274 115.828 128.045L115.829 128.046C118.082 129.762 119.443 132.069 119.912 134.983H110.841C110.468 134.43 109.955 134.005 109.312 133.71C108.62 133.365 107.797 133.198 106.85 133.198C105.058 133.198 103.644 133.789 102.641 134.991C101.645 136.158 101.161 137.751 101.161 139.738C101.161 142.019 101.697 143.769 102.813 144.943L102.813 144.943C103.932 146.12 105.634 146.685 107.864 146.685C110.027 146.685 111.777 145.809 113.096 144.07L113.4 143.669H112.897Z" fill="white" stroke="black" stroke-width="0.5"/>
	<path d="M24.8925 183.28C24.8925 184.96 24.4856 186.434 23.6779 187.708C22.8703 188.982 21.7111 189.975 20.1898 190.684L20.1883 190.684C18.6969 191.391 16.9105 191.75 14.8216 191.75C11.2368 191.75 8.45786 190.924 6.45479 189.303C4.5172 187.734 3.478 185.288 3.37756 181.915H11.8872C11.8677 182.787 12.0136 183.499 12.356 184.022L12.3602 184.029L12.3649 184.035C12.7922 184.607 13.4971 184.862 14.4038 184.862C14.9707 184.862 15.4547 184.661 15.8381 184.26L15.8382 184.26L15.8443 184.253C16.2261 183.823 16.4087 183.276 16.4087 182.634C16.4087 181.817 16.1181 181.171 15.5157 180.739C14.944 180.283 14.0082 180.083 12.7742 180.083H11.4781V173.356H12.7253C13.6956 173.411 14.4747 173.255 15.0156 172.84C15.5688 172.416 15.8237 171.758 15.8237 170.926C15.8237 170.225 15.6651 169.654 15.2996 169.266C14.9717 168.888 14.5406 168.698 14.0277 168.698C13.431 168.698 12.9614 168.948 12.6555 169.443C12.3911 169.871 12.2593 170.466 12.2356 171.201H3.71469C3.84051 168.174 4.78109 165.881 6.50807 164.289C8.31438 162.648 10.8787 161.811 14.2366 161.811C16.4107 161.811 18.253 162.17 19.772 162.878L19.7721 162.878C21.2962 163.587 22.4258 164.541 23.176 165.732L23.176 165.732L23.1781 165.735C23.958 166.93 24.3493 168.281 24.3493 169.796C24.3493 171.64 23.9001 173.055 23.0313 174.074C22.1368 175.094 21.1428 175.779 20.0501 176.139L19.8783 176.195V176.376V176.538V176.714L20.0431 176.773C21.6808 177.367 22.8889 178.206 23.6883 179.281C24.4867 180.354 24.8925 181.682 24.8925 183.28Z" fill="white" stroke="black" stroke-width="0.5"/>
	<path d="M57.3697 163.385L46.9523 182.92L46.9229 182.975V183.037V191.467H38.1466V183.037V182.975L38.1172 182.92L27.6999 163.385H37.7373L42.3917 173.374L42.6183 173.86L42.8449 173.374L47.4993 163.385H57.3697Z" fill="white" stroke="black" stroke-width="0.5"/>
	<path d="M79.1024 187.317L79.0449 187.147H78.8656H69.0043H68.825L68.7675 187.317L67.3625 191.467H58.1679L68.8009 163.385H79.1523L89.7442 191.467H80.5073L79.1024 187.317ZM76.6092 180.906H76.957L76.8462 180.577L74.1719 172.624L73.9349 171.919L73.6979 172.624L71.0237 180.577L70.9129 180.906H71.2607H76.6092Z" fill="white" stroke="black" stroke-width="0.5"/>
	<path d="M101.239 177.345V191.467H92.4631V163.385H101.356L111.101 177.889L111.559 178.57V177.749V163.385H120.335V191.467H111.441L101.695 177.204L101.239 176.536V177.345Z" fill="white" stroke="black" stroke-width="0.5"/>
	<path d="M59.3167 0H58.1463C26.033 0 0 26.033 0 58.1463V58.1467C0 90.26 26.033 116.293 58.1463 116.293H59.3167C91.43 116.293 117.463 90.26 117.463 58.1467V58.1463C117.463 26.033 91.43 0 59.3167 0Z" fill="#151B26"/>
	<path d="M59.2581 10.8535H58.2053C32.0863 10.8535 10.9126 32.0272 10.9126 58.1462C10.9126 84.2653 32.0863 105.439 58.2053 105.439H59.2581C85.3771 105.439 106.551 84.2653 106.551 58.1462C106.551 32.0272 85.3771 10.8535 59.2581 10.8535Z" stroke="#E30039" stroke-width="10"/>
	<path d="M53.7695 35.6437C53.2447 35.8592 53.1171 36.4039 53.3214 37.6454C53.4109 38.2536 53.5131 38.8743 53.5518 39.0264C53.6032 39.267 53.5391 39.3179 53.0016 39.4316C52.6691 39.4951 51.8244 39.7231 51.1206 39.9386C50.4168 40.1416 49.8025 40.2804 49.7645 40.2302C49.7131 40.1793 49.47 39.4951 49.2016 38.6972C48.9198 37.8358 48.6 37.1264 48.421 36.9486C47.8581 36.3913 46.8345 36.6829 46.6422 37.4557C46.6041 37.6203 46.8084 38.4565 47.1543 39.4323C47.4615 40.3697 47.7172 41.1424 47.6918 41.1676C47.6792 41.1801 47.0261 41.5093 46.2456 41.8895L44.838 42.5862L44.0701 41.0532C43.136 39.1526 42.8542 38.8109 42.2913 38.8109C42.0609 38.8109 41.7284 38.9246 41.5361 39.0766C40.9986 39.4944 41.088 39.9763 42.099 41.9648L42.9817 43.7259L42.2526 44.2706C41.8559 44.5622 41.2162 45.056 40.845 45.3726L40.1666 45.9425L38.721 44.5238C37.4029 43.2447 37.2366 43.1177 36.8012 43.1177C36.1869 43.1177 35.7008 43.5739 35.7008 44.1437C35.7008 44.4855 35.9058 44.7645 37.1338 45.9934C38.2215 47.0828 38.5413 47.4755 38.4519 47.6024C38.3751 47.7036 38.0552 48.0837 37.7354 48.4638C37.4029 48.8314 36.8139 49.5916 36.4046 50.1489C33.9093 53.6076 32.3482 57.3823 31.1583 62.8176C31.1069 63.0457 31.0047 63.0708 30.2368 63.0708C29.5204 63.0708 29.2513 63.1343 28.7779 63.4126C26.2198 64.9079 25.2342 68.873 26.6932 71.8756C27.5633 73.6869 29.0096 74.7513 30.4425 74.625C30.8391 74.5999 31.2484 74.5364 31.3513 74.4855C31.5048 74.4221 31.633 74.6752 31.9656 75.7019C33.5775 80.769 36.9041 85.1268 41.4593 88.1545C43.9292 89.7886 47.5757 91.2708 50.7494 91.9424C55.1003 92.8421 60.8968 93.0067 65.4139 92.3351C71.7226 91.3977 77.1225 88.7626 80.9479 84.7592C85.0811 80.4517 87.1925 75.3085 87.5891 68.6701L87.6786 67.188H88.0238C88.5613 67.188 89.5976 66.6307 90.071 66.1111C91.1968 64.8319 91.709 62.6649 91.325 60.7901C90.8777 58.6496 89.6364 56.9017 87.9731 56.0906C87.1284 55.6728 86.9494 55.6344 86.2837 55.6853C85.8744 55.723 85.4517 55.7865 85.3496 55.8374C85.2087 55.8883 84.9529 55.4956 84.3006 54.1649C82.8423 51.1881 80.9993 48.6668 78.6196 46.4118C77.5832 45.4235 75.0753 43.4727 74.6913 43.3332C74.5892 43.3081 74.8062 42.7376 75.3437 41.6356C76.2137 39.862 76.2398 39.6722 75.715 39.0892C75.4078 38.76 74.7935 38.7216 74.3715 39.0131C74.2179 39.1143 73.7572 39.8494 73.3732 40.6222C72.9766 41.4075 72.6307 42.0541 72.618 42.0792C72.5927 42.1175 70.7885 41.2687 70.673 41.1669C70.6603 41.1543 70.9033 40.369 71.2105 39.4184C71.543 38.4175 71.748 37.5938 71.6966 37.455C71.5303 36.9737 71.1083 36.6571 70.6342 36.6571C69.9692 36.6571 69.7255 36.9989 69.1626 38.6839C68.8941 39.4818 68.6377 40.1912 68.587 40.2546C68.4975 40.3307 66.4115 39.7608 66.4115 39.6464C66.4115 39.6339 66.6165 39.0257 66.8596 38.3038C67.4739 36.5176 67.4612 36.0489 66.7828 35.7065C65.8486 35.2252 65.4774 35.567 64.8123 37.5561C64.5179 38.4175 64.2234 39.1268 64.1593 39.1268C64.0952 39.1268 63.3146 39.0131 62.4192 38.8862L60.7813 38.6456V37.4292C60.7686 36.1626 60.6918 35.9345 60.1796 35.6681C59.7316 35.4275 59.3737 35.491 58.9771 35.8836C58.6185 36.2386 58.6058 36.3014 58.6058 37.3909V38.5312L58.2606 38.6072C57.9281 38.6581 56.1366 38.8228 55.8548 38.8228C55.7907 38.8228 55.6371 38.2529 55.5096 37.5561C55.2665 36.1243 55.1383 35.8076 54.6909 35.643C54.307 35.4916 54.1534 35.4916 53.7695 35.6437ZM58.6065 41.978C58.6065 43.3081 58.7728 43.8912 59.1821 44.0558C59.6301 44.2204 60.1543 44.1318 60.4614 43.8152C60.7559 43.5236 60.7813 43.4225 60.7813 42.1684C60.7813 41.1927 60.8193 40.8384 60.9475 40.8384C61.2674 40.8384 63.366 41.2059 63.4428 41.2694C63.4809 41.3203 63.3787 41.7632 63.2125 42.2702C62.9694 43.0681 62.9434 43.246 63.0843 43.5117C63.3273 43.9553 63.6091 44.1199 64.0825 44.1325C64.6708 44.1325 65.042 43.7272 65.3879 42.6629C65.5415 42.1817 65.6951 41.7764 65.6951 41.7632C65.7845 41.662 67.8191 42.3965 67.8191 42.5234C67.8191 42.612 67.7036 43.043 67.5507 43.4734C67.3203 44.145 67.3076 44.2971 67.4612 44.6012C67.6662 45.0322 68.2418 45.3231 68.6638 45.2219C69.1372 45.095 69.4317 44.7407 69.6747 43.993C69.8029 43.6129 69.9178 43.2962 69.9304 43.2711C69.9558 43.246 70.3398 43.4231 70.8005 43.6387L71.6325 44.0564L71.1337 45.0447C70.5321 46.2228 70.5067 46.5652 71.0055 47.059C71.722 47.7558 72.4645 47.4008 73.1168 46.0456C73.3345 45.6146 73.5515 45.2728 73.629 45.2728C73.9488 45.2854 76.175 47.0716 77.4804 48.3765C80.9225 51.7711 83.1107 55.7237 84.4541 60.9812C85.2988 64.2621 85.5933 67.1126 85.3629 69.6842C85.0684 73.0034 84.4668 75.1948 83.0466 78.0203C80.18 83.7332 75.2796 87.6858 68.8941 89.4217C63.3407 90.9296 55.4328 90.9924 49.8533 89.5487C45.656 88.4718 42.1631 86.5084 39.3219 83.6453C37.9658 82.2643 37.4923 81.6819 36.5582 80.3009C33.8072 76.1712 32.5912 71.2806 33.0006 66.0364C33.4613 60.1205 35.6621 54.4571 39.143 50.1879C39.5783 49.6432 40.0003 49.1619 40.0771 49.1235C40.1412 49.0726 40.5632 49.3893 40.9986 49.8203C41.6256 50.4411 41.8686 50.5931 42.1885 50.5931C42.764 50.5931 42.9817 50.4794 43.1994 50.0609C43.4939 49.5037 43.3403 49.1487 42.4702 48.2496L41.7023 47.4517L42.8028 46.6029C43.4044 46.1342 43.9419 45.7924 43.9926 45.8301C44.0314 45.881 44.223 46.1851 44.402 46.5143C44.9268 47.4643 45.6813 47.6798 46.3217 47.0465C46.6802 46.6915 46.6415 46.1467 46.1935 45.2728L45.8095 44.5126L47.1016 43.8793C47.818 43.5243 48.407 43.246 48.4324 43.2711C48.445 43.2962 48.5606 43.6261 48.6881 44.0055C48.9565 44.8418 49.1742 45.1075 49.6476 45.2094C50.0569 45.2979 50.7227 45.0196 50.8502 44.7023C50.9784 44.3605 50.9397 43.8152 50.7353 43.2453C50.6332 42.9538 50.5437 42.6246 50.5437 42.536C50.5437 42.3205 53.7555 41.3196 53.9344 41.4842C53.9598 41.5219 54.0626 42.0038 54.1394 42.5485C54.2543 43.2962 54.3698 43.6254 54.5874 43.8409C55.0095 44.2462 55.7005 44.2336 56.1359 43.8026C56.4945 43.4476 56.4811 43.6254 56.2254 41.6111L56.1359 40.9904L57.0186 40.9018C57.7992 40.8384 58.1705 40.7881 58.5157 40.7247C58.5678 40.724 58.6065 41.2813 58.6065 41.978ZM87.4616 58.0672C88.5747 58.7514 89.4193 60.9679 89.2911 62.856C89.2144 63.8694 88.9459 64.4524 88.3824 64.7817C87.7554 65.1618 87.5504 65.1109 87.4609 64.5536C87.1664 62.7925 86.7057 60.6011 86.3732 59.4607C86.1689 58.7256 85.9899 58.0546 85.9899 57.9786C85.9899 57.7122 86.9875 57.7756 87.4616 58.0672ZM30.7623 68.1386C30.8011 69.7351 30.8772 71.3309 30.9413 71.6601C31.0695 72.3443 30.9286 72.5089 30.2248 72.5089C28.856 72.5089 27.8958 70.2666 28.2417 67.8847C28.4847 66.1997 29.3167 65.0977 30.2889 65.1862L30.7109 65.2239L30.7623 68.1386Z" fill="#E30039"/>
	<path d="M65.132 47.3872C61.7025 47.9828 58.5929 50.1868 56.8916 53.2654C54.4477 57.6615 55.1254 62.6652 58.6577 66.2885C60.948 68.632 63.7892 69.8735 66.9242 69.8735C69.2018 69.8861 71.211 69.2911 73.0666 68.0622C74.3205 67.2259 75.9712 65.5666 76.6235 64.4897C77.8521 62.4629 78.5172 59.9799 78.3897 57.9908C78.2875 56.4326 77.9162 55.0391 77.2766 53.8227C76.5087 52.3532 76.0867 51.7959 74.9349 50.6555C72.6572 48.4132 69.8675 47.2728 66.7712 47.3112C66.0408 47.3237 65.3116 47.3621 65.132 47.3872ZM69.9049 49.8702C71.1976 50.288 72.477 51.0482 73.3984 51.9479C74.0641 52.5938 75.049 53.8736 74.9469 53.9622C74.8701 54.0382 58.1843 55.6598 58.1202 55.5964C57.992 55.4827 59.1051 53.4552 59.694 52.7207C60.8198 51.3397 62.9312 50.0606 64.8121 49.6547C66.207 49.3506 68.6255 49.4524 69.9049 49.8702ZM76.0473 57.1671C76.1241 57.6609 76.1494 58.1045 76.0987 58.1428C76.0219 58.2188 70.5966 58.8145 69.9309 58.827C69.7006 58.827 69.6752 58.7384 69.6752 58.0291C69.6752 57.5981 69.6238 57.1168 69.573 56.9522C69.4835 56.7116 69.5089 56.6733 69.8288 56.6607C70.0211 56.6607 71.428 56.5338 72.9384 56.3692C74.4481 56.2171 75.7408 56.1285 75.7915 56.1794C75.855 56.2171 75.9571 56.6733 76.0473 57.1671ZM65.4645 57.6106C65.4131 57.9656 65.4391 58.3458 65.554 58.6875C65.6561 58.9665 65.7329 59.2071 65.7202 59.2197C65.7202 59.2197 63.9287 59.4094 61.7533 59.6375C58.8487 59.9416 57.799 60.005 57.761 59.9032C57.7229 59.8147 57.7095 59.3334 57.7356 58.8138L57.7736 57.8764L61.6124 57.4837C63.7237 57.2557 65.4765 57.0785 65.5026 57.0659C65.5286 57.0659 65.5032 57.3066 65.4645 57.6106ZM75.8169 61.3226C75.011 64.0845 72.7334 66.3771 69.9563 67.2517C65.9386 68.5183 61.7032 67.2391 59.451 64.1103C58.9008 63.3375 58.2991 62.2606 58.3759 62.1846C58.4908 62.0835 75.9451 60.4109 75.9832 60.4995C76.0086 60.5498 75.9318 60.9299 75.8169 61.3226Z" fill="white"/>
	<path d="M44.1596 52.7587C43.1741 52.9233 41.8052 53.4172 40.9732 53.9116C40.5639 54.1397 39.7573 54.8107 39.1564 55.4063C38.2095 56.3312 37.9665 56.6729 37.4036 57.8133C36.5849 59.4726 36.3412 60.4609 36.3159 62.2094C36.3032 63.6406 36.4694 64.5529 36.9943 65.7441C38.4532 69.0634 42.0997 71.3685 45.875 71.3685C47.3974 71.3685 48.6007 71.1028 49.842 70.4946C52.3246 69.2782 54.1288 67.0868 54.922 64.3248C55.3574 62.8176 55.3313 60.5369 54.8579 59.1434C53.8336 56.1038 51.2616 53.8105 47.8575 52.9233C46.9494 52.6827 45.0424 52.5941 44.1596 52.7587ZM47.6532 54.9634C48.6768 55.2292 50.0076 55.9391 50.5965 56.5341L51.0699 57.0154L44.8127 59.2452C41.3572 60.4741 38.504 61.4875 38.4526 61.4875C38.3244 61.4875 38.4906 60.525 38.7851 59.6253C39.4889 57.4589 41.434 55.7236 43.9293 55.0136C44.9275 54.7353 46.6676 54.7102 47.6532 54.9634ZM52.7072 59.8024C52.8608 60.2335 52.9756 60.6638 52.9756 60.7524C52.9756 60.8535 51.8498 61.3222 50.1478 61.9304C48.5866 62.4877 47.2812 62.9564 47.2305 62.9822C47.1791 62.9947 47.1664 62.7925 47.1918 62.5386C47.2171 62.2094 47.1277 61.867 46.936 61.4743L46.6289 60.8912L49.4567 59.8778C51.0051 59.3205 52.3099 58.9021 52.3613 58.9404C52.4 58.9794 52.5663 59.3721 52.7072 59.8024ZM42.8669 62.5518C42.8669 63.008 43.0973 63.5276 43.4425 63.8945L43.7496 64.2111L41.7024 64.9456C40.5633 65.3508 39.5784 65.6549 39.4889 65.6298C39.348 65.5789 38.8492 64.426 38.7464 63.9196C38.721 63.8052 39.3607 63.5018 40.6915 63.0073C41.7792 62.6021 42.7133 62.2729 42.7774 62.2596C42.8288 62.2477 42.8669 62.3872 42.8669 62.5518ZM52.8995 63.9196C51.94 67.5178 47.973 69.9373 44.2751 69.1645C43.2128 68.949 41.665 68.2522 41.2423 67.7961L40.9606 67.5046L46.8726 65.3891C50.1231 64.2237 52.8481 63.2737 52.9382 63.2605C53.0397 63.2612 53.0397 63.4383 52.8995 63.9196Z" fill="white"/>
	<path d="M65.1065 72.3827C57.8897 73.1304 51.3894 77.108 47.6655 83.0497C47.4478 83.3915 47.2435 83.6579 47.2048 83.6579C47.0512 83.6579 46.8208 82.9612 46.744 82.2267C46.6158 81.0487 46.0276 80.6051 45.1188 81.0103C43.7239 81.6436 45.042 85.1526 47.1914 86.4959C47.9079 86.9395 49.1492 87.3321 49.8403 87.3321C50.5955 87.3321 51.0562 86.9269 51.0562 86.2553C51.0562 85.5962 50.5955 85.1784 49.879 85.1784C48.9449 85.1784 48.9322 85.0898 49.7895 83.7723C55.1894 75.5122 65.3115 72.2313 74.6396 75.7535C75.8422 76.2096 75.7654 76.3742 74.2944 76.5263C72.9636 76.6658 72.5029 77.5397 73.3349 78.3634C73.7061 78.7435 73.7575 78.7435 74.5121 78.6675C76.598 78.452 78.5812 76.8053 79.2336 74.7526C79.7197 73.1945 79.3998 72.2571 78.3762 72.2571C77.647 72.2571 77.404 72.5863 77.2371 73.8278C77.1983 74.0936 77.1476 74.3348 77.1222 74.36C77.0968 74.3976 76.4952 74.1828 75.8041 73.9164C74.3712 73.3465 72.6304 72.8646 70.9925 72.5863C69.5722 72.3444 66.5394 72.2432 65.1065 72.3827Z" fill="#E30039"/>
	<mask id="mask0_163_46" style="mask-type:alpha" maskUnits="userSpaceOnUse" x="39" y="23" width="40" height="20">
	<path fill-rule="evenodd" clip-rule="evenodd" d="M77.268 31.675C77.2741 31.7824 77.2661 31.8917 77.2386 32.0003L75.4758 38.9156C75.1494 38.7586 74.7016 38.7849 74.3714 39.013C74.2179 39.1141 73.7571 39.8492 73.3732 40.622C73.0368 41.288 72.737 41.8541 72.6459 42.0261L72.618 42.079C72.5926 42.1173 70.7884 41.2685 70.6729 41.1667C70.6602 41.1542 70.9034 40.3688 71.2105 39.4182C71.5431 38.4173 71.748 37.5936 71.6966 37.4548C71.5304 36.9736 71.1084 36.6569 70.6343 36.6569C69.9692 36.6569 69.7254 36.9987 69.1625 38.6837C68.8941 39.4817 68.6377 40.191 68.5869 40.2545C68.4975 40.3305 66.4115 39.7606 66.4115 39.6463C66.4115 39.6343 66.5972 39.0827 66.8247 38.407L66.8595 38.3036C67.4738 36.5174 67.4612 36.0486 66.7827 35.7062C65.8486 35.2249 65.4774 35.5668 64.8124 37.556C64.5179 38.4173 64.2235 39.1267 64.1594 39.1267C64.109 39.1267 63.6157 39.0564 62.9719 38.9646H62.9713L62.971 38.9645H62.9707L62.4193 38.886L60.7812 38.6454V37.429C60.7686 36.1624 60.6917 35.9344 60.1796 35.6679C59.7316 35.4273 59.3738 35.4907 58.9771 35.8834C58.6186 36.2383 58.6059 36.3012 58.6059 37.3907V38.531L58.2607 38.6071C57.9281 38.658 56.1365 38.8226 55.8547 38.8226C55.7906 38.8226 55.6371 38.2527 55.5095 37.556C55.2665 36.1241 55.1383 35.8073 54.6909 35.6427C54.307 35.4913 54.1535 35.4914 53.7695 35.6435C53.2447 35.859 53.1171 36.4036 53.3214 37.6451C53.4109 38.2533 53.513 38.874 53.5518 39.0261C53.6032 39.2667 53.5391 39.3177 53.0016 39.4314C52.669 39.4949 51.8245 39.7228 51.1207 39.9384C50.4169 40.1413 49.8026 40.2801 49.7645 40.2299C49.7131 40.179 49.47 39.4949 49.2015 38.697C48.9198 37.8356 48.6 37.1263 48.4211 36.9484C47.8582 36.3912 46.8345 36.6827 46.6422 37.4555C46.6042 37.6201 46.8085 38.4563 47.1544 39.4321L47.2146 39.6159C47.4942 40.4685 47.7155 41.1439 47.6918 41.1674C47.6791 41.18 47.0261 41.5092 46.2455 41.8893L44.938 42.5364H44.8131L44.0701 41.053C43.207 39.2971 42.9008 38.8717 42.4153 38.8171L40.6932 32.0358C40.665 31.9243 40.6568 31.8119 40.6639 31.7017C39.714 31.4081 39.0229 30.5363 39.0229 29.5088C39.0229 28.241 40.0745 27.2098 41.3671 27.2098C42.6597 27.2098 43.711 28.241 43.711 29.5088C43.711 30.2227 43.3776 30.8615 42.8554 31.2835L45.9297 34.3217C46.7068 35.0896 47.785 35.5299 48.8881 35.5299C50.1925 35.5299 51.4361 34.9222 52.2192 33.9044L57.2719 27.3382C56.8475 26.9222 56.5846 26.3474 56.5846 25.7136C56.5846 24.4458 57.6361 23.4146 58.9287 23.4146C60.2212 23.4146 61.2728 24.4458 61.2728 25.7136C61.2728 26.3284 61.024 26.8864 60.6217 27.2994C60.623 27.3011 60.6246 27.3026 60.6259 27.3045L65.642 33.8889C66.4248 34.9165 67.673 35.53 68.981 35.53C70.0943 35.53 71.141 35.1048 71.9282 34.3326L75.0221 31.2982C74.4889 30.8764 74.1464 30.2315 74.1464 29.5088C74.1464 28.241 75.1979 27.2098 76.4904 27.2098C77.783 27.2098 78.8344 28.241 78.8344 29.5088C78.8344 30.5088 78.1788 31.3594 77.268 31.675ZM65.695 41.763C65.7789 41.6682 67.5733 42.3081 67.7964 42.4928L65.4393 42.5045C65.5225 42.2519 65.6006 42.0328 65.6481 41.8995V41.8993C65.6775 41.817 65.695 41.7675 65.695 41.763ZM63.2124 42.2701C63.1852 42.3594 63.1608 42.4411 63.1389 42.5159L60.7802 42.5275C60.781 42.4194 60.7812 42.3003 60.7812 42.1682C60.7812 41.1925 60.8193 40.8382 60.9475 40.8382C61.2673 40.8382 63.366 41.2056 63.4428 41.2691C63.4808 41.32 63.3787 41.763 63.2124 42.2701ZM58.6064 41.9779C58.6064 42.1811 58.6104 42.3669 58.6185 42.5364H56.3435C56.3265 42.3995 56.3065 42.2435 56.2836 42.065L56.2833 42.0637L56.2831 42.0625C56.2655 41.9256 56.2462 41.7756 56.2253 41.611L56.1359 40.9902L57.0187 40.9016C57.7993 40.8382 58.1704 40.7879 58.5156 40.7245C58.5677 40.7238 58.6064 41.2811 58.6064 41.9779ZM53.9344 41.484C53.9596 41.5214 54.0611 41.9966 54.1377 42.5364H50.5438V42.5358C50.5438 42.3203 53.7554 41.3194 53.9344 41.484Z" fill="white"/>
	</mask>
	<g mask="url(#mask0_163_46)">
	<path fill-rule="evenodd" clip-rule="evenodd" d="M77.268 31.675C77.2741 31.7824 77.2661 31.8917 77.2386 32.0003L75.4758 38.9156C75.1494 38.7586 74.7016 38.7849 74.3714 39.013C74.2179 39.1141 73.7571 39.8492 73.3732 40.622C73.0368 41.288 72.737 41.8541 72.6459 42.0261L72.618 42.079C72.5926 42.1173 70.7884 41.2685 70.6729 41.1667C70.6602 41.1542 70.9034 40.3688 71.2105 39.4182C71.5431 38.4173 71.748 37.5936 71.6966 37.4548C71.5304 36.9736 71.1084 36.6569 70.6343 36.6569C69.9692 36.6569 69.7254 36.9987 69.1625 38.6837C68.8941 39.4817 68.6377 40.191 68.5869 40.2545C68.4975 40.3305 66.4115 39.7606 66.4115 39.6463C66.4115 39.6343 66.5972 39.0827 66.8247 38.407L66.8595 38.3036C67.4738 36.5174 67.4612 36.0486 66.7827 35.7062C65.8486 35.2249 65.4774 35.5668 64.8124 37.556C64.5179 38.4173 64.2235 39.1267 64.1594 39.1267C64.109 39.1267 63.6157 39.0564 62.9719 38.9646H62.9713L62.971 38.9645H62.9707L62.4193 38.886L60.7812 38.6454V37.429C60.7686 36.1624 60.6917 35.9344 60.1796 35.6679C59.7316 35.4273 59.3738 35.4907 58.9771 35.8834C58.6186 36.2383 58.6059 36.3012 58.6059 37.3907V38.531L58.2607 38.6071C57.9281 38.658 56.1365 38.8226 55.8547 38.8226C55.7906 38.8226 55.6371 38.2527 55.5095 37.556C55.2665 36.1241 55.1383 35.8073 54.6909 35.6427C54.307 35.4913 54.1535 35.4914 53.7695 35.6435C53.2447 35.859 53.1171 36.4036 53.3214 37.6451C53.4109 38.2533 53.513 38.874 53.5518 39.0261C53.6032 39.2667 53.5391 39.3177 53.0016 39.4314C52.669 39.4949 51.8245 39.7228 51.1207 39.9384C50.4169 40.1413 49.8026 40.2801 49.7645 40.2299C49.7131 40.179 49.47 39.4949 49.2015 38.697C48.9198 37.8356 48.6 37.1263 48.4211 36.9484C47.8582 36.3912 46.8345 36.6827 46.6422 37.4555C46.6042 37.6201 46.8085 38.4563 47.1544 39.4321L47.2146 39.6159C47.4942 40.4685 47.7155 41.1439 47.6918 41.1674C47.6791 41.18 47.0261 41.5092 46.2455 41.8893L44.938 42.5364H44.8131L44.0701 41.053C43.207 39.2971 42.9008 38.8717 42.4153 38.8171L40.6932 32.0358C40.665 31.9243 40.6568 31.8119 40.6639 31.7017C39.714 31.4081 39.0229 30.5363 39.0229 29.5088C39.0229 28.241 40.0745 27.2098 41.3671 27.2098C42.6597 27.2098 43.711 28.241 43.711 29.5088C43.711 30.2227 43.3776 30.8615 42.8554 31.2835L45.9297 34.3217C46.7068 35.0896 47.785 35.5299 48.8881 35.5299C50.1925 35.5299 51.4361 34.9222 52.2192 33.9044L57.2719 27.3382C56.8475 26.9222 56.5846 26.3474 56.5846 25.7136C56.5846 24.4458 57.6361 23.4146 58.9287 23.4146C60.2212 23.4146 61.2728 24.4458 61.2728 25.7136C61.2728 26.3284 61.024 26.8864 60.6217 27.2994C60.623 27.3011 60.6246 27.3026 60.6259 27.3045L65.642 33.8889C66.4248 34.9165 67.673 35.53 68.981 35.53C70.0943 35.53 71.141 35.1048 71.9282 34.3326L75.0221 31.2982C74.4889 30.8764 74.1464 30.2315 74.1464 29.5088C74.1464 28.241 75.1979 27.2098 76.4904 27.2098C77.783 27.2098 78.8344 28.241 78.8344 29.5088C78.8344 30.5088 78.1788 31.3594 77.268 31.675ZM65.695 41.763C65.7789 41.6682 67.5733 42.3081 67.7964 42.4928L65.4393 42.5045C65.5225 42.2519 65.6006 42.0328 65.6481 41.8995V41.8993C65.6775 41.817 65.695 41.7675 65.695 41.763ZM63.2124 42.2701C63.1852 42.3594 63.1608 42.4411 63.1389 42.5159L60.7802 42.5275C60.781 42.4194 60.7812 42.3003 60.7812 42.1682C60.7812 41.1925 60.8193 40.8382 60.9475 40.8382C61.2673 40.8382 63.366 41.2056 63.4428 41.2691C63.4808 41.32 63.3787 41.763 63.2124 42.2701ZM58.6064 41.9779C58.6064 42.1811 58.6104 42.3669 58.6185 42.5364H56.3435C56.3265 42.3995 56.3065 42.2435 56.2836 42.065L56.2833 42.0637L56.2831 42.0625C56.2655 41.9256 56.2462 41.7756 56.2253 41.611L56.1359 40.9902L57.0187 40.9016C57.7993 40.8382 58.1704 40.7879 58.5156 40.7245C58.5677 40.7238 58.6064 41.2811 58.6064 41.9779ZM53.9344 41.484C53.9596 41.5214 54.0611 41.9966 54.1377 42.5364H50.5438V42.5358C50.5438 42.3203 53.7554 41.3194 53.9344 41.484Z" fill="#FFC400"/>
	<path d="M77.2386 32.0003L78.2075 32.2472L78.2079 32.2461L77.2386 32.0003ZM77.268 31.675L76.9406 30.7301L76.2267 30.9774L76.2696 31.7316L77.268 31.675ZM75.4758 38.9156L75.0423 39.8169L76.1431 40.3465L76.4449 39.1627L75.4758 38.9156ZM74.3714 39.013L74.9216 39.8481L74.9308 39.8419L74.9398 39.8357L74.3714 39.013ZM73.3732 40.622L74.2659 41.0728L74.2688 41.0669L73.3732 40.622ZM72.6459 42.0261L71.7622 41.5582L71.7615 41.5594L72.6459 42.0261ZM72.618 42.079L73.4519 42.6309L73.4793 42.5896L73.5023 42.5457L72.618 42.079ZM70.6729 41.1667L69.9693 41.8773L69.99 41.8978L70.0118 41.917L70.6729 41.1667ZM71.2105 39.4182L70.2614 39.1029L70.259 39.1107L71.2105 39.4182ZM71.6966 37.4548L70.7513 37.7814L70.755 37.7918L70.7588 37.8021L71.6966 37.4548ZM69.1625 38.6837L70.1103 39.0026L70.111 39.0005L69.1625 38.6837ZM68.5869 40.2545L69.2344 41.0165L69.3078 40.9542L69.3679 40.879L68.5869 40.2545ZM66.8247 38.407L65.877 38.0879L66.8247 38.407ZM66.8595 38.3036L65.914 37.9784L65.9118 37.9845L66.8595 38.3036ZM66.7827 35.7062L66.3247 36.5953L66.3321 36.5989L66.7827 35.7062ZM64.8124 37.556L65.7585 37.8794L65.7607 37.873L64.8124 37.556ZM62.9719 38.9646L63.1129 37.9746L63.1115 37.9743L62.9719 38.9646ZM62.9713 38.9646L62.8306 39.9546L62.8317 39.9548L62.9713 38.9646ZM62.971 38.9645L63.1117 37.9745L63.1106 37.9743L62.971 38.9645ZM62.9707 38.9645L62.8299 39.9545L62.8311 39.9547L62.9707 38.9645ZM62.4193 38.886L62.2738 39.8754L62.2784 39.8761L62.4193 38.886ZM60.7812 38.6454H59.7812V39.5092L60.6359 39.6348L60.7812 38.6454ZM60.7812 37.429H61.7813L61.7812 37.419L60.7812 37.429ZM60.1796 35.6679L59.7065 36.549L59.7182 36.555L60.1796 35.6679ZM58.9771 35.8834L58.2735 35.1728L58.9771 35.8834ZM58.6059 38.531L58.8209 39.5075L59.6059 39.3348V38.531H58.6059ZM58.2607 38.6071L58.4119 39.5955L58.444 39.5905L58.4757 39.5837L58.2607 38.6071ZM55.5095 37.556L54.5237 37.7233L54.526 37.736L55.5095 37.556ZM54.6909 35.6427L54.3242 36.5731L54.3349 36.5773L54.3456 36.5812L54.6909 35.6427ZM53.7695 35.6435L53.4012 34.7136L53.3896 34.7183L53.7695 35.6435ZM53.3214 37.6451L54.3107 37.4997L54.3096 37.4911L54.3082 37.4827L53.3214 37.6451ZM53.5518 39.0261L54.5298 38.8172L54.5257 38.7982L54.5209 38.7794L53.5518 39.0261ZM53.0016 39.4314L53.189 40.4137L53.1988 40.4118L53.2085 40.4098L53.0016 39.4314ZM51.1207 39.9384L51.3978 40.8993L51.4055 40.8969L51.4134 40.8946L51.1207 39.9384ZM49.7645 40.2299L50.5616 39.6261L50.5187 39.5694L50.468 39.5193L49.7645 40.2299ZM49.2015 38.697L48.2511 39.0079L48.2537 39.0158L49.2015 38.697ZM48.4211 36.9484L49.1259 36.2391L49.1245 36.2378L48.4211 36.9484ZM46.6422 37.4555L45.6717 37.214L45.6698 37.222L45.6679 37.2302L46.6422 37.4555ZM47.1544 39.4321L48.1045 39.1206L48.1008 39.1091L48.0969 39.0979L47.1544 39.4321ZM47.2146 39.6159L46.2644 39.9272V39.9274L47.2146 39.6159ZM47.6918 41.1674L46.9883 40.4566L46.9883 40.4568L47.6918 41.1674ZM46.2455 41.8893L45.8078 40.9902L45.8019 40.993L46.2455 41.8893ZM44.938 42.5364V43.5364H45.172L45.3816 43.4327L44.938 42.5364ZM44.8131 42.5364L43.919 42.9844L44.1956 43.5364H44.8131V42.5364ZM44.0701 41.053L43.1726 41.4941L43.176 41.5009L44.0701 41.053ZM42.4153 38.8171L41.446 39.0633L41.6163 39.7336L42.3036 39.8109L42.4153 38.8171ZM40.6932 32.0358L39.7239 32.2816L39.724 32.2819L40.6932 32.0358ZM40.6639 31.7017L41.6618 31.7664L41.7129 30.9791L40.9593 30.7462L40.6639 31.7017ZM42.8554 31.2835L42.2268 30.5057L41.3568 31.2086L42.1525 31.9948L42.8554 31.2835ZM45.9297 34.3217L46.6328 33.6104H46.6326L45.9297 34.3217ZM52.2192 33.9044L51.4268 33.2947L52.2192 33.9044ZM57.2719 27.3382L58.0644 27.9481L58.6054 27.245L57.972 26.624L57.2719 27.3382ZM60.6217 27.2994L59.9053 26.6016L59.3024 27.2204L59.8271 27.9067L60.6217 27.2994ZM60.6259 27.3045L59.8088 27.881L59.8195 27.896L59.8304 27.9105L60.6259 27.3045ZM65.642 33.8889L66.4375 33.2829L65.642 33.8889ZM71.9282 34.3326L71.228 33.6187L71.2279 33.6188L71.9282 34.3326ZM75.0221 31.2982L75.7222 32.0121L76.5321 31.2178L75.6425 30.5139L75.0221 31.2982ZM67.7964 42.4928L67.8013 43.4928L70.5562 43.4792L68.434 41.7225L67.7964 42.4928ZM65.695 41.763L64.946 41.1003L64.695 41.3842V41.763H65.695ZM65.4393 42.5045L64.4895 42.1916L64.0547 43.5114L65.4442 43.5045L65.4393 42.5045ZM65.6481 41.8995L66.59 42.2351L66.5914 42.2309L65.6481 41.8995ZM65.6481 41.8993L64.7061 41.5637L64.7046 41.5678L65.6481 41.8993ZM63.1389 42.5159L63.1438 43.5159L63.8896 43.5121L64.0988 42.7962L63.1389 42.5159ZM63.2124 42.2701L62.2622 41.9585L62.2589 41.9685L62.2558 41.9787L63.2124 42.2701ZM60.7802 42.5275L59.7802 42.5196L59.7723 43.5326L60.7851 43.5275L60.7802 42.5275ZM63.4428 41.2691L64.2437 40.6704L64.172 40.5746L64.0799 40.4984L63.4428 41.2691ZM58.6185 42.5364V43.5364H59.667L59.6172 42.4891L58.6185 42.5364ZM56.3435 42.5364L55.3512 42.6599L55.4601 43.5364H56.3435V42.5364ZM56.2836 42.065L55.2916 42.1921V42.1926L56.2836 42.065ZM56.2833 42.0637L57.2752 41.9366L57.2751 41.9354L56.2833 42.0637ZM56.2831 42.0625L55.2914 42.19L55.2915 42.1908L56.2831 42.0625ZM56.2253 41.611L57.2174 41.485L57.2164 41.4766L57.2151 41.4683L56.2253 41.611ZM56.1359 40.9902L56.036 39.9952L54.9972 40.0995L55.1461 41.1329L56.1359 40.9902ZM57.0187 40.9016L56.9376 39.9049L56.9282 39.9057L56.9188 39.9066L57.0187 40.9016ZM58.5156 40.7245L58.503 39.7245L58.4183 39.7256L58.3349 39.741L58.5156 40.7245ZM54.1377 42.5364V43.5364H55.2896L55.1278 42.396L54.1377 42.5364ZM53.9344 41.484L54.7639 40.9254L54.6982 40.8278L54.6115 40.748L53.9344 41.484ZM50.5438 42.5364L49.5438 42.5392L49.5463 43.5364H50.5438V42.5364ZM50.5438 42.5358H49.5438V42.5385L50.5438 42.5358ZM78.2079 32.2461C78.2636 32.0264 78.2776 31.8139 78.2665 31.6183L76.2696 31.7316C76.2707 31.7509 76.2686 31.757 76.2693 31.7546L78.2079 32.2461ZM76.4449 39.1627L78.2075 32.2472L76.2696 31.7533L74.5068 38.6687L76.4449 39.1627ZM74.9398 39.8357C74.9472 39.8306 74.9697 39.8195 75.0044 39.8167C75.0202 39.8154 75.0333 39.8165 75.0419 39.818C75.0507 39.8196 75.0503 39.8208 75.0423 39.8169L75.9094 38.0145C75.2575 37.7008 74.4273 37.759 73.8032 38.1902L74.9398 39.8357ZM74.2688 41.0669C74.4475 40.7071 74.6434 40.3582 74.8078 40.094C74.8906 39.961 74.9587 39.8604 75.0073 39.795C75.0189 39.7794 75.028 39.7675 75.0349 39.7589C75.0421 39.75 75.0453 39.7464 75.0449 39.7469C75.0445 39.7473 75.0426 39.7494 75.0392 39.753C75.0358 39.7564 75.0301 39.7621 75.0221 39.7696C75.0095 39.7814 74.975 39.8129 74.9216 39.8481L73.8215 38.1777C73.6921 38.2629 73.5989 38.3636 73.5555 38.412C73.5003 38.4737 73.4483 38.5396 73.4022 38.6017C73.3092 38.7268 73.2094 38.8773 73.1098 39.0372C72.9095 39.3591 72.6828 39.7641 72.4776 40.1771L74.2688 41.0669ZM73.5297 42.4942C73.6215 42.3209 73.925 41.7478 74.2659 41.0728L72.4806 40.1712C72.1487 40.8283 71.8526 41.3875 71.7622 41.5582L73.5297 42.4942ZM73.5023 42.5457L73.5302 42.493L71.7615 41.5594L71.7336 41.6122L73.5023 42.5457ZM70.0118 41.917C70.0946 41.9899 70.1804 42.0403 70.1971 42.0504C70.2345 42.073 70.2742 42.0953 70.3108 42.1152C70.3851 42.1556 70.4761 42.2025 70.5732 42.2513C70.7691 42.3496 71.0145 42.468 71.2541 42.5805C71.4932 42.6928 71.7345 42.803 71.9214 42.8842C72.0127 42.9238 72.1028 42.9617 72.177 42.9899C72.21 43.0024 72.2635 43.0222 72.3213 43.0385C72.3439 43.0449 72.4106 43.0634 72.4948 43.0732C72.5321 43.0776 72.6295 43.0877 72.7519 43.0708C72.8288 43.0603 73.205 43.0039 73.4519 42.6309L71.7842 41.5271C72.0303 41.1553 72.405 41.0997 72.4794 41.0895C72.5992 41.073 72.6931 41.0829 72.7262 41.0868C72.8021 41.0956 72.8572 41.1115 72.8651 41.1138C72.8937 41.1218 72.9059 41.1273 72.8869 41.1201C72.8572 41.1088 72.8013 41.0858 72.718 41.0497C72.5559 40.9793 72.3341 40.8781 72.1045 40.7703C71.8754 40.6627 71.6466 40.5522 71.4709 40.464C71.3822 40.4194 71.3132 40.3835 71.2666 40.3582C71.2554 40.3521 71.2465 40.3473 71.2399 40.3436C71.2366 40.3417 71.2342 40.3403 71.2324 40.3393C71.2306 40.3382 71.2298 40.3377 71.2299 40.3377C71.23 40.3378 71.2315 40.3388 71.2342 40.3405C71.2367 40.3421 71.2416 40.3452 71.2481 40.3495C71.2546 40.3539 71.2902 40.3778 71.3341 40.4165L70.0118 41.917ZM70.259 39.1107C70.1046 39.5886 69.9654 40.0272 69.866 40.3498C69.8167 40.5102 69.7756 40.6469 69.747 40.747C69.7332 40.7953 69.7194 40.845 69.7088 40.8881C69.7042 40.9066 69.6955 40.9431 69.6883 40.9845C69.6854 41.001 69.677 41.0499 69.6738 41.1118C69.6724 41.1397 69.6697 41.2081 69.6809 41.2942C69.6842 41.3194 69.7123 41.6228 69.9693 41.8773L71.3766 40.4561C71.5217 40.5998 71.5869 40.7519 71.6155 40.8328C71.6464 40.9201 71.6586 40.9938 71.6642 41.037C71.6752 41.1219 71.6725 41.1888 71.6711 41.2149C71.6681 41.2729 71.6605 41.3166 71.6588 41.3265C71.6539 41.3545 71.6495 41.3718 71.6509 41.3657C71.6524 41.3598 71.6578 41.3388 71.6698 41.2968C71.6928 41.2164 71.7292 41.095 71.7774 40.9386C71.8732 40.6278 72.0093 40.1984 72.1621 39.7256L70.259 39.1107ZM70.7588 37.8021C70.7194 37.6958 70.7101 37.6102 70.7072 37.5777C70.7036 37.5382 70.7044 37.511 70.7047 37.5027C70.7052 37.4868 70.7061 37.4922 70.7006 37.5283C70.69 37.598 70.6666 37.7123 70.6269 37.8726C70.5485 38.1887 70.4222 38.619 70.2614 39.1029L72.1595 39.7335C72.3313 39.2166 72.4737 38.7345 72.5681 38.3539C72.6147 38.1658 72.6538 37.9856 72.6775 37.8306C72.6892 37.7543 72.7002 37.6647 72.7034 37.5732C72.7054 37.5181 72.7134 37.321 72.6343 37.1075L70.7588 37.8021ZM70.6343 37.6569C70.6445 37.6569 70.6596 37.6595 70.6803 37.6751C70.7019 37.6913 70.7315 37.724 70.7513 37.7814L72.6418 37.1283C72.3499 36.2833 71.575 35.6569 70.6343 35.6569V37.6569ZM70.111 39.0005C70.2495 38.5858 70.3611 38.2763 70.4591 38.0417C70.5592 37.8022 70.6284 37.6824 70.67 37.625C70.7025 37.58 70.6892 37.6132 70.6256 37.6429C70.5703 37.6687 70.5496 37.6569 70.6343 37.6569V35.6569C70.3865 35.6569 70.0858 35.6877 69.7802 35.8302C69.4662 35.9767 69.2321 36.2007 69.0502 36.4519C68.7299 36.8942 68.4854 37.5546 68.214 38.3669L70.111 39.0005ZM69.3679 40.879C69.4643 40.7584 69.5218 40.6238 69.5243 40.6182C69.5462 40.5706 69.5681 40.5181 69.5883 40.4678C69.6296 40.3652 69.679 40.2339 69.7325 40.0872C69.8403 39.7919 69.9744 39.4067 70.1103 39.0026L68.2147 38.3649C68.0822 38.7587 67.9539 39.127 67.8537 39.4016C67.8032 39.54 67.7624 39.648 67.7329 39.7211C67.7178 39.7587 67.7092 39.7783 67.7062 39.7847C67.7046 39.7883 67.7084 39.7799 67.7164 39.7647C67.7175 39.7628 67.7488 39.7014 67.806 39.6299L69.3679 40.879ZM65.4115 39.6463C65.4115 40.0187 65.6107 40.256 65.6711 40.3237C65.7518 40.4142 65.8319 40.4719 65.8714 40.4989C65.9553 40.5561 66.037 40.5954 66.0827 40.6165C66.1848 40.6635 66.3031 40.7074 66.4112 40.7449C66.6359 40.8228 66.9218 40.9088 67.1993 40.9855C67.4775 41.0624 67.7667 41.1355 68.0001 41.1855C68.1137 41.2097 68.2333 41.2328 68.3388 41.2465C68.388 41.2529 68.4638 41.2613 68.5466 41.2614C68.5865 41.2615 68.6588 41.2599 68.745 41.2448C68.7978 41.2356 69.0222 41.1968 69.2344 41.0165L67.9394 39.4924C68.054 39.395 68.1656 39.3452 68.2327 39.3203C68.3034 39.294 68.3632 39.2812 68.4008 39.2746C68.4739 39.2619 68.5295 39.2614 68.5491 39.2614C68.5916 39.2615 68.6132 39.2652 68.5968 39.2631C68.5712 39.2597 68.5131 39.2499 68.4185 39.2297C68.2357 39.1906 67.9867 39.1281 67.7322 39.0578C67.4771 38.9873 67.2358 38.9141 67.0665 38.8554C66.9777 38.8245 66.9323 38.8059 66.92 38.8002C66.9085 38.7949 66.9451 38.8103 66.9985 38.8467C67.0227 38.8632 67.0912 38.9111 67.164 38.9928C67.202 39.0354 67.2581 39.1059 67.3075 39.2046C67.3574 39.3045 67.4115 39.4561 67.4115 39.6463H65.4115ZM65.877 38.0879C65.7634 38.4253 65.6597 38.7333 65.5844 38.9583C65.5469 39.0706 65.5158 39.1641 65.4938 39.2311C65.483 39.264 65.4735 39.2937 65.4661 39.3171C65.4627 39.3279 65.458 39.3429 65.4535 39.3582C65.4516 39.3649 65.4473 39.3798 65.4426 39.3981C65.4405 39.4065 65.4359 39.425 65.4312 39.4484C65.4289 39.4601 65.4251 39.48 65.4216 39.5051C65.4189 39.5237 65.4115 39.5773 65.4115 39.6463H67.4115C67.4115 39.715 67.4043 39.7683 67.4017 39.7866C67.3982 39.8113 67.3943 39.831 67.392 39.8422C67.3875 39.8648 67.3833 39.8819 67.3815 39.889C67.3776 39.9044 67.3744 39.9156 67.3738 39.9174C67.3722 39.923 67.3718 39.9241 67.3739 39.9174C67.3776 39.9057 67.3842 39.8851 67.3944 39.854C67.4144 39.7931 67.4439 39.7043 67.4813 39.5927C67.5557 39.37 67.6586 39.0643 67.7725 38.7261L65.877 38.0879ZM65.9118 37.9845L65.877 38.0879L67.7725 38.7261L67.8072 38.6227L65.9118 37.9845ZM66.3321 36.5989C66.4297 36.6481 66.4016 36.6529 66.3577 36.5923C66.302 36.5155 66.3052 36.455 66.3063 36.4927C66.3081 36.5518 66.2972 36.6869 66.2316 36.9514C66.1676 37.2091 66.0645 37.5407 65.914 37.9784L67.8052 38.6289C68.1006 37.7699 68.3229 37.0313 68.3055 36.4344C68.2954 36.0888 68.2067 35.7352 67.977 35.4184C67.7591 35.1178 67.475 34.9355 67.2334 34.8136L66.3321 36.5989ZM65.7607 37.873C65.9231 37.3873 66.0565 37.0365 66.1745 36.7853C66.2326 36.6615 66.2812 36.5744 66.3202 36.5145C66.3594 36.4542 66.3806 36.4342 66.3799 36.4349C66.3515 36.4615 66.2569 36.5149 66.1485 36.5121C66.0993 36.5108 66.1366 36.4983 66.3248 36.5953L67.2407 34.8172C66.9618 34.6735 66.6025 34.5233 66.2002 34.5129C65.7386 34.501 65.3345 34.674 65.0133 34.9746C64.7294 35.2402 64.5268 35.5892 64.3644 35.9349C64.1965 36.2922 64.034 36.7299 63.8639 37.2388L65.7607 37.873ZM64.1594 40.1267C64.5759 40.1267 64.8293 39.8749 64.859 39.847C64.9366 39.774 64.9884 39.703 65.0128 39.6681C65.0662 39.592 65.1083 39.5141 65.1359 39.4606C65.1956 39.3446 65.2598 39.1997 65.3228 39.048C65.4516 38.738 65.6064 38.3244 65.7585 37.8794L63.8661 37.2325C63.7238 37.6489 63.584 38.0205 63.4759 38.2806C63.4206 38.4138 63.3808 38.5002 63.3582 38.5441C63.3445 38.5706 63.3507 38.5549 63.3745 38.5209C63.3842 38.5071 63.4228 38.4521 63.489 38.3899C63.5227 38.3582 63.5859 38.3032 63.6777 38.2519C63.7659 38.2026 63.9339 38.1267 64.1594 38.1267V40.1267ZM62.8307 39.9546C63.1517 40.0004 63.4385 40.0412 63.6511 40.0706C63.7571 40.0853 63.8482 40.0976 63.9174 40.1063C63.9438 40.1097 64.0665 40.1267 64.1594 40.1267V38.1267C64.2166 38.1267 64.2589 38.1326 64.2269 38.1292C64.2165 38.1281 64.1978 38.1259 64.1686 38.1222C64.1111 38.1149 64.0291 38.1039 63.925 38.0895C63.7174 38.0608 63.4356 38.0206 63.1129 37.9746L62.8307 39.9546ZM62.8317 39.9548H62.8321L63.1115 37.9743H63.111L62.8317 39.9548ZM62.8302 39.9545L62.8306 39.9546L63.1121 37.9745H63.1117L62.8302 39.9545ZM62.8311 39.9547H62.8313L63.1106 37.9743H63.1103L62.8311 39.9547ZM62.2784 39.8761L62.8299 39.9545L63.1115 37.9743L62.5601 37.896L62.2784 39.8761ZM60.6359 39.6348L62.2738 39.8754L62.5645 37.8967L60.9267 37.656L60.6359 39.6348ZM59.7812 37.429V38.6454H61.7812V37.429H59.7812ZM59.7182 36.555C59.8121 36.6038 59.81 36.6133 59.7844 36.588C59.7688 36.5726 59.7523 36.5524 59.7385 36.5298C59.7252 36.5082 59.7207 36.4945 59.7212 36.4962C59.7254 36.5085 59.7434 36.5714 59.7575 36.7401C59.7712 36.9053 59.7781 37.1265 59.7813 37.4391L61.7812 37.419C61.7752 36.8266 61.7609 36.2805 61.6143 35.8506C61.5269 35.5944 61.3912 35.3644 61.1916 35.1668C61.0072 34.9842 60.8034 34.8652 60.6412 34.7808L59.7182 36.555ZM59.6806 36.5941C59.7375 36.5377 59.771 36.5154 59.7812 36.5093C59.7856 36.5067 59.7833 36.5084 59.7747 36.5117C59.7658 36.5152 59.7524 36.5195 59.7351 36.5226C59.7178 36.5257 59.7004 36.527 59.6842 36.5266C59.6683 36.5262 59.6569 36.5244 59.6513 36.5232C59.6414 36.5211 59.6581 36.5229 59.7066 36.5489L60.6529 34.787C60.2978 34.5963 59.8652 34.4676 59.3831 34.5538C58.9153 34.6374 58.552 34.8971 58.2735 35.1728L59.6806 36.5941ZM59.6059 37.3907C59.6059 37.1139 59.6067 36.927 59.6125 36.7867C59.6153 36.7188 59.619 36.672 59.6226 36.6395C59.6262 36.6073 59.629 36.5965 59.6283 36.5992C59.6229 36.6212 59.6061 36.6619 59.5836 36.6936C59.5786 36.7008 59.5876 36.6862 59.6806 36.5941L58.2735 35.1728C58.0805 35.3639 57.8048 35.6367 57.6856 36.1241C57.6017 36.4672 57.6059 36.906 57.6059 37.3907H59.6059ZM59.6059 38.531V37.3907H57.6059V38.531H59.6059ZM58.4757 39.5837L58.8209 39.5075L58.3908 37.5544L58.0456 37.6305L58.4757 39.5837ZM55.8547 39.8226C56.0529 39.8226 56.6294 39.7751 57.1288 39.7298C57.6422 39.6833 58.2083 39.6267 58.4119 39.5955L58.1093 37.6185C57.9803 37.6382 57.4843 37.6893 56.9484 37.7379C56.6891 37.7614 56.4333 37.7832 56.2267 37.799C56.1232 37.8068 56.0348 37.813 55.9655 37.8172C55.9309 37.8193 55.9031 37.8207 55.8821 37.8216C55.8591 37.8226 55.8517 37.8226 55.8547 37.8226V39.8226ZM54.526 37.736C54.5931 38.1029 54.6691 38.4484 54.7409 38.7127C54.7755 38.8401 54.816 38.9745 54.8616 39.09C54.8821 39.1417 54.92 39.2328 54.9786 39.3265C55.0063 39.3708 55.0654 39.4597 55.1613 39.5487C55.2407 39.6225 55.48 39.8226 55.8547 39.8226V37.8226C56.2215 37.8226 56.4522 38.0182 56.5223 38.0833C56.6089 38.1637 56.6578 38.2395 56.6749 38.2668C56.7123 38.3267 56.7268 38.3678 56.7219 38.3552C56.7167 38.3421 56.6988 38.2905 56.6711 38.1884C56.6181 37.9936 56.5536 37.7058 56.4932 37.3759L54.526 37.736ZM54.3456 36.5812C54.3711 36.5906 54.3312 36.5793 54.2826 36.5329C54.2367 36.489 54.2341 36.4622 54.2565 36.5149C54.2821 36.5751 54.3193 36.6885 54.3671 36.8981C54.4139 37.1039 54.4638 37.37 54.5237 37.7233L56.4954 37.3885C56.3781 36.6974 56.2699 36.1394 56.0974 35.7332C56.0014 35.5072 55.8677 35.2811 55.6642 35.0867C55.4582 34.8899 55.2344 34.7772 55.0363 34.7043L54.3456 36.5812ZM54.1376 36.5732C54.2164 36.5421 54.2535 36.5308 54.2691 36.5268C54.2788 36.5243 54.2621 36.5293 54.2309 36.5294C54.1997 36.5294 54.1829 36.5244 54.1926 36.5268C54.2082 36.5308 54.2454 36.5421 54.3242 36.5731L55.0578 34.7125C54.839 34.6262 54.5596 34.5292 54.2295 34.5294C53.8994 34.5296 53.6203 34.6269 53.4012 34.7136L54.1376 36.5732ZM54.3082 37.4827C54.2097 36.8839 54.2205 36.5992 54.2474 36.4801C54.2567 36.4389 54.2585 36.4629 54.2229 36.5064C54.1849 36.5527 54.1471 36.5695 54.1493 36.5685L53.3896 34.7183C53.1294 34.8252 52.8789 34.9909 52.6758 35.2388C52.475 35.4838 52.3592 35.762 52.2966 36.0391C52.1796 36.5566 52.229 37.1649 52.3348 37.8076L54.3082 37.4827ZM54.5209 38.7794C54.522 38.7834 54.5198 38.7753 54.5142 38.7481C54.5092 38.7236 54.5029 38.6911 54.4954 38.6505C54.4805 38.5693 54.4624 38.4646 54.4422 38.3428C54.4018 38.0996 54.3547 37.7987 54.3107 37.4997L52.3321 37.7908C52.4181 38.3753 52.5281 39.0584 52.5827 39.2729L54.5209 38.7794ZM53.2085 40.4098C53.3462 40.3806 53.487 40.3488 53.6119 40.3109C53.7232 40.2771 53.914 40.2127 54.0938 40.0793C54.3196 39.9115 54.4922 39.662 54.5476 39.35C54.5908 39.107 54.5468 38.897 54.5298 38.8172L52.5738 39.2351C52.5825 39.2757 52.5497 39.1623 52.5785 39C52.5956 38.9036 52.6328 38.7959 52.6995 38.6916C52.7648 38.5894 52.8403 38.5188 52.9015 38.4734C53.0044 38.397 53.0816 38.3818 53.0312 38.3971C52.9945 38.4082 52.9257 38.4254 52.7947 38.4531L53.2085 40.4098ZM51.4134 40.8946C52.1138 40.6802 52.9139 40.4662 53.189 40.4137L52.8141 38.4491C52.4241 38.5236 51.535 38.7657 50.8279 38.9823L51.4134 40.8946ZM48.9674 40.8338C49.1814 41.1163 49.4664 41.19 49.5352 41.2073C49.6413 41.2338 49.7311 41.2384 49.7766 41.2397C49.8732 41.2424 49.9612 41.2334 50.0159 41.2267C50.1354 41.2119 50.2728 41.1853 50.4062 41.1561C50.6811 41.0961 51.0331 41.0045 51.3978 40.8993L50.8435 38.9776C50.5044 39.0754 50.1973 39.1546 49.9795 39.2022C49.8667 39.2268 49.7994 39.2381 49.771 39.2416C49.7518 39.244 49.78 39.2391 49.833 39.2406C49.8567 39.2413 49.9286 39.244 50.0211 39.2672C50.0691 39.2792 50.146 39.3024 50.2337 39.3483C50.3203 39.3936 50.4493 39.4779 50.5616 39.6261L48.9674 40.8338ZM48.2537 39.0158C48.3889 39.4177 48.5197 39.797 48.6245 40.0852C48.6764 40.228 48.7252 40.3575 48.7668 40.4593C48.787 40.5088 48.8106 40.5641 48.8354 40.6157C48.8475 40.6409 48.8658 40.6774 48.889 40.7172C48.9005 40.7368 48.9588 40.8395 49.061 40.9406L50.468 39.5193C50.5637 39.6141 50.6141 39.7054 50.6163 39.709C50.6302 39.7328 50.6376 39.7487 50.6377 39.7488C50.6383 39.7501 50.6324 39.7374 50.6184 39.7031C50.5915 39.6373 50.553 39.5364 50.5042 39.402C50.4075 39.1359 50.2826 38.7741 50.1493 38.3781L48.2537 39.0158ZM47.7161 37.6578C47.6598 37.6018 47.6588 37.5804 47.709 37.669C47.7481 37.7378 47.7995 37.8397 47.8601 37.975C47.9807 38.2444 48.1188 38.6035 48.2511 39.0079L50.1521 38.3861C50.0026 37.929 49.8399 37.5028 49.6854 37.1576C49.6084 36.9858 49.5287 36.8232 49.4487 36.6821C49.3798 36.5607 49.2717 36.3839 49.1259 36.2391L47.7161 37.6578ZM47.6125 37.697C47.6128 37.6961 47.6119 37.6958 47.6168 37.6912C47.6243 37.6839 47.6411 37.6722 47.6666 37.6649C47.6922 37.6576 47.7112 37.6591 47.7189 37.6608C47.722 37.6615 47.7221 37.6619 47.7203 37.6609C47.7181 37.6598 47.717 37.6585 47.7174 37.659L49.1245 36.2378C48.0022 35.1266 46.0485 35.7 45.6717 37.214L47.6125 37.697ZM48.0969 39.0979C47.9324 38.6338 47.8043 38.2102 47.7234 37.8927C47.6826 37.7324 47.657 37.6123 47.6442 37.5343C47.6377 37.4945 47.6368 37.4795 47.637 37.4831C47.6372 37.4854 47.6381 37.5014 47.6373 37.5272C47.6366 37.5486 47.6339 37.6056 47.6165 37.6808L45.6679 37.2302C45.629 37.3986 45.6372 37.5499 45.6412 37.6122C45.6467 37.6969 45.658 37.7817 45.6707 37.8587C45.6963 38.0143 45.7364 38.1951 45.7852 38.3864C45.8834 38.7722 46.0304 39.2545 46.2118 39.7662L48.0969 39.0979ZM48.1648 39.3044L48.1045 39.1206L46.204 39.7435L46.2644 39.9272L48.1648 39.3044ZM48.3954 41.878C48.645 41.631 48.6785 41.3402 48.6844 41.2962C48.6969 41.2031 48.6937 41.1283 48.6917 41.0953C48.6874 41.0236 48.6763 40.9645 48.6713 40.9389C48.6597 40.8788 48.644 40.8182 48.6314 40.7719C48.6044 40.6727 48.5653 40.5444 48.521 40.4032C48.4313 40.1173 48.3037 39.7281 48.1648 39.3043L46.2644 39.9274C46.405 40.3563 46.5279 40.7311 46.6128 41.0019C46.6559 41.1391 46.6852 41.2373 46.7017 41.298C46.7109 41.3317 46.7109 41.3342 46.7079 41.319C46.7073 41.3157 46.6989 41.2745 46.6953 41.2157C46.6937 41.189 46.6903 41.1194 46.7023 41.0303C46.7084 40.9846 46.7216 40.9092 46.7542 40.8206C46.7854 40.7358 46.8512 40.5924 46.9883 40.4566L48.3954 41.878ZM46.6833 42.7882C47.0768 42.5966 47.4385 42.4178 47.7043 42.2847C47.8369 42.2183 47.9473 42.1624 48.0266 42.1217C48.0657 42.1017 48.1003 42.0838 48.1274 42.0694C48.1401 42.0627 48.1565 42.0538 48.1728 42.0447C48.1801 42.0406 48.195 42.0321 48.2124 42.0214C48.2207 42.0163 48.2372 42.006 48.2572 41.9923C48.2622 41.9889 48.3269 41.9459 48.3955 41.878L46.9883 40.4568C47.0565 40.3893 47.1203 40.3468 47.1242 40.3442C47.1432 40.3311 47.1584 40.3217 47.1651 40.3176C47.1792 40.3089 47.1896 40.303 47.1913 40.3021C47.1962 40.2993 47.1967 40.2992 47.1888 40.3034C47.1746 40.3109 47.15 40.3237 47.1139 40.3422C47.0427 40.3787 46.9387 40.4313 46.8089 40.4963C46.5499 40.626 46.1949 40.8017 45.8078 40.9902L46.6833 42.7882ZM45.3816 43.4327L46.6891 42.7854L45.8019 40.993L44.4944 41.6403L45.3816 43.4327ZM44.8131 43.5364H44.938V41.5364H44.8131V43.5364ZM43.176 41.5009L43.919 42.9844L45.7072 42.0886L44.9642 40.6052L43.176 41.5009ZM42.3036 39.8109C42.2771 39.8079 42.2303 39.7934 42.1958 39.77C42.1786 39.7583 42.2113 39.7752 42.2961 39.8903C42.4794 40.139 42.7344 40.6026 43.1726 41.4941L44.9675 40.6119C44.5426 39.7475 44.2132 39.1204 43.9062 38.7038C43.5636 38.2389 43.1427 37.8926 42.527 37.8234L42.3036 39.8109ZM39.724 32.2819L41.446 39.0633L43.3845 38.5709L41.6625 31.7897L39.724 32.2819ZM39.666 31.637C39.6528 31.8405 39.6674 32.0585 39.7239 32.2816L41.6627 31.79C41.6626 31.7897 41.6621 31.7881 41.6618 31.7845C41.6615 31.7809 41.6613 31.775 41.6618 31.7664L39.666 31.637ZM38.0229 29.5088C38.0229 30.9992 39.0235 32.2414 40.3687 32.6571L40.9593 30.7462C40.4045 30.5748 40.0229 30.0733 40.0229 29.5088H38.0229ZM41.3671 26.2098C39.5406 26.2098 38.0229 27.6706 38.0229 29.5088H40.0229C40.0229 28.8115 40.6084 28.2098 41.3671 28.2098V26.2098ZM44.711 29.5088C44.711 27.6706 43.1936 26.2098 41.3671 26.2098V28.2098C42.1257 28.2098 42.711 28.8115 42.711 29.5088H44.711ZM43.4838 32.0613C44.2267 31.461 44.711 30.5427 44.711 29.5088H42.711C42.711 29.9028 42.5283 30.262 42.2268 30.5057L43.4838 32.0613ZM46.6326 33.6104L43.5583 30.5722L42.1525 31.9948L45.2269 35.033L46.6326 33.6104ZM48.8881 34.5299C48.0452 34.5299 47.2205 34.1913 46.6328 33.6104L45.2268 35.0329C46.1931 35.988 47.5248 36.5299 48.8881 36.5299V34.5299ZM51.4268 33.2947C50.836 34.0625 49.8871 34.5299 48.8881 34.5299V36.5299C50.4978 36.5299 52.0363 35.7822 53.0118 34.5143L51.4268 33.2947ZM56.4795 26.7284L51.4268 33.2947L53.0117 34.5143L58.0644 27.9481L56.4795 26.7284ZM55.5846 25.7136C55.5846 26.6304 55.9661 27.4586 56.5719 28.0524L57.972 26.624C57.7289 26.3858 57.5846 26.0643 57.5846 25.7136H55.5846ZM58.9287 22.4146C57.1022 22.4146 55.5846 23.8754 55.5846 25.7136H57.5846C57.5846 25.0163 58.17 24.4146 58.9287 24.4146V22.4146ZM62.2728 25.7136C62.2728 23.8754 60.7551 22.4146 58.9287 22.4146V24.4146C59.6873 24.4146 60.2728 25.0163 60.2728 25.7136H62.2728ZM61.3379 27.9972C61.9106 27.4093 62.2728 26.6051 62.2728 25.7136H60.2728C60.2728 26.0517 60.1372 26.3636 59.9053 26.6016L61.3379 27.9972ZM61.4431 26.728C61.4223 26.6985 61.4034 26.6751 61.3899 26.6591C61.3771 26.6439 61.3664 26.6322 61.3645 26.6301C61.3639 26.6294 61.3633 26.6288 61.3634 26.6289L61.3635 26.629C61.3636 26.6291 61.3637 26.6292 61.3638 26.6293C61.364 26.6295 61.3643 26.6298 61.3647 26.6302C61.3661 26.6318 61.3693 26.6355 61.3736 26.6404C61.382 26.6499 61.3977 26.6681 61.416 26.692L59.8271 27.9067C59.8461 27.9316 59.8626 27.9506 59.8717 27.961C59.8764 27.9662 59.88 27.9704 59.8817 27.9723C59.8826 27.9733 59.8834 27.9741 59.8835 27.9742C59.8838 27.9746 59.8834 27.9741 59.883 27.9737C59.8822 27.9728 59.8793 27.9696 59.8755 27.9654C59.8717 27.961 59.8664 27.9548 59.86 27.9472C59.8472 27.9321 59.829 27.9096 59.8088 27.881L61.4431 26.728ZM66.4375 33.2829L61.4214 26.6985L59.8304 27.9105L64.8465 34.4949L66.4375 33.2829ZM68.981 34.53C67.9806 34.53 67.0284 34.0586 66.4375 33.2829L64.8465 34.4949C65.8212 35.7744 67.3654 36.53 68.981 36.53V34.53ZM71.2279 33.6188C70.6298 34.2055 69.8353 34.53 68.981 34.53V36.53C70.3532 36.53 71.6524 36.0041 72.6286 35.0465L71.2279 33.6188ZM74.3218 30.5843L71.228 33.6187L72.6285 35.0465L75.7222 32.0121L74.3218 30.5843ZM73.1464 29.5088C73.1464 30.5565 73.6442 31.4833 74.4017 32.0825L75.6425 30.5139C75.3335 30.2694 75.1464 29.9065 75.1464 29.5088H73.1464ZM76.4904 26.2098C74.664 26.2098 73.1464 27.6706 73.1464 29.5088H75.1464C75.1464 28.8115 75.7318 28.2098 76.4904 28.2098V26.2098ZM79.8344 29.5088C79.8344 27.6706 78.3169 26.2098 76.4904 26.2098V28.2098C77.2491 28.2098 77.8344 28.8115 77.8344 29.5088H79.8344ZM77.5954 32.6198C78.8834 32.1736 79.8344 30.9611 79.8344 29.5088H77.8344C77.8344 30.0565 77.4741 30.5452 76.9406 30.7301L77.5954 32.6198ZM68.434 41.7225C68.3071 41.6175 68.1592 41.5431 68.0896 41.5086C67.9936 41.461 67.8842 41.4124 67.7733 41.3657C67.5499 41.2718 67.2828 41.1703 67.0252 41.0797C66.7695 40.9898 66.5048 40.9041 66.2881 40.8456C66.1842 40.8176 66.0641 40.7882 65.9512 40.771C65.8995 40.7631 65.8082 40.7511 65.7033 40.7539C65.6516 40.7553 65.559 40.7609 65.4498 40.7901C65.3549 40.8154 65.1342 40.8876 64.946 41.1003L66.444 42.4256C66.2611 42.6324 66.049 42.7002 65.9657 42.7224C65.8683 42.7484 65.7907 42.7523 65.7568 42.7532C65.7174 42.7543 65.6883 42.7521 65.6749 42.7509C65.6601 42.7496 65.6511 42.7484 65.6493 42.7481C65.6467 42.7477 65.6556 42.749 65.6791 42.7544C65.7013 42.7594 65.7304 42.7667 65.7668 42.7765C65.9171 42.8171 66.1306 42.885 66.3619 42.9664C66.5911 43.047 66.8197 43.1343 66.9981 43.2093C67.0881 43.2471 67.1562 43.278 67.2014 43.3004C67.2729 43.3359 67.2298 43.322 67.1587 43.2631L68.434 41.7225ZM65.4442 43.5045L67.8013 43.4928L67.7914 41.4928L65.4342 41.5045L65.4442 43.5045ZM64.7061 41.5639C64.6584 41.6977 64.5768 41.9266 64.4895 42.1916L66.389 42.8174C66.4681 42.5772 66.5426 42.3679 66.59 42.2351L64.7061 41.5639ZM64.7046 41.5678L64.7045 41.5681L66.5914 42.2309L66.5915 42.2308L64.7046 41.5678ZM64.695 41.763C64.695 41.724 64.6974 41.6918 64.6994 41.6702C64.7016 41.6477 64.7041 41.6287 64.7062 41.6146C64.7104 41.5872 64.7147 41.5653 64.7175 41.5524C64.7231 41.5268 64.7284 41.5072 64.7307 41.4991C64.7355 41.4817 64.7395 41.4695 64.74 41.4681C64.7415 41.4632 64.7415 41.4634 64.738 41.4736C64.7315 41.4923 64.7214 41.5209 64.7062 41.5637L66.59 42.235C66.6041 42.1955 66.6174 42.1582 66.6271 42.1304C66.6316 42.1174 66.6378 42.0992 66.6437 42.0812C66.6462 42.0733 66.6518 42.0557 66.6577 42.0344C66.6605 42.0243 66.6663 42.0031 66.6721 41.9762C66.6728 41.9731 66.695 41.8804 66.695 41.763H64.695ZM64.0988 42.7962C64.1192 42.7264 64.1424 42.6488 64.169 42.5614L62.2558 41.9787C62.228 42.0701 62.2023 42.1557 62.179 42.2355L64.0988 42.7962ZM60.7851 43.5275L63.1438 43.5159L63.1339 41.5159L60.7752 41.5275L60.7851 43.5275ZM59.7812 42.1682C59.7812 42.2991 59.781 42.4153 59.7802 42.5196L61.7802 42.5354C61.781 42.4236 61.7812 42.3014 61.7812 42.1682H59.7812ZM60.9475 39.8382C60.3217 39.8382 60.0356 40.3186 59.954 40.5018C59.8691 40.6923 59.839 40.89 59.8237 41.0168C59.7898 41.2956 59.7812 41.6856 59.7812 42.1682H61.7812C61.7812 41.6752 61.7917 41.4 61.809 41.2577C61.8192 41.174 61.8226 41.2222 61.7808 41.3158C61.7579 41.3673 61.6959 41.4913 61.5604 41.6093C61.4036 41.7459 61.1883 41.8382 60.9475 41.8382V39.8382ZM64.0799 40.4984C63.9514 40.3922 63.8231 40.3429 63.8093 40.3372C63.7665 40.3196 63.7288 40.3072 63.7053 40.2999C63.6566 40.2846 63.607 40.2716 63.5662 40.2616C63.4815 40.2406 63.3766 40.218 63.2655 40.1953C63.0402 40.1493 62.7505 40.0956 62.4576 40.0447C62.1644 39.9937 61.8602 39.9442 61.6059 39.9071C61.3878 39.8752 61.1159 39.8382 60.9475 39.8382V41.8382C60.939 41.8382 61.0495 41.8471 61.3172 41.8861C61.5488 41.9199 61.8341 41.9663 62.1151 42.0151C62.3965 42.064 62.6658 42.1141 62.8656 42.1549C62.967 42.1756 63.0412 42.192 63.0872 42.2033C63.1118 42.2094 63.1153 42.2109 63.1059 42.2079C63.1021 42.2067 63.0807 42.1999 63.0504 42.1875C63.049 42.1869 62.9294 42.1422 62.8057 42.04L64.0799 40.4984ZM64.1626 42.5816C64.2526 42.3074 64.3287 42.04 64.3787 41.823C64.4029 41.7178 64.4262 41.6027 64.4391 41.4953C64.4453 41.4445 64.4529 41.3658 64.4503 41.2769C64.449 41.2326 64.4445 41.1609 64.4267 41.0765C64.4119 41.0063 64.3706 40.8402 64.2437 40.6704L62.6419 41.868C62.5766 41.7807 62.5378 41.6984 62.5148 41.6394C62.4912 41.5793 62.4778 41.5272 62.4699 41.4899C62.4547 41.4178 62.4518 41.3615 62.4511 41.3352C62.4502 41.3053 62.4514 41.2836 62.452 41.2736C62.4527 41.2626 62.4534 41.2564 62.4534 41.2561C62.4535 41.2554 62.4533 41.2579 62.4523 41.264C62.4514 41.27 62.4498 41.2783 62.4478 41.2891C62.4437 41.3108 62.4378 41.3392 62.4297 41.3741C62.3966 41.5181 62.3385 41.7257 62.2622 41.9585L64.1626 42.5816ZM59.6172 42.4891C59.6101 42.3385 59.6064 42.1688 59.6064 41.9779H57.6064C57.6064 42.1935 57.6106 42.3954 57.6195 42.5839L59.6172 42.4891ZM56.3435 43.5364H58.6185V41.5364H56.3435V43.5364ZM55.2916 42.1926C55.3146 42.3717 55.3345 42.5254 55.3512 42.6599L57.3358 42.4132C57.3185 42.2737 57.2982 42.1154 57.2753 41.9375L55.2916 42.1926ZM55.2915 42.1907L55.2916 42.1921L57.2753 41.938L57.2752 41.9366L55.2915 42.1907ZM55.2915 42.1908L55.2915 42.1919L57.2751 41.9354L57.2749 41.9342L55.2915 42.1908ZM55.2333 41.7369C55.2543 41.9025 55.2738 42.0532 55.2914 42.19L57.2751 41.935C57.2575 41.7981 57.2382 41.6488 57.2174 41.485L55.2333 41.7369ZM55.1461 41.1329L55.2356 41.7536L57.2151 41.4683L57.1256 40.8475L55.1461 41.1329ZM56.9188 39.9066L56.036 39.9952L56.2357 41.9851L57.1185 41.8965L56.9188 39.9066ZM58.3349 39.741C58.0349 39.7961 57.6998 39.843 56.9376 39.9049L57.0997 41.8983C57.8986 41.8333 58.306 41.7798 58.6964 41.708L58.3349 39.741ZM59.6064 41.9779C59.6064 41.6145 59.5964 41.2757 59.578 41.0182C59.5692 40.8943 59.5566 40.7636 59.537 40.6508C59.5286 40.6023 59.5109 40.5077 59.4738 40.4062C59.4575 40.3617 59.4148 40.2507 59.3269 40.1329C59.2573 40.0395 58.9896 39.7184 58.503 39.7245L58.5284 41.7243C58.0482 41.7304 57.7871 41.4136 57.7238 41.3287C57.6421 41.2192 57.6055 41.1209 57.5953 41.0928C57.5702 41.0244 57.5641 40.9788 57.5667 40.9933C57.569 41.0065 57.5758 41.0584 57.5831 41.1609C57.5971 41.356 57.6064 41.6444 57.6064 41.9779H59.6064ZM55.1278 42.396C55.0868 42.1073 55.0391 41.8351 54.9974 41.6262C54.9767 41.5226 54.9563 41.4277 54.9374 41.3506C54.9283 41.3133 54.9171 41.2702 54.9044 41.2281C54.8982 41.2078 54.8884 41.1769 54.8752 41.142C54.8701 41.1286 54.8348 41.0307 54.7639 40.9254L53.1049 42.0426C53.0642 41.9821 53.0398 41.9309 53.0298 41.9094C53.0177 41.8833 53.0093 41.8622 53.0048 41.8502C52.9958 41.8266 52.991 41.8103 52.9902 41.8076C52.9881 41.8008 52.9896 41.805 52.9948 41.826C53.0044 41.8654 53.0187 41.9302 53.0361 42.0176C53.0706 42.1906 53.112 42.4259 53.1476 42.677L55.1278 42.396ZM50.5438 43.5364H54.1377V41.5364H50.5438V43.5364ZM49.5438 42.5385V42.5392L51.5438 42.5339V42.5331L49.5438 42.5385ZM54.6115 40.748C54.434 40.5848 54.2456 40.526 54.1591 40.5037C54.0593 40.4779 53.9724 40.4704 53.9165 40.4676C53.8043 40.462 53.6991 40.4709 53.6235 40.4795C53.4651 40.4977 53.2839 40.5334 53.1077 40.5734C52.7475 40.6552 52.3026 40.7795 51.875 40.9125C51.4477 41.0453 51.0137 41.1941 50.6769 41.3288C50.513 41.3944 50.3452 41.4673 50.2065 41.5423C50.1419 41.5772 50.0442 41.6334 49.9496 41.7102C49.9032 41.7479 49.8245 41.8167 49.7495 41.9179C49.683 42.0077 49.5438 42.2242 49.5438 42.5358H51.5438C51.5438 42.8339 51.4107 43.0353 51.3564 43.1087C51.2935 43.1935 51.2328 43.2446 51.21 43.2631C51.1624 43.3017 51.134 43.3144 51.1576 43.3016C51.1952 43.2813 51.2798 43.2419 51.4198 43.1859C51.6908 43.0775 52.0708 42.946 52.4688 42.8223C52.8665 42.6986 53.2581 42.5902 53.5504 42.5238C53.7005 42.4898 53.7996 42.4725 53.8512 42.4666C53.8805 42.4633 53.8627 42.4673 53.8172 42.465C53.7947 42.4639 53.7358 42.4601 53.6587 42.4401C53.5948 42.4237 53.4238 42.373 53.2575 42.22L54.6115 40.748Z" fill="#151B26"/>
	</g>
	</svg>
	