<?xml version="1.0" encoding="utf-8"?>
<!-- Generator: Adobe Illustrator 19.0.1, SVG Export Plug-In . SVG Version: 6.00 Build 0)  -->
<!DOCTYPE svg PUBLIC "-//W3C//DTD SVG 1.1//EN" "http://www.w3.org/Graphics/SVG/1.1/DTD/svg11.dtd">
<svg version="1.1" id="Calque_1" xmlns="http://www.w3.org/2000/svg" xmlns:xlink="http://www.w3.org/1999/xlink" x="0px" y="0px"
	 viewBox="0 0 30.2 36.4" enable-background="new 0 0 30.2 36.4" xml:space="preserve">
<g>
	<g>
		<path fill="#EEACA4" d="M0.5,0.5h29.2v11.2c0,10.1-5.6,19.5-14.6,24.2c-9-4.7-14.6-14-14.6-24.2V0.5z"/>
		<path fill="#DD6B54" d="M15.1,36.4c-0.1,0-0.2,0-0.2-0.1C5.7,31.5,0,22,0,11.7V0.5C0,0.2,0.2,0,0.5,0h29.2c0.3,0,0.5,0.2,0.5,0.5
			v11.2c0,10.4-5.7,19.8-14.9,24.6C15.3,36.3,15.2,36.4,15.1,36.4z M1,1v10.7c0,9.9,5.4,18.9,14.1,23.6c8.7-4.7,14.1-13.7,14.1-23.6
			V1H1z"/>
	</g>
	<g>
		<line fill="#EEACA4" x1="0.4" y1="5.4" x2="29.7" y2="5.4"/>
		<rect x="0.4" y="4.9" fill="#DD6B54" width="29.3" height="1"/>
	</g>
</g>
<g>
	<g>
		<path fill="#FFFFFF" d="M17.3,16.7l-0.8,9.1c-0.1,0.7-0.7,1.3-1.4,1.3c-0.8,0-1.4-0.6-1.5-1.3l-0.8-9.1"/>
		<path fill="#DD6B54" d="M15.1,27.3c-0.9,0-1.6-0.7-1.7-1.6l-0.8-9.1l0.5,0l0.8,9.1c0.1,0.6,0.6,1.1,1.2,1.1c0.6,0,1.1-0.5,1.2-1.1
			l0.8-9.1l0.5,0l-0.8,9.1C16.7,26.7,16,27.3,15.1,27.3z"/>
	</g>
	<g>
		<line fill="#FFFFFF" x1="15.1" y1="27.1" x2="15.1" y2="28.9"/>
		<rect x="14.9" y="27.1" fill="#DD6B54" width="0.5" height="1.8"/>
	</g>
	<g>
		<line fill="#FFFFFF" x1="15.1" y1="19.9" x2="15.1" y2="21.7"/>
		<rect x="14.9" y="19.9" fill="#DD6B54" width="0.5" height="1.8"/>
	</g>
	<g>
		<circle fill="#FFFFFF" cx="15.1" cy="12.8" r="4.5"/>
		<path fill="#DD6B54" d="M15.1,17.5c-2.6,0-4.7-2.1-4.7-4.7s2.1-4.7,4.7-4.7s4.7,2.1,4.7,4.7S17.7,17.5,15.1,17.5z M15.1,8.6
			c-2.3,0-4.2,1.9-4.2,4.2c0,2.3,1.9,4.2,4.2,4.2s4.2-1.9,4.2-4.2C19.3,10.5,17.4,8.6,15.1,8.6z"/>
	</g>
	<g>
		<line fill="#FFFFFF" x1="9.7" y1="12.6" x2="20.4" y2="12.6"/>
		<rect x="9.7" y="12.3" fill="#DD6B54" width="10.7" height="0.5"/>
	</g>
</g>
</svg>
