 <svg
                  class="w-auto h-10 fill-current"
                  viewBox="0 0 212 56"
                  fill="none"
                  xmlns="http://www.w3.org/2000/svg"
                >
                  <g clip-path="url(#clip0_113_237)">
                    <path
                      d="M24.2362 6.22848V0H17.1294H6.15491H0V6.22848V14.9648H6.15491V6.22848H17.1294V49.7431H8.6093V55.898H17.1294H24.2362H32.7563V49.7431H24.2362V6.22848Z"
                      fill="#8F8F8F"
                    />
                    <path
                      d="M60.6953 0V6.19058H87.0983V24.0601H62.8064V30.215H87.0983V49.7431H60.6953V55.898H87.0983H94.2051V49.7431V30.215V24.0601V6.19058V0H87.0983H60.6953Z"
                      fill="#8F8F8F"
                    />
                    <path
                      d="M119.382 0V6.19058H145.785V24.0601H121.493V30.215H145.785V49.7431H119.382V55.898H145.785H152.892V49.7431V30.215V24.0601V6.19058V0H145.785H119.382Z"
                      fill="#8F8F8F"
                    />
                    <path
                      d="M204.891 0H176.448V0.037897V6.19058V19.8H182.601V6.19058H204.891V55.898H211.996V6.19058V0H204.891Z"
                      fill="#8F8F8F"
                    />
                  </g>
                  <defs>
                    <clipPath id="clip0_113_237">
                      <rect width="212" height="55.9537" fill="white" />
                    </clipPath>
                  </defs>
                </svg>