<svg width="963" height="256" viewBox="0 0 963 256" fill="none" xmlns="http://www.w3.org/2000/svg">
<path d="M287.541 160.999V92.1441H305.761V117.779H326.312V92.1441H344.532V160.999H326.312V133.669H305.761V160.999H287.541ZM374.366 162.27C368.575 162.27 364.373 160.328 361.76 156.444C359.147 152.489 357.841 147.228 357.841 140.66V108.034H376.061V138.33C376.061 141.72 376.485 143.979 377.332 145.109C378.25 146.239 379.592 146.804 381.358 146.804C383.052 146.804 384.465 146.451 385.595 145.745C386.725 145.039 387.855 143.838 388.985 142.143V108.034H407.205V160.999H392.374L391.103 154.008H390.679C388.561 156.55 386.195 158.563 383.582 160.046C381.04 161.529 377.968 162.27 374.366 162.27ZM438.785 182.821C434.76 182.821 431.052 182.362 427.662 181.444C424.273 180.596 421.554 179.219 419.506 177.312C417.528 175.406 416.54 172.863 416.54 169.685C416.54 165.519 419.011 162.129 423.955 159.516V159.092C422.601 158.091 421.42 156.874 420.459 155.491C419.541 154.008 419.082 152.171 419.082 149.982C419.082 148.146 419.612 146.345 420.671 144.58C421.801 142.814 423.249 141.296 425.014 140.025V139.601C423.107 138.33 421.413 136.529 419.93 134.198C418.517 131.797 417.811 129.078 417.811 126.042C417.811 121.663 418.87 118.062 420.989 115.237C423.178 112.341 426.003 110.223 429.463 108.881C432.924 107.469 436.596 106.762 440.48 106.762C443.587 106.762 446.412 107.186 448.954 108.034H468.658V121.169H461.031C461.242 121.805 461.419 122.617 461.56 123.605C461.772 124.594 461.878 125.618 461.878 126.677C461.878 130.844 460.925 134.234 459.018 136.847C457.111 139.389 454.534 141.261 451.285 142.461C448.036 143.662 444.435 144.262 440.48 144.262C438.715 144.262 436.737 144.015 434.548 143.52C433.7 144.297 433.277 145.321 433.277 146.592C433.277 147.722 433.842 148.534 434.972 149.029C436.172 149.523 438.079 149.77 440.692 149.77H448.637C455.275 149.77 460.395 150.865 463.997 153.054C467.669 155.173 469.505 158.668 469.505 163.541C469.505 167.355 468.234 170.709 465.692 173.605C463.22 176.5 459.689 178.76 455.098 180.384C450.508 182.009 445.07 182.821 438.785 182.821ZM440.48 133.457C442.175 133.457 443.552 132.857 444.611 131.656C445.671 130.456 446.2 128.584 446.2 126.042C446.2 123.57 445.671 121.769 444.611 120.639C443.552 119.439 442.175 118.839 440.48 118.839C438.785 118.839 437.408 119.439 436.349 120.639C435.289 121.769 434.76 123.57 434.76 126.042C434.76 128.584 435.289 130.456 436.349 131.656C437.408 132.857 438.785 133.457 440.48 133.457ZM441.751 171.592C444.717 171.592 447.189 171.133 449.166 170.215C451.144 169.367 452.132 168.202 452.132 166.719C452.132 165.307 451.497 164.424 450.226 164.071C449.025 163.718 447.295 163.541 445.035 163.541H440.904C438.785 163.541 437.161 163.471 436.031 163.329C434.972 163.259 434.054 163.118 433.277 162.906C432.006 164.177 431.37 165.448 431.37 166.719C431.37 168.414 432.323 169.65 434.23 170.427C436.208 171.204 438.715 171.592 441.751 171.592ZM496.613 182.821C492.587 182.821 488.88 182.362 485.49 181.444C482.1 180.596 479.381 179.219 477.333 177.312C475.356 175.406 474.367 172.863 474.367 169.685C474.367 165.519 476.839 162.129 481.782 159.516V159.092C480.428 158.091 479.247 156.874 478.287 155.491C477.368 154.008 476.909 152.171 476.909 149.982C476.909 148.146 477.439 146.345 478.498 144.58C479.628 142.814 481.076 141.296 482.842 140.025V139.601C480.935 138.33 479.24 136.529 477.757 134.198C476.344 131.797 475.638 129.078 475.638 126.042C475.638 121.663 476.698 118.062 478.816 115.237C481.005 112.341 483.83 110.223 487.291 108.881C490.751 107.469 494.423 106.762 498.307 106.762C501.415 106.762 504.24 107.186 506.782 108.034H526.485V121.169H518.858C519.07 121.805 519.246 122.617 519.388 123.605C519.599 124.594 519.705 125.618 519.705 126.677C519.705 130.844 518.752 134.234 516.845 136.847C514.939 139.389 512.361 141.261 509.112 142.461C505.864 143.662 502.262 144.262 498.307 144.262C496.542 144.262 494.565 144.015 492.375 143.52C491.528 144.297 491.104 145.321 491.104 146.592C491.104 147.722 491.669 148.534 492.799 149.029C494 149.523 495.906 149.77 498.519 149.77H506.464C513.102 149.77 518.222 150.865 521.824 153.054C525.496 155.173 527.332 158.668 527.332 163.541C527.332 167.355 526.061 170.709 523.519 173.605C521.047 176.5 517.516 178.76 512.926 180.384C508.336 182.009 502.898 182.821 496.613 182.821ZM498.307 133.457C500.002 133.457 501.379 132.857 502.439 131.656C503.498 130.456 504.028 128.584 504.028 126.042C504.028 123.57 503.498 121.769 502.439 120.639C501.379 119.439 500.002 118.839 498.307 118.839C496.613 118.839 495.235 119.439 494.176 120.639C493.117 121.769 492.587 123.57 492.587 126.042C492.587 128.584 493.117 130.456 494.176 131.656C495.235 132.857 496.613 133.457 498.307 133.457ZM499.579 171.592C502.545 171.592 505.016 171.133 506.994 170.215C508.971 169.367 509.96 168.202 509.96 166.719C509.96 165.307 509.324 164.424 508.053 164.071C506.853 163.718 505.122 163.541 502.862 163.541H498.731C496.613 163.541 494.988 163.471 493.858 163.329C492.799 163.259 491.881 163.118 491.104 162.906C489.833 164.177 489.197 165.448 489.197 166.719C489.197 168.414 490.151 169.65 492.058 170.427C494.035 171.204 496.542 171.592 499.579 171.592ZM535.161 160.999V108.034H553.381V160.999H535.161ZM544.271 101.466C541.305 101.466 538.903 100.654 537.067 99.0301C535.231 97.3351 534.313 95.1101 534.313 92.3561C534.313 89.6021 535.231 87.4121 537.067 85.7881C538.903 84.0931 541.305 83.2461 544.271 83.2461C547.237 83.2461 549.638 84.0931 551.474 85.7881C553.31 87.4121 554.228 89.6021 554.228 92.3561C554.228 95.1101 553.31 97.3351 551.474 99.0301C549.638 100.654 547.237 101.466 544.271 101.466ZM565.678 160.999V108.034H580.508L581.779 114.389H582.203C584.321 112.341 586.723 110.576 589.406 109.093C592.16 107.539 595.338 106.762 598.94 106.762C604.801 106.762 609.003 108.74 611.546 112.695C614.159 116.579 615.465 121.805 615.465 128.372V160.999H597.245V130.703C597.245 127.313 596.821 125.053 595.974 123.923C595.126 122.793 593.785 122.228 591.948 122.228C590.254 122.228 588.841 122.581 587.711 123.288C586.581 123.994 585.31 124.983 583.898 126.254V160.999H565.678ZM646.612 182.821C642.587 182.821 638.879 182.362 635.489 181.444C632.1 180.596 629.381 179.219 627.333 177.312C625.355 175.406 624.367 172.863 624.367 169.685C624.367 165.519 626.838 162.129 631.782 159.516V159.092C630.428 158.091 629.247 156.874 628.286 155.491C627.368 154.008 626.909 152.171 626.909 149.982C626.909 148.146 627.439 146.345 628.498 144.58C629.628 142.814 631.076 141.296 632.841 140.025V139.601C630.934 138.33 629.239 136.529 627.756 134.198C626.344 131.797 625.638 129.078 625.638 126.042C625.638 121.663 626.697 118.062 628.816 115.237C631.005 112.341 633.83 110.223 637.29 108.881C640.751 107.469 644.423 106.762 648.307 106.762C651.414 106.762 654.239 107.186 656.781 108.034H676.484V121.169H668.857C669.069 121.805 669.246 122.617 669.387 123.605C669.599 124.594 669.705 125.618 669.705 126.677C669.705 130.844 668.752 134.234 666.845 136.847C664.938 139.389 662.36 141.261 659.112 142.461C655.863 143.662 652.262 144.262 648.307 144.262C646.541 144.262 644.564 144.015 642.375 143.52C641.527 144.297 641.104 145.321 641.104 146.592C641.104 147.722 641.669 148.534 642.799 149.029C643.999 149.523 645.906 149.77 648.519 149.77H656.464C663.102 149.77 668.222 150.865 671.824 153.054C675.496 155.173 677.332 158.668 677.332 163.541C677.332 167.355 676.061 170.709 673.518 173.605C671.047 176.5 667.516 178.76 662.925 180.384C658.335 182.009 652.897 182.821 646.612 182.821ZM648.307 133.457C650.002 133.457 651.379 132.857 652.438 131.656C653.498 130.456 654.027 128.584 654.027 126.042C654.027 123.57 653.498 121.769 652.438 120.639C651.379 119.439 650.002 118.839 648.307 118.839C646.612 118.839 645.235 119.439 644.176 120.639C643.116 121.769 642.587 123.57 642.587 126.042C642.587 128.584 643.116 130.456 644.176 131.656C645.235 132.857 646.612 133.457 648.307 133.457ZM649.578 171.592C652.544 171.592 655.016 171.133 656.993 170.215C658.971 169.367 659.959 168.202 659.959 166.719C659.959 165.307 659.324 164.424 658.053 164.071C656.852 163.718 655.122 163.541 652.862 163.541H648.731C646.612 163.541 644.988 163.471 643.858 163.329C642.799 163.259 641.88 163.118 641.104 162.906C639.832 164.177 639.197 165.448 639.197 166.719C639.197 168.414 640.15 169.65 642.057 170.427C644.034 171.204 646.541 171.592 649.578 171.592ZM707.85 160.999V92.1441H752.764V107.398H726.07V120.533H748.951V135.787H726.07V160.999H707.85ZM772.689 162.27C769.37 162.27 766.51 161.529 764.109 160.046C761.817 158.534 759.955 156.454 758.707 154.008C757.435 151.536 756.8 148.852 756.8 145.957C756.8 140.448 759.06 136.141 763.579 133.033C768.099 129.855 775.444 127.737 785.613 126.677C785.189 123.005 782.717 121.169 778.198 121.169C776.291 121.169 774.278 121.557 772.16 122.334C770.041 123.04 767.605 124.135 764.85 125.618L758.495 113.754C762.238 111.494 766.016 109.764 769.829 108.563C773.706 107.364 777.741 106.757 781.799 106.762C788.72 106.762 794.123 108.74 798.007 112.695C801.891 116.579 803.833 122.864 803.833 131.55V160.999H789.003L787.732 155.914H787.308C785.189 157.821 782.929 159.375 780.528 160.575C778.198 161.705 775.585 162.27 772.689 162.27ZM779.045 148.287C780.528 148.287 781.764 147.969 782.753 147.334C783.741 146.628 784.695 145.745 785.613 144.686V137.482C781.305 138.118 778.304 139.071 776.609 140.342C774.985 141.614 774.172 142.991 774.172 144.474C774.172 147.016 775.797 148.287 779.045 148.287ZM839.652 162.27C834.638 162.27 830.118 161.175 826.093 158.986C822.067 156.797 818.854 153.654 816.453 149.558C814.122 145.392 812.957 140.378 812.957 134.516C812.957 128.655 814.264 123.676 816.877 119.58C819.56 115.413 823.056 112.236 827.364 110.046C831.671 107.857 836.332 106.762 841.346 106.762C844.524 106.762 847.385 107.257 849.927 108.245C852.54 109.234 854.835 110.576 856.812 112.271L848.338 123.923C847.208 122.935 846.184 122.264 845.266 121.911C844.354 121.558 843.384 121.379 842.406 121.381C839.016 121.381 836.368 122.581 834.461 124.983C832.554 127.313 831.601 130.491 831.601 134.516C831.601 138.542 832.59 141.755 834.567 144.156C836.544 146.486 838.945 147.652 841.77 147.652C843.253 147.652 844.701 147.334 846.113 146.698C847.561 146.013 848.944 145.197 850.245 144.262L857.236 156.126C854.623 158.457 851.728 160.081 848.55 160.999C845.372 161.846 842.406 162.27 839.652 162.27ZM887.046 162.27C881.89 162.27 877.229 161.175 873.063 158.986C868.967 156.797 865.718 153.654 863.317 149.558C860.916 145.392 859.716 140.378 859.716 134.516C859.716 128.796 860.916 123.888 863.317 119.792C865.789 115.625 868.967 112.412 872.851 110.152C876.735 107.892 880.831 106.762 885.139 106.762C890.365 106.762 894.673 107.928 898.062 110.258C901.523 112.518 904.065 115.59 905.689 119.474C907.384 123.358 908.232 127.666 908.232 132.398C908.232 133.951 908.126 135.47 907.914 136.953C907.773 138.365 907.631 139.389 907.49 140.025H877.3C878.147 143.203 879.666 145.427 881.855 146.698C884.044 147.899 886.622 148.499 889.588 148.499C892.978 148.499 896.579 147.44 900.393 145.321L906.325 156.126C903.5 158.103 900.322 159.622 896.791 160.681C893.26 161.74 890.012 162.27 887.046 162.27ZM877.088 128.16H892.766C892.766 126.112 892.236 124.347 891.177 122.864C890.188 121.31 888.317 120.533 885.563 120.533C883.585 120.533 881.82 121.134 880.266 122.334C878.712 123.535 877.653 125.477 877.088 128.16Z" fill="#9B9B9B"/>
<path d="M248.378 171.09C247.841 169.063 246.971 167.14 245.804 165.398C246.054 164.48 246.244 163.548 246.372 162.607C247.2 156.631 245.129 151.16 241.224 146.926C239.109 144.614 236.842 143.088 234.441 142.151C236.017 135.408 236.815 128.507 236.819 121.582C236.819 118.42 236.64 115.322 236.34 112.27C236.183 110.746 235.994 109.225 235.773 107.709C235.085 103.236 234.065 98.8206 232.721 94.4992C231.84 91.6599 230.821 88.8652 229.668 86.1252C227.939 82.0676 225.92 78.1394 223.627 74.3712C222.122 71.8648 220.484 69.4409 218.719 67.1102C217.854 65.9332 216.953 64.784 216.015 63.6642C213.237 60.2876 210.219 57.1169 206.982 54.1772C205.908 53.189 204.803 52.2349 203.668 51.3162C202.551 50.3844 201.409 49.4824 200.244 48.6112C197.899 46.866 195.475 45.2286 192.981 43.7042C179.2 35.3342 163.039 30.5352 145.766 30.5352C95.4751 30.5352 54.7141 71.2971 54.7141 121.586C54.7128 128.598 55.5252 135.586 57.1351 142.41C54.9751 143.348 52.9041 144.809 50.9851 146.924C47.0811 151.155 45.0091 156.607 45.8381 162.582C45.9631 163.532 46.1531 164.472 46.4051 165.396C45.2388 167.139 44.3691 169.063 43.8311 171.09C42.6311 175.651 43.0261 179.764 44.5511 183.367C42.8941 188.078 43.3081 193.094 45.4671 197.455C47.0371 200.64 49.2841 203.103 52.0531 205.306C55.3461 207.923 59.4681 210.148 64.4411 212.281C70.3731 214.811 77.6131 217.188 80.9061 218.06C89.4121 220.263 97.5681 221.659 105.835 221.726C117.611 221.836 127.753 219.066 135.015 211.979C138.582 212.416 142.172 212.635 145.766 212.634C149.563 212.626 153.356 212.386 157.124 211.918C164.368 219.05 174.549 221.845 186.369 221.732C194.634 221.667 202.79 220.271 211.274 218.065C214.589 217.193 221.827 214.816 227.762 212.287C232.735 210.149 236.856 207.925 240.172 205.311C242.92 203.109 245.165 200.645 246.736 197.46C248.917 193.099 249.31 188.083 247.674 183.372C249.185 179.769 249.577 175.647 248.378 171.09ZM239.939 183.062C241.61 186.233 241.717 189.816 240.242 193.153C238.006 198.211 232.452 202.194 221.665 206.471C214.958 209.132 208.815 210.832 208.761 210.848C199.889 213.149 191.865 214.317 184.919 214.317C173.417 214.317 164.859 211.144 159.431 204.876C150.252 206.439 140.879 206.492 131.683 205.033C126.249 211.197 117.738 214.317 106.333 214.317C99.3861 214.317 91.3631 213.149 82.4911 210.848C82.4361 210.832 76.2971 209.132 69.5871 206.471C58.8001 202.194 53.2451 198.213 51.0101 193.153C49.5351 189.816 49.6421 186.233 51.3131 183.062C51.4681 182.768 51.6331 182.48 51.8101 182.203C50.8085 180.699 50.1368 178.999 49.8389 177.217C49.5411 175.435 49.624 173.609 50.0821 171.861C50.7461 169.339 52.1181 167.241 53.9801 165.734C53.0835 164.26 52.495 162.62 52.2501 160.912C51.7141 157.198 52.9461 153.489 55.7201 150.466C57.8791 148.113 60.9321 146.818 64.3131 146.818H64.4031C61.8544 138.649 60.562 130.14 60.5701 121.583C60.5701 74.9112 98.4071 37.0732 145.084 37.0732C191.762 37.0732 229.598 74.9082 229.598 121.583C229.604 130.163 228.303 138.694 225.739 146.882C226.147 146.842 226.547 146.821 226.939 146.821C230.319 146.821 233.373 148.115 235.532 150.468C238.304 153.489 239.539 157.201 239.002 160.914C238.757 162.622 238.169 164.263 237.272 165.737C239.134 167.243 240.506 169.341 241.17 171.864C241.627 173.612 241.71 175.437 241.412 177.22C241.114 179.002 240.443 180.701 239.442 182.206C239.619 182.48 239.786 182.768 239.939 183.062Z" fill="white"/>
<path d="M239.443 182.206C240.444 180.701 241.115 179.002 241.413 177.22C241.711 175.437 241.628 173.612 241.171 171.864C240.507 169.342 239.135 167.244 237.273 165.737C238.169 164.263 238.758 162.623 239.003 160.915C239.539 157.201 238.307 153.492 235.533 150.469C233.374 148.116 230.32 146.821 226.94 146.821C226.547 146.821 226.148 146.841 225.74 146.882C228.301 138.694 229.6 130.163 229.592 121.584C229.592 74.9131 191.755 37.0742 145.082 37.0742C98.4087 37.0742 60.5677 74.9091 60.5677 121.584C60.5596 130.141 61.852 138.65 64.4007 146.819H64.3107C60.9307 146.819 57.8777 148.114 55.7187 150.467C52.9467 153.488 51.7127 157.199 52.2487 160.913C52.4934 162.621 53.0819 164.261 53.9787 165.735C52.1167 167.242 50.7447 169.34 50.0817 171.863C49.6239 173.611 49.5413 175.437 49.8395 177.22C50.1377 179.002 50.8098 180.702 51.8117 182.206C51.6327 182.483 51.4687 182.771 51.3147 183.065C49.6447 186.236 49.5367 189.819 51.0117 193.156C53.2467 198.213 58.8017 202.198 69.5887 206.474C76.2957 209.135 82.4387 210.835 82.4927 210.851C91.3647 213.152 99.3877 214.321 106.334 214.321C117.74 214.321 126.25 211.201 131.685 205.036C140.881 206.495 150.254 206.442 159.433 204.879C164.86 211.147 173.419 214.321 184.921 214.321C191.867 214.321 199.891 213.152 208.763 210.851C208.817 210.835 214.957 209.135 221.667 206.474C232.454 202.198 238.009 198.213 240.244 193.156C241.719 189.819 241.612 186.236 239.941 183.065C239.788 182.768 239.62 182.481 239.443 182.206ZM127.796 195.386C127.328 196.205 126.827 197.004 126.293 197.781C124.888 199.838 123.04 201.409 120.896 202.578C116.795 204.813 111.606 205.595 106.333 205.595C98.0047 205.595 89.4667 203.646 84.6807 202.404C84.4457 202.343 55.3467 194.124 59.0307 187.128C59.6507 185.952 60.6717 185.482 61.9557 185.482C67.1427 185.482 76.5878 193.206 80.6478 193.206C81.5538 193.206 82.1937 192.819 82.4547 191.878C84.1847 185.673 56.1617 183.065 58.5217 174.081C58.9387 172.491 60.0677 171.846 61.6567 171.846C68.5137 171.845 83.9057 183.905 87.1247 183.905C87.3717 183.905 87.5487 183.833 87.6447 183.681L87.6867 183.612C89.1967 181.117 88.3307 179.303 77.9787 172.963L76.9847 172.358C65.5947 165.463 57.5987 161.315 62.1467 156.365C62.6697 155.793 63.4107 155.54 64.3117 155.54C65.3807 155.54 66.6737 155.898 68.0977 156.497C74.1137 159.034 82.4517 165.953 85.9347 168.971C86.9617 169.865 87.5667 170.411 87.5667 170.411C87.5667 170.411 91.9767 174.997 94.6437 174.997C95.2577 174.997 95.7777 174.756 96.1307 174.157C98.0227 170.969 78.5677 156.227 77.4707 150.145C76.7277 146.023 77.9927 143.936 80.3337 143.936C81.4457 143.936 82.8037 144.409 84.3027 145.36C88.9527 148.312 97.9307 163.74 101.218 169.741C102.32 171.753 104.201 172.603 105.896 172.603C109.259 172.603 111.888 169.26 106.204 165.012C97.6607 158.619 100.659 148.171 104.736 147.528C104.91 147.501 105.086 147.487 105.261 147.486C108.969 147.486 110.605 153.876 110.605 153.876C110.605 153.876 115.398 165.914 123.633 174.142C131.106 181.611 132.149 187.741 127.796 195.386ZM154.425 196.796L153.998 196.847L153.269 196.931C152.886 196.97 152.503 197.008 152.118 197.044L151.742 197.078L151.4 197.107L150.913 197.146C150.734 197.159 150.555 197.173 150.376 197.184L149.84 197.22L149.722 197.227L149.3 197.252L149.121 197.261L148.621 197.286L148.04 197.31L147.512 197.328L147.16 197.338H146.982C146.872 197.338 146.763 197.344 146.653 197.345H146.478C146.368 197.345 146.259 197.345 146.149 197.351L145.702 197.356H145.076C144.585 197.356 144.096 197.351 143.607 197.342L143.211 197.333C143.099 197.333 142.986 197.327 142.874 197.324L142.455 197.311L141.933 197.291L141.464 197.271L141.342 197.266L140.895 197.242C140.771 197.235 140.647 197.229 140.524 197.221L140.235 197.204C139.872 197.181 139.509 197.155 139.146 197.127L138.766 197.097L138.286 197.056L137.725 197.004C137.412 196.975 137.099 196.943 136.786 196.908H136.771C141.341 186.713 139.03 177.192 129.795 167.964C123.739 161.916 119.709 152.983 118.874 151.022C117.182 145.217 112.703 138.764 105.266 138.764C104.637 138.765 104.01 138.815 103.389 138.913C100.13 139.425 97.2817 141.301 95.2497 144.123C93.0547 141.392 90.9197 139.221 88.9897 137.994C86.0797 136.15 83.1767 135.214 80.3467 135.214C76.8167 135.214 73.6597 136.664 71.4597 139.294L71.4047 139.361L71.2807 138.84L71.2757 138.818C70.8573 137.028 70.5058 135.222 70.2217 133.406C70.2217 133.393 70.2217 133.381 70.2157 133.369L70.1537 132.958C70.1202 132.736 70.0875 132.513 70.0557 132.291C70.0297 132.106 70.0037 131.921 69.9797 131.737C69.9557 131.553 69.9297 131.368 69.9077 131.183C69.8837 130.997 69.8617 130.812 69.8397 130.627C69.8186 130.451 69.7983 130.275 69.7787 130.099L69.7728 130.054C69.6826 129.242 69.6053 128.429 69.5407 127.615L69.5057 127.144C69.4957 127.015 69.4867 126.885 69.4787 126.754C69.4787 126.724 69.4747 126.693 69.4727 126.665L69.4398 126.143C69.4278 125.954 69.4187 125.765 69.4087 125.576C69.3987 125.388 69.3887 125.199 69.3807 125.009L69.3607 124.514L69.3547 124.364L69.3397 123.906L69.3288 123.518C69.3288 123.363 69.3217 123.207 69.3187 123.052L69.3107 122.563C69.3087 122.4 69.3107 122.238 69.3067 122.075C69.3017 121.911 69.3067 121.748 69.3067 121.584C69.3067 79.7321 103.238 45.8011 145.094 45.8011C186.95 45.8011 220.88 79.7301 220.88 121.584V122.563C220.88 122.726 220.876 122.89 220.872 123.052C220.872 123.188 220.867 123.321 220.863 123.457C220.863 123.578 220.858 123.698 220.853 123.815C220.853 123.968 220.844 124.12 220.839 124.273V124.286C220.826 124.618 220.812 124.95 220.798 125.282L220.792 125.392L220.766 125.888L220.742 126.281C220.686 127.212 220.613 128.143 220.524 129.072V129.085C220.508 129.259 220.49 129.434 220.471 129.608C220.427 130.013 220.382 130.418 220.337 130.823L220.286 131.23L220.223 131.708C220.201 131.883 220.177 132.057 220.152 132.231C220.125 132.426 220.096 132.62 220.068 132.814L219.998 133.272L219.916 133.792C219.888 133.965 219.86 134.137 219.827 134.31C219.793 134.482 219.767 134.654 219.737 134.827C219.677 135.171 219.615 135.514 219.548 135.857C219.415 136.54 219.276 137.221 219.129 137.901C219.092 138.07 219.054 138.24 219.015 138.409C216.882 136.336 214.058 135.207 210.942 135.207C208.115 135.207 205.209 136.142 202.3 137.987C200.369 139.213 198.236 141.385 196.039 144.116C194.004 141.293 191.156 139.418 187.901 138.905C187.28 138.808 186.652 138.758 186.023 138.757C178.584 138.757 174.108 145.21 172.415 151.015C171.576 152.976 167.546 161.908 161.483 167.966C152.255 177.164 149.926 186.643 154.425 196.796ZM232.665 176.388L232.635 176.477C232.614 176.534 232.593 176.591 232.57 176.647C232.534 176.732 232.496 176.815 232.456 176.898C232.359 177.096 232.249 177.288 232.128 177.472C231.961 177.721 231.778 177.959 231.579 178.183C231.533 178.235 231.489 178.286 231.437 178.337C231.367 178.414 231.292 178.489 231.218 178.564C229.871 179.899 227.819 181.068 225.499 182.142C225.236 182.261 224.97 182.38 224.7 182.499L224.432 182.618C224.253 182.697 224.075 182.776 223.887 182.853C223.704 182.931 223.52 183.008 223.336 183.084L222.778 183.315C221.473 183.852 220.136 184.363 218.831 184.869L218.274 185.085L217.722 185.301C217.356 185.444 216.994 185.587 216.637 185.73L216.106 185.944L215.585 186.158L215.328 186.265C215.158 186.337 214.99 186.407 214.824 186.479C210.986 188.125 208.226 189.8 208.806 191.879C208.822 191.938 208.84 191.994 208.86 192.048C208.912 192.202 208.983 192.348 209.071 192.484C209.123 192.566 209.183 192.643 209.25 192.713C209.932 193.421 211.173 193.309 212.738 192.747C212.865 192.701 212.995 192.652 213.126 192.6C213.216 192.566 213.305 192.53 213.395 192.494L213.53 192.437C213.888 192.285 214.267 192.116 214.655 191.931C214.752 191.886 214.85 191.842 214.948 191.79C216.861 190.855 219.03 189.594 221.182 188.447C221.512 188.268 221.843 188.097 222.172 187.927C222.71 187.648 223.253 187.379 223.801 187.122C225.839 186.164 227.754 185.484 229.295 185.484C230.017 185.484 230.656 185.632 231.187 185.972L231.276 186.031C231.545 186.221 231.779 186.454 231.97 186.722C232.014 186.785 232.06 186.85 232.099 186.917C232.141 186.986 232.181 187.057 232.219 187.129C232.98 188.573 232.343 190.07 230.853 191.537C229.422 192.945 227.196 194.326 224.665 195.605C224.478 195.7 224.289 195.795 224.099 195.887C216.568 199.585 206.708 202.37 206.57 202.405C203.942 203.086 200.184 203.981 195.951 204.65L195.324 204.747L195.222 204.762C194.262 204.906 193.299 205.033 192.334 205.143L192.245 205.152C190.49 205.352 188.69 205.497 186.887 205.558H186.86C186.212 205.582 185.565 205.593 184.917 205.593H184.171C183.183 205.579 182.196 205.535 181.211 205.459C181.188 205.459 181.164 205.459 181.14 205.454C180.788 205.427 180.435 205.394 180.084 205.355C179.48 205.29 178.877 205.21 178.276 205.116C178.042 205.077 177.792 205.036 177.551 204.994C177.441 204.974 177.332 204.954 177.223 204.932L177.197 204.927C176.85 204.861 176.505 204.788 176.161 204.709C175.962 204.664 175.762 204.619 175.565 204.566L175.447 204.535C175.349 204.511 175.253 204.485 175.157 204.459L175.104 204.445L174.795 204.356C174.683 204.324 174.572 204.291 174.46 204.258L174.42 204.246L174.129 204.157C174.019 204.123 173.91 204.087 173.801 204.052C173.711 204.022 173.622 203.991 173.532 203.962L173.335 203.893C173.145 203.827 172.957 203.757 172.769 203.685L172.591 203.616L172.444 203.557C172.161 203.443 171.879 203.324 171.6 203.199L171.414 203.11L171.383 203.096C171.317 203.065 171.252 203.034 171.186 203.006C171.057 202.944 170.929 202.88 170.802 202.815L170.764 202.796L170.58 202.699C170.253 202.529 169.932 202.347 169.618 202.153L169.446 202.048C169.357 201.994 169.276 201.939 169.191 201.884L168.967 201.735C168.886 201.681 168.805 201.626 168.726 201.569L168.582 201.467C168.43 201.358 168.281 201.247 168.134 201.132C168.056 201.072 167.979 201.01 167.902 200.953C167.731 200.816 167.564 200.675 167.399 200.53L167.392 200.524C167.231 200.385 167.074 200.241 166.921 200.094L166.913 200.084C166.833 200.008 166.755 199.932 166.677 199.853C166.6 199.774 166.522 199.696 166.447 199.617C166.371 199.537 166.295 199.456 166.221 199.373C166.149 199.295 166.079 199.216 166.009 199.136L165.985 199.109C165.624 198.69 165.286 198.251 164.973 197.794L164.849 197.611C164.767 197.49 164.686 197.368 164.606 197.246L164.37 196.883C164.254 196.706 164.141 196.527 164.031 196.347C163.952 196.219 163.874 196.091 163.797 195.962C163.732 195.852 163.667 195.743 163.605 195.635C163.57 195.576 163.537 195.516 163.504 195.456C163.471 195.394 163.432 195.331 163.397 195.268L163.341 195.169C163.322 195.136 163.316 195.126 163.306 195.104C163.238 194.985 163.172 194.864 163.108 194.741C163.079 194.688 163.05 194.634 163.019 194.581L162.929 194.409L162.84 194.238L162.668 193.891C162.64 193.834 162.613 193.777 162.586 193.72C162.527 193.597 162.471 193.476 162.415 193.355C162.393 193.306 162.37 193.257 162.35 193.208C162.273 193.041 162.2 192.872 162.131 192.701C162.084 192.588 162.041 192.476 161.995 192.364C161.866 192.034 161.745 191.701 161.634 191.364C161.601 191.264 161.568 191.165 161.539 191.065C161.467 190.838 161.402 190.609 161.344 190.378C161.273 190.109 161.21 189.837 161.157 189.564C161.123 189.403 161.093 189.241 161.068 189.078C161.041 188.917 161.018 188.756 160.999 188.596C160.958 188.277 160.929 187.957 160.912 187.636C160.912 187.583 160.907 187.529 160.906 187.476C160.901 187.37 160.898 187.264 160.897 187.158C160.841 182.886 163.004 178.777 167.627 174.156C175.861 165.929 180.655 153.89 180.655 153.89C180.655 153.89 180.784 153.385 181.053 152.659C181.143 152.418 181.237 152.178 181.336 151.941C181.449 151.673 181.57 151.408 181.7 151.148L181.738 151.072C181.905 150.74 182.086 150.417 182.283 150.102C182.328 150.029 182.372 149.956 182.424 149.884C182.57 149.666 182.725 149.455 182.888 149.25C183.014 149.093 183.148 148.941 183.289 148.797C183.767 148.305 184.312 147.903 184.929 147.688L185.007 147.663C185.059 147.646 185.11 147.63 185.163 147.615C185.225 147.599 185.287 147.584 185.349 147.571L185.377 147.566C185.508 147.54 185.639 147.522 185.772 147.513H185.784C185.853 147.513 185.922 147.506 185.993 147.506C186.17 147.507 186.346 147.521 186.521 147.548C187.263 147.665 187.97 148.107 188.578 148.789L188.66 148.885C188.858 149.117 189.038 149.365 189.198 149.625C189.318 149.818 189.431 150.021 189.538 150.234C189.581 150.324 189.622 150.406 189.663 150.494C189.683 150.539 189.703 150.583 189.722 150.629C189.762 150.718 189.799 150.808 189.836 150.902C190.045 151.438 190.207 151.991 190.321 152.555C190.442 153.164 190.512 153.782 190.532 154.403C190.539 154.676 190.539 154.952 190.532 155.232C190.527 155.338 190.522 155.445 190.514 155.552C190.432 156.741 190.173 157.911 189.745 159.024C189.702 159.134 189.655 159.246 189.611 159.358C189.396 159.872 189.146 160.37 188.864 160.85C188.703 161.124 188.529 161.396 188.343 161.666L188.229 161.828C187.788 162.444 187.296 163.022 186.758 163.556C186.228 164.087 185.66 164.578 185.059 165.027C184.456 165.472 183.891 165.966 183.369 166.503C181.866 168.081 181.516 169.472 181.854 170.527C181.894 170.646 181.941 170.763 181.995 170.876C182.12 171.121 182.282 171.346 182.476 171.542L182.529 171.595C182.584 171.648 182.642 171.699 182.701 171.748L182.761 171.797C182.907 171.909 183.061 172.009 183.222 172.096C183.268 172.121 183.311 172.146 183.364 172.17C183.585 172.28 183.816 172.368 184.054 172.435L184.12 172.452L184.209 172.476L184.287 172.495L184.37 172.513L184.453 172.53L184.532 172.543C184.591 172.554 184.651 172.563 184.71 172.571L184.768 172.579L184.871 172.59L184.935 172.596L185.041 172.604H185.102L185.212 172.609H185.559L185.658 172.604L185.772 172.597L185.911 172.584L186.041 172.568C186.07 172.568 186.1 172.56 186.13 172.555C186.588 172.488 187.034 172.359 187.456 172.171C187.546 172.133 187.635 172.091 187.717 172.047C187.893 171.959 188.064 171.86 188.228 171.751C188.457 171.601 188.673 171.432 188.876 171.248L189.017 171.114C189.039 171.092 189.062 171.071 189.083 171.048C189.221 170.91 189.351 170.764 189.472 170.611C189.686 170.341 189.876 170.054 190.041 169.752C191.998 166.194 194.049 162.688 196.192 159.239L196.486 158.768L196.783 158.296C196.932 158.058 197.081 157.822 197.23 157.589L197.381 157.354L197.682 156.885C198.086 156.26 198.491 155.642 198.899 155.03L199.204 154.574C199.816 153.668 200.427 152.786 201.031 151.947L201.333 151.533C201.99 150.625 202.675 149.738 203.386 148.872L203.669 148.534C203.715 148.477 203.758 148.422 203.809 148.367L204.086 148.046C204.132 147.993 204.176 147.941 204.224 147.89L204.492 147.587L204.627 147.441C204.757 147.3 204.889 147.161 205.023 147.023C205.113 146.934 205.196 146.844 205.283 146.761C205.79 146.242 206.349 145.777 206.952 145.374L207.091 145.285L207.232 145.195C207.322 145.139 207.413 145.085 207.506 145.034C209.87 143.693 211.828 143.594 212.954 144.72C213.637 145.403 214.014 146.534 213.994 148.107C213.994 148.177 213.994 148.246 213.988 148.318V148.396C213.988 148.467 213.982 148.54 213.977 148.613C213.977 148.702 213.966 148.792 213.957 148.881C213.948 148.971 213.944 149.039 213.935 149.118C213.935 149.141 213.93 149.164 213.927 149.187C213.92 149.257 213.911 149.328 213.902 149.398C213.902 149.42 213.902 149.441 213.893 149.463C213.883 149.558 213.869 149.653 213.852 149.747C213.841 149.834 213.827 149.921 213.81 150.008C213.803 150.058 213.793 150.107 213.785 150.157C213.759 150.299 213.725 150.44 213.684 150.578C213.607 150.836 213.513 151.089 213.402 151.335C213.354 151.442 213.303 151.549 213.251 151.654C213.143 151.871 213.021 152.093 212.887 152.323C212.82 152.436 212.751 152.553 212.677 152.67L212.565 152.848C212.451 153.027 212.332 153.208 212.208 153.391C212.084 153.574 211.951 153.761 211.808 153.95C211.623 154.202 211.428 154.459 211.222 154.719L211.066 154.916C210.625 155.465 210.173 156.005 209.711 156.536L209.344 156.951L209.157 157.161C208.902 157.446 208.646 157.729 208.388 158.01L208.19 158.224C208.059 158.366 207.922 158.51 207.791 158.653C207.657 158.798 207.521 158.942 207.385 159.086L206.973 159.52L206.556 159.955C206.417 160.1 206.277 160.247 206.136 160.392L205.287 161.267C201.232 165.426 196.959 169.571 195.513 172.155C195.417 172.324 195.33 172.497 195.251 172.674C195.046 173.144 194.96 173.546 195.018 173.871C195.037 173.978 195.075 174.081 195.13 174.174C195.212 174.315 195.311 174.445 195.425 174.561C195.478 174.613 195.533 174.662 195.593 174.706C195.89 174.918 196.25 175.027 196.615 175.016H196.729L196.846 175.008L196.964 174.994L197.061 174.98C197.074 174.979 197.087 174.976 197.1 174.973L197.189 174.956L197.213 174.95L197.311 174.929L197.346 174.92L197.451 174.893L197.576 174.856C197.658 174.831 197.74 174.803 197.824 174.772C198.005 174.708 198.182 174.634 198.355 174.551C198.399 174.53 198.444 174.51 198.487 174.487L198.62 174.421C198.794 174.333 198.967 174.238 199.141 174.135C199.28 174.053 199.418 173.969 199.556 173.88L199.69 173.791C199.734 173.763 199.779 173.734 199.823 173.701L199.956 173.612L200.026 173.563L200.218 173.429C200.397 173.305 200.564 173.178 200.734 173.049L200.749 173.038L201.017 172.83C201.384 172.54 201.733 172.248 202.048 171.973L202.258 171.788L202.278 171.77L202.387 171.673C202.645 171.442 202.875 171.226 203.067 171.047L203.145 170.971L203.334 170.792L203.447 170.682L203.486 170.642L203.497 170.631C203.593 170.535 203.593 170.535 203.689 170.438L203.697 170.43L203.733 170.398C203.744 170.386 203.759 170.374 203.776 170.359L203.79 170.346L203.828 170.312L204.031 170.133L204.145 170.03C204.201 169.982 204.262 169.927 204.324 169.868L204.461 169.748C204.485 169.728 204.509 169.705 204.534 169.683L204.677 169.558L204.888 169.374L204.999 169.277C205.434 168.898 205.964 168.441 206.571 167.926L206.82 167.716L207.232 167.371L207.652 167.019C208.202 166.563 208.794 166.078 209.42 165.574L209.831 165.244C210.181 164.966 210.541 164.681 210.905 164.395C211.051 164.28 211.2 164.165 211.352 164.051C211.725 163.763 212.1 163.476 212.476 163.193C213.334 162.545 214.219 161.896 215.114 161.263L215.499 160.996C215.767 160.81 216.035 160.625 216.304 160.444L216.547 160.279C217.028 159.955 217.513 159.638 218.002 159.328L218.245 159.175L218.486 159.025C218.727 158.876 218.968 158.728 219.206 158.585L219.445 158.443L219.924 158.164C220.081 158.073 220.237 157.984 220.393 157.896L220.487 157.843L220.859 157.64C221.013 157.556 221.168 157.475 221.321 157.396L221.551 157.278L221.773 157.165C222.281 156.91 222.798 156.674 223.324 156.458C223.396 156.428 223.467 156.399 223.538 156.368C223.679 156.309 223.819 156.255 223.958 156.207C224.097 156.16 224.234 156.111 224.369 156.063C224.492 156.022 224.611 155.984 224.727 155.948L224.766 155.936C224.828 155.917 224.89 155.899 224.952 155.883L224.97 155.878C225.096 155.842 225.222 155.809 225.349 155.779H225.359C225.546 155.734 225.728 155.696 225.906 155.666C225.967 155.656 226.027 155.646 226.085 155.638C226.258 155.612 226.432 155.594 226.606 155.582C226.716 155.574 226.827 155.571 226.937 155.571H227.021C227.133 155.571 227.241 155.578 227.348 155.589C227.397 155.589 227.446 155.598 227.494 155.605H227.514C227.562 155.61 227.611 155.618 227.658 155.628C227.705 155.638 227.753 155.645 227.799 155.656H227.815C227.861 155.666 227.904 155.679 227.952 155.692C228.334 155.795 228.685 155.989 228.976 156.257L229.002 156.283L229.053 156.333L229.103 156.386C229.504 156.808 229.836 157.291 230.086 157.817L230.125 157.906C230.21 158.106 230.277 158.313 230.324 158.525C230.454 159.116 230.419 159.732 230.222 160.304C230.137 160.553 230.033 160.795 229.91 161.027L229.828 161.175C229.516 161.698 229.148 162.185 228.729 162.627L228.639 162.722C228.442 162.931 228.237 163.134 228.026 163.329C227.959 163.392 227.89 163.455 227.82 163.518L227.714 163.614C227.494 163.809 227.269 163.999 227.041 164.185C227.001 164.217 226.96 164.249 226.921 164.283C226.762 164.411 226.598 164.541 226.428 164.671C225.842 165.119 225.245 165.551 224.637 165.968C224.279 166.213 223.909 166.46 223.527 166.711C222.815 167.178 222.098 167.635 221.374 168.083C221.165 168.212 220.955 168.343 220.741 168.473C218.774 169.683 216.593 170.977 214.267 172.384L213.665 172.75C213.006 173.152 212.384 173.536 211.799 173.901L211.504 174.087L210.946 174.445C210.725 174.585 210.51 174.723 210.301 174.859C210.143 174.96 209.989 175.06 209.838 175.159L209.54 175.355C209.395 175.45 209.251 175.545 209.107 175.642L208.967 175.731C208.819 175.83 208.675 175.927 208.535 176.023L208.306 176.179L208.037 176.366L207.789 176.539C207.397 176.814 207.01 177.095 206.626 177.381L206.492 177.483C206.341 177.597 206.195 177.711 206.054 177.822L205.87 177.969C205.56 178.218 205.279 178.457 205.025 178.685L204.901 178.799C204.83 178.864 204.76 178.929 204.694 178.993C204.647 179.037 204.604 179.082 204.557 179.126L204.492 179.19C204.349 179.333 204.21 179.48 204.075 179.631L204.009 179.707C203.862 179.877 203.734 180.04 203.621 180.199L203.571 180.271C203.441 180.461 203.326 180.662 203.228 180.871L203.194 180.944L203.173 180.995L203.156 181.039L203.133 181.1C203.126 181.121 203.112 181.158 203.104 181.19C203.063 181.309 203.033 181.432 203.013 181.557L203.003 181.624L202.995 181.685L202.99 181.744V182.058C202.99 182.084 202.99 182.111 202.996 182.138C202.997 182.154 202.999 182.17 203.001 182.186C203.001 182.212 203.008 182.238 203.011 182.265L203.03 182.375V182.38C203.037 182.415 203.044 182.45 203.053 182.485C203.062 182.52 203.071 182.559 203.082 182.596C203.114 182.709 203.153 182.821 203.198 182.93C203.198 182.938 203.205 182.947 203.208 182.955C203.22 182.982 203.231 183.01 203.244 183.037C203.293 183.151 203.348 183.262 203.408 183.371L203.471 183.484L203.537 183.598L203.606 183.712C203.618 183.731 203.631 183.748 203.646 183.765L203.669 183.789L203.693 183.811L203.72 183.832C203.738 183.845 203.757 183.856 203.777 183.867C203.797 183.876 203.819 183.886 203.841 183.894C203.865 183.902 203.889 183.909 203.913 183.915C204.49 184.045 205.676 183.567 207.251 182.735L207.534 182.585L208.013 182.324L208.248 182.194C208.414 182.104 208.585 182.004 208.758 181.905L209.075 181.726C211.158 180.527 213.647 178.986 216.219 177.482C216.459 177.341 216.701 177.201 216.943 177.061L217.429 176.751C217.672 176.611 217.914 176.473 218.157 176.337C219.191 175.749 220.239 175.184 221.298 174.643L221.773 174.402C222.089 174.246 222.402 174.094 222.711 173.946C223.31 173.662 223.915 173.393 224.526 173.138L224.861 173.002L224.902 172.986C226.676 172.283 228.285 171.848 229.587 171.848C229.869 171.846 230.15 171.869 230.428 171.917H230.436C230.526 171.933 230.607 171.951 230.689 171.972H230.704C230.824 172.001 230.942 172.038 231.056 172.084C231.147 172.117 231.235 172.156 231.32 172.202C231.693 172.391 232.012 172.67 232.25 173.014C232.27 173.043 232.289 173.073 232.307 173.104C232.395 173.238 232.471 173.379 232.533 173.527C232.57 173.612 232.604 173.7 232.636 173.795C232.668 173.891 232.696 173.983 232.725 174.082C232.937 174.84 232.916 175.642 232.665 176.388Z" fill="#111827"/>
<path fill-rule="evenodd" clip-rule="evenodd" d="M220.867 122.076V121.586C220.867 79.7317 186.949 45.8027 145.092 45.8027C103.237 45.8027 69.3063 79.7337 69.3063 121.586L69.3053 121.75C69.3043 121.859 69.3033 121.967 69.3053 122.076C69.3101 122.239 69.3118 122.402 69.3103 122.565L69.3163 122.925L69.3183 123.055L69.3233 123.233C69.3253 123.329 69.3283 123.424 69.3283 123.52L69.3383 123.909L69.3543 124.366L69.3593 124.516L69.3793 124.989V125.011L69.4073 125.564V125.578C69.4173 125.767 69.4273 125.956 69.4393 126.144C69.4493 126.319 69.4603 126.493 69.4723 126.667L69.4753 126.698C69.4841 126.847 69.4941 126.997 69.5053 127.146L69.5083 127.185C69.5183 127.329 69.5293 127.474 69.5413 127.617L69.5433 127.645L69.5633 127.895C69.6232 128.616 69.6932 129.337 69.7733 130.056L69.7783 130.101L69.8383 130.629L69.9073 131.185C69.9536 131.555 70.003 131.924 70.0553 132.293C70.0865 132.516 70.1189 132.738 70.1523 132.96L70.1573 132.987C70.232 133.489 70.3126 133.991 70.3993 134.491C70.648 135.942 70.9401 137.386 71.2753 138.82L71.2803 138.843L71.3123 138.978C71.3423 139.106 71.3723 139.234 71.4043 139.363L71.4593 139.296C73.6593 136.666 76.8153 135.216 80.3463 135.216C83.1763 135.216 86.0803 136.151 88.9893 137.996C90.9193 139.222 93.0533 141.394 95.2493 144.125C97.2813 141.302 100.129 139.427 103.387 138.915C104.009 138.817 104.637 138.767 105.265 138.766C112.702 138.766 117.181 145.22 118.873 151.024C119.708 152.986 123.738 161.917 129.814 167.959C139.049 177.186 141.36 186.708 136.79 196.903H136.805C137.117 196.937 137.43 196.969 137.744 196.998C137.931 197.016 138.118 197.034 138.305 197.05L138.371 197.056C138.508 197.069 138.646 197.081 138.784 197.091L139.164 197.122C139.526 197.15 139.889 197.175 140.254 197.199L140.542 197.216L140.771 197.229L140.914 197.237L141.36 197.261L141.482 197.266L141.952 197.286L142.473 197.306L142.893 197.318L142.963 197.321C143.051 197.324 143.141 197.328 143.23 197.328L143.325 197.33C143.915 197.344 144.504 197.351 145.094 197.351H145.72L146.168 197.346C146.278 197.34 146.387 197.34 146.497 197.34H146.671L146.822 197.337C146.881 197.335 146.941 197.333 147 197.333H147.179L147.53 197.323L148.058 197.305L148.64 197.28C148.807 197.273 148.973 197.265 149.14 197.256L149.319 197.246L149.584 197.231L149.741 197.222L149.858 197.215L150.395 197.179C150.574 197.168 150.753 197.154 150.932 197.14L151.418 197.102L151.761 197.073L152.136 197.039C152.521 197.003 152.905 196.965 153.287 196.925C153.531 196.898 153.773 196.871 154.016 196.842L154.443 196.791C149.944 186.638 152.273 177.159 161.471 167.968C167.533 161.911 171.563 152.978 172.403 151.017C174.096 145.212 178.571 138.759 186.01 138.759C186.639 138.76 187.267 138.809 187.888 138.908C191.143 139.42 193.992 141.296 196.027 144.118C198.224 141.387 200.357 139.215 202.287 137.989C205.196 136.144 208.102 135.209 210.929 135.209C214.045 135.209 216.87 136.339 219.003 138.411C219.12 137.889 219.233 137.367 219.341 136.843C219.407 136.516 219.472 136.188 219.536 135.859C219.614 135.455 219.688 135.049 219.756 134.643C219.774 134.533 219.793 134.423 219.814 134.312C219.847 134.139 219.876 133.968 219.903 133.794L219.914 133.728L219.985 133.275L220.055 132.816L220.056 132.811C220.084 132.619 220.113 132.426 220.139 132.233C220.16 132.087 220.18 131.941 220.199 131.794L220.211 131.71L220.273 131.232L220.324 130.825C220.355 130.557 220.385 130.289 220.414 130.02C220.427 129.913 220.438 129.805 220.449 129.697L220.459 129.61C220.478 129.431 220.495 129.253 220.511 129.074L220.551 128.658C220.634 127.736 220.701 126.814 220.753 125.89V125.884L220.78 125.394L220.785 125.284L220.805 124.819C220.813 124.644 220.82 124.467 220.826 124.288V124.275L220.831 124.146C220.836 124.036 220.84 123.926 220.84 123.817L220.842 123.772C220.846 123.67 220.85 123.564 220.85 123.459L220.853 123.369C220.856 123.264 220.859 123.16 220.859 123.055L220.861 122.966C220.864 122.832 220.867 122.699 220.867 122.565V122.076ZM126.296 197.783C132.297 188.981 131.872 182.375 123.637 174.145C115.402 165.915 110.609 153.879 110.609 153.879C110.609 153.879 108.82 146.887 104.74 147.53C100.66 148.172 97.6673 158.619 106.209 165.014C114.751 171.409 104.51 175.745 101.222 169.744C97.9333 163.742 88.9573 148.315 84.3023 145.364C79.6483 142.413 76.3753 144.067 77.4723 150.149C78.0173 153.168 83.0853 158.32 87.8203 163.134C92.6243 168.019 97.0853 172.554 96.1323 174.159C94.2393 177.347 87.5723 170.414 87.5723 170.414C87.5723 170.414 66.6963 151.417 62.1513 156.368C57.9623 160.931 64.4223 164.81 74.3783 170.788C75.2253 171.297 76.0973 171.821 76.9903 172.361C88.3803 179.257 89.2663 181.076 87.6503 183.685C87.0533 184.649 83.2403 182.36 78.5503 179.544C70.5553 174.744 60.0123 168.415 58.5243 174.08C57.2353 178.983 64.9913 181.987 72.0253 184.712C77.8853 186.982 83.2453 189.058 82.4573 191.876C81.6403 194.797 77.2113 192.361 72.3693 189.697C66.9343 186.706 60.9793 183.429 59.0313 187.127C55.3473 194.117 84.4413 202.346 84.6803 202.406C94.0803 204.844 117.952 210.01 126.296 197.783ZM164.96 197.783C158.958 188.981 159.384 182.375 167.619 174.145C175.854 165.915 180.648 153.879 180.648 153.879C180.648 153.879 182.436 146.887 186.516 147.53C190.596 148.172 193.59 158.619 185.047 165.014C176.504 171.409 186.746 175.745 190.035 169.744C193.323 163.742 202.295 148.315 206.949 145.364C211.603 142.413 214.877 144.067 213.78 150.149C213.235 153.168 208.167 158.321 203.431 163.135C198.628 168.019 194.167 172.554 195.12 174.159C197.012 177.347 203.685 170.41 203.685 170.41C203.685 170.41 224.56 151.413 229.105 156.364C233.294 160.927 226.833 164.807 216.877 170.786C216.03 171.294 215.159 171.817 214.266 172.358C202.875 179.253 201.99 181.073 203.606 183.681C204.203 184.645 208.016 182.356 212.705 179.541C220.701 174.741 231.244 168.411 232.732 174.076C234.021 178.979 226.265 181.984 219.23 184.709C213.37 186.979 208.011 189.054 208.798 191.873C209.615 194.794 214.042 192.357 218.882 189.693C224.317 186.702 230.273 183.424 232.222 187.123C235.906 194.118 206.808 202.338 206.572 202.399C197.172 204.844 173.3 210.01 164.96 197.783Z" fill="#9B9B9B"/>
<path fill-rule="evenodd" clip-rule="evenodd" d="M169.705 100.957C170.886 101.375 171.765 102.648 172.601 103.858C173.731 105.495 174.783 107.017 176.397 106.159C178.302 105.147 179.863 103.593 180.884 101.693C181.905 99.7939 182.339 97.6341 182.132 95.4874C181.978 93.8823 181.47 92.3312 180.644 90.9462C179.818 89.5611 178.695 88.3765 177.357 87.4776C176.018 86.5788 174.496 85.9882 172.902 85.7483C171.307 85.5084 169.679 85.6253 168.135 86.0904C166.07 86.7123 164.236 87.9322 162.864 89.5961C161.493 91.2599 160.645 93.293 160.428 95.4384C160.212 97.5843 160.637 99.746 161.649 101.65C162.397 103.057 164.057 102.394 165.809 101.693C167.183 101.144 168.613 100.572 169.705 100.957ZM118.329 100.958C117.148 101.376 116.268 102.649 115.432 103.859C114.302 105.495 113.25 107.018 111.636 106.16C110.213 105.403 108.976 104.339 108.013 103.046C107.05 101.753 106.386 100.263 106.068 98.6826C105.75 97.1021 105.786 95.4709 106.174 93.9062C106.563 92.3415 107.293 90.8822 108.312 89.6334C109.333 88.3853 110.617 87.3789 112.073 86.6866C113.529 85.9943 115.121 85.6335 116.733 85.6299C118.345 85.6264 119.938 85.9803 121.397 86.6661C122.856 87.352 124.145 88.3528 125.171 89.5964C126.543 91.2602 127.391 93.2937 127.608 95.4396C127.824 97.5855 127.399 99.7473 126.386 101.651C125.636 103.058 123.976 102.394 122.224 101.693C120.851 101.144 119.421 100.572 118.329 100.958ZM161.757 147.709C169.9 141.293 172.891 130.82 172.891 124.368C172.891 119.268 169.459 120.873 163.966 123.592L163.657 123.746C158.614 126.243 151.902 129.567 144.534 129.567C137.165 129.567 130.453 126.242 125.412 123.745C119.741 120.936 116.184 119.174 116.184 124.369C116.184 131.024 119.366 141.953 128.101 148.303C129.253 145.963 130.875 143.886 132.867 142.202C134.858 140.518 137.176 139.264 139.675 138.517C140.547 138.257 141.445 139.758 142.365 141.294C143.252 142.777 144.158 144.293 145.081 144.293C146.063 144.293 147.029 142.799 147.972 141.34C148.957 139.816 149.917 138.33 150.846 138.627C155.522 140.128 159.433 143.383 161.757 147.709Z" fill="#111827"/>
<path d="M161.755 147.708C157.514 151.05 151.877 153.291 144.537 153.291C137.64 153.291 132.245 151.313 128.102 148.302C129.255 145.963 130.878 143.886 132.869 142.203C134.86 140.519 137.178 139.264 139.676 138.516C141.389 138.005 143.203 144.292 145.081 144.292C147.092 144.292 149.029 138.045 150.847 138.626C155.521 140.128 159.431 143.383 161.755 147.708Z" fill="#111827"/>
<path fill-rule="evenodd" clip-rule="evenodd" d="M98.8578 110.031C98.084 110.552 97.215 110.915 96.3007 111.099C95.3863 111.283 94.4446 111.285 93.5295 111.105C92.6144 110.924 91.7439 110.565 90.9679 110.048C90.1919 109.53 89.5257 108.865 89.0074 108.089C88.4891 107.314 88.129 106.443 87.9477 105.529C87.7664 104.614 87.7674 103.672 87.9507 102.757C88.134 101.843 88.4961 100.974 89.016 100.199C89.536 99.4248 90.2037 98.7607 90.9808 98.2449C92.5438 97.2076 94.4543 96.8321 96.2936 97.2008C98.1329 97.5695 99.7511 98.6523 100.794 100.212C101.836 101.772 102.218 103.681 101.855 105.521C101.492 107.362 100.414 108.984 98.8578 110.031ZM200.27 110.031C199.496 110.552 198.627 110.915 197.713 111.099C196.799 111.283 195.857 111.285 194.942 111.105C194.027 110.924 193.156 110.565 192.38 110.048C191.604 109.53 190.938 108.865 190.42 108.089C189.901 107.314 189.541 106.443 189.36 105.529C189.179 104.614 189.18 103.672 189.363 102.757C189.546 101.843 189.908 100.974 190.428 100.199C190.948 99.4248 191.616 98.7607 192.393 98.2449C193.956 97.2076 195.867 96.8321 197.706 97.2008C199.545 97.5695 201.163 98.6523 202.206 100.212C203.248 101.772 203.63 103.681 203.267 105.521C202.904 107.362 201.826 108.984 200.27 110.031Z" fill="#111827"/>
</svg>
