<svg width="139" height="68" viewBox="0 0 139 68" fill="none" xmlns="http://www.w3.org/2000/svg">
<g clip-path="url(#clip0_6_2)">
<path d="M40.06 68V60.11H44.92V68H40.06ZM48.14 57.26V22.2H53V57.26H48.14ZM32.05 57.26H5V52.36H32.05V30.28H36.91V57.28L32.05 57.26ZM0.13 57.26V41.02H5V57.26H0.13ZM40.06 56.81V40.95H44.92V56.81H40.06ZM0.13 38.3V30.3H5V38.3H0.13ZM40.06 37.64V11.46H44.92V37.64H40.06ZM32.05 26.81V11.46H36.91V26.81H32.05ZM24.05 26.81V11.46H28.9V26.81H24.05ZM16.05 26.81V11.46H20.91V26.81H16.05ZM0 26.81V21.91H8V11.46H12.86V21.87H12.92V26.81H0ZM32.05 7.95V0H36.91V8L32.05 7.95ZM24.05 7.95V0H28.9V8L24.05 7.95ZM16.05 7.95V0H20.91V8L16.05 7.95Z" fill="#9B9B9B"/>
<path d="M64.3601 16.13V19.33H69.4301V20.98H64.3601V24.98H62.3601V14.5H70.0301V16.13H64.3601Z" fill="#9B9B9B"/>
<path d="M72.7802 24.58C72.141 24.2452 71.6103 23.7353 71.2502 23.11C70.8957 22.4614 70.71 21.7341 70.71 20.995C70.71 20.2558 70.8957 19.5286 71.2502 18.88C71.6135 18.2597 72.1436 17.7538 72.7802 17.42C73.463 17.0581 74.2278 16.8789 75.0002 16.9C75.7689 16.8846 76.529 17.0635 77.2102 17.42C77.8438 17.7545 78.3705 18.2604 78.7302 18.88C79.091 19.5265 79.2804 20.2546 79.2804 20.995C79.2804 21.7354 79.091 22.4634 78.7302 23.11C78.3742 23.7349 77.8467 24.245 77.2102 24.58C76.5274 24.9321 75.7684 25.1107 75.0002 25.1C74.2283 25.1161 73.4647 24.9373 72.7802 24.58ZM76.6702 22.81C76.8999 22.5698 77.0786 22.2857 77.1955 21.9746C77.3124 21.6635 77.365 21.332 77.3502 21C77.3641 20.6666 77.311 20.3338 77.1943 20.0212C77.0775 19.7086 76.8993 19.4226 76.6702 19.18C76.2096 18.7439 75.5995 18.5009 74.9652 18.5009C74.331 18.5009 73.7208 18.7439 73.2602 19.18C73.0343 19.4244 72.8589 19.7109 72.7439 20.0232C72.6289 20.3355 72.5767 20.6675 72.5902 21C72.5758 21.3311 72.6277 21.6617 72.7427 21.9725C72.8578 22.2833 73.0337 22.568 73.2602 22.81C73.7148 23.2576 74.3272 23.5085 74.9652 23.5085C75.6032 23.5085 76.2156 23.2576 76.6702 22.81Z" fill="#9B9B9B"/>
<path d="M87.8201 17.81C88.1436 18.1629 88.3912 18.5783 88.5477 19.0307C88.7043 19.4831 88.7663 19.9627 88.7301 20.44V25.03H86.8601V20.65C86.9029 20.0772 86.7279 19.5094 86.3701 19.06C86.1897 18.8833 85.9752 18.7452 85.7396 18.6541C85.5041 18.563 85.2525 18.5208 85.0001 18.53C84.6987 18.5142 84.3973 18.5612 84.115 18.6679C83.8327 18.7746 83.5756 18.9388 83.3601 19.15C82.9323 19.6484 82.7169 20.2947 82.7601 20.95V25H80.8401V17H82.6301V18C82.9441 17.6271 83.3463 17.3383 83.8001 17.16C84.3071 16.965 84.847 16.8699 85.3901 16.88C85.8368 16.8646 86.282 16.9389 86.6994 17.0987C87.1168 17.2584 87.4979 17.5003 87.8201 17.81Z" fill="#9B9B9B"/>
<path d="M98.84 13.87V25H97V24C96.7026 24.3532 96.3256 24.6308 95.9 24.81C95.4202 25.0025 94.907 25.0977 94.39 25.09C93.6645 25.1008 92.9483 24.9252 92.31 24.58C91.6997 24.2464 91.1994 23.7426 90.87 23.13C90.5223 22.4667 90.3406 21.7289 90.3406 20.98C90.3406 20.2311 90.5223 19.4933 90.87 18.83C91.2061 18.2275 91.7052 17.7318 92.31 17.4C92.9483 17.0548 93.6645 16.8792 94.39 16.89C94.8864 16.8839 95.3791 16.9757 95.84 17.16C96.2794 17.3295 96.6684 17.6083 96.97 17.97V13.87H98.84ZM95.84 23.19C96.1992 22.9808 96.4934 22.6762 96.69 22.31C96.9005 21.9018 97.0104 21.4492 97.0104 20.99C97.0104 20.5307 96.9005 20.0782 96.69 19.67C96.4934 19.3038 96.1992 18.9992 95.84 18.79C95.4654 18.5929 95.0484 18.4899 94.625 18.4899C94.2017 18.4899 93.7847 18.5929 93.41 18.79C93.0478 18.9986 92.7502 19.3031 92.55 19.67C92.3487 20.0809 92.244 20.5324 92.244 20.99C92.244 21.4476 92.3487 21.8991 92.55 22.31C92.7502 22.6769 93.0478 22.9814 93.41 23.19C93.7828 23.393 94.2005 23.4994 94.625 23.4994C95.0495 23.4994 95.4673 23.393 95.84 23.19Z" fill="#9B9B9B"/>
<path d="M106.88 17.74C107.208 18.0759 107.461 18.4781 107.622 18.9196C107.782 19.361 107.846 19.8317 107.81 20.3V25H106V24C105.758 24.3638 105.408 24.6434 105 24.8C104.512 25.0006 103.987 25.096 103.46 25.08C102.96 25.0904 102.463 24.9985 102 24.81C101.594 24.6255 101.248 24.3311 101 23.96C100.752 23.5945 100.623 23.1615 100.63 22.72C100.619 22.3892 100.686 22.0604 100.825 21.76C100.964 21.4596 101.171 21.1959 101.43 20.99C102.177 20.4963 103.068 20.2674 103.96 20.34H106.03V20.22C106.046 19.9815 106.009 19.7425 105.923 19.5197C105.836 19.2969 105.702 19.0956 105.53 18.93C105.102 18.6011 104.568 18.4409 104.03 18.48C103.582 18.4798 103.136 18.5506 102.71 18.69C102.306 18.8095 101.929 19.0065 101.6 19.27L100.87 17.9C101.326 17.5685 101.837 17.3212 102.38 17.17C102.992 16.999 103.625 16.9148 104.26 16.92C105.203 16.8704 106.133 17.1614 106.88 17.74ZM105.17 23.41C105.527 23.2036 105.8 22.8778 105.94 22.49V21.56H104C102.92 21.56 102.38 21.92 102.38 22.63C102.38 22.7878 102.417 22.9434 102.488 23.0842C102.559 23.225 102.663 23.3469 102.79 23.44C103.121 23.6581 103.514 23.7633 103.91 23.74C104.352 23.7472 104.788 23.6331 105.17 23.41Z" fill="#9B9B9B"/>
<path d="M114.83 24.56C114.597 24.752 114.323 24.8887 114.03 24.96C113.705 25.0535 113.368 25.1006 113.03 25.1C112.289 25.144 111.561 24.8964 111 24.41C110.749 24.144 110.555 23.8291 110.432 23.485C110.308 23.1409 110.256 22.7749 110.28 22.41V18.55H109V17.05H110.31V15.21H112.19V17.05H114.33V18.55H112.19V22.36C112.167 22.6814 112.267 22.9996 112.47 23.25C112.58 23.3546 112.711 23.4352 112.854 23.4869C112.996 23.5385 113.148 23.56 113.3 23.55C113.659 23.5558 114.011 23.4433 114.3 23.23L114.83 24.56Z" fill="#9B9B9B"/>
<path d="M116.27 15.34C116.163 15.2364 116.077 15.1122 116.018 14.9747C115.96 14.8373 115.93 14.6894 115.93 14.54C115.93 14.3906 115.96 14.2427 116.018 14.1053C116.077 13.9678 116.163 13.8436 116.27 13.74C116.385 13.6324 116.52 13.5487 116.668 13.4938C116.816 13.4388 116.973 13.4138 117.13 13.42C117.441 13.4098 117.745 13.5169 117.98 13.72C118.093 13.8161 118.182 13.9358 118.243 14.0707C118.303 14.2056 118.333 14.3522 118.33 14.5C118.334 14.6543 118.305 14.8077 118.247 14.9505C118.188 15.0934 118.101 15.2225 117.99 15.33C117.877 15.4417 117.743 15.5293 117.595 15.5878C117.447 15.6462 117.289 15.6742 117.13 15.67C116.972 15.6743 116.815 15.6474 116.667 15.5908C116.52 15.5342 116.385 15.4489 116.27 15.34ZM116.18 16.99H118.06V24.99H116.18V16.99Z" fill="#9B9B9B"/>
<path d="M121.73 24.58C121.096 24.2419 120.569 23.7326 120.21 23.11C119.849 22.4635 119.66 21.7354 119.66 20.995C119.66 20.2546 119.849 19.5265 120.21 18.88C120.572 18.2624 121.098 17.7571 121.73 17.42C122.405 17.0656 123.158 16.8867 123.92 16.9C124.689 16.8855 125.449 17.0643 126.13 17.42C126.764 17.7545 127.29 18.2604 127.65 18.88C128.011 19.5265 128.2 20.2546 128.2 20.995C128.2 21.7354 128.011 22.4635 127.65 23.11C127.294 23.7349 126.767 24.245 126.13 24.58C125.447 24.9309 124.688 25.1094 123.92 25.1C123.159 25.1082 122.407 24.9297 121.73 24.58ZM125.63 22.8C125.86 22.5599 126.039 22.2757 126.155 21.9646C126.272 21.6535 126.325 21.322 126.31 20.99C126.324 20.6566 126.271 20.3238 126.154 20.0112C126.037 19.6986 125.859 19.4126 125.63 19.17C125.17 18.7339 124.559 18.4909 123.925 18.4909C123.291 18.4909 122.681 18.7339 122.22 19.17C121.994 19.4144 121.819 19.7009 121.704 20.0132C121.589 20.3255 121.537 20.6575 121.55 20.99C121.536 21.3211 121.588 21.6517 121.703 21.9625C121.818 22.2733 121.994 22.5581 122.22 22.8C122.675 23.2476 123.287 23.4985 123.925 23.4985C124.563 23.4985 125.176 23.2476 125.63 22.8Z" fill="#9B9B9B"/>
<path d="M136.78 17.81C137.104 18.1629 137.351 18.5783 137.508 19.0307C137.664 19.4831 137.726 19.9627 137.69 20.44V25.03H135.82V20.65C135.86 20.0759 135.681 19.508 135.32 19.06C135.135 18.8778 134.914 18.7364 134.671 18.645C134.429 18.5537 134.169 18.5146 133.91 18.53C133.61 18.515 133.311 18.5624 133.03 18.6691C132.749 18.7758 132.494 18.9396 132.28 19.15C131.852 19.6484 131.637 20.2947 131.68 20.95V25H129.8V17H131.59V18C131.904 17.6271 132.306 17.3383 132.76 17.16C133.267 16.965 133.807 16.8699 134.35 16.88C134.797 16.8646 135.242 16.9389 135.659 17.0987C136.077 17.2584 136.458 17.5003 136.78 17.81Z" fill="#9B9B9B"/>
<path d="M62.4099 31.5H64.4099V42H62.4099V31.5Z" fill="#9B9B9B"/>
<path d="M73.3498 34.41C73.9537 34.7331 74.4558 35.2178 74.7998 35.81C75.1419 36.475 75.3204 37.2121 75.3204 37.96C75.3204 38.7079 75.1419 39.445 74.7998 40.11C74.4668 40.7233 73.9632 41.227 73.3498 41.56C72.7088 41.9073 71.9888 42.083 71.2598 42.07C70.7443 42.084 70.231 41.9957 69.7498 41.81C69.3025 41.6207 68.9079 41.3255 68.5998 40.95V41.95H66.8198V30.87H68.6898V34.96C69.0029 34.6112 69.3933 34.3407 69.8298 34.17C70.2838 33.9857 70.7699 33.8939 71.2598 33.9C71.9888 33.887 72.7088 34.0627 73.3498 34.41ZM72.7498 39.81C72.9782 39.5694 73.1554 39.2849 73.2706 38.9737C73.3857 38.6626 73.4365 38.3313 73.4198 38C73.4356 37.6672 73.3844 37.3347 73.2693 37.0221C73.1542 36.7095 72.9776 36.4231 72.7498 36.18C72.53 35.9538 72.265 35.7764 71.9721 35.6593C71.6793 35.5421 71.365 35.4878 71.0498 35.5C70.6243 35.495 70.2045 35.5982 69.8298 35.8C69.4706 36.0092 69.1764 36.3138 68.9798 36.68C68.7785 37.0909 68.6738 37.5424 68.6738 38C68.6738 38.4576 68.7785 38.9091 68.9798 39.32C69.1764 39.6862 69.4706 39.9908 69.8298 40.2C70.2036 40.4053 70.6234 40.512 71.0498 40.51C71.3667 40.5209 71.6822 40.464 71.9753 40.3433C72.2685 40.2226 72.5325 40.0408 72.7498 39.81Z" fill="#9B9B9B"/>
<path d="M83.8899 34.81C84.2134 35.1628 84.461 35.5783 84.6175 36.0306C84.7741 36.483 84.8361 36.9626 84.7999 37.44V42.03H82.9299V37.65C82.9699 37.0758 82.7913 36.5079 82.4299 36.06C82.2429 35.875 82.0186 35.7321 81.7721 35.6407C81.5255 35.5494 81.2622 35.5116 80.9999 35.53C80.7001 35.5149 80.4005 35.5623 80.1199 35.669C79.8393 35.7757 79.5839 35.9395 79.3699 36.15C78.9421 36.6483 78.7267 37.2946 78.7699 37.95V41.95H76.9099V33.95H78.6999V34.95C79.0139 34.577 79.4161 34.2882 79.8699 34.11C80.3769 33.9149 80.9168 33.8198 81.4599 33.83C81.9101 33.8211 82.3574 33.9033 82.775 34.0717C83.1926 34.2401 83.5718 34.4912 83.8899 34.81Z" fill="#9B9B9B"/>
<path d="M97.9999 41.9999L95.8499 38.92H95.4499H93.0699V41.9799H91.1199V31.5H95.4399C96.2559 31.482 97.0667 31.6353 97.8199 31.95C98.4548 32.2139 98.9951 32.6635 99.3699 33.24C99.7425 33.8391 99.9303 34.5347 99.9099 35.24C99.9227 35.9499 99.7205 36.647 99.3299 37.24C98.9237 37.8294 98.3432 38.277 97.6699 38.5199L100.09 41.97L97.9999 41.9999ZM97.2999 33.69C96.7347 33.2918 96.0494 33.1011 95.3599 33.15H93.0699V37.33H95.3499C96.0371 37.3847 96.7222 37.201 97.2899 36.81C97.5087 36.6178 97.6809 36.3784 97.7935 36.1099C97.9061 35.8413 97.9562 35.5507 97.9399 35.26C97.9616 34.9657 97.9141 34.6704 97.8013 34.3978C97.6884 34.1252 97.5133 33.8827 97.2899 33.69H97.2999Z" fill="#9B9B9B"/>
<path d="M103.12 41.58C102.484 41.245 101.956 40.7349 101.6 40.11C101.239 39.4635 101.05 38.7354 101.05 37.995C101.05 37.2546 101.239 36.5265 101.6 35.88C101.96 35.2604 102.486 34.7545 103.12 34.42C103.801 34.0778 104.553 33.8997 105.315 33.8997C106.077 33.8997 106.829 34.0778 107.51 34.42C108.13 34.7627 108.645 35.2674 109 35.88C109.355 36.5286 109.54 37.2558 109.54 37.995C109.54 38.7341 109.355 39.4614 109 40.11C108.637 40.7333 108.107 41.2425 107.47 41.58C106.789 41.9221 106.037 42.1003 105.275 42.1003C104.513 42.1003 103.761 41.9221 103.08 41.58H103.12ZM107 39.81C107.228 39.5694 107.406 39.2849 107.521 38.9737C107.636 38.6626 107.687 38.3313 107.67 38C107.686 37.6672 107.635 37.3347 107.52 37.0221C107.404 36.7095 107.228 36.4231 107 36.18C106.778 35.954 106.511 35.7769 106.217 35.6598C105.922 35.5427 105.607 35.4883 105.29 35.5C104.975 35.4878 104.661 35.5421 104.368 35.6592C104.075 35.7764 103.81 35.9538 103.59 36.18C103.362 36.4231 103.186 36.7095 103.071 37.0221C102.955 37.3347 102.904 37.6672 102.92 38C102.903 38.3313 102.954 38.6626 103.069 38.9737C103.184 39.2849 103.362 39.5694 103.59 39.81C103.807 40.0408 104.071 40.2226 104.365 40.3433C104.658 40.464 104.973 40.5208 105.29 40.51C105.608 40.5204 105.925 40.4634 106.22 40.3427C106.515 40.2221 106.78 40.0405 107 39.81Z" fill="#9B9B9B"/>
<path d="M112.63 41.5801C111.985 41.2461 111.448 40.7365 111.08 40.1101C110.719 39.4635 110.53 38.7354 110.53 37.9951C110.53 37.2547 110.719 36.5266 111.08 35.8801C111.45 35.2617 111.983 34.7567 112.62 34.4201C113.312 34.0635 114.082 33.8848 114.86 33.9001C115.583 33.8835 116.298 34.0486 116.94 34.3801C117.53 34.6981 118.001 35.2002 118.28 35.8101L116.84 36.6401C116.635 36.2964 116.346 36.0107 116 35.8101C115.651 35.6285 115.263 35.5357 114.87 35.5401C114.549 35.5284 114.229 35.5828 113.93 35.6997C113.63 35.8167 113.358 35.9938 113.13 36.2201C112.896 36.4595 112.714 36.7448 112.595 37.058C112.476 37.3712 112.423 37.7055 112.44 38.0401C112.417 38.6942 112.654 39.3308 113.1 39.8101C113.329 40.0384 113.603 40.2174 113.904 40.3361C114.205 40.4548 114.527 40.5106 114.85 40.5001C115.244 40.5013 115.632 40.4051 115.98 40.2201C116.338 40.0241 116.636 39.7335 116.84 39.3801L118.28 40.2301C117.982 40.8177 117.511 41.2995 116.93 41.6101C116.293 41.9475 115.581 42.1162 114.86 42.1001C114.086 42.1096 113.32 41.9311 112.63 41.5801Z" fill="#9B9B9B"/>
<path d="M126.61 34.81C126.933 35.1628 127.181 35.5783 127.338 36.0307C127.494 36.483 127.556 36.9627 127.52 37.44V42.03H125.65V37.65C125.69 37.0759 125.511 36.5079 125.15 36.06C124.965 35.8777 124.744 35.7363 124.501 35.645C124.258 35.5537 123.999 35.5145 123.74 35.53C123.44 35.515 123.14 35.5623 122.86 35.669C122.579 35.7758 122.324 35.9395 122.11 36.15C121.682 36.6484 121.467 37.2946 121.51 37.95V41.95H119.63V30.87H121.51V34.92C121.829 34.5808 122.223 34.3206 122.66 34.16C123.145 33.9775 123.661 33.8893 124.18 33.9C124.625 33.8819 125.07 33.9531 125.487 34.1094C125.904 34.2657 126.286 34.5039 126.61 34.81Z" fill="#9B9B9B"/>
<path d="M137.63 30.87V42H135.83V41C135.527 41.3766 135.135 41.6721 134.69 41.86C134.21 42.0525 133.697 42.1477 133.18 42.14C132.454 42.1508 131.738 41.9752 131.1 41.63C130.489 41.2938 129.986 40.7909 129.65 40.18C129.308 39.515 129.129 38.7779 129.129 38.03C129.129 37.2821 129.308 36.545 129.65 35.88C129.993 35.279 130.494 34.7842 131.1 34.45C131.738 34.1048 132.454 33.9292 133.18 33.94C133.676 33.9339 134.169 34.0257 134.63 34.21C135.068 34.3822 135.456 34.6605 135.76 35.02V30.87H137.63ZM134.63 40.19C134.989 39.9808 135.283 39.6762 135.48 39.31C135.69 38.9018 135.8 38.4492 135.8 37.99C135.8 37.5308 135.69 37.0782 135.48 36.67C135.283 36.3038 134.989 35.9992 134.63 35.79C134.256 35.5869 133.836 35.4836 133.41 35.49C132.987 35.4835 132.571 35.5869 132.2 35.79C131.838 35.9986 131.54 36.3031 131.34 36.67C131.139 37.0809 131.034 37.5324 131.034 37.99C131.034 38.4476 131.139 38.8991 131.34 39.31C131.54 39.6769 131.838 39.9814 132.2 40.19C132.57 40.3961 132.987 40.5029 133.41 40.5C133.833 40.5016 134.25 40.3949 134.62 40.19H134.63Z" fill="#9B9B9B"/>
<path d="M75.2201 51.9199C75.4106 52.1062 75.5619 52.3287 75.6653 52.5742C75.7686 52.8198 75.8218 53.0835 75.8218 53.35C75.8218 53.6164 75.7686 53.8801 75.6653 54.1257C75.5619 54.3712 75.4106 54.5937 75.2201 54.78C74.7268 55.1522 74.117 55.3365 73.5001 55.3H72.1201V56.9999H71.3201V51.3999H73.5001C74.117 51.3634 74.7268 51.5477 75.2201 51.9199ZM74.6401 54.28C74.7745 54.1667 74.8806 54.0237 74.95 53.8622C75.0195 53.7008 75.0503 53.5254 75.0401 53.35C75.0527 53.1742 75.023 52.998 74.9534 52.8362C74.8838 52.6744 74.7763 52.5316 74.6401 52.4199C74.3036 52.1783 73.8934 52.0616 73.4801 52.0899H72.1201V54.6H73.4801C73.8922 54.6312 74.3023 54.518 74.6401 54.28Z" fill="#9B9B9B"/>
<path d="M77.4501 56.81C77.1198 56.6324 76.8461 56.3656 76.6601 56.04C76.4763 55.6971 76.3801 55.314 76.3801 54.925C76.3801 54.5359 76.4763 54.1529 76.6601 53.81C76.8461 53.4843 77.1198 53.2175 77.4501 53.04C77.7972 52.8529 78.1859 52.7566 78.5801 52.76C78.9775 52.7567 79.3695 52.8529 79.7201 53.04C80.0468 53.219 80.3169 53.4857 80.5001 53.81C80.6839 54.1529 80.7801 54.5359 80.7801 54.925C80.7801 55.314 80.6839 55.6971 80.5001 56.04C80.3169 56.3643 80.0468 56.6309 79.7201 56.81C79.3713 57.0016 78.9781 57.0982 78.5801 57.09C78.1853 57.0983 77.7954 57.0017 77.4501 56.81ZM79.3201 56.23C79.5318 56.1064 79.705 55.9264 79.8201 55.71C79.9447 55.4671 80.0097 55.198 80.0097 54.925C80.0097 54.652 79.9447 54.3829 79.8201 54.14C79.705 53.9236 79.5318 53.7435 79.3201 53.62C79.0932 53.5017 78.8411 53.4399 78.5851 53.4399C78.3292 53.4399 78.0771 53.5017 77.8501 53.62C77.6375 53.7456 77.4617 53.925 77.3401 54.14C77.2155 54.3829 77.1505 54.652 77.1505 54.925C77.1505 55.198 77.2155 55.4671 77.3401 55.71C77.4617 55.925 77.6375 56.1043 77.8501 56.23C78.0752 56.3543 78.328 56.4195 78.5851 56.4195C78.8422 56.4195 79.0951 56.3543 79.3201 56.23Z" fill="#9B9B9B"/>
<path d="M85.68 52.8099V57.0499H85V56.4099C84.8422 56.6255 84.6324 56.7975 84.39 56.9099C84.1305 57.0318 83.8467 57.0933 83.56 57.0899C83.313 57.1155 83.0634 57.0853 82.8296 57.0015C82.5957 56.9178 82.3837 56.7827 82.2091 56.6061C82.0344 56.4295 81.9016 56.216 81.8204 55.9813C81.7393 55.7466 81.7118 55.4967 81.74 55.2499V52.8099H82.51V55.1099C82.4825 55.4458 82.5865 55.7792 82.8 56.0399C82.9115 56.1497 83.0447 56.2348 83.1911 56.29C83.3375 56.3451 83.4939 56.3689 83.65 56.3599C83.8336 56.3744 84.0181 56.3489 84.1907 56.285C84.3634 56.2211 84.5201 56.1204 84.65 55.9899C84.8869 55.7117 85.0117 55.3552 85 54.9899V52.8099H85.68Z" fill="#9B9B9B"/>
<path d="M88.35 52.91C88.6621 52.7629 89.0054 52.6943 89.35 52.71V53.46H89.18C88.9968 53.4487 88.8132 53.4758 88.641 53.5395C88.4688 53.6032 88.3118 53.7021 88.18 53.83C88.0532 53.9743 87.9561 54.1422 87.8944 54.3241C87.8326 54.506 87.8073 54.6983 87.82 54.89V57.01H87V52.81H87.74V53.52C87.8666 53.2522 88.0822 53.0366 88.35 52.91Z" fill="#9B9B9B"/>
<path d="M92.22 51.0599H93V56.9999H92.24L92.22 51.0599Z" fill="#9B9B9B"/>
<path d="M98.14 55.13H94.7C94.7198 55.3056 94.7743 55.4755 94.8601 55.6299C94.9459 55.7844 95.0614 55.9203 95.2 56.03C95.5341 56.2783 95.9465 56.3978 96.3617 56.3666C96.7768 56.3354 97.1667 56.1555 97.46 55.86L97.89 56.36C97.6936 56.5844 97.4468 56.7592 97.17 56.87C96.8228 57.0066 96.4517 57.0717 96.0788 57.0614C95.7059 57.0511 95.339 56.9656 95 56.81C94.666 56.634 94.3886 56.367 94.2 56.04C94.0104 55.6975 93.9138 55.3114 93.92 54.92C93.9209 54.5314 94.0207 54.1494 94.21 53.81C94.3877 53.4884 94.6507 53.222 94.97 53.04C95.303 52.8542 95.6785 52.7577 96.06 52.76C96.4415 52.7563 96.8174 52.8529 97.15 53.04C97.4619 53.2248 97.7176 53.491 97.89 53.81C98.0752 54.1609 98.1681 54.5532 98.16 54.95C98.16 54.96 98.15 55.04 98.14 55.13ZM95.14 53.7C94.8902 53.9293 94.7335 54.2426 94.7 54.58H97.42C97.3918 54.2432 97.2384 53.9292 96.99 53.7C96.7316 53.4808 96.4038 53.3605 96.065 53.3605C95.7261 53.3605 95.3983 53.4808 95.14 53.7Z" fill="#9B9B9B"/>
<path d="M99.3201 56.9C99.05 56.8323 98.7954 56.7135 98.5701 56.55L98.8901 55.94C99.0973 56.0839 99.3271 56.1921 99.5701 56.26C99.8325 56.3404 100.106 56.3808 100.38 56.38C101.05 56.38 101.38 56.19 101.38 55.8C101.384 55.7432 101.375 55.6862 101.352 55.6339C101.33 55.5816 101.295 55.5357 101.25 55.5C101.152 55.4194 101.035 55.3645 100.91 55.34C100.719 55.2889 100.526 55.2489 100.33 55.22C100.047 55.1773 99.7661 55.1172 99.4901 55.04C99.2781 54.9708 99.0883 54.8466 98.9401 54.68C98.8556 54.5872 98.7907 54.4782 98.7495 54.3596C98.7082 54.241 98.6914 54.1153 98.7001 53.99C98.6965 53.8073 98.7386 53.6267 98.8224 53.4643C98.9062 53.3019 99.0291 53.163 99.1801 53.06C99.5625 52.8105 100.014 52.6881 100.47 52.71C100.757 52.7121 101.042 52.7491 101.32 52.82C101.567 52.8756 101.803 52.9701 102.02 53.1L101.69 53.71C101.323 53.4771 100.895 53.3588 100.46 53.37C100.203 53.3533 99.947 53.4088 99.7201 53.53C99.6426 53.5724 99.5778 53.6345 99.5321 53.71C99.4865 53.7855 99.4616 53.8718 99.4601 53.96C99.4581 54.0214 99.4707 54.0824 99.4967 54.138C99.5228 54.1936 99.5616 54.2423 99.6101 54.28C99.7118 54.3654 99.8314 54.4269 99.9601 54.46L100.56 54.59C100.841 54.6342 101.118 54.6977 101.39 54.78C101.598 54.8421 101.784 54.9597 101.93 55.12C102.089 55.3058 102.168 55.5465 102.15 55.79C102.159 55.972 102.118 56.1529 102.032 56.3132C101.945 56.4736 101.817 56.6074 101.66 56.7C101.259 56.9475 100.791 57.0661 100.32 57.04C99.9815 57.0448 99.6443 56.9976 99.3201 56.9Z" fill="#9B9B9B"/>
<path d="M105.55 56.86C105.21 56.756 104.894 56.5861 104.62 56.36L104.92 55.73C105.161 55.9376 105.439 56.0972 105.74 56.2C106.061 56.3165 106.399 56.3773 106.74 56.38C107.089 56.3967 107.436 56.3135 107.74 56.14C107.848 56.0746 107.936 55.9817 107.995 55.871C108.055 55.7603 108.084 55.6358 108.08 55.51C108.084 55.4242 108.069 55.3385 108.036 55.259C108.003 55.1796 107.953 55.1082 107.89 55.05C107.758 54.9261 107.601 54.8308 107.43 54.77C107.25 54.71 106.99 54.63 106.65 54.55C106.311 54.4712 105.977 54.371 105.65 54.25C105.401 54.1585 105.178 54.0075 105 53.81C104.802 53.5729 104.701 53.2688 104.72 52.96C104.717 52.672 104.8 52.3897 104.96 52.15C105.133 51.8924 105.381 51.6936 105.67 51.58C106.046 51.4212 106.452 51.3461 106.86 51.36C107.198 51.3565 107.534 51.4003 107.86 51.49C108.152 51.5665 108.429 51.6916 108.68 51.86L108.42 52.5C108.189 52.3486 107.936 52.2339 107.67 52.16C107.414 52.0819 107.148 52.0415 106.88 52.04C106.529 52.0185 106.18 52.1058 105.88 52.29C105.775 52.3606 105.689 52.4559 105.63 52.5675C105.571 52.6792 105.54 52.8037 105.54 52.93C105.538 53.0181 105.555 53.1056 105.589 53.1866C105.624 53.2676 105.675 53.3404 105.74 53.4C105.875 53.5262 106.035 53.6217 106.21 53.68L106.98 53.89C107.32 53.9675 107.654 54.0677 107.98 54.19C108.236 54.2887 108.463 54.4503 108.64 54.66C108.833 54.8965 108.932 55.1953 108.92 55.5C108.922 55.7847 108.839 56.0635 108.68 56.3C108.502 56.5262 108.267 56.7019 108 56.81C107.618 56.9595 107.21 57.0309 106.8 57.02C106.377 57.0357 105.955 56.9817 105.55 56.86Z" fill="#9B9B9B"/>
<path d="M110.56 56.81C110.23 56.6324 109.956 56.3656 109.77 56.04C109.58 55.6991 109.48 55.3153 109.48 54.925C109.48 54.5347 109.58 54.1509 109.77 53.81C109.956 53.4843 110.23 53.2175 110.56 53.04C110.918 52.8528 111.316 52.7567 111.72 52.76C112.068 52.7587 112.411 52.841 112.72 53C113.014 53.1492 113.258 53.3824 113.42 53.67L112.83 54.05C112.714 53.8531 112.544 53.6935 112.34 53.59C112.135 53.4886 111.909 53.4372 111.68 53.44C111.419 53.4354 111.161 53.4973 110.93 53.62C110.713 53.7427 110.533 53.9225 110.41 54.14C110.286 54.3845 110.224 54.6559 110.23 54.93C110.224 55.2009 110.286 55.469 110.41 55.71C110.532 55.9305 110.712 56.1137 110.93 56.24C111.161 56.3626 111.419 56.4246 111.68 56.42C111.909 56.4227 112.135 56.3713 112.34 56.27C112.544 56.1664 112.714 56.0068 112.83 55.81L113.42 56.18C113.255 56.4681 113.013 56.7038 112.72 56.86C112.408 57.0113 112.066 57.0899 111.72 57.09C111.316 57.0985 110.916 57.002 110.56 56.81Z" fill="#9B9B9B"/>
<path d="M114.33 51.81C114.282 51.7635 114.243 51.7075 114.218 51.6456C114.192 51.5836 114.179 51.5171 114.18 51.45C114.179 51.3844 114.192 51.3194 114.218 51.2591C114.244 51.1988 114.282 51.1446 114.33 51.1C114.378 51.0509 114.436 51.0123 114.499 50.9865C114.563 50.9607 114.631 50.9482 114.7 50.95C114.84 50.9476 114.975 50.9976 115.08 51.09C115.126 51.1359 115.162 51.1905 115.186 51.2507C115.21 51.3108 115.221 51.3752 115.22 51.44C115.221 51.5082 115.209 51.576 115.183 51.6392C115.157 51.7024 115.119 51.7596 115.07 51.8074C115.021 51.8551 114.964 51.8924 114.9 51.917C114.836 51.9415 114.768 51.9527 114.7 51.95C114.563 51.9528 114.431 51.9027 114.33 51.81ZM114.33 52.81H115.1V57.05H114.33V52.81Z" fill="#9B9B9B"/>
<path d="M120.25 55.13H116.81C116.828 55.305 116.881 55.4746 116.965 55.6291C117.049 55.7836 117.163 55.9199 117.3 56.03C117.636 56.2771 118.05 56.3957 118.466 56.3645C118.883 56.3334 119.274 56.1544 119.57 55.86L119.99 56.36C119.795 56.5821 119.553 56.7566 119.28 56.87C118.96 56.9896 118.621 57.0473 118.28 57.04C117.867 57.0489 117.459 56.9562 117.09 56.77C116.752 56.5955 116.471 56.3284 116.28 56C116.09 55.6576 115.994 55.2714 116 54.88C115.992 54.4884 116.088 54.1016 116.28 53.76C116.452 53.4344 116.717 53.1667 117.04 52.99C117.372 52.8062 117.745 52.7097 118.125 52.7097C118.505 52.7097 118.878 52.8062 119.21 52.99C119.55 53.1772 119.826 53.4631 120 53.81C120.177 54.1636 120.266 54.5547 120.26 54.95C120.259 55.0101 120.256 55.0702 120.25 55.13ZM117.25 53.7C117.003 53.9304 116.85 54.2437 116.82 54.58H119.54C119.504 54.2434 119.348 53.931 119.1 53.7C118.847 53.4745 118.519 53.353 118.18 53.36C117.835 53.3499 117.499 53.4715 117.24 53.7H117.25Z" fill="#9B9B9B"/>
<path d="M124.76 53.1799C124.925 53.3659 125.052 53.5827 125.132 53.8179C125.213 54.053 125.246 54.3019 125.23 54.55V56.9999H124.46V54.64C124.488 54.3041 124.384 53.9706 124.17 53.71C124.057 53.6035 123.923 53.5211 123.777 53.4678C123.631 53.4146 123.475 53.3915 123.32 53.4C123.137 53.3861 122.952 53.412 122.78 53.4759C122.607 53.5397 122.45 53.64 122.32 53.7699C122.074 54.0436 121.945 54.4024 121.96 54.7699V56.96H121.19V52.81H121.92V53.4499C122.082 53.2281 122.299 53.0523 122.55 52.94C122.834 52.8171 123.141 52.7557 123.45 52.76C123.685 52.7395 123.922 52.7662 124.147 52.8383C124.372 52.9104 124.581 53.0265 124.76 53.1799Z" fill="#9B9B9B"/>
<path d="M127.25 56.81C126.92 56.6324 126.646 56.3656 126.46 56.04C126.27 55.6991 126.17 55.3153 126.17 54.925C126.17 54.5347 126.27 54.1509 126.46 53.81C126.646 53.4843 126.92 53.2175 127.25 53.04C127.608 52.8528 128.006 52.7567 128.41 52.76C128.758 52.7598 129.101 52.8421 129.41 53C129.705 53.1492 129.948 53.3824 130.11 53.67L129.52 54.05C129.402 53.8551 129.232 53.6961 129.03 53.59C128.825 53.4886 128.599 53.4372 128.37 53.44C128.109 53.4354 127.851 53.4973 127.62 53.62C127.403 53.7427 127.223 53.9225 127.1 54.14C126.973 54.3838 126.908 54.6551 126.91 54.93C126.908 55.2017 126.973 55.4697 127.1 55.71C127.222 55.9305 127.402 56.1137 127.62 56.24C127.851 56.3626 128.109 56.4246 128.37 56.42C128.599 56.4227 128.825 56.3713 129.03 56.27C129.232 56.1638 129.402 56.0048 129.52 55.81L130.11 56.18C129.946 56.4681 129.703 56.7038 129.41 56.86C129.07 57.0276 128.695 57.1148 128.315 57.1148C127.935 57.1148 127.561 57.0276 127.22 56.86L127.25 56.81Z" fill="#9B9B9B"/>
<path d="M134.76 55.1299H131.32C131.338 55.3049 131.391 55.4745 131.475 55.629C131.559 55.7835 131.673 55.9198 131.81 56.0299C132.109 56.2642 132.481 56.3847 132.86 56.3699C133.088 56.3781 133.315 56.3368 133.526 56.2487C133.737 56.1607 133.926 56.028 134.08 55.8599L134.5 56.3599C134.306 56.582 134.063 56.7565 133.79 56.8699C133.471 56.9895 133.131 57.0472 132.79 57.0399C132.377 57.048 131.969 56.9553 131.6 56.7699C131.263 56.5977 130.985 56.3298 130.8 55.9999C130.607 55.6583 130.507 55.2722 130.51 54.8799C130.502 54.4883 130.598 54.1015 130.79 53.7599C130.962 53.4344 131.227 53.1666 131.55 52.9899C131.883 52.8028 132.258 52.7063 132.64 52.7099C133.018 52.7061 133.391 52.8028 133.72 52.9899C134.038 53.17 134.298 53.4371 134.47 53.7599C134.655 54.1109 134.748 54.5032 134.74 54.8999C134.78 54.9599 134.77 55.0399 134.76 55.1299ZM131.76 53.6999C131.506 53.9263 131.349 54.2412 131.32 54.5799H134C133.968 54.242 133.811 53.9281 133.56 53.6999C133.304 53.4796 132.978 53.3584 132.64 53.3584C132.302 53.3584 131.976 53.4796 131.72 53.6999H131.76Z" fill="#9B9B9B"/>
<path d="M135.94 56.9C135.667 56.8321 135.409 56.7134 135.18 56.55L135.5 55.94C135.71 56.0801 135.939 56.188 136.18 56.26C136.443 56.339 136.716 56.3794 136.99 56.38C137.66 56.38 137.99 56.19 137.99 55.8C137.993 55.7425 137.981 55.6852 137.957 55.633C137.932 55.5808 137.896 55.5352 137.85 55.5C137.753 55.4175 137.636 55.3623 137.51 55.34C137.32 55.2879 137.126 55.2478 136.93 55.22C136.65 55.1786 136.373 55.1184 136.1 55.04C135.885 54.9711 135.692 54.847 135.54 54.68C135.38 54.4871 135.298 54.2407 135.31 53.99C135.307 53.8073 135.349 53.6267 135.432 53.4643C135.516 53.3019 135.639 53.163 135.79 53.06C136.173 52.8105 136.624 52.6881 137.08 52.71C137.367 52.7128 137.652 52.7497 137.93 52.82C138.174 52.8737 138.408 52.9683 138.62 53.1L138.29 53.71C137.927 53.4756 137.502 53.357 137.07 53.37C136.813 53.3522 136.557 53.4077 136.33 53.53C136.253 53.5724 136.188 53.6345 136.142 53.71C136.097 53.7855 136.072 53.8718 136.07 53.96C136.069 54.0203 136.081 54.0801 136.105 54.1353C136.13 54.1905 136.165 54.2399 136.21 54.28C136.317 54.3638 136.439 54.4251 136.57 54.46L137.17 54.59C137.452 54.6434 137.729 54.717 138 54.81C138.208 54.8721 138.394 54.9897 138.54 55.15C138.701 55.3348 138.784 55.5752 138.77 55.82C138.773 56.0009 138.729 56.1795 138.644 56.3388C138.558 56.4981 138.433 56.6328 138.28 56.73C137.879 56.9775 137.411 57.0961 136.94 57.07C136.6 57.0651 136.263 57.0077 135.94 56.9Z" fill="#9B9B9B"/>
<path d="M84.88 64.1301H81.44C81.4581 64.305 81.5107 64.4747 81.5948 64.6291C81.6789 64.7836 81.7928 64.9199 81.93 65.0301C82.2152 65.2533 82.5678 65.3732 82.93 65.3701C83.1581 65.3782 83.3853 65.3369 83.5959 65.2488C83.8065 65.1608 83.9955 65.0282 84.15 64.8601L84.57 65.3601C84.3754 65.5821 84.1325 65.7566 83.86 65.8701C83.5404 65.9896 83.2011 66.0473 82.86 66.0401C82.4807 66.0465 82.1049 65.9679 81.76 65.8101C81.426 65.634 81.1486 65.3671 80.96 65.0401C80.7673 64.6984 80.6674 64.3123 80.67 63.9201C80.6784 63.5271 80.7924 63.1437 81 62.8101C81.1752 62.4865 81.4388 62.2195 81.76 62.0401C82.0925 61.8529 82.4684 61.7564 82.85 61.7601C83.2285 61.7553 83.6014 61.852 83.93 62.0401C84.2482 62.2201 84.5084 62.4872 84.68 62.8101C84.8652 63.161 84.9581 63.5533 84.95 63.9501C84.9 63.9601 84.89 64.0401 84.88 64.1301ZM81.88 62.7001C81.6262 62.9264 81.4688 63.2413 81.44 63.5801H84.16C84.1283 63.2421 83.9713 62.9282 83.72 62.7001C83.4641 62.4797 83.1376 62.3586 82.8 62.3586C82.4623 62.3586 82.1359 62.4797 81.88 62.7001Z" fill="#9B9B9B"/>
<path d="M88.22 65.7501C88.0986 65.8488 87.9594 65.9235 87.81 65.9701C87.6442 66.0178 87.4725 66.0414 87.3 66.0401C87.1191 66.0518 86.9377 66.0279 86.7662 65.9695C86.5946 65.9112 86.4362 65.8196 86.3 65.7001C86.1767 65.5659 86.0821 65.4081 86.0219 65.2361C85.9618 65.0642 85.9373 64.8818 85.95 64.7001V62.3901H85.23V61.8101H86V60.8101H86.77V61.8101H87.99V62.4401H86.72V64.7301C86.7086 64.9217 86.7692 65.1108 86.89 65.2601C86.9543 65.3236 87.031 65.3733 87.1152 65.4059C87.1995 65.4386 87.2896 65.4536 87.38 65.4501C87.5973 65.4564 87.8099 65.3855 87.98 65.2501L88.22 65.7501Z" fill="#9B9B9B"/>
<path d="M91.1799 60.4H91.9999V65.3H94.9999V66H91.1799V60.4Z" fill="#9B9B9B"/>
<path d="M95.47 60.4H96.14V62.55H95.57L95.47 60.4Z" fill="#9B9B9B"/>
<path d="M97.3699 60.4H98.1699V66H97.3699V60.4Z" fill="#9B9B9B"/>
<path d="M103.16 62.18C103.329 62.3639 103.458 62.5802 103.541 62.8157C103.623 63.0512 103.657 63.3011 103.64 63.55V66.0001H102.87V63.64C102.892 63.3048 102.789 62.9732 102.58 62.71C102.467 62.6036 102.333 62.5212 102.187 62.4679C102.041 62.4147 101.885 62.3916 101.73 62.4C101.546 62.3875 101.363 62.414 101.19 62.4778C101.018 62.5416 100.861 62.6412 100.73 62.77C100.484 63.0437 100.355 63.4025 100.37 63.77V65.96H99.6099V61.81H100.34V62.45C100.502 62.2282 100.719 62.0524 100.97 61.94C101.253 61.8154 101.56 61.7539 101.87 61.76C102.102 61.7401 102.336 61.767 102.557 61.8391C102.779 61.9113 102.984 62.0272 103.16 62.18Z" fill="#9B9B9B"/>
<path d="M108.49 62.1801C108.659 62.364 108.788 62.5802 108.871 62.8158C108.953 63.0513 108.987 63.3011 108.97 63.5501V66.0001H108.2V63.6401C108.225 63.3029 108.117 62.9693 107.9 62.7101C107.789 62.6034 107.657 62.5208 107.512 62.4675C107.368 62.4142 107.214 62.3912 107.06 62.4001C106.877 62.3876 106.693 62.4141 106.52 62.4779C106.348 62.5416 106.191 62.6412 106.06 62.7701C105.814 63.0437 105.685 63.4026 105.7 63.7701V65.9601H104.93V61.8101H105.67V62.4501C105.828 62.224 106.046 62.0472 106.3 61.9401C106.583 61.8154 106.89 61.754 107.2 61.7601C107.432 61.7407 107.666 61.7679 107.887 61.84C108.109 61.9121 108.314 62.0277 108.49 62.1801Z" fill="#9B9B9B"/>
<path d="M111 65.81C110.67 65.6325 110.396 65.3657 110.21 65.04C110.02 64.6991 109.92 64.3153 109.92 63.925C109.92 63.5347 110.02 63.1509 110.21 62.81C110.396 62.4844 110.67 62.2176 111 62.04C111.348 61.8561 111.736 61.76 112.13 61.76C112.524 61.76 112.912 61.8561 113.26 62.04C113.572 62.2249 113.828 62.491 114 62.81C114.184 63.1529 114.28 63.536 114.28 63.925C114.28 64.3141 114.184 64.6971 114 65.04C113.814 65.3657 113.54 65.6325 113.21 65.81C112.868 65.9855 112.489 66.077 112.105 66.077C111.721 66.077 111.342 65.9855 111 65.81ZM112.86 65.23C113.077 65.1097 113.254 64.9291 113.37 64.71C113.495 64.4671 113.56 64.198 113.56 63.925C113.56 63.652 113.495 63.3829 113.37 63.14C113.254 62.921 113.077 62.7403 112.86 62.62C112.637 62.4973 112.385 62.4353 112.13 62.44C111.875 62.4366 111.624 62.4986 111.4 62.62C111.183 62.7403 111.006 62.921 110.89 63.14C110.765 63.3829 110.7 63.652 110.7 63.925C110.7 64.198 110.765 64.4671 110.89 64.71C111.006 64.9291 111.183 65.1097 111.4 65.23C111.621 65.359 111.874 65.4247 112.13 65.42C112.384 65.4076 112.63 65.3245 112.84 65.18L112.86 65.23Z" fill="#9B9B9B"/>
<path d="M118.89 61.8101L117 66.0001H116.22L114.39 61.8101H115.19L116.65 65.2101L118.14 61.8101H118.89Z" fill="#9B9B9B"/>
<path d="M122.24 62.1501C122.408 62.318 122.536 62.5204 122.618 62.7432C122.699 62.966 122.73 63.2038 122.71 63.4401V66.0001H122V65.4401C121.866 65.6379 121.679 65.7939 121.46 65.8901C121.19 65.996 120.901 66.047 120.61 66.0401C120.202 66.0608 119.8 65.9408 119.47 65.7001C119.328 65.5987 119.211 65.4654 119.129 65.3108C119.048 65.1563 119.004 64.9848 119 64.8101C118.993 64.6385 119.027 64.4677 119.098 64.3114C119.169 64.1551 119.276 64.0177 119.41 63.9101C119.79 63.6467 120.249 63.523 120.71 63.5601H121.92V63.4101C121.929 63.2709 121.909 63.1313 121.86 63.0005C121.812 62.8696 121.737 62.7502 121.64 62.6501C121.397 62.4639 121.095 62.3715 120.79 62.3901C120.539 62.39 120.289 62.4306 120.05 62.5101C119.829 62.5886 119.623 62.7035 119.44 62.8501L119.12 62.2701C119.353 62.0841 119.622 61.948 119.91 61.8701C120.233 61.7639 120.571 61.7131 120.91 61.7201C121.392 61.6892 121.868 61.843 122.24 62.1501ZM121.48 65.2601C121.69 65.1279 121.851 64.9314 121.94 64.7001V64.1101H120.76C120.11 64.1101 119.76 64.3301 119.76 64.7601C119.758 64.8589 119.78 64.9567 119.823 65.0454C119.867 65.1341 119.931 65.2111 120.01 65.2701C120.216 65.3998 120.457 65.4627 120.7 65.4501C120.973 65.4625 121.244 65.3966 121.48 65.2601Z" fill="#9B9B9B"/>
<path d="M126.4 65.7501C126.276 65.8508 126.133 65.9256 125.98 65.9701C125.814 66.0191 125.642 66.0428 125.47 66.0401C125.289 66.0625 125.106 66.0436 124.934 65.9849C124.762 65.9261 124.606 65.829 124.476 65.7009C124.347 65.5728 124.249 65.4171 124.189 65.2454C124.129 65.0737 124.109 64.8907 124.13 64.7101V62.3901H123.41V61.8101H124.13V60.8101H124.9V61.8101H126.11V62.4401H124.9V64.7301C124.892 64.8253 124.902 64.9212 124.932 65.0122C124.961 65.1031 125.008 65.1874 125.07 65.2601C125.134 65.3241 125.21 65.3741 125.295 65.4068C125.379 65.4395 125.47 65.4542 125.56 65.4501C125.776 65.4501 125.987 65.3799 126.16 65.2501L126.4 65.7501Z" fill="#9B9B9B"/>
<path d="M127.22 60.81C127.172 60.7635 127.133 60.7075 127.108 60.6456C127.082 60.5837 127.069 60.5171 127.07 60.45C127.069 60.3845 127.082 60.3195 127.108 60.2592C127.134 60.1989 127.172 60.1447 127.22 60.1C127.268 60.051 127.326 60.0123 127.389 59.9865C127.453 59.9607 127.521 59.9483 127.59 59.95C127.658 59.9476 127.725 59.9587 127.789 59.9827C127.853 60.0068 127.911 60.0432 127.96 60.09C128.009 60.1339 128.048 60.1879 128.074 60.2484C128.1 60.3089 128.112 60.3743 128.11 60.44C128.118 60.506 128.112 60.5727 128.093 60.6363C128.074 60.6999 128.042 60.759 128 60.81C127.953 60.8601 127.895 60.8995 127.831 60.9253C127.767 60.9512 127.699 60.9631 127.63 60.96C127.555 60.9656 127.479 60.9551 127.409 60.9292C127.338 60.9034 127.274 60.8627 127.22 60.81ZM127.22 61.81H128V66.05H127.23L127.22 61.81Z" fill="#9B9B9B"/>
<path d="M130 65.8101C129.67 65.6325 129.396 65.3657 129.21 65.0401C129.026 64.6972 128.93 64.3141 128.93 63.9251C128.93 63.536 129.026 63.153 129.21 62.8101C129.396 62.4844 129.67 62.2176 130 62.0401C130.35 61.8561 130.739 61.76 131.135 61.76C131.53 61.76 131.92 61.8561 132.27 62.0401C132.597 62.2191 132.867 62.4858 133.05 62.8101C133.24 63.151 133.34 63.5348 133.34 63.9251C133.34 64.3153 133.24 64.6992 133.05 65.0401C132.867 65.3644 132.597 65.631 132.27 65.8101C131.92 65.994 131.53 66.0901 131.135 66.0901C130.739 66.0901 130.35 65.994 130 65.8101ZM131.87 65.2301C132.083 65.1044 132.258 64.9251 132.38 64.7101C132.499 64.4654 132.56 64.197 132.56 63.9251C132.56 63.6531 132.499 63.3848 132.38 63.1401C132.258 62.9251 132.083 62.7457 131.87 62.6201C131.643 62.5018 131.391 62.44 131.135 62.44C130.879 62.44 130.627 62.5018 130.4 62.6201C130.187 62.7457 130.011 62.9251 129.89 63.1401C129.765 63.383 129.7 63.6521 129.7 63.9251C129.7 64.1981 129.765 64.4672 129.89 64.7101C130.014 64.9311 130.196 65.1141 130.416 65.2392C130.636 65.3643 130.887 65.4269 131.14 65.4201C131.401 65.4097 131.654 65.3266 131.87 65.1801V65.2301Z" fill="#9B9B9B"/>
<path d="M137.83 62.1801C137.995 62.366 138.122 62.5828 138.202 62.818C138.283 63.0532 138.316 63.302 138.3 63.5501V66.0001H137.54V63.6401C137.565 63.3029 137.457 62.9693 137.24 62.7101C137.127 62.6036 136.993 62.5213 136.847 62.468C136.701 62.4147 136.545 62.3916 136.39 62.4001C136.207 62.3876 136.023 62.4141 135.85 62.4778C135.678 62.5416 135.521 62.6412 135.39 62.7701C135.144 63.0437 135.015 63.4025 135.03 63.7701V65.9601H134.26V61.8101H135V62.4501C135.156 62.2265 135.371 62.0501 135.62 61.9401C135.904 61.8172 136.211 61.7558 136.52 61.7601C136.755 61.7397 136.992 61.7663 137.217 61.8384C137.442 61.9105 137.65 62.0267 137.83 62.1801Z" fill="#9B9B9B"/>
</g>
<defs>
<clipPath id="clip0_6_2">
<rect width="138.77" height="68" fill="white"/>
</clipPath>
</defs>
</svg>
