<svg id="Layer_1" data-name="Layer 1" xmlns="http://www.w3.org/2000/svg" viewBox="0 0 138.77 68"><defs><style>.cls-1{fill:#d46b2b;}.cls-2{isolation:isolate;}.cls-3{fill:#fff;}</style></defs><path id="Union_1" data-name="Union 1" class="cls-1" d="M40.06,68.19V60.3h4.86v7.89Zm8.08-10.74V22.39H53V57.45Zm-16.09,0H5v-4.9H32.05V30.47h4.86v27Zm-31.92,0V41.21H5V57.45ZM40.06,57V41.14h4.86V57ZM.13,38.49v-8H5v8Zm39.93-.66V11.65h4.86V37.83ZM32.05,27V11.65h4.86V27Zm-8,0V11.65H28.9V27Zm-8,0V11.65h4.86V27ZM0,27v-4.9H8V11.65h4.86V22.06h.06V27ZM32.05,8.14V.19h4.86v8Zm-8,0V.19H28.9v8Zm-8,0V.19h4.86v8Z" transform="translate(0 -0.19)"/><g class="cls-2"><path class="cls-3" d="M64.36,16.32v3.2h5.07v1.65H64.36v4h-2V14.69h7.67v1.63Z" transform="translate(0 -0.19)"/><path class="cls-3" d="M72.78,24.77a3.8,3.8,0,0,1-1.53-1.47,4.41,4.41,0,0,1,0-4.23,3.84,3.84,0,0,1,1.53-1.46A4.48,4.48,0,0,1,75,17.09a4.57,4.57,0,0,1,2.21.52,3.82,3.82,0,0,1,1.52,1.46,4.34,4.34,0,0,1,0,4.23,3.77,3.77,0,0,1-1.52,1.47,4.68,4.68,0,0,1-2.21.52A4.59,4.59,0,0,1,72.78,24.77ZM76.67,23a2.46,2.46,0,0,0,.68-1.81,2.5,2.5,0,0,0-.68-1.82,2.48,2.48,0,0,0-3.41,0,2.53,2.53,0,0,0-.67,1.82A2.49,2.49,0,0,0,73.26,23a2.43,2.43,0,0,0,3.41,0Z" transform="translate(0 -0.19)"/><path class="cls-3" d="M87.82,18a3.5,3.5,0,0,1,.91,2.63v4.59H86.86V20.84a2.28,2.28,0,0,0-.49-1.59A1.86,1.86,0,0,0,85,18.72a2.18,2.18,0,0,0-1.64.62,2.51,2.51,0,0,0-.6,1.8v4.05H80.84v-8h1.79v1a2.93,2.93,0,0,1,1.17-.84,4.21,4.21,0,0,1,1.59-.28A3.34,3.34,0,0,1,87.82,18Z" transform="translate(0 -0.19)"/><path class="cls-3" d="M98.84,14.06V25.19H97v-1A2.92,2.92,0,0,1,95.9,25a3.9,3.9,0,0,1-1.51.28,4.24,4.24,0,0,1-2.08-.51,3.59,3.59,0,0,1-1.44-1.45,4.63,4.63,0,0,1,0-4.3,3.67,3.67,0,0,1,1.44-1.43,4.24,4.24,0,0,1,2.08-.51,3.78,3.78,0,0,1,1.45.27,2.77,2.77,0,0,1,1.13.81V14.06Zm-3,9.32a2.25,2.25,0,0,0,.85-.88,2.88,2.88,0,0,0,0-2.64,2.25,2.25,0,0,0-.85-.88,2.61,2.61,0,0,0-2.43,0,2.27,2.27,0,0,0-.86.88,3,3,0,0,0,0,2.64,2.27,2.27,0,0,0,.86.88,2.54,2.54,0,0,0,2.43,0Z" transform="translate(0 -0.19)"/><path class="cls-3" d="M106.88,17.93a3.3,3.3,0,0,1,.93,2.56v4.7H106v-1a2.11,2.11,0,0,1-1,.8,3.75,3.75,0,0,1-1.54.28A3.67,3.67,0,0,1,102,25a2.39,2.39,0,0,1-1-.85,2.15,2.15,0,0,1-.37-1.24,2.12,2.12,0,0,1,.8-1.73,4,4,0,0,1,2.53-.65h2.07v-.12a1.64,1.64,0,0,0-.5-1.29,2.2,2.2,0,0,0-1.5-.45,4.24,4.24,0,0,0-1.32.21,3.25,3.25,0,0,0-1.11.58l-.73-1.37a4.72,4.72,0,0,1,1.51-.73,6.78,6.78,0,0,1,1.88-.25A3.94,3.94,0,0,1,106.88,17.93Zm-1.71,5.67a1.75,1.75,0,0,0,.77-.92v-.93H104c-1.08,0-1.62.36-1.62,1.07a1,1,0,0,0,.41.81,1.84,1.84,0,0,0,1.12.3A2.42,2.42,0,0,0,105.17,23.6Z" transform="translate(0 -0.19)"/><path class="cls-3" d="M114.83,24.75a2,2,0,0,1-.8.4,3.59,3.59,0,0,1-1,.14A2.84,2.84,0,0,1,111,24.6a2.66,2.66,0,0,1-.72-2V18.74H109v-1.5h1.31V15.4h1.88v1.84h2.14v1.5h-2.14v3.81a1.27,1.27,0,0,0,.28.89,1.1,1.1,0,0,0,.83.3,1.64,1.64,0,0,0,1-.32Z" transform="translate(0 -0.19)"/><path class="cls-3" d="M116.27,15.53a1.11,1.11,0,0,1,0-1.6,1.19,1.19,0,0,1,.86-.32,1.24,1.24,0,0,1,.85.3,1,1,0,0,1,.35.78,1.12,1.12,0,0,1-.34.83,1.18,1.18,0,0,1-.86.34A1.2,1.2,0,0,1,116.27,15.53Zm-.09,1.65h1.88v8h-1.88Z" transform="translate(0 -0.19)"/><path class="cls-3" d="M121.73,24.77a3.84,3.84,0,0,1-1.52-1.47,4.34,4.34,0,0,1,0-4.23,3.88,3.88,0,0,1,1.52-1.46,4.54,4.54,0,0,1,2.19-.52,4.59,4.59,0,0,1,2.21.52,3.82,3.82,0,0,1,1.52,1.46,4.34,4.34,0,0,1,0,4.23,3.77,3.77,0,0,1-1.52,1.47,4.71,4.71,0,0,1-2.21.52A4.66,4.66,0,0,1,121.73,24.77Zm3.9-1.78a2.46,2.46,0,0,0,.68-1.81,2.5,2.5,0,0,0-.68-1.82,2.48,2.48,0,0,0-3.41,0,2.53,2.53,0,0,0-.67,1.82,2.49,2.49,0,0,0,.67,1.81,2.43,2.43,0,0,0,3.41,0Z" transform="translate(0 -0.19)"/><path class="cls-3" d="M136.78,18a3.5,3.5,0,0,1,.91,2.63v4.59h-1.87V20.84a2.28,2.28,0,0,0-.5-1.59,1.85,1.85,0,0,0-1.41-.53,2.17,2.17,0,0,0-1.63.62,2.51,2.51,0,0,0-.6,1.8v4.05H129.8v-8h1.79v1a2.93,2.93,0,0,1,1.17-.84,4.21,4.21,0,0,1,1.59-.28A3.34,3.34,0,0,1,136.78,18Z" transform="translate(0 -0.19)"/></g><g class="cls-2"><path class="cls-3" d="M62.41,31.69h2v10.5h-2Z" transform="translate(0 -0.19)"/><path class="cls-3" d="M73.35,34.6A3.69,3.69,0,0,1,74.8,36a4.7,4.7,0,0,1,0,4.3,3.61,3.61,0,0,1-1.45,1.45,4.23,4.23,0,0,1-2.09.51A3.9,3.9,0,0,1,69.75,42a3,3,0,0,1-1.15-.86v1H66.82V31.06h1.87v4.09a3,3,0,0,1,1.14-.79,3.68,3.68,0,0,1,1.43-.27A4.23,4.23,0,0,1,73.35,34.6ZM72.75,40a2.45,2.45,0,0,0,.67-1.81,2.49,2.49,0,0,0-.67-1.82,2.25,2.25,0,0,0-1.7-.68,2.51,2.51,0,0,0-1.22.3,2.25,2.25,0,0,0-.85.88,3,3,0,0,0,0,2.64,2.25,2.25,0,0,0,.85.88,2.51,2.51,0,0,0,1.22.31A2.23,2.23,0,0,0,72.75,40Z" transform="translate(0 -0.19)"/><path class="cls-3" d="M83.89,35a3.5,3.5,0,0,1,.91,2.63v4.59H82.93V37.84a2.28,2.28,0,0,0-.5-1.59A1.85,1.85,0,0,0,81,35.72a2.17,2.17,0,0,0-1.63.62,2.51,2.51,0,0,0-.6,1.8v4H76.91v-8H78.7v1a2.93,2.93,0,0,1,1.17-.84,4.21,4.21,0,0,1,1.59-.28A3.34,3.34,0,0,1,83.89,35Z" transform="translate(0 -0.19)"/><path class="cls-3" d="M98,42.19l-2.15-3.08-.4,0H93.07v3.06H91.12V31.69h4.32a5.84,5.84,0,0,1,2.38.45,3.41,3.41,0,0,1,1.55,1.29,3.59,3.59,0,0,1,.54,2,3.52,3.52,0,0,1-.58,2,3.43,3.43,0,0,1-1.66,1.28l2.42,3.45Zm-.7-8.31a3,3,0,0,0-1.94-.54H93.07v4.18h2.28A3,3,0,0,0,97.29,37a1.92,1.92,0,0,0,.65-1.55A1.89,1.89,0,0,0,97.29,33.88Z" transform="translate(0 -0.19)"/><path class="cls-3" d="M103.12,41.77a3.77,3.77,0,0,1-1.52-1.47,4.34,4.34,0,0,1,0-4.23,3.82,3.82,0,0,1,1.52-1.46,4.89,4.89,0,0,1,4.39,0A3.91,3.91,0,0,1,109,36.07a4.41,4.41,0,0,1,0,4.23,3.86,3.86,0,0,1-1.53,1.47,4.89,4.89,0,0,1-4.39,0ZM107,40a2.45,2.45,0,0,0,.67-1.81,2.49,2.49,0,0,0-.67-1.82,2.28,2.28,0,0,0-1.71-.68,2.25,2.25,0,0,0-1.7.68,2.49,2.49,0,0,0-.67,1.82,2.45,2.45,0,0,0,.67,1.81,2.23,2.23,0,0,0,1.7.7A2.26,2.26,0,0,0,107,40Z" transform="translate(0 -0.19)"/><path class="cls-3" d="M112.63,41.77a3.85,3.85,0,0,1-1.55-1.47,4.34,4.34,0,0,1,0-4.23,3.94,3.94,0,0,1,1.54-1.46,4.69,4.69,0,0,1,2.24-.52,4.32,4.32,0,0,1,2.08.48A3.08,3.08,0,0,1,118.28,36l-1.44.83A2.35,2.35,0,0,0,116,36a2.39,2.39,0,0,0-1.13-.27,2.35,2.35,0,0,0-1.74.68,2.43,2.43,0,0,0-.69,1.82A2.47,2.47,0,0,0,113.1,40a2.37,2.37,0,0,0,1.75.69,2.39,2.39,0,0,0,1.13-.28,2.23,2.23,0,0,0,.86-.84l1.44.85a3.21,3.21,0,0,1-1.35,1.38,4.22,4.22,0,0,1-2.07.49A4.79,4.79,0,0,1,112.63,41.77Z" transform="translate(0 -0.19)"/><path class="cls-3" d="M126.61,35a3.5,3.5,0,0,1,.91,2.63v4.59h-1.87V37.84a2.28,2.28,0,0,0-.5-1.59,1.85,1.85,0,0,0-1.41-.53,2.17,2.17,0,0,0-1.63.62,2.51,2.51,0,0,0-.6,1.8v4h-1.88V31.06h1.88v4.05a3,3,0,0,1,1.15-.76,4.08,4.08,0,0,1,1.52-.26A3.34,3.34,0,0,1,126.61,35Z" transform="translate(0 -0.19)"/><path class="cls-3" d="M137.63,31.06V42.19h-1.8v-1a2.92,2.92,0,0,1-1.14.86,3.9,3.9,0,0,1-1.51.28,4.24,4.24,0,0,1-2.08-.51,3.68,3.68,0,0,1-1.45-1.45,4.7,4.7,0,0,1,0-4.3,3.76,3.76,0,0,1,1.45-1.43,4.24,4.24,0,0,1,2.08-.51,3.78,3.78,0,0,1,1.45.27,2.84,2.84,0,0,1,1.13.81V31.06Zm-3,9.32a2.25,2.25,0,0,0,.85-.88,2.88,2.88,0,0,0,0-2.64,2.25,2.25,0,0,0-.85-.88,2.48,2.48,0,0,0-1.22-.3,2.44,2.44,0,0,0-1.21.3,2.27,2.27,0,0,0-.86.88,3,3,0,0,0,0,2.64,2.27,2.27,0,0,0,.86.88,2.45,2.45,0,0,0,1.21.31A2.48,2.48,0,0,0,134.62,40.38Z" transform="translate(0 -0.19)"/></g><g class="cls-2"><path class="cls-3" d="M75.22,52.11a2,2,0,0,1,0,2.86,2.6,2.6,0,0,1-1.72.52H72.12v1.7h-.8v-5.6H73.5A2.6,2.6,0,0,1,75.22,52.11Zm-.58,2.36a1.13,1.13,0,0,0,.4-.93,1.1,1.1,0,0,0-.4-.93,1.78,1.78,0,0,0-1.16-.33H72.12v2.51h1.36A1.78,1.78,0,0,0,74.64,54.47Z" transform="translate(0 -0.19)"/><path class="cls-3" d="M77.45,57a2,2,0,0,1-.79-.77,2.36,2.36,0,0,1,0-2.23,2,2,0,0,1,.79-.77,2.34,2.34,0,0,1,1.13-.28,2.38,2.38,0,0,1,1.14.28,2,2,0,0,1,.78.77,2.36,2.36,0,0,1,0,2.23,2,2,0,0,1-.78.77,2.27,2.27,0,0,1-1.14.28A2.23,2.23,0,0,1,77.45,57Zm1.87-.58a1.32,1.32,0,0,0,.5-.52,1.72,1.72,0,0,0,0-1.57,1.32,1.32,0,0,0-.5-.52,1.59,1.59,0,0,0-1.47,0,1.41,1.41,0,0,0-.51.52,1.72,1.72,0,0,0,0,1.57,1.41,1.41,0,0,0,.51.52,1.52,1.52,0,0,0,1.47,0Z" transform="translate(0 -0.19)"/><path class="cls-3" d="M85.68,53v4.24H85v-.64a1.58,1.58,0,0,1-.61.5,1.9,1.9,0,0,1-.83.18,1.66,1.66,0,0,1-1.82-1.84V53h.77V55.3a1.3,1.3,0,0,0,.29.93,1.12,1.12,0,0,0,.85.32,1.27,1.27,0,0,0,1-.37,1.47,1.47,0,0,0,.35-1V53Z" transform="translate(0 -0.19)"/><path class="cls-3" d="M88.35,53.1a2.12,2.12,0,0,1,1-.2v.75h-.17a1.32,1.32,0,0,0-1,.37,1.46,1.46,0,0,0-.36,1.06v2.12H87V53h.74v.71A1.28,1.28,0,0,1,88.35,53.1Z" transform="translate(0 -0.19)"/><path class="cls-3" d="M92.22,51.25H93v5.94h-.76Z" transform="translate(0 -0.19)"/><path class="cls-3" d="M98.14,55.32H94.7a1.34,1.34,0,0,0,.5.9,1.73,1.73,0,0,0,2.26-.17l.43.5a1.89,1.89,0,0,1-.72.51A2.77,2.77,0,0,1,95,57a2,2,0,0,1-.8-.77,2.24,2.24,0,0,1-.28-1.12A2.29,2.29,0,0,1,94.21,54a2,2,0,0,1,.76-.77,2.21,2.21,0,0,1,1.09-.28,2.18,2.18,0,0,1,1.09.28,2,2,0,0,1,.74.77,2.34,2.34,0,0,1,.27,1.14C98.16,55.15,98.15,55.23,98.14,55.32Zm-3-1.43a1.38,1.38,0,0,0-.44.88h2.72a1.35,1.35,0,0,0-.43-.88,1.43,1.43,0,0,0-1.85,0Z" transform="translate(0 -0.19)"/><path class="cls-3" d="M99.32,57.09a2.18,2.18,0,0,1-.75-.35l.32-.61a2.26,2.26,0,0,0,.68.32,2.74,2.74,0,0,0,.81.12c.67,0,1-.19,1-.58a.35.35,0,0,0-.13-.3.77.77,0,0,0-.34-.16,5.15,5.15,0,0,0-.58-.12,7,7,0,0,1-.84-.18,1.26,1.26,0,0,1-.55-.36.93.93,0,0,1-.24-.69,1.1,1.1,0,0,1,.48-.93,2.17,2.17,0,0,1,1.29-.35,3.54,3.54,0,0,1,.85.11,2.38,2.38,0,0,1,.7.28l-.33.61a2.19,2.19,0,0,0-1.23-.34,1.38,1.38,0,0,0-.74.16.5.5,0,0,0-.26.43.39.39,0,0,0,.15.32.89.89,0,0,0,.35.18l.6.13a6.17,6.17,0,0,1,.83.19,1.19,1.19,0,0,1,.54.34.93.93,0,0,1,.22.67,1,1,0,0,1-.49.91,2.31,2.31,0,0,1-1.34.34A3.31,3.31,0,0,1,99.32,57.09Z" transform="translate(0 -0.19)"/><path class="cls-3" d="M105.55,57.05a2.71,2.71,0,0,1-.93-.5l.3-.63a2.49,2.49,0,0,0,.82.47,3,3,0,0,0,1,.18,1.84,1.84,0,0,0,1-.24.71.71,0,0,0,.34-.63.59.59,0,0,0-.19-.46,1.32,1.32,0,0,0-.46-.28c-.18-.06-.44-.14-.78-.22a8.26,8.26,0,0,1-1-.3A1.63,1.63,0,0,1,105,54a1.21,1.21,0,0,1-.28-.85,1.43,1.43,0,0,1,.24-.81,1.53,1.53,0,0,1,.71-.57,2.81,2.81,0,0,1,1.19-.22,3.62,3.62,0,0,1,1,.13,2.69,2.69,0,0,1,.82.37l-.26.64a2.67,2.67,0,0,0-.75-.34,2.76,2.76,0,0,0-.79-.12,1.71,1.71,0,0,0-1,.25.77.77,0,0,0-.34.64.62.62,0,0,0,.2.47,1.28,1.28,0,0,0,.47.28l.77.21a7.76,7.76,0,0,1,1,.3,1.63,1.63,0,0,1,.66.47,1.25,1.25,0,0,1,.28.84,1.42,1.42,0,0,1-.24.8A1.66,1.66,0,0,1,108,57a3.07,3.07,0,0,1-1.2.21A3.85,3.85,0,0,1,105.55,57.05Z" transform="translate(0 -0.19)"/><path class="cls-3" d="M110.56,57a2,2,0,0,1-.79-.77,2.29,2.29,0,0,1,0-2.23,2,2,0,0,1,.79-.77,2.46,2.46,0,0,1,1.16-.28,2.17,2.17,0,0,1,1,.24,1.67,1.67,0,0,1,.7.67l-.59.38a1.2,1.2,0,0,0-.49-.46,1.45,1.45,0,0,0-.66-.15,1.54,1.54,0,0,0-.75.18,1.37,1.37,0,0,0-.52.52,1.67,1.67,0,0,0-.18.79,1.63,1.63,0,0,0,.18.78,1.39,1.39,0,0,0,.52.53,1.54,1.54,0,0,0,.75.18,1.45,1.45,0,0,0,.66-.15,1.2,1.2,0,0,0,.49-.46l.59.37a1.76,1.76,0,0,1-.7.68,2.29,2.29,0,0,1-1,.23A2.34,2.34,0,0,1,110.56,57Z" transform="translate(0 -0.19)"/><path class="cls-3" d="M114.33,52a.49.49,0,0,1-.15-.36.47.47,0,0,1,.15-.35.5.5,0,0,1,.37-.15.56.56,0,0,1,.38.14.48.48,0,0,1,.14.35.5.5,0,0,1-.52.51A.53.53,0,0,1,114.33,52Zm0,1h.77v4.24h-.77Z" transform="translate(0 -0.19)"/><path class="cls-3" d="M120.25,55.32h-3.44a1.33,1.33,0,0,0,.49.9,1.75,1.75,0,0,0,2.27-.17l.42.5a1.93,1.93,0,0,1-.71.51,2.69,2.69,0,0,1-1,.17,2.52,2.52,0,0,1-1.19-.27,2,2,0,0,1-.81-.77,2.24,2.24,0,0,1-.28-1.12,2.19,2.19,0,0,1,.28-1.12,1.88,1.88,0,0,1,.76-.77,2.24,2.24,0,0,1,2.17,0A1.92,1.92,0,0,1,120,54a2.46,2.46,0,0,1,.26,1.14A2,2,0,0,1,120.25,55.32Zm-3-1.43a1.37,1.37,0,0,0-.43.88h2.72a1.41,1.41,0,0,0-.44-.88,1.34,1.34,0,0,0-.92-.34A1.36,1.36,0,0,0,117.24,53.89Z" transform="translate(0 -0.19)"/><path class="cls-3" d="M124.76,53.37a1.88,1.88,0,0,1,.47,1.37v2.45h-.77V54.83a1.3,1.3,0,0,0-.29-.93,1.15,1.15,0,0,0-.85-.31,1.28,1.28,0,0,0-1,.37,1.41,1.41,0,0,0-.36,1v2.19h-.77V53h.73v.64a1.58,1.58,0,0,1,.63-.51,2.19,2.19,0,0,1,.9-.18A1.78,1.78,0,0,1,124.76,53.37Z" transform="translate(0 -0.19)"/><path class="cls-3" d="M127.25,57a2,2,0,0,1-.79-.77,2.29,2.29,0,0,1,0-2.23,2,2,0,0,1,.79-.77,2.46,2.46,0,0,1,1.16-.28,2.2,2.2,0,0,1,1,.24,1.67,1.67,0,0,1,.7.67l-.59.38a1.26,1.26,0,0,0-.49-.46,1.45,1.45,0,0,0-.66-.15,1.54,1.54,0,0,0-.75.18,1.37,1.37,0,0,0-.52.52,1.68,1.68,0,0,0-.19.79,1.64,1.64,0,0,0,.19.78,1.39,1.39,0,0,0,.52.53,1.54,1.54,0,0,0,.75.18,1.45,1.45,0,0,0,.66-.15,1.26,1.26,0,0,0,.49-.46l.59.37a1.76,1.76,0,0,1-.7.68,2.48,2.48,0,0,1-2.19,0Z" transform="translate(0 -0.19)"/><path class="cls-3" d="M134.76,55.32h-3.44a1.33,1.33,0,0,0,.49.9,1.6,1.6,0,0,0,1.05.34,1.58,1.58,0,0,0,1.22-.51l.42.5a1.93,1.93,0,0,1-.71.51,2.69,2.69,0,0,1-1,.17,2.54,2.54,0,0,1-1.19-.27,1.92,1.92,0,0,1-.8-.77,2.25,2.25,0,0,1-.29-1.12,2.19,2.19,0,0,1,.28-1.12,1.88,1.88,0,0,1,.76-.77,2.18,2.18,0,0,1,1.09-.28,2.14,2.14,0,0,1,1.08.28,1.92,1.92,0,0,1,.75.77,2.34,2.34,0,0,1,.27,1.14C134.78,55.15,134.77,55.23,134.76,55.32Zm-3-1.43a1.33,1.33,0,0,0-.44.88H134a1.36,1.36,0,0,0-.44-.88,1.41,1.41,0,0,0-1.84,0Z" transform="translate(0 -0.19)"/><path class="cls-3" d="M135.94,57.09a2.24,2.24,0,0,1-.76-.35l.32-.61a2.52,2.52,0,0,0,.68.32,2.84,2.84,0,0,0,.81.12c.67,0,1-.19,1-.58a.36.36,0,0,0-.14-.3.72.72,0,0,0-.34-.16,4.71,4.71,0,0,0-.58-.12,6.37,6.37,0,0,1-.83-.18,1.29,1.29,0,0,1-.56-.36,1,1,0,0,1-.23-.69,1.1,1.1,0,0,1,.48-.93,2.17,2.17,0,0,1,1.29-.35,3.61,3.61,0,0,1,.85.11,2.21,2.21,0,0,1,.69.28l-.33.61a2.13,2.13,0,0,0-1.22-.34,1.36,1.36,0,0,0-.74.16.5.5,0,0,0-.26.43.42.42,0,0,0,.14.32,1,1,0,0,0,.36.18l.6.13A6,6,0,0,1,138,55a1.19,1.19,0,0,1,.54.34.94.94,0,0,1,.23.67,1.06,1.06,0,0,1-.49.91,2.31,2.31,0,0,1-1.34.34A3.31,3.31,0,0,1,135.94,57.09Z" transform="translate(0 -0.19)"/></g><g class="cls-2"><path class="cls-3" d="M84.88,64.32H81.44a1.33,1.33,0,0,0,.49.9,1.6,1.6,0,0,0,1,.34,1.58,1.58,0,0,0,1.22-.51l.42.5a1.93,1.93,0,0,1-.71.51,2.69,2.69,0,0,1-1,.17A2.54,2.54,0,0,1,81.76,66a2,2,0,0,1-.8-.77,2.25,2.25,0,0,1-.29-1.12A2.19,2.19,0,0,1,81,63a1.94,1.94,0,0,1,.76-.77,2.18,2.18,0,0,1,1.09-.28,2.12,2.12,0,0,1,1.08.28,1.92,1.92,0,0,1,.75.77,2.34,2.34,0,0,1,.27,1.14C84.9,64.15,84.89,64.23,84.88,64.32Zm-3-1.43a1.33,1.33,0,0,0-.44.88h2.72a1.36,1.36,0,0,0-.44-.88,1.41,1.41,0,0,0-1.84,0Z" transform="translate(0 -0.19)"/><path class="cls-3" d="M88.22,65.94a1.23,1.23,0,0,1-.41.22,1.79,1.79,0,0,1-.51.07,1.38,1.38,0,0,1-1-.34,1.34,1.34,0,0,1-.35-1V62.58h-.72V62H86V61h.77V62h1.22v.63H86.72v2.29a.77.77,0,0,0,.17.53.66.66,0,0,0,.49.19.92.92,0,0,0,.6-.2Z" transform="translate(0 -0.19)"/><path class="cls-3" d="M91.18,60.59H92v4.9h3v.7H91.18Z" transform="translate(0 -0.19)"/><path class="cls-3" d="M95.47,60.59h.67l0,2.15h-.57Z" transform="translate(0 -0.19)"/><path class="cls-3" d="M97.37,60.59h.8v5.6h-.8Z" transform="translate(0 -0.19)"/><path class="cls-3" d="M103.16,62.37a1.84,1.84,0,0,1,.48,1.37v2.45h-.77V63.83a1.35,1.35,0,0,0-.29-.93,1.15,1.15,0,0,0-.85-.31,1.3,1.3,0,0,0-1,.37,1.41,1.41,0,0,0-.36,1v2.19h-.76V62h.73v.64a1.58,1.58,0,0,1,.63-.51,2.13,2.13,0,0,1,.9-.18A1.74,1.74,0,0,1,103.16,62.37Z" transform="translate(0 -0.19)"/><path class="cls-3" d="M108.49,62.37a1.84,1.84,0,0,1,.48,1.37v2.45h-.77V63.83a1.3,1.3,0,0,0-.3-.93,1.12,1.12,0,0,0-.84-.31,1.3,1.3,0,0,0-1,.37,1.41,1.41,0,0,0-.36,1v2.19h-.77V62h.74v.64a1.46,1.46,0,0,1,.63-.51,2.13,2.13,0,0,1,.9-.18A1.75,1.75,0,0,1,108.49,62.37Z" transform="translate(0 -0.19)"/><path class="cls-3" d="M111,66a2,2,0,0,1-.79-.77,2.29,2.29,0,0,1,0-2.23,2,2,0,0,1,.79-.77,2.42,2.42,0,0,1,2.26,0A2,2,0,0,1,114,63a2.36,2.36,0,0,1,0,2.23,2,2,0,0,1-.79.77A2.42,2.42,0,0,1,111,66Zm1.86-.58a1.28,1.28,0,0,0,.51-.52,1.72,1.72,0,0,0,0-1.57,1.28,1.28,0,0,0-.51-.52,1.46,1.46,0,0,0-.73-.18,1.49,1.49,0,0,0-.73.18,1.28,1.28,0,0,0-.51.52,1.72,1.72,0,0,0,0,1.57,1.28,1.28,0,0,0,.51.52,1.4,1.4,0,0,0,.73.19A1.37,1.37,0,0,0,112.84,65.37Z" transform="translate(0 -0.19)"/><path class="cls-3" d="M118.89,62,117,66.19h-.78L114.39,62h.8l1.46,3.4,1.49-3.4Z" transform="translate(0 -0.19)"/><path class="cls-3" d="M122.24,62.34a1.63,1.63,0,0,1,.47,1.29v2.56H122v-.56a1.27,1.27,0,0,1-.54.45,2.19,2.19,0,0,1-.85.15,1.78,1.78,0,0,1-1.14-.34A1.12,1.12,0,0,1,119,65a1.1,1.1,0,0,1,.41-.9,2,2,0,0,1,1.3-.35h1.21v-.15a1,1,0,0,0-.28-.76,1.27,1.27,0,0,0-.85-.26,2.34,2.34,0,0,0-.74.12,2.1,2.1,0,0,0-.61.34l-.32-.58a2.18,2.18,0,0,1,.79-.4,3,3,0,0,1,1-.15A1.9,1.9,0,0,1,122.24,62.34Zm-.76,3.11a1.15,1.15,0,0,0,.46-.56V64.3h-1.18c-.65,0-1,.22-1,.65a.62.62,0,0,0,.25.51,1.18,1.18,0,0,0,.69.18A1.43,1.43,0,0,0,121.48,65.45Z" transform="translate(0 -0.19)"/><path class="cls-3" d="M126.4,65.94a1.19,1.19,0,0,1-.42.22,1.7,1.7,0,0,1-.51.07,1.2,1.2,0,0,1-1.34-1.33V62.58h-.72V62h.72V61h.77V62h1.21v.63H124.9v2.29a.72.72,0,0,0,.17.53.65.65,0,0,0,.49.19,1,1,0,0,0,.6-.2Z" transform="translate(0 -0.19)"/><path class="cls-3" d="M127.22,61a.49.49,0,0,1-.15-.36.47.47,0,0,1,.15-.35.5.5,0,0,1,.37-.15.51.51,0,0,1,.37.14.45.45,0,0,1,.15.35A.49.49,0,0,1,128,61a.48.48,0,0,1-.37.15A.53.53,0,0,1,127.22,61Zm0,1H128v4.24h-.77Z" transform="translate(0 -0.19)"/><path class="cls-3" d="M130,66a2,2,0,0,1-.79-.77,2.36,2.36,0,0,1,0-2.23,2,2,0,0,1,.79-.77,2.44,2.44,0,0,1,2.27,0,2,2,0,0,1,.78.77,2.29,2.29,0,0,1,0,2.23,2,2,0,0,1-.78.77A2.44,2.44,0,0,1,130,66Zm1.87-.58a1.41,1.41,0,0,0,.51-.52,1.8,1.8,0,0,0,0-1.57,1.41,1.41,0,0,0-.51-.52,1.59,1.59,0,0,0-1.47,0,1.41,1.41,0,0,0-.51.52,1.72,1.72,0,0,0,0,1.57,1.39,1.39,0,0,0,1.25.71A1.4,1.4,0,0,0,131.87,65.37Z" transform="translate(0 -0.19)"/><path class="cls-3" d="M137.83,62.37a1.88,1.88,0,0,1,.47,1.37v2.45h-.76V63.83a1.3,1.3,0,0,0-.3-.93,1.15,1.15,0,0,0-.85-.31,1.3,1.3,0,0,0-1,.37,1.41,1.41,0,0,0-.36,1v2.19h-.77V62H135v.64a1.49,1.49,0,0,1,.62-.51,2.19,2.19,0,0,1,.9-.18A1.78,1.78,0,0,1,137.83,62.37Z" transform="translate(0 -0.19)"/></g></svg>