<svg width="92" height="45" viewBox="0 0 92 45" fill="none" xmlns="http://www.w3.org/2000/svg">
<g clip-path="url(#clip0_6_2)">
<path d="M26.5103 45V39.7787H29.7265V45H26.5103ZM31.8573 37.8926V14.6912H35.0735V37.8926H31.8573ZM21.2095 37.8926H3.30882V34.65H21.2095V20.0382H24.4257V37.9059L21.2095 37.8926ZM0.0860294 37.8926V27.1456H3.30882V37.8926H0.0860294ZM26.5103 37.5949V27.0993H29.7265V37.5949H26.5103ZM0.0860294 25.3456V20.0515H3.30882V25.3456H0.0860294ZM26.5103 24.9088V7.58382H29.7265V24.9088H26.5103ZM21.2095 17.7419V7.58382H24.4257V17.7419H21.2095ZM15.9154 17.7419V7.58382H19.125V17.7419H15.9154ZM10.6213 17.7419V7.58382H13.8375V17.7419H10.6213ZM0 17.7419V14.4993H5.29412V7.58382H8.51029V14.4728H8.55V17.7419H0ZM21.2095 5.26103V0H24.4257V5.29412L21.2095 5.26103ZM15.9154 5.26103V0H19.125V5.29412L15.9154 5.26103ZM10.6213 5.26103V0H13.8375V5.29412L10.6213 5.26103Z" fill="#9B9B9B"/>
<path d="M42.5911 10.6743V12.7919H45.9463V13.8838H42.5911V16.5309H41.2676V9.59558H46.3433V10.6743H42.5911Z" fill="#9B9B9B"/>
<path d="M48.1632 16.2662C47.7402 16.0446 47.389 15.7072 47.1507 15.2934C46.9162 14.8642 46.7932 14.3829 46.7932 13.8938C46.7932 13.4046 46.9162 12.9233 47.1507 12.4941C47.3912 12.0837 47.742 11.7489 48.1632 11.528C48.6151 11.2885 49.1212 11.1699 49.6324 11.1838C50.141 11.1737 50.6441 11.2921 51.0949 11.528C51.5141 11.7493 51.8627 12.0841 52.1007 12.4941C52.3395 12.922 52.4649 13.4038 52.4649 13.8938C52.4649 14.3837 52.3395 14.8655 52.1007 15.2934C51.8651 15.707 51.5161 16.0445 51.0949 16.2662C50.643 16.4992 50.1407 16.6174 49.6324 16.6103C49.1215 16.621 48.6162 16.5026 48.1632 16.2662ZM50.7375 15.0949C50.8895 14.936 51.0078 14.7479 51.0851 14.542C51.1625 14.3362 51.1973 14.1168 51.1875 13.8971C51.1967 13.6764 51.1616 13.4562 51.0843 13.2494C51.007 13.0425 50.8891 12.8532 50.7375 12.6927C50.4327 12.4041 50.0289 12.2433 49.6092 12.2433C49.1895 12.2433 48.7857 12.4041 48.4809 12.6927C48.3314 12.8544 48.2153 13.044 48.1392 13.2507C48.0631 13.4574 48.0286 13.677 48.0375 13.8971C48.028 14.1162 48.0623 14.335 48.1384 14.5407C48.2146 14.7464 48.331 14.9348 48.4809 15.0949C48.7817 15.3911 49.187 15.5572 49.6092 15.5572C50.0314 15.5572 50.4367 15.3911 50.7375 15.0949Z" fill="#9B9B9B"/>
<path d="M58.1162 11.786C58.3302 12.0195 58.4941 12.2944 58.5977 12.5937C58.7013 12.8931 58.7424 13.2105 58.7184 13.5264V16.5639H57.4809V13.6654C57.5092 13.2863 57.3934 12.9105 57.1566 12.6132C57.0372 12.4962 56.8953 12.4048 56.7394 12.3445C56.5835 12.2842 56.417 12.2563 56.25 12.2624C56.0506 12.252 55.8511 12.283 55.6643 12.3537C55.4775 12.4243 55.3074 12.5329 55.1647 12.6727C54.8816 13.0025 54.7391 13.4302 54.7677 13.8639V16.544H53.4971V11.2499H54.6816V11.9117C54.8894 11.6649 55.1556 11.4738 55.4559 11.3558C55.7914 11.2267 56.1487 11.1638 56.5081 11.1705C56.8037 11.1603 57.0983 11.2095 57.3745 11.3152C57.6508 11.4209 57.903 11.581 58.1162 11.786Z" fill="#9B9B9B"/>
<path d="M65.4088 9.17871V16.5442H64.1912V15.8824C63.9943 16.1161 63.7449 16.2998 63.4632 16.4184C63.1457 16.5458 62.806 16.6088 62.464 16.6037C61.9838 16.6108 61.5099 16.4946 61.0875 16.2662C60.6836 16.0454 60.3525 15.7121 60.1346 15.3067C59.9044 14.8677 59.7842 14.3795 59.7842 13.8839C59.7842 13.3882 59.9044 12.9 60.1346 12.4611C60.3569 12.0623 60.6872 11.7343 61.0875 11.5147C61.5099 11.2863 61.9838 11.1701 62.464 11.1772C62.7925 11.1732 63.1185 11.2339 63.4235 11.3559C63.7143 11.4681 63.9717 11.6526 64.1713 11.8919V9.17871H65.4088ZM63.4235 15.3464C63.6612 15.2079 63.8559 15.0064 63.986 14.764C64.1253 14.4939 64.198 14.1944 64.198 13.8905C64.198 13.5866 64.1253 13.2871 63.986 13.0169C63.8559 12.7746 63.6612 12.573 63.4235 12.4346C63.1756 12.3042 62.8996 12.236 62.6195 12.236C62.3393 12.236 62.0634 12.3042 61.8154 12.4346C61.5757 12.5726 61.3788 12.7741 61.2463 13.0169C61.1131 13.2889 61.0438 13.5877 61.0438 13.8905C61.0438 14.1933 61.1131 14.4921 61.2463 14.764C61.3788 15.0068 61.5757 15.2083 61.8154 15.3464C62.0621 15.4807 62.3386 15.5511 62.6195 15.5511C62.9004 15.5511 63.1768 15.4807 63.4235 15.3464Z" fill="#9B9B9B"/>
<path d="M70.7293 11.7397C70.9466 11.962 71.1139 12.2282 71.22 12.5203C71.3261 12.8125 71.3687 13.1239 71.3448 13.4338V16.5441H70.147V15.8824C69.9866 16.1231 69.7553 16.3081 69.4852 16.4118C69.1623 16.5445 68.8151 16.6077 68.4661 16.5971C68.1352 16.604 67.8064 16.5432 67.4999 16.4184C67.2312 16.2963 67.0019 16.1015 66.8382 15.8559C66.6742 15.614 66.5887 15.3275 66.5933 15.0353C66.586 14.8164 66.6302 14.5988 66.7221 14.4C66.814 14.2012 66.9512 14.0267 67.1227 13.8905C67.6169 13.5638 68.2065 13.4123 68.797 13.4603H70.1668V13.3809C70.1772 13.2231 70.153 13.0649 70.0958 12.9175C70.0387 12.77 69.95 12.6368 69.8359 12.5272C69.5528 12.3096 69.1995 12.2036 68.8433 12.2294C68.5466 12.2293 68.2518 12.2762 67.9698 12.3684C67.7023 12.4475 67.4529 12.5779 67.2352 12.7522L66.7521 11.8456C67.0537 11.6262 67.3921 11.4626 67.7514 11.3625C68.1563 11.2494 68.5751 11.1937 68.9955 11.1971C69.6198 11.1643 70.2351 11.3568 70.7293 11.7397ZM69.5977 15.4919C69.834 15.3554 70.0145 15.1398 70.1073 14.8831V14.2677H68.8234C68.1087 14.2677 67.7514 14.5059 67.7514 14.9758C67.7511 15.0802 67.7756 15.1832 67.8227 15.2763C67.8699 15.3695 67.9384 15.4502 68.0227 15.5118C68.2419 15.6561 68.5019 15.7257 68.7639 15.7103C69.0566 15.7151 69.345 15.6396 69.5977 15.4919Z" fill="#9B9B9B"/>
<path d="M75.9904 16.2529C75.8362 16.38 75.6552 16.4705 75.461 16.5176C75.2459 16.5795 75.0231 16.6107 74.7992 16.6103C74.309 16.6394 73.8268 16.4755 73.4559 16.1537C73.2897 15.9777 73.1616 15.7693 73.0797 15.5416C72.9977 15.3138 72.9635 15.0717 72.9794 14.8301V12.2757H72.1323V11.2831H72.9992V10.0654H74.2434V11.2831H75.6595V12.2757H74.2434V14.797C74.2282 15.0098 74.2944 15.2203 74.4286 15.386C74.5015 15.4552 74.588 15.5086 74.6825 15.5428C74.777 15.577 74.8776 15.5912 74.9779 15.5845C75.2157 15.5884 75.4483 15.514 75.6397 15.3728L75.9904 16.2529Z" fill="#9B9B9B"/>
<path d="M76.9434 10.1515C76.8721 10.0829 76.8154 10.0007 76.7767 9.90973C76.738 9.81876 76.718 9.72091 76.718 9.62204C76.718 9.52317 76.738 9.42532 76.7767 9.33435C76.8154 9.24339 76.8721 9.16117 76.9434 9.09263C77.0195 9.02142 77.109 8.96604 77.2067 8.92969C77.3044 8.89334 77.4083 8.87674 77.5125 8.88087C77.7182 8.87414 77.919 8.945 78.075 9.0794C78.1493 9.14296 78.2087 9.22223 78.2487 9.31148C78.2888 9.40074 78.3085 9.49776 78.3066 9.59557C78.309 9.69769 78.2902 9.79919 78.2515 9.89371C78.2128 9.98823 78.1549 10.0737 78.0816 10.1448C78.0068 10.2187 77.9178 10.2767 77.82 10.3154C77.7222 10.3541 77.6176 10.3726 77.5125 10.3698C77.4079 10.3727 77.3038 10.3549 77.2061 10.3174C77.1085 10.28 77.0192 10.2235 76.9434 10.1515ZM76.8838 11.2434H78.1279V16.5375H76.8838V11.2434Z" fill="#9B9B9B"/>
<path d="M80.5565 16.2661C80.1368 16.0424 79.7883 15.7053 79.5506 15.2933C79.3119 14.8655 79.1865 14.3837 79.1865 13.8937C79.1865 13.4037 79.3119 12.9219 79.5506 12.4941C79.7904 12.0854 80.1385 11.751 80.5565 11.5279C81.0031 11.2933 81.5015 11.175 82.0058 11.1838C82.5144 11.1742 83.0173 11.2925 83.4683 11.5279C83.8876 11.7492 84.2361 12.084 84.4742 12.4941C84.7129 12.9219 84.8383 13.4037 84.8383 13.8937C84.8383 14.3837 84.7129 14.8655 84.4742 15.2933C84.2385 15.7069 83.8895 16.0444 83.4683 16.2661C83.0161 16.4984 82.5141 16.6165 82.0058 16.6102C81.5018 16.6157 81.0042 16.4975 80.5565 16.2661ZM83.1374 15.0882C83.2894 14.9293 83.4077 14.7412 83.485 14.5353C83.5624 14.3295 83.5972 14.1101 83.5874 13.8904C83.5966 13.6698 83.5615 13.4495 83.4842 13.2427C83.4069 13.0358 83.289 12.8465 83.1374 12.686C82.8326 12.3974 82.4288 12.2366 82.0091 12.2366C81.5894 12.2366 81.1856 12.3974 80.8808 12.686C80.7313 12.8477 80.6152 13.0373 80.5391 13.244C80.463 13.4507 80.4285 13.6703 80.4374 13.8904C80.4279 14.1095 80.4622 14.3283 80.5383 14.534C80.6145 14.7397 80.7309 14.9281 80.8808 15.0882C81.1816 15.3844 81.5869 15.5505 82.0091 15.5505C82.4313 15.5505 82.8366 15.3844 83.1374 15.0882Z" fill="#9B9B9B"/>
<path d="M90.5161 11.786C90.7301 12.0195 90.894 12.2944 90.9976 12.5937C91.1012 12.8931 91.1423 13.2105 91.1183 13.5264V16.5639H89.8808V13.6654C89.9073 13.2854 89.7891 12.9096 89.5499 12.6132C89.4277 12.4925 89.2814 12.3989 89.1207 12.3385C88.9599 12.2781 88.7883 12.2522 88.6168 12.2624C88.4184 12.2525 88.2201 12.2838 88.0345 12.3544C87.8488 12.4251 87.6798 12.5334 87.5381 12.6727C87.255 13.0025 87.1125 13.4302 87.1411 13.8639V16.544H85.897V11.2499H87.0815V11.9117C87.2893 11.6649 87.5555 11.4738 87.8558 11.3558C88.1913 11.2267 88.5486 11.1638 88.908 11.1705C89.2036 11.1603 89.4982 11.2095 89.7744 11.3152C90.0507 11.4209 90.3029 11.581 90.5161 11.786Z" fill="#9B9B9B"/>
<path d="M41.3008 20.8456H42.6243V27.7941H41.3008V20.8456Z" fill="#9B9B9B"/>
<path d="M48.5406 22.7714C48.9402 22.9851 49.2724 23.3059 49.5001 23.6978C49.7265 24.1379 49.8446 24.6257 49.8446 25.1206C49.8446 25.6155 49.7265 26.1033 49.5001 26.5434C49.2797 26.9493 48.9464 27.2826 48.5406 27.503C48.1163 27.7328 47.6399 27.849 47.1575 27.8405C46.8163 27.8498 46.4766 27.7913 46.1582 27.6684C45.8622 27.5431 45.601 27.3478 45.3972 27.0993V27.7611H44.2192V20.4287H45.4567V23.1353C45.6639 22.9045 45.9223 22.7255 46.2112 22.6125C46.5116 22.4906 46.8333 22.4298 47.1575 22.4339C47.6399 22.4253 48.1163 22.5415 48.5406 22.7714ZM48.1435 26.3449C48.2947 26.1857 48.4119 25.9974 48.4881 25.7915C48.5643 25.5856 48.5979 25.3664 48.5869 25.1471C48.5973 24.9269 48.5634 24.7068 48.4873 24.4999C48.4111 24.2931 48.2942 24.1036 48.1435 23.9427C47.998 23.793 47.8227 23.6756 47.6288 23.5981C47.435 23.5205 47.2271 23.4846 47.0185 23.4927C46.7369 23.4893 46.4591 23.5577 46.2112 23.6912C45.9735 23.8296 45.7788 24.0312 45.6487 24.2736C45.5154 24.5455 45.4461 24.8443 45.4461 25.1471C45.4461 25.4499 45.5154 25.7487 45.6487 26.0206C45.7788 26.263 45.9735 26.4645 46.2112 26.603C46.4585 26.7388 46.7363 26.8094 47.0185 26.8081C47.2282 26.8153 47.437 26.7777 47.631 26.6978C47.825 26.618 47.9997 26.4976 48.1435 26.3449Z" fill="#9B9B9B"/>
<path d="M55.5156 23.0361C55.7297 23.2696 55.8935 23.5445 55.9971 23.8439C56.1007 24.1432 56.1418 24.4607 56.1178 24.7765V27.814H54.8803V24.9155C54.9068 24.5356 54.7886 24.1597 54.5494 23.8633C54.4257 23.7409 54.2773 23.6464 54.1141 23.5859C53.9509 23.5254 53.7767 23.5004 53.6031 23.5126C53.4047 23.5026 53.2064 23.534 53.0207 23.6046C52.8351 23.6752 52.6661 23.7836 52.5244 23.9229C52.2413 24.2527 52.0988 24.6803 52.1274 25.114V27.7611H50.8965V22.467H52.081V23.1287C52.2889 22.8819 52.555 22.6908 52.8553 22.5729C53.1908 22.4438 53.5481 22.3809 53.9075 22.3876C54.2054 22.3817 54.5015 22.4361 54.7778 22.5476C55.0542 22.659 55.3051 22.8252 55.5156 23.0361Z" fill="#9B9B9B"/>
<path d="M64.853 27.7942L63.4302 25.756H63.1655H61.5905V27.781H60.3V20.8457H63.1589C63.6989 20.8338 64.2355 20.9352 64.7339 21.1435C65.154 21.3181 65.5116 21.6157 65.7596 21.9971C66.0062 22.3936 66.1305 22.854 66.117 23.3207C66.1254 23.7905 65.9916 24.2518 65.7331 24.6442C65.4643 25.0343 65.0802 25.3304 64.6346 25.4913L66.2361 27.7743L64.853 27.7942ZM64.3898 22.2949C64.0158 22.0315 63.5623 21.9052 63.1059 21.9376H61.5905V24.7038H63.0993C63.5541 24.74 64.0074 24.6184 64.3831 24.3596C64.5279 24.2325 64.6419 24.074 64.7164 23.8963C64.7909 23.7186 64.8241 23.5263 64.8133 23.3339C64.8277 23.1392 64.7962 22.9438 64.7216 22.7633C64.6469 22.5829 64.531 22.4225 64.3831 22.2949H64.3898Z" fill="#9B9B9B"/>
<path d="M68.2413 27.5162C67.8201 27.2945 67.4711 26.9569 67.2355 26.5434C66.9967 26.1155 66.8713 25.6337 66.8713 25.1437C66.8713 24.6538 66.9967 24.1719 67.2355 23.7441C67.4735 23.3341 67.8221 22.9993 68.2413 22.7779C68.6921 22.5515 69.1895 22.4336 69.6939 22.4336C70.1983 22.4336 70.6958 22.5515 71.1465 22.7779C71.5566 23.0047 71.8974 23.3387 72.1325 23.7441C72.3671 24.1733 72.49 24.6546 72.49 25.1437C72.49 25.6329 72.3671 26.1142 72.1325 26.5434C71.8925 26.9558 71.5418 27.2928 71.12 27.5162C70.6693 27.7426 70.1719 27.8605 69.6674 27.8605C69.163 27.8605 68.6656 27.7426 68.2149 27.5162H68.2413ZM70.809 26.3448C70.9601 26.1856 71.0774 25.9973 71.1536 25.7914C71.2298 25.5855 71.2634 25.3663 71.2524 25.147C71.2628 24.9268 71.2289 24.7068 71.1528 24.4999C71.0766 24.293 70.9597 24.1035 70.809 23.9426C70.662 23.7931 70.4854 23.6759 70.2906 23.5984C70.0958 23.5209 69.8869 23.4849 69.6774 23.4926C69.4688 23.4846 69.2608 23.5205 69.067 23.598C68.8732 23.6755 68.6979 23.793 68.5524 23.9426C68.4017 24.1035 68.2848 24.293 68.2086 24.4999C68.1324 24.7068 68.0986 24.9268 68.109 25.147C68.0979 25.3663 68.1315 25.5855 68.2078 25.7914C68.284 25.9973 68.4012 26.1856 68.5524 26.3448C68.6962 26.4976 68.8709 26.6179 69.0649 26.6978C69.2589 26.7777 69.4677 26.8153 69.6774 26.8081C69.888 26.8149 70.0977 26.7772 70.2927 26.6974C70.4877 26.6176 70.6636 26.4974 70.809 26.3448Z" fill="#9B9B9B"/>
<path d="M74.5346 27.5162C74.1078 27.2952 73.7522 26.9579 73.5089 26.5434C73.2701 26.1156 73.1448 25.6337 73.1448 25.1438C73.1448 24.6538 73.2701 24.172 73.5089 23.7441C73.7539 23.3349 74.1063 23.0008 74.528 22.778C74.9859 22.542 75.4954 22.4238 76.0104 22.4339C76.4885 22.4229 76.9618 22.5321 77.3868 22.7515C77.7776 22.962 78.0889 23.2942 78.2736 23.6978L77.3207 24.2471C77.1851 24.0197 76.9938 23.8306 76.7648 23.6978C76.534 23.5777 76.2772 23.5163 76.017 23.5191C75.8045 23.5114 75.5927 23.5474 75.3946 23.6248C75.1966 23.7022 75.0165 23.8194 74.8655 23.9691C74.7105 24.1276 74.5899 24.3164 74.5114 24.5236C74.4328 24.7309 74.3979 24.9522 74.4089 25.1736C74.3935 25.6064 74.5506 26.0277 74.8457 26.3449C74.9973 26.496 75.1783 26.6145 75.3775 26.693C75.5766 26.7715 75.7898 26.8085 76.0038 26.8015C76.2645 26.8023 76.5214 26.7387 76.7515 26.6162C76.9886 26.4865 77.1854 26.2942 77.3207 26.0603L78.2736 26.6228C78.0766 27.0117 77.7647 27.3305 77.3802 27.5361C76.9588 27.7593 76.4872 27.871 76.0104 27.8603C75.4979 27.8666 74.9915 27.7485 74.5346 27.5162Z" fill="#9B9B9B"/>
<path d="M83.7861 23.0361C84.0002 23.2696 84.1641 23.5445 84.2676 23.8439C84.3712 24.1432 84.4123 24.4606 84.3883 24.7765V27.814H83.1508V24.9155C83.1773 24.5355 83.0591 24.1597 82.8199 23.8633C82.6977 23.7426 82.5515 23.6491 82.3907 23.5886C82.2299 23.5282 82.0583 23.5023 81.8868 23.5125C81.6884 23.5026 81.4901 23.5339 81.3045 23.6046C81.1188 23.6752 80.9498 23.7836 80.8082 23.9228C80.5251 24.2526 80.3825 24.6803 80.4111 25.114V27.7611H79.167V20.4287H80.4111V23.1089C80.6223 22.8844 80.8829 22.7122 81.1721 22.6059C81.4935 22.4851 81.8348 22.4267 82.178 22.4339C82.4727 22.4219 82.7668 22.469 83.0429 22.5724C83.3191 22.6758 83.5718 22.8335 83.7861 23.0361Z" fill="#9B9B9B"/>
<path d="M91.0788 20.4287V27.7942H89.8876V27.1324C89.6871 27.3816 89.4279 27.5772 89.1332 27.7015C88.8157 27.8289 88.476 27.8919 88.1339 27.8868C87.6538 27.8939 87.1798 27.7777 86.7574 27.5493C86.3531 27.3268 86.0203 26.994 85.7979 26.5897C85.5715 26.1496 85.4534 25.6619 85.4534 25.1669C85.4534 24.672 85.5715 24.1843 85.7979 23.7442C86.0246 23.3464 86.3566 23.019 86.7574 22.7978C87.1798 22.5694 87.6538 22.4532 88.1339 22.4603C88.4624 22.4563 88.7885 22.517 89.0935 22.639C89.3833 22.753 89.6403 22.9372 89.8413 23.175V20.4287H91.0788ZM89.0935 26.5964C89.3312 26.4579 89.5259 26.2564 89.656 26.014C89.7953 25.7439 89.8679 25.4444 89.8679 25.1405C89.8679 24.8366 89.7953 24.5371 89.656 24.2669C89.5259 24.0246 89.3312 23.823 89.0935 23.6846C88.8459 23.5502 88.5678 23.4818 88.2861 23.4861C88.0065 23.4818 87.7306 23.5502 87.4854 23.6846C87.2457 23.8226 87.0487 24.0241 86.9163 24.2669C86.783 24.5389 86.7138 24.8377 86.7138 25.1405C86.7138 25.4433 86.783 25.7421 86.9163 26.014C87.0487 26.2568 87.2457 26.4583 87.4854 26.5964C87.7301 26.7328 88.006 26.8035 88.2861 26.8015C88.5662 26.8026 88.8418 26.7319 89.0868 26.5964H89.0935Z" fill="#9B9B9B"/>
<path d="M49.7779 34.3589C49.904 34.4821 50.0041 34.6293 50.0725 34.7918C50.1409 34.9543 50.1761 35.1289 50.1761 35.3052C50.1761 35.4815 50.1409 35.656 50.0725 35.8185C50.0041 35.981 49.904 36.1282 49.7779 36.2515C49.4514 36.4978 49.0479 36.6198 48.6397 36.5956H47.7264V37.7206H47.197V34.0147H48.6397C49.0479 33.9905 49.4514 34.1125 49.7779 34.3589ZM49.3941 35.9206C49.483 35.8457 49.5533 35.751 49.5992 35.6442C49.6452 35.5374 49.6656 35.4213 49.6588 35.3052C49.6672 35.1889 49.6475 35.0723 49.6014 34.9652C49.5554 34.8581 49.4843 34.7636 49.3941 34.6897C49.1714 34.5298 48.8999 34.4526 48.6264 34.4714H47.7264V36.1324H48.6264C48.8991 36.1531 49.1705 36.0782 49.3941 35.9206Z" fill="#9B9B9B"/>
<path d="M51.2537 37.5949C51.0352 37.4774 50.854 37.3008 50.731 37.0853C50.6093 36.8584 50.5457 36.6049 50.5457 36.3475C50.5457 36.09 50.6093 35.8365 50.731 35.6096C50.854 35.3941 51.0352 35.2175 51.2537 35.1C51.4834 34.9762 51.7406 34.9125 52.0015 34.9147C52.2645 34.9125 52.5239 34.9762 52.756 35.1C52.9721 35.2185 53.1509 35.395 53.2721 35.6096C53.3938 35.8365 53.4574 36.09 53.4574 36.3475C53.4574 36.6049 53.3938 36.8584 53.2721 37.0853C53.1509 37.2999 52.9721 37.4764 52.756 37.5949C52.5251 37.7217 52.2649 37.7856 52.0015 37.7802C51.7403 37.7857 51.4822 37.7218 51.2537 37.5949ZM52.4912 37.2111C52.6314 37.1293 52.7459 37.0101 52.8221 36.8669C52.9046 36.7062 52.9476 36.5281 52.9476 36.3475C52.9476 36.1668 52.9046 35.9887 52.8221 35.828C52.7459 35.6848 52.6314 35.5656 52.4912 35.4838C52.3411 35.4056 52.1742 35.3647 52.0048 35.3647C51.8355 35.3647 51.6686 35.4056 51.5184 35.4838C51.3778 35.567 51.2614 35.6857 51.1809 35.828C51.0985 35.9887 51.0555 36.1668 51.0555 36.3475C51.0555 36.5281 51.0985 36.7062 51.1809 36.8669C51.2614 37.0092 51.3778 37.1279 51.5184 37.2111C51.6674 37.2933 51.8347 37.3365 52.0048 37.3365C52.175 37.3365 52.3423 37.2933 52.4912 37.2111Z" fill="#9B9B9B"/>
<path d="M56.6999 34.9478V37.7536H56.2499V37.3301C56.1455 37.4728 56.0066 37.5866 55.8463 37.661C55.6745 37.7416 55.4867 37.7824 55.297 37.7801C55.1335 37.797 54.9683 37.777 54.8136 37.7216C54.6589 37.6662 54.5185 37.5768 54.403 37.4599C54.2874 37.3431 54.1995 37.2018 54.1458 37.0465C54.0921 36.8911 54.0739 36.7257 54.0926 36.5625V34.9478H54.6021V36.4698C54.5839 36.6921 54.6527 36.9127 54.7941 37.0853C54.8678 37.1579 54.956 37.2142 55.0529 37.2507C55.1498 37.2872 55.2532 37.303 55.3566 37.297C55.478 37.3066 55.6001 37.2897 55.7144 37.2474C55.8286 37.2051 55.9324 37.1385 56.0183 37.0522C56.1751 36.868 56.2577 36.6321 56.2499 36.3904V34.9478H56.6999Z" fill="#9B9B9B"/>
<path d="M58.4669 35.0139C58.6734 34.9166 58.9006 34.8712 59.1286 34.8816V35.3779H59.0161C58.8949 35.3705 58.7734 35.3884 58.6594 35.4305C58.5455 35.4727 58.4416 35.5382 58.3544 35.6228C58.2705 35.7183 58.2062 35.8294 58.1653 35.9498C58.1245 36.0701 58.1077 36.1974 58.1161 36.3242V37.7272H57.5735V34.9478H58.0632V35.4176C58.147 35.2404 58.2897 35.0977 58.4669 35.0139Z" fill="#9B9B9B"/>
<path d="M61.0278 33.7897H61.544V37.7206H61.0411L61.0278 33.7897Z" fill="#9B9B9B"/>
<path d="M64.9457 36.4831H62.6692C62.6824 36.5993 62.7184 36.7117 62.7752 36.814C62.8319 36.9162 62.9084 37.0062 63.0001 37.0787C63.2212 37.243 63.4941 37.3221 63.7689 37.3015C64.0436 37.2808 64.3016 37.1618 64.4957 36.9662L64.7802 37.2971C64.6502 37.4456 64.487 37.5613 64.3037 37.6346C64.074 37.725 63.8284 37.7681 63.5817 37.7613C63.3349 37.7545 63.0921 37.6979 62.8677 37.5949C62.6467 37.4784 62.4631 37.3017 62.3383 37.0853C62.2128 36.8587 62.149 36.6032 62.153 36.3442C62.1536 36.087 62.2197 35.8342 62.3449 35.6096C62.4626 35.3968 62.6366 35.2205 62.8479 35.1C63.0683 34.9771 63.3168 34.9132 63.5692 34.9147C63.8217 34.9123 64.0704 34.9762 64.2905 35.1C64.4969 35.2224 64.6662 35.3985 64.7802 35.6096C64.9028 35.8418 64.9643 36.1015 64.9589 36.364C64.9589 36.3706 64.9523 36.4236 64.9457 36.4831ZM62.9604 35.5368C62.7951 35.6885 62.6914 35.8959 62.6692 36.1192H64.4692C64.4506 35.8963 64.349 35.6884 64.1846 35.5368C64.0136 35.3918 63.7967 35.3122 63.5725 35.3122C63.3483 35.3122 63.1314 35.3918 62.9604 35.5368Z" fill="#9B9B9B"/>
<path d="M65.7265 37.6545C65.5478 37.6097 65.3794 37.531 65.2302 37.4228L65.442 37.0192C65.5791 37.1144 65.7312 37.186 65.892 37.2309C66.0657 37.2841 66.2464 37.3109 66.428 37.3103C66.8714 37.3103 67.0898 37.1846 67.0898 36.9265C67.0927 36.8889 67.0864 36.8512 67.0714 36.8166C67.0564 36.782 67.0332 36.7516 67.0038 36.728C66.9386 36.6747 66.8613 36.6383 66.7788 36.6221C66.6524 36.5883 66.5243 36.5618 66.3949 36.5427C66.2074 36.5144 66.0217 36.4746 65.839 36.4236C65.6988 36.3778 65.5732 36.2956 65.4751 36.1853C65.4192 36.1239 65.3762 36.0518 65.349 35.9733C65.3217 35.8948 65.3105 35.8116 65.3163 35.7287C65.3139 35.6078 65.3417 35.4883 65.3972 35.3808C65.4527 35.2734 65.534 35.1814 65.6339 35.1133C65.887 34.9482 66.1857 34.8671 66.4876 34.8817C66.6773 34.8831 66.8662 34.9075 67.0501 34.9545C67.2134 34.9912 67.3697 35.0538 67.5133 35.1398L67.2949 35.5434C67.052 35.3893 66.7686 35.311 66.481 35.3184C66.311 35.3074 66.1414 35.3441 65.9913 35.4243C65.94 35.4523 65.8971 35.4934 65.8669 35.5434C65.8367 35.5934 65.8202 35.6505 65.8192 35.7089C65.8179 35.7495 65.8262 35.7898 65.8435 35.8266C65.8607 35.8634 65.8864 35.8956 65.9185 35.9206C65.9858 35.9771 66.0649 36.0178 66.1501 36.0398L66.5471 36.1258C66.7329 36.155 66.9164 36.197 67.0964 36.2515C67.2338 36.2926 67.3573 36.3704 67.4538 36.4765C67.5586 36.5995 67.6109 36.7587 67.5993 36.9199C67.6053 37.0403 67.5782 37.16 67.521 37.2661C67.4639 37.3723 67.3788 37.4608 67.2751 37.5221C67.0094 37.6859 66.6999 37.7644 66.3883 37.7471C66.1643 37.7503 65.9411 37.719 65.7265 37.6545Z" fill="#9B9B9B"/>
<path d="M69.8493 37.628C69.6245 37.5591 69.4154 37.4467 69.2339 37.2971L69.4324 36.8802C69.5918 37.0176 69.776 37.1231 69.9751 37.1912C70.1873 37.2683 70.4111 37.3085 70.6368 37.3103C70.868 37.3214 71.0976 37.2663 71.2986 37.1515C71.3697 37.1082 71.428 37.0467 71.4675 36.9735C71.507 36.9002 71.5264 36.8178 71.5236 36.7346C71.5261 36.6778 71.5161 36.6211 71.4944 36.5685C71.4727 36.5159 71.4397 36.4687 71.3979 36.4302C71.3102 36.3482 71.2066 36.2851 71.0934 36.2449C70.9743 36.2052 70.8023 36.1522 70.5773 36.0993C70.3527 36.0471 70.1317 35.9808 69.9155 35.9008C69.7505 35.8402 69.6029 35.7402 69.4854 35.6096C69.354 35.4527 69.2877 35.2514 69.3001 35.0471C69.2978 34.8565 69.3532 34.6697 69.4589 34.5111C69.5736 34.3406 69.7375 34.209 69.9287 34.1339C70.1775 34.0287 70.4463 33.979 70.7162 33.9883C70.9398 33.9859 71.1625 34.0149 71.378 34.0743C71.5713 34.1249 71.7548 34.2077 71.9206 34.3192L71.7486 34.7427C71.5958 34.6425 71.4283 34.5666 71.2523 34.5177C71.0828 34.466 70.9067 34.4392 70.7295 34.4383C70.4971 34.424 70.266 34.4818 70.0677 34.6037C69.9983 34.6504 69.9415 34.7135 69.9023 34.7874C69.863 34.8612 69.8426 34.9436 69.8427 35.0272C69.8414 35.0855 69.8525 35.1434 69.8754 35.197C69.8982 35.2507 69.9322 35.2988 69.9751 35.3383C70.0642 35.4217 70.1703 35.4849 70.2861 35.5236L70.7957 35.6625C71.0204 35.7138 71.2415 35.7801 71.4574 35.8611C71.6269 35.9263 71.7771 36.0333 71.8942 36.1721C72.0217 36.3286 72.0876 36.5263 72.0795 36.728C72.0808 36.9164 72.0255 37.1008 71.9206 37.2574C71.8025 37.407 71.6474 37.5234 71.4706 37.5949C71.2179 37.6938 70.9479 37.741 70.6765 37.7339C70.3969 37.7442 70.1174 37.7085 69.8493 37.628Z" fill="#9B9B9B"/>
<path d="M73.1648 37.5949C72.9462 37.4774 72.765 37.3008 72.642 37.0853C72.5162 36.8597 72.4502 36.6057 72.4502 36.3474C72.4502 36.0892 72.5162 35.8352 72.642 35.6096C72.765 35.3941 72.9462 35.2175 73.1648 35.1C73.4016 34.9762 73.6652 34.9126 73.9324 34.9147C74.1625 34.9139 74.3895 34.9683 74.5942 35.0735C74.789 35.1723 74.9502 35.3266 75.0574 35.5169L74.667 35.7684C74.5901 35.6381 74.4776 35.5325 74.3427 35.464C74.207 35.3969 74.0573 35.3629 73.9059 35.3647C73.7331 35.3617 73.5623 35.4027 73.4096 35.4838C73.2657 35.565 73.1467 35.684 73.0655 35.828C72.9835 35.9898 72.9426 36.1694 72.9464 36.3508C72.9426 36.53 72.9835 36.7075 73.0655 36.8669C73.1463 37.0129 73.2652 37.1341 73.4096 37.2177C73.5623 37.2988 73.7331 37.3398 73.9059 37.3368C74.0573 37.3386 74.207 37.3046 74.3427 37.2375C74.4776 37.169 74.5901 37.0634 74.667 36.9331L75.0574 37.178C74.9485 37.3686 74.7879 37.5246 74.5942 37.628C74.3879 37.7281 74.1617 37.7801 73.9324 37.7802C73.6648 37.7858 73.4003 37.7219 73.1648 37.5949Z" fill="#9B9B9B"/>
<path d="M75.6596 34.286C75.6276 34.2552 75.6023 34.2182 75.5852 34.1772C75.5682 34.1362 75.5597 34.0922 75.5603 34.0478C75.5598 34.0044 75.5684 33.9614 75.5855 33.9215C75.6026 33.8816 75.6278 33.8457 75.6596 33.8162C75.6914 33.7837 75.7296 33.7581 75.7717 33.741C75.8138 33.724 75.859 33.7157 75.9045 33.7169C75.9969 33.7153 76.0866 33.7484 76.1559 33.8096C76.1862 33.8399 76.21 33.8761 76.2259 33.9159C76.2419 33.9557 76.2496 33.9983 76.2486 34.0412C76.2495 34.0863 76.2412 34.1312 76.2242 34.173C76.2071 34.2148 76.1817 34.2527 76.1494 34.2843C76.1172 34.3159 76.0788 34.3406 76.0367 34.3568C75.9946 34.373 75.9496 34.3805 75.9045 34.3787C75.8139 34.3805 75.7262 34.3473 75.6596 34.286ZM75.6596 34.9478H76.1692V37.7537H75.6596V34.9478Z" fill="#9B9B9B"/>
<path d="M79.5772 36.4831H77.3008C77.3128 36.5989 77.3476 36.7112 77.4032 36.8134C77.4589 36.9157 77.5343 37.0058 77.625 37.0787C77.8477 37.2422 78.1215 37.3207 78.3969 37.3001C78.6724 37.2795 78.9314 37.1611 79.1272 36.9662L79.4052 37.2971C79.2764 37.4441 79.1157 37.5595 78.9353 37.6346C78.7239 37.7137 78.4993 37.7519 78.2736 37.7471C78.0004 37.753 77.73 37.6916 77.4861 37.5684C77.2626 37.453 77.0767 37.2762 76.95 37.0589C76.8246 36.8323 76.7607 36.5767 76.7647 36.3177C76.7591 36.0585 76.8231 35.8026 76.95 35.5765C77.0641 35.3611 77.239 35.1839 77.453 35.067C77.6727 34.9453 77.9198 34.8815 78.171 34.8815C78.4222 34.8815 78.6693 34.9453 78.889 35.067C79.1141 35.1908 79.2964 35.38 79.4118 35.6096C79.529 35.8436 79.588 36.1024 79.5839 36.364C79.5835 36.4038 79.5812 36.4436 79.5772 36.4831ZM77.592 35.5368C77.4286 35.6892 77.3272 35.8966 77.3074 36.1192H79.1074C79.0834 35.8964 78.9801 35.6897 78.8162 35.5368C78.649 35.3876 78.4315 35.3072 78.2074 35.3118C77.979 35.3051 77.7566 35.3856 77.5853 35.5368H77.592Z" fill="#9B9B9B"/>
<path d="M82.5617 35.1926C82.6709 35.3157 82.7547 35.4592 82.808 35.6148C82.8614 35.7704 82.8834 35.9351 82.8727 36.0992V37.7206H82.3632V36.1588C82.3814 35.9365 82.3126 35.7159 82.1713 35.5434C82.0963 35.4729 82.0077 35.4184 81.911 35.3831C81.8144 35.3479 81.7115 35.3326 81.6088 35.3382C81.4874 35.3291 81.3654 35.3462 81.2512 35.3885C81.137 35.4307 81.0332 35.4971 80.947 35.5831C80.7843 35.7641 80.6988 36.0016 80.7088 36.2448V37.6941H80.1992V34.9478H80.6823V35.3713C80.7896 35.2245 80.9333 35.1081 81.0992 35.0338C81.2871 34.9525 81.4901 34.9119 81.6948 34.9147C81.8505 34.9012 82.0074 34.9188 82.1562 34.9665C82.305 35.0142 82.4429 35.0911 82.5617 35.1926Z" fill="#9B9B9B"/>
<path d="M84.2094 37.5949C83.9908 37.4774 83.8097 37.3008 83.6866 37.0853C83.5609 36.8597 83.4949 36.6057 83.4949 36.3474C83.4949 36.0892 83.5609 35.8352 83.6866 35.6096C83.8097 35.3941 83.9908 35.2175 84.2094 35.1C84.4462 34.9762 84.7099 34.9126 84.9771 34.9147C85.2071 34.9146 85.4339 34.9691 85.6388 35.0735C85.8337 35.1723 85.9949 35.3266 86.1021 35.5169L85.7116 35.7684C85.6331 35.6394 85.521 35.5342 85.3874 35.464C85.2517 35.3969 85.102 35.3629 84.9506 35.3647C84.7777 35.3617 84.6069 35.4027 84.4543 35.4838C84.3104 35.565 84.1914 35.684 84.1102 35.828C84.0261 35.9893 83.9829 36.1688 83.9844 36.3508C83.9829 36.5306 84.0261 36.7079 84.1102 36.8669C84.1909 37.0129 84.3099 37.1341 84.4543 37.2177C84.6069 37.2988 84.7777 37.3398 84.9506 37.3368C85.102 37.3386 85.2517 37.3046 85.3874 37.2375C85.521 37.1673 85.6331 37.0621 85.7116 36.9331L86.1021 37.178C85.9932 37.3686 85.8326 37.5246 85.6388 37.628C85.4134 37.7389 85.1655 37.7966 84.9142 37.7966C84.6629 37.7966 84.415 37.7389 84.1896 37.628L84.2094 37.5949Z" fill="#9B9B9B"/>
<path d="M89.1793 36.4831H86.9028C86.9148 36.5989 86.9496 36.7112 87.0053 36.8134C87.061 36.9156 87.1363 37.0058 87.2271 37.0787C87.4247 37.2338 87.671 37.3135 87.9219 37.3037C88.0729 37.3091 88.2233 37.2818 88.3626 37.2235C88.502 37.1652 88.6271 37.0775 88.7293 36.9662L89.0072 37.2971C88.8785 37.4441 88.7178 37.5595 88.5374 37.6346C88.3259 37.7137 88.1013 37.7519 87.8756 37.7471C87.6025 37.7524 87.3322 37.6911 87.0881 37.5684C86.8653 37.4544 86.6811 37.2772 86.5587 37.0589C86.4312 36.8328 86.3651 36.5773 86.3668 36.3177C86.3612 36.0585 86.4251 35.8026 86.5521 35.5765C86.6662 35.3611 86.8411 35.1839 87.055 35.067C87.2751 34.9431 87.5238 34.8792 87.7764 34.8817C88.0268 34.8791 88.2734 34.9431 88.4911 35.067C88.7016 35.1861 88.8738 35.3629 88.9874 35.5765C89.11 35.8088 89.1714 36.0684 89.1661 36.3309C89.1925 36.3706 89.1859 36.4236 89.1793 36.4831ZM87.194 35.5368C87.0261 35.6866 86.9219 35.895 86.9028 36.1192H88.6764C88.6554 35.8955 88.5515 35.6878 88.3852 35.5368C88.2158 35.391 87.9998 35.3108 87.7764 35.3108C87.5529 35.3108 87.3369 35.391 87.1675 35.5368H87.194Z" fill="#9B9B9B"/>
<path d="M89.9602 37.6545C89.7795 37.6095 89.6089 37.531 89.4573 37.4228L89.669 37.0192C89.8076 37.1119 89.9593 37.1832 90.119 37.2309C90.2929 37.2832 90.4735 37.3099 90.6551 37.3103C91.0985 37.3103 91.3168 37.1846 91.3168 36.9265C91.3184 36.8884 91.3108 36.8505 91.2947 36.816C91.2786 36.7814 91.2544 36.7513 91.2242 36.728C91.1599 36.6734 91.0822 36.6369 90.9992 36.6221C90.873 36.5876 90.7448 36.5611 90.6154 36.5427C90.4298 36.5153 90.2463 36.4755 90.0661 36.4236C89.9239 36.378 89.7961 36.2958 89.6955 36.1853C89.5893 36.0576 89.5349 35.8946 89.5433 35.7287C89.541 35.6078 89.5688 35.4883 89.6243 35.3808C89.6797 35.2734 89.7611 35.1814 89.861 35.1133C90.1141 34.9482 90.4128 34.8671 90.7146 34.8817C90.9044 34.8835 91.0932 34.9079 91.2771 34.9545C91.4387 34.99 91.5931 35.0526 91.7337 35.1398L91.5154 35.5434C91.2753 35.3883 90.9937 35.3098 90.708 35.3184C90.5381 35.3067 90.3682 35.3434 90.2183 35.4243C90.1671 35.4523 90.1242 35.4934 90.0939 35.5434C90.0637 35.5934 90.0473 35.6505 90.0463 35.7089C90.0456 35.7488 90.0535 35.7883 90.0695 35.8248C90.0855 35.8614 90.1092 35.8941 90.1389 35.9206C90.2094 35.9761 90.2905 36.0166 90.3771 36.0398L90.7742 36.1258C90.9605 36.1611 91.1441 36.2098 91.3235 36.2714C91.4608 36.3124 91.5844 36.3902 91.6808 36.4964C91.7874 36.6187 91.842 36.7778 91.833 36.9398C91.8348 37.0595 91.806 37.1776 91.7492 37.2831C91.6925 37.3885 91.6097 37.4776 91.5087 37.542C91.2431 37.7057 90.9336 37.7842 90.622 37.767C90.3969 37.7637 90.1737 37.7257 89.9602 37.6545Z" fill="#9B9B9B"/>
<path d="M56.1706 42.439H53.8941C53.9061 42.5548 53.9409 42.667 53.9966 42.7693C54.0522 42.8715 54.1276 42.9617 54.2184 43.0346C54.4071 43.1823 54.6404 43.2616 54.8801 43.2596C55.0311 43.265 55.1815 43.2376 55.3208 43.1793C55.4602 43.1211 55.5853 43.0333 55.6875 42.9221L55.9654 43.2529C55.8367 43.3999 55.676 43.5154 55.4956 43.5904C55.2841 43.6696 55.0595 43.7078 54.8338 43.7029C54.5829 43.7072 54.3341 43.6552 54.1059 43.5507C53.8849 43.4343 53.7013 43.2576 53.5765 43.0412C53.449 42.8151 53.3828 42.5596 53.3846 42.3C53.3901 42.04 53.4656 41.7863 53.6029 41.5654C53.7189 41.3513 53.8933 41.1746 54.1059 41.0559C54.326 40.9321 54.5747 40.8682 54.8272 40.8706C55.0777 40.8674 55.3245 40.9314 55.5419 41.0559C55.7525 41.175 55.9247 41.3518 56.0382 41.5654C56.1608 41.7977 56.2223 42.0573 56.2169 42.3199C56.1838 42.3265 56.1772 42.3794 56.1706 42.439ZM54.1853 41.4927C54.0174 41.6424 53.9132 41.8508 53.8941 42.075H55.6941C55.6731 41.8514 55.5693 41.6436 55.4029 41.4927C55.2336 41.3469 55.0176 41.2667 54.7941 41.2667C54.5707 41.2667 54.3546 41.3469 54.1853 41.4927Z" fill="#9B9B9B"/>
<path d="M58.3808 43.5111C58.3004 43.5764 58.2083 43.6258 58.1094 43.6567C57.9998 43.6883 57.8861 43.7039 57.772 43.703C57.6523 43.7108 57.5322 43.6949 57.4187 43.6563C57.3051 43.6177 57.2003 43.5571 57.1102 43.478C57.0286 43.3892 56.966 43.2847 56.9262 43.171C56.8864 43.0572 56.8702 42.9365 56.8786 42.8162V41.2875H56.4021V40.9037H56.9117V40.2419H57.4212V40.9037H58.2286V41.3206H57.3881V42.8361C57.3806 42.9629 57.4207 43.088 57.5006 43.1868C57.5432 43.2288 57.5939 43.2617 57.6497 43.2833C57.7055 43.305 57.7651 43.3149 57.8249 43.3125C57.9687 43.3167 58.1094 43.2698 58.222 43.1802L58.3808 43.5111Z" fill="#9B9B9B"/>
<path d="M60.3396 39.9706H60.8822V43.2132H62.8675V43.6765H60.3396V39.9706Z" fill="#9B9B9B"/>
<path d="M63.1787 39.9706H63.6221V41.3934H63.2449L63.1787 39.9706Z" fill="#9B9B9B"/>
<path d="M64.436 39.9706H64.9654V43.6765H64.436V39.9706Z" fill="#9B9B9B"/>
<path d="M68.2677 41.1486C68.3794 41.2703 68.4651 41.4134 68.5197 41.5693C68.5743 41.7251 68.5967 41.8905 68.5854 42.0552V43.6766H68.0758V42.1148C68.0907 41.8929 68.0222 41.6735 67.8839 41.4994C67.8089 41.4289 67.7204 41.3744 67.6237 41.3391C67.527 41.3039 67.4242 41.2886 67.3214 41.2942C67.2001 41.2859 67.0783 41.3035 66.9643 41.3457C66.8502 41.3879 66.7464 41.4538 66.6596 41.5391C66.4969 41.7201 66.4115 41.9576 66.4214 42.2008V43.6501H65.9185V40.9038H66.4015V41.3273C66.5088 41.1805 66.6525 41.0641 66.8185 40.9898C67.006 40.9073 67.2092 40.8666 67.414 40.8707C67.5677 40.8575 67.7224 40.8753 67.8691 40.923C68.0157 40.9708 68.1513 41.0475 68.2677 41.1486Z" fill="#9B9B9B"/>
<path d="M71.7948 41.1485C71.9065 41.2702 71.9923 41.4133 72.0469 41.5692C72.1015 41.7251 72.1238 41.8904 72.1125 42.0552V43.6765H71.6029V42.1147C71.6193 41.8916 71.5481 41.6708 71.4044 41.4993C71.3308 41.4287 71.2435 41.374 71.1479 41.3387C71.0522 41.3034 70.9503 41.2882 70.8485 41.2941C70.7272 41.2858 70.6055 41.3034 70.4914 41.3456C70.3773 41.3878 70.2735 41.4537 70.1868 41.539C70.0241 41.72 69.9386 41.9575 69.9485 42.2007V43.65H69.439V40.9037H69.9287V41.3272C70.033 41.1776 70.1775 41.0606 70.3456 40.9897C70.5331 40.9072 70.7363 40.8665 70.9412 40.8706C71.0948 40.8578 71.2494 40.8757 71.396 40.9235C71.5426 40.9712 71.6782 41.0477 71.7948 41.1485Z" fill="#9B9B9B"/>
<path d="M73.4558 43.5508C73.2372 43.4333 73.056 43.2567 72.933 43.0412C72.8072 42.8156 72.7412 42.5616 72.7412 42.3033C72.7412 42.0451 72.8072 41.7911 72.933 41.5655C73.056 41.35 73.2372 41.1734 73.4558 41.0559C73.6862 40.9342 73.9429 40.8706 74.2036 40.8706C74.4642 40.8706 74.7209 40.9342 74.9514 41.0559C75.1578 41.1782 75.327 41.3544 75.4411 41.5655C75.5627 41.7924 75.6264 42.0459 75.6264 42.3033C75.6264 42.5608 75.5627 42.8143 75.4411 43.0412C75.318 43.2567 75.1369 43.4333 74.9183 43.5508C74.692 43.6669 74.4413 43.7275 74.187 43.7275C73.9327 43.7275 73.682 43.6669 73.4558 43.5508ZM74.6867 43.1669C74.8301 43.0873 74.9474 42.9678 75.0242 42.8228C75.1066 42.6621 75.1496 42.484 75.1496 42.3033C75.1496 42.1227 75.1066 41.9446 75.0242 41.7839C74.9474 41.6389 74.8301 41.5193 74.6867 41.4397C74.5388 41.3585 74.3722 41.3175 74.2036 41.3206C74.035 41.3184 73.8687 41.3594 73.7205 41.4397C73.577 41.5193 73.4598 41.6389 73.383 41.7839C73.3005 41.9446 73.2575 42.1227 73.2575 42.3033C73.2575 42.484 73.3005 42.6621 73.383 42.8228C73.4598 42.9678 73.577 43.0873 73.7205 43.1669C73.867 43.2523 74.0341 43.2958 74.2036 43.2927C74.3719 43.2844 74.5346 43.2294 74.6734 43.1339L74.6867 43.1669Z" fill="#9B9B9B"/>
<path d="M78.6772 40.9037L77.4264 43.6765H76.9102L75.6992 40.9037H76.2286L77.1948 43.1537L78.1808 40.9037H78.6772Z" fill="#9B9B9B"/>
<path d="M80.8942 41.1287C81.005 41.2398 81.0902 41.3737 81.144 41.5212C81.1977 41.6686 81.2186 41.826 81.2052 41.9824V43.6765H80.7354V43.3059C80.6466 43.4368 80.5228 43.54 80.378 43.6037C80.1989 43.6738 80.0077 43.7075 79.8155 43.703C79.5457 43.7167 79.2793 43.6372 79.0611 43.478C78.9669 43.4109 78.8897 43.3226 78.8357 43.2204C78.7817 43.1181 78.7524 43.0046 78.7501 42.889C78.7457 42.7754 78.7679 42.6624 78.815 42.559C78.8621 42.4556 78.9328 42.3646 79.0214 42.2934C79.2728 42.1191 79.5768 42.0372 79.8817 42.0618H80.6824V41.9625C80.6883 41.8704 80.6749 41.7781 80.643 41.6914C80.6111 41.6048 80.5614 41.5258 80.4971 41.4596C80.3365 41.3363 80.1367 41.2752 79.9346 41.2875C79.7682 41.2875 79.6028 41.3143 79.4449 41.3669C79.2987 41.4189 79.1623 41.4949 79.0412 41.5919L78.8295 41.2081C78.9838 41.085 79.1617 40.9949 79.3523 40.9434C79.5657 40.8731 79.7894 40.8395 80.014 40.8441C80.3329 40.8237 80.6476 40.9254 80.8942 41.1287ZM80.3912 43.1868C80.53 43.0993 80.6368 42.9693 80.6956 42.8162V42.4257H79.9148C79.4846 42.4257 79.253 42.5713 79.253 42.8559C79.2517 42.9213 79.266 42.986 79.2948 43.0447C79.3236 43.1034 79.366 43.1544 79.4184 43.1934C79.5547 43.2792 79.7142 43.3208 79.8751 43.3125C80.0556 43.3207 80.2347 43.2771 80.3912 43.1868Z" fill="#9B9B9B"/>
<path d="M83.6471 43.5111C83.5652 43.5777 83.4707 43.6273 83.3692 43.6567C83.2597 43.6891 83.1459 43.7048 83.0317 43.703C82.9123 43.7178 82.791 43.7053 82.6771 43.6665C82.5632 43.6276 82.4597 43.5633 82.3743 43.4786C82.2888 43.3938 82.2238 43.2907 82.1841 43.1771C82.1444 43.0635 82.131 42.9424 82.1449 42.8228V41.2875H81.6685V40.9037H82.1449V40.2419H82.6545V40.9037H83.4552V41.3206H82.6545V42.8361C82.649 42.8991 82.6562 42.9625 82.6755 43.0227C82.6948 43.083 82.7259 43.1387 82.767 43.1868C82.8093 43.2292 82.86 43.2622 82.9158 43.2839C82.9717 43.3055 83.0314 43.3153 83.0912 43.3125C83.2344 43.3125 83.3738 43.2661 83.4883 43.1802L83.6471 43.5111Z" fill="#9B9B9B"/>
<path d="M84.1896 40.242C84.1577 40.2112 84.1324 40.1741 84.1153 40.1331C84.0982 40.0922 84.0897 40.0481 84.0904 40.0037C84.0898 39.9603 84.0984 39.9173 84.1155 39.8774C84.1326 39.8375 84.1578 39.8016 84.1896 39.7721C84.2214 39.7396 84.2596 39.714 84.3017 39.697C84.3438 39.6799 84.389 39.6717 84.4345 39.6728C84.4794 39.6712 84.5242 39.6785 84.5663 39.6944C84.6083 39.7104 84.6468 39.7345 84.6793 39.7655C84.7118 39.7945 84.7375 39.8303 84.7547 39.8703C84.7718 39.9103 84.78 39.9536 84.7786 39.9971C84.7837 40.0407 84.7798 40.0849 84.7673 40.127C84.7548 40.1691 84.7339 40.2082 84.7058 40.242C84.6745 40.2751 84.6364 40.3011 84.5942 40.3182C84.5519 40.3354 84.5065 40.3432 84.461 40.3412C84.4113 40.3449 84.3614 40.3379 84.3146 40.3208C84.2678 40.3037 84.2252 40.2768 84.1896 40.242ZM84.1896 40.9037H84.7058V43.7096H84.1963L84.1896 40.9037Z" fill="#9B9B9B"/>
<path d="M86.0294 43.5508C85.8108 43.4333 85.6296 43.2567 85.5066 43.0412C85.3849 42.8143 85.3213 42.5608 85.3213 42.3034C85.3213 42.0459 85.3849 41.7924 85.5066 41.5655C85.6296 41.35 85.8108 41.1734 86.0294 41.0559C86.261 40.9342 86.5188 40.8706 86.7805 40.8706C87.0422 40.8706 87.2999 40.9342 87.5316 41.0559C87.7477 41.1744 87.9265 41.3509 88.0478 41.5655C88.1735 41.7911 88.2395 42.0451 88.2395 42.3034C88.2395 42.5616 88.1735 42.8156 88.0478 43.0412C87.9265 43.2558 87.7477 43.4323 87.5316 43.5508C87.2999 43.6725 87.0422 43.7361 86.7805 43.7361C86.5188 43.7361 86.261 43.6725 86.0294 43.5508ZM87.2669 43.167C87.4076 43.0838 87.524 42.9651 87.6044 42.8228C87.6829 42.6609 87.7236 42.4833 87.7236 42.3034C87.7236 42.1234 87.6829 41.9458 87.6044 41.7839C87.524 41.6416 87.4076 41.5229 87.2669 41.4398C87.1167 41.3615 86.9498 41.3206 86.7805 41.3206C86.6111 41.3206 86.4443 41.3615 86.2941 41.4398C86.1534 41.5229 86.037 41.6416 85.9566 41.7839C85.8741 41.9446 85.8311 42.1227 85.8311 42.3034C85.8311 42.484 85.8741 42.6621 85.9566 42.8228C86.0386 42.9691 86.1589 43.0902 86.3047 43.173C86.4505 43.2558 86.6162 43.2972 86.7838 43.2927C86.9565 43.2859 87.1238 43.2308 87.2669 43.1339V43.167Z" fill="#9B9B9B"/>
<path d="M91.2111 41.1486C91.3204 41.2716 91.4041 41.4151 91.4575 41.5707C91.5108 41.7263 91.5328 41.891 91.5222 42.0552V43.6765H91.0192V42.1147C91.0356 41.8916 90.9644 41.6708 90.8207 41.4993C90.7457 41.4288 90.6572 41.3743 90.5605 41.3391C90.4638 41.3038 90.361 41.2885 90.2582 41.2941C90.1368 41.2859 90.0151 41.3034 89.9011 41.3456C89.787 41.3878 89.6832 41.4537 89.5964 41.539C89.4337 41.7201 89.3482 41.9575 89.3582 42.2008V43.65H88.8486V40.9037H89.3383V41.3272C89.4417 41.1793 89.5836 41.0626 89.7486 40.9897C89.9365 40.9084 90.1395 40.8678 90.3442 40.8706C90.4999 40.8571 90.6568 40.8747 90.8056 40.9225C90.9544 40.9702 91.0923 41.047 91.2111 41.1486Z" fill="#9B9B9B"/>
</g>
<defs>
<clipPath id="clip0_6_2">
<rect width="91.8331" height="45" fill="white"/>
</clipPath>
</defs>
</svg>
