<svg width="20508" height="10459" viewBox="0 0 20508 10459" fill="none" xmlns="http://www.w3.org/2000/svg">
<g opacity="0.2">
<path fill-rule="evenodd" clip-rule="evenodd" d="M2211.64 10458.5C1815.06 10458.5 1428.97 10377 1065.95 10213.9C690.352 10044.3 505.698 9863.29 518.288 9677.39C530.878 9491.49 732.318 9308.86 1122.61 9134.38L3665.79 7992.9C4053.98 7818.41 4458.96 7728.73 4868.13 7722.2C4882.12 7722.2 4895.41 7722.2 4908 7722.2C5306.69 7722.2 5690.68 7805.37 6053.69 7968.44C6431.39 8136.4 6616.05 8317.4 6603.46 8503.3C6590.87 8689.2 6387.33 8871.83 5999.14 9046.32L3453.86 10187.8C3067.76 10362.3 2662.79 10453.6 2251.51 10458.5C2238.92 10458.5 2225.63 10458.5 2211.64 10458.5V10458.5ZM4908 7735.25C4895.41 7735.25 4882.82 7735.25 4870.23 7735.25C4461.06 7740.14 4060.28 7831.46 3674.18 8004.31L1128.9 9145.79C747.007 9317.01 545.567 9496.39 535.075 9677.39C522.485 9858.4 702.942 10036.1 1074.35 10202.5C1447.85 10368.8 1842.34 10452 2251.51 10445.4C2660.69 10440.6 3061.47 10349.2 3445.46 10178L5990.74 9034.9C6374.74 8863.68 6574.08 8684.31 6586.67 8503.3C6599.26 8322.3 6416.7 8144.55 6045.3 7978.22C5686.48 7816.78 5302.49 7735.25 4908 7735.25V7735.25ZM2138.2 9983.96C2006.01 9983.96 1878.01 9957.87 1758.4 9902.43C1636.7 9848.61 1573.75 9789.91 1573.75 9727.94C1573.75 9654.56 1663.98 9577.92 1838.14 9499.65L4479.94 8314.14C4654.1 8235.87 4824.07 8196.73 4981.44 8196.73C5113.64 8196.73 5241.64 8224.45 5363.34 8278.27C5485.04 8332.08 5547.99 8392.41 5547.99 8452.75C5547.99 8526.13 5457.77 8602.77 5281.51 8681.04L2639.7 9866.55C2465.54 9944.82 2297.68 9983.96 2138.2 9983.96V9983.96ZM4981.44 8209.78C4826.17 8209.78 4660.4 8248.91 4488.34 8325.56L1846.53 9511.06C1676.57 9587.7 1590.54 9661.08 1590.54 9727.94C1590.54 9785.02 1649.29 9838.83 1766.8 9891.01C1884.3 9944.82 2010.2 9970.91 2138.2 9970.91C2295.58 9970.91 2461.35 9931.78 2631.31 9855.14L5273.11 8669.63C5445.18 8592.99 5531.21 8521.24 5531.21 8452.75C5531.21 8397.31 5470.36 8341.86 5354.95 8289.68C5235.34 8235.87 5111.54 8209.78 4981.44 8209.78Z" fill="url(#paint0_linear_101_4)"/>
<path fill-rule="evenodd" clip-rule="evenodd" d="M17294.5 6893.82C17293.1 6893.82 17291.7 6893.27 17290.3 6892.19L16660.8 6610.08C16658 6608.99 16656.6 6607.36 16656.6 6605.19C16656.6 6601.93 16658 6599.75 16660.8 6598.66L16895.8 6484.52C16898.6 6483.43 16901.4 6483.43 16904.2 6484.52L17533.7 6766.62C17536.5 6768.8 17537.9 6770.97 17537.9 6773.15C17537.9 6775.32 17536.5 6776.95 17533.7 6778.04L17298.7 6892.19C17297.3 6893.27 17295.9 6893.82 17294.5 6893.82V6893.82ZM16679.7 6603.56L17294.5 6879.14L17512.7 6773.15L16900 6497.56L16679.7 6603.56Z" fill="url(#paint1_linear_101_4)"/>
<path fill-rule="evenodd" clip-rule="evenodd" d="M7919.11 7014.49C7917.71 7014.49 7916.31 7014.49 7914.91 7014.49L7627.44 6885.66C7624.64 6884.58 7623.24 6882.95 7623.24 6880.77C7623.24 6878.6 7624.64 6876.42 7627.44 6874.25L8219.17 6610.08C8221.97 6607.9 8224.77 6607.9 8227.56 6610.08L8515.04 6737.27C8517.83 6738.36 8519.23 6740.53 8519.23 6743.79C8519.23 6745.97 8517.83 6747.6 8515.04 6748.69L7923.31 7014.49C7921.91 7014.49 7920.51 7014.49 7919.11 7014.49V7014.49ZM7648.42 6880.77L7919.11 7001.44L8494.05 6743.79L8223.37 6623.12L7648.42 6880.77Z" fill="url(#paint2_linear_101_4)"/>
<path fill-rule="evenodd" clip-rule="evenodd" d="M14774.4 7761.34C14717.7 7761.34 14663.2 7749.93 14614.9 7728.73C14583.4 7714.05 14566.6 7691.22 14566.6 7663.5C14566.6 7635.78 14585.5 7611.32 14614.9 7598.27L15479.4 7218.32C15575.9 7174.29 15699.7 7174.29 15796.3 7218.32C15827.7 7231.37 15846.6 7255.83 15846.6 7283.55C15846.6 7309.64 15827.7 7334.1 15796.3 7347.15L14933.8 7728.73C14885.6 7749.93 14828.9 7761.34 14774.4 7761.34ZM15636.8 7198.75C15584.3 7198.75 15534 7208.54 15487.8 7229.74L14623.3 7609.69C14598.1 7621.1 14583.4 7640.67 14583.4 7663.5C14583.4 7686.33 14598.1 7705.9 14623.3 7717.31C14715.6 7758.08 14833.1 7758.08 14925.4 7717.31L15787.9 7335.73C15813 7325.95 15829.8 7304.75 15829.8 7283.55C15829.8 7260.72 15813 7241.15 15790 7229.74C15743.8 7208.54 15691.3 7198.75 15636.8 7198.75V7198.75Z" fill="url(#paint3_linear_101_4)"/>
<path fill-rule="evenodd" clip-rule="evenodd" d="M6574.08 7619.47C6572.68 7619.47 6571.28 7618.93 6569.88 7617.84L6280.31 7490.65C6277.51 7488.47 6276.12 7486.3 6276.12 7484.13C6276.12 7481.95 6277.51 7480.32 6280.31 7479.23L6872.04 7213.43C6874.84 7212.34 6877.64 7212.34 6880.43 7213.43L7170.01 7340.63C7172.8 7341.71 7174.2 7343.89 7174.2 7347.15C7174.2 7349.32 7172.8 7350.95 7170.01 7352.04L6578.28 7617.84C6576.88 7618.93 6575.48 7619.47 6574.08 7619.47ZM6301.29 7484.13L6574.08 7604.8L7149.02 7347.15L6876.24 7226.48L6301.29 7484.13Z" fill="url(#paint4_linear_101_4)"/>
<path fill-rule="evenodd" clip-rule="evenodd" d="M12917.3 9833.94C12915.9 9833.94 12914.5 9833.39 12913.1 9832.31L12237.5 9529C12236.1 9527.91 12234.7 9525.74 12233.3 9522.48C12234.7 9520.3 12236.1 9518.67 12237.5 9517.59L13049.5 9160.47C13052.3 9159.38 13055.1 9159.38 13057.9 9160.47L13733.6 9465.4C13736.4 9466.49 13737.8 9468.12 13737.8 9470.3C13737.8 9472.47 13736.4 9474.64 13733.6 9476.82L12921.5 9833.94C12920.1 9833.94 12918.7 9833.94 12917.3 9833.94V9833.94ZM12258.5 9522.48L12917.3 9819.26L13712.6 9470.3L13053.7 9173.51L12258.5 9522.48Z" fill="url(#paint5_linear_101_4)"/>
<path fill-rule="evenodd" clip-rule="evenodd" d="M10439.2 8725.07C10437.8 8725.07 10436.4 8725.07 10435 8725.07L9173.91 8159.23C9171.12 8158.14 9169.72 8155.97 9169.72 8152.7C9169.72 8150.53 9171.12 8148.9 9173.91 8147.81L9983.87 7790.69C9988.07 7789.06 9990.17 7789.06 9992.26 7790.69L11253.4 8356.54C11256.2 8357.63 11257.6 8359.26 11257.6 8361.43C11257.6 8364.69 11256.2 8366.87 11253.4 8367.95L10443.4 8725.07C10442 8725.07 10440.6 8725.07 10439.2 8725.07V8725.07ZM9194.9 8152.7L10439.2 8712.03L11232.4 8361.43L9988.07 7803.74L9194.9 8152.7Z" fill="url(#paint6_linear_101_4)"/>
<path fill-rule="evenodd" clip-rule="evenodd" d="M8414.32 8839.22C8412.92 8839.22 8411.52 8839.22 8410.12 8839.22L7635.83 8500.04C7633.04 8497.87 7631.64 8495.69 7631.64 8493.52C7631.64 8491.34 7633.04 8489.71 7635.83 8488.63L8070.19 8284.79C8072.99 8282.62 8075.79 8282.62 8078.58 8284.79L8854.97 8623.97C8857.76 8625.06 8859.16 8626.69 8859.16 8628.87C8859.16 8631.04 8857.76 8633.21 8854.97 8635.39L8418.51 8839.22C8417.11 8839.22 8415.72 8839.22 8414.32 8839.22ZM7656.82 8493.52L8414.32 8826.18L8833.98 8628.87L8074.39 8297.84L7656.82 8493.52Z" fill="url(#paint7_linear_101_4)"/>
</g>
<g opacity="0.5">
<path fill-rule="evenodd" clip-rule="evenodd" d="M15955.7 9817.63C15559.1 9817.63 15170.9 9734.47 14807.9 9571.4C14428.1 9400.18 14241.4 9219.17 14256.1 9030.01C14268.7 8842.48 14472.2 8658.22 14862.5 8483.73L17407.8 7340.63C17796 7167.77 18200.9 7076.45 18612.2 7069.93C19025.6 7065.04 19426.4 7148.2 19802 7316.16C20181.8 7487.39 20366.4 7668.39 20353.8 7857.55C20341.2 8045.08 20137.7 8229.35 19747.4 8403.83L17202.1 9545.31C16813.9 9719.79 16409 9811.11 15995.6 9816C15983 9817.09 15969.7 9817.63 15955.7 9817.63ZM18652.1 7092.76C18639.5 7092.76 18626.9 7092.76 18614.3 7092.76C18207.2 7099.28 17806.5 7188.97 17422.5 7361.82L14877.2 8503.3C14495.3 8674.52 14295.9 8852.27 14285.4 9031.64C14272.9 9211.02 14453.3 9385.5 14822.6 9550.2C15194 9718.16 15588.5 9798.06 15995.6 9793.17C16402.7 9788.28 16803.4 9698.59 17187.4 9525.74L19732.7 8384.26C20112.5 8213.04 20311.9 8035.3 20324.5 7855.92C20337 7676.55 20156.6 7502.06 19787.3 7335.73C19426.4 7174.29 19046.6 7092.76 18652.1 7092.76ZM15882.3 9343.1C15750.1 9343.1 15620 9315.38 15498.3 9259.94C15374.5 9204.49 15311.5 9144.16 15311.5 9082.19C15311.5 9005.55 15399.7 8928.91 15580.1 8849.01L18221.9 7663.5C18543 7518.37 18843 7506.95 19109.5 7627.62C19235.4 7683.07 19298.4 7743.4 19298.4 7805.37C19298.4 7882.01 19210.2 7958.65 19029.8 8038.56L16388 9224.06C16211.7 9302.34 16041.8 9343.1 15882.3 9343.1V9343.1ZM18725.5 7567.29C18572.3 7567.29 18406.6 7606.43 18236.6 7683.07L15594.8 8868.57C15426.9 8943.58 15340.9 9015.34 15340.9 9082.19C15340.9 9136.01 15399.7 9189.82 15513 9240.37C15773.2 9356.15 16060.6 9344.73 16373.3 9204.49L19015.1 8018.99C19183 7943.98 19269 7872.23 19269 7805.37C19269 7751.56 19210.2 7697.74 19094.8 7647.19C18977.3 7593.38 18853.5 7567.29 18725.5 7567.29V7567.29Z" fill="url(#paint8_linear_101_4)"/>
<path fill-rule="evenodd" clip-rule="evenodd" d="M8141.53 9840.46C8138.73 9840.46 8136.64 9839.92 8135.24 9838.83L3991.03 7979.85L3199.96 8336.97C3193.66 8338.6 3189.47 8338.6 3185.27 8336.97L2492.82 8025.51C2488.62 8023.88 2484.43 8020.62 2484.43 8015.73C2484.43 8012.47 2488.62 8007.57 2492.82 8005.94L4859.74 6944.37C4863.94 6942.74 4868.13 6942.74 4874.43 6944.37L5564.78 7254.2C5568.98 7257.46 5573.17 7260.72 5573.17 7263.98C5573.17 7268.87 5568.98 7272.14 5564.78 7273.77L4786.3 7624.36L8913.72 9475.19C8920.01 9478.45 8922.11 9481.71 8922.11 9484.97C8922.11 9489.86 8920.01 9493.12 8913.72 9494.76L8149.93 9838.83C8147.13 9839.92 8144.33 9840.46 8141.53 9840.46ZM3991.03 7955.39C3993.83 7955.39 3996.62 7955.94 3999.42 7957.02L8141.53 9816L8878.05 9484.97L4750.63 7634.15C4746.43 7630.89 4742.23 7627.62 4742.23 7624.36C4742.23 7619.47 4746.43 7616.21 4750.63 7614.58L5529.11 7263.98L4866.03 6967.2L2528.49 8015.73L3191.56 8312.51L3984.73 7957.02C3987.53 7955.94 3989.63 7955.39 3991.03 7955.39V7955.39Z" fill="url(#paint9_linear_101_4)"/>
<path fill-rule="evenodd" clip-rule="evenodd" d="M17294.5 6691.61C17291.7 6691.61 17289.6 6691.07 17288.2 6689.98L16656.6 6407.88C16652.4 6406.24 16650.3 6401.35 16650.3 6398.09C16650.3 6393.2 16652.4 6389.94 16656.6 6388.31L16891.6 6274.16C16895.8 6270.9 16902.1 6270.9 16906.3 6274.16L17537.9 6556.27C17542.1 6557.9 17544.2 6562.79 17544.2 6566.05C17544.2 6570.94 17542.1 6574.2 17537.9 6575.84L17302.9 6689.98C17300.1 6691.07 17297.3 6691.61 17294.5 6691.61V6691.61ZM16692.2 6398.09L17294.5 6667.15L17500.1 6566.05L16900 6296.99L16692.2 6398.09Z" fill="url(#paint10_linear_101_4)"/>
<path fill-rule="evenodd" clip-rule="evenodd" d="M7919.11 6813.91C7916.31 6813.91 7914.21 6813.37 7912.81 6812.28L7623.24 6683.46C7619.05 6681.83 7616.95 6678.57 7616.95 6673.68C7614.85 6670.41 7619.05 6665.52 7623.24 6663.89L8214.97 6398.09C8219.17 6396.46 8225.47 6396.46 8229.66 6398.09L8519.23 6526.91C8523.43 6528.54 8525.53 6531.81 8525.53 6536.7C8525.53 6539.96 8523.43 6544.85 8519.23 6546.48L7927.5 6812.28C7924.7 6813.37 7921.91 6813.91 7919.11 6813.91ZM7661.01 6673.68L7919.11 6789.45L8481.46 6536.7L8223.37 6420.92L7661.01 6673.68Z" fill="url(#paint11_linear_101_4)"/>
<path fill-rule="evenodd" clip-rule="evenodd" d="M14774.4 7559.14C14717.7 7559.14 14661.1 7547.72 14610.7 7526.52C14579.2 7511.85 14560.3 7485.75 14560.3 7456.4C14560.3 7428.68 14579.2 7402.59 14610.7 7387.91L15475.2 7006.33C15573.8 6963.94 15701.8 6963.94 15800.5 7007.97C15831.9 7021.01 15852.9 7047.1 15852.9 7076.45C15852.9 7105.81 15831.9 7131.9 15800.5 7144.94L14935.9 7526.52C14887.7 7547.72 14831 7559.14 14774.4 7559.14V7559.14ZM15636.8 6996.55C15586.4 6996.55 15536.1 7006.33 15489.9 7025.9L14625.4 7407.48C14602.3 7417.27 14589.7 7436.83 14589.7 7456.4C14589.7 7477.6 14602.3 7495.54 14625.4 7506.95C14715.6 7546.09 14831 7546.09 14921.2 7506.95L15785.8 7125.37C15808.8 7115.59 15823.5 7097.65 15823.5 7076.45C15823.5 7055.26 15808.8 7037.32 15785.8 7027.53C15741.7 7006.33 15689.2 6996.55 15636.8 6996.55Z" fill="url(#paint12_linear_101_4)"/>
<path fill-rule="evenodd" clip-rule="evenodd" d="M6574.08 7417.27C6571.28 7417.27 6568.48 7416.72 6565.68 7415.64L6278.21 7286.81C6274.02 7285.18 6269.82 7281.92 6269.82 7277.03C6269.82 7273.77 6274.02 7270.51 6278.21 7267.24L6869.94 7001.44C6874.14 6999.81 6880.43 6999.81 6884.63 7001.44L7172.1 7130.27C7178.4 7131.9 7180.5 7136.79 7180.5 7140.05C7180.5 7144.94 7178.4 7148.2 7172.1 7149.83L6580.37 7415.64C6578.97 7416.72 6576.87 7417.27 6574.08 7417.27ZM6313.88 7277.03L6574.08 7392.81L7136.43 7140.05L6876.24 7025.9L6313.88 7277.03Z" fill="url(#paint13_linear_101_4)"/>
<path fill-rule="evenodd" clip-rule="evenodd" d="M12917.3 9631.73C12915.9 9631.73 12913.8 9631.19 12911 9630.1L12235.4 9326.79C12231.2 9323.53 12227 9320.27 12227 9317.01C12227 9312.12 12231.2 9308.86 12235.4 9307.23L13045.3 8950.11C13049.5 8946.84 13055.8 8946.84 13060 8950.11L13735.7 9253.41C13739.9 9256.67 13744.1 9259.94 13744.1 9263.2C13744.1 9268.09 13739.9 9271.35 13735.7 9274.61L12925.7 9630.1C12922.9 9631.19 12920.1 9631.73 12917.3 9631.73V9631.73ZM12273.2 9317.01L12917.3 9607.27L13700 9263.2L13053.7 8972.94L12273.2 9317.01Z" fill="url(#paint14_linear_101_4)"/>
<path fill-rule="evenodd" clip-rule="evenodd" d="M10439.2 8524.5C10436.4 8524.5 10434.3 8523.96 10432.9 8522.87L9171.81 7957.02C9165.52 7953.76 9163.42 7950.5 9163.42 7947.24C9163.42 7942.35 9165.52 7939.08 9171.81 7935.82L9981.77 7580.33C9985.97 7577.07 9992.26 7577.07 9996.46 7580.33L11257.6 8146.18C11261.8 8147.81 11263.9 8151.07 11263.9 8155.97C11263.9 8159.23 11261.8 8162.49 11257.6 8165.75L10447.6 8522.87C10444.8 8523.96 10442 8524.5 10439.2 8524.5ZM9207.48 7947.24L10439.2 8498.41L11219.8 8155.97L9988.06 7603.16L9207.48 7947.24Z" fill="url(#paint15_linear_101_4)"/>
<path fill-rule="evenodd" clip-rule="evenodd" d="M13742 9993.74C13739.2 9993.74 13737.1 9993.2 13735.7 9992.11L13343.3 9830.68C13339.1 9829.05 13334.9 9824.15 13334.9 9820.89C13334.9 9816 13339.1 9812.74 13343.3 9811.11L14153.3 9453.99C14157.5 9450.73 14163.7 9450.73 14167.9 9453.99L14560.3 9615.43C14564.5 9617.06 14568.7 9621.95 14568.7 9625.21C14568.7 9630.1 14564.5 9633.36 14560.3 9634.99L13750.4 9992.11C13747.6 9993.2 13744.8 9993.74 13742 9993.74V9993.74ZM13381.1 9820.89L13742 9969.28L14522.6 9625.21L14161.7 9476.82L13381.1 9820.89Z" fill="url(#paint16_linear_101_4)"/>
<path fill-rule="evenodd" clip-rule="evenodd" d="M8414.32 8638.65C8412.92 8638.65 8410.82 8638.1 8408.02 8637.02L7633.74 8296.2C7627.44 8294.57 7625.34 8291.31 7625.34 8286.42C7625.34 8283.16 7627.44 8279.9 7631.64 8276.64L8068.09 8072.8C8072.29 8071.17 8078.58 8071.17 8082.78 8072.8L8857.06 8411.98C8861.26 8415.24 8865.46 8418.51 8865.46 8421.77C8865.46 8426.66 8861.26 8429.92 8857.06 8433.18L8422.71 8637.02C8419.91 8638.1 8417.11 8638.65 8414.32 8638.65V8638.65ZM7669.41 8286.42L8414.32 8612.56L8821.39 8423.4L8074.39 8095.63L7669.41 8286.42Z" fill="url(#paint17_linear_101_4)"/>
</g>
<path fill-rule="evenodd" clip-rule="evenodd" d="M15955.7 9594.23C15557 9594.23 15168.9 9511.06 14803.7 9346.36C14421.8 9175.14 14235.1 8992.51 14249.8 8801.72C14262.4 8612.56 14468 8426.66 14860.4 8250.55L17403.6 7109.07C17793.9 6934.59 18198.8 6843.27 18612.2 6836.74C19025.6 6831.85 19428.5 6915.02 19804.1 7084.61C20186 7255.83 20372.7 7438.47 20360.1 7629.25C20347.5 7818.41 20141.9 8004.31 19749.5 8180.43L17204.2 9321.9C16816 9496.39 16409 9587.7 15995.6 9592.6C15983 9593.68 15969.7 9594.23 15955.7 9594.23V9594.23ZM18652.1 6869.36C18639.5 6869.36 18626.9 6869.36 18614.3 6869.36C18207.2 6875.88 17808.6 6965.57 17424.6 7136.79L14881.4 8278.27C14501.6 8449.49 14302.2 8625.6 14291.7 8803.35C14279.2 8981.09 14457.5 9153.94 14824.7 9318.64C15196.1 9484.97 15590.6 9566.51 15995.6 9559.98C16402.7 9555.09 16801.4 9465.4 17183.3 9294.18L19728.5 8151.07C20108.3 7981.48 20305.6 7805.37 20318.2 7627.62C20330.8 7449.88 20150.3 7277.03 19783.1 7112.33C19424.3 6950.89 19044.5 6869.36 18652.1 6869.36V6869.36ZM15882.3 9119.7C15748 9119.7 15617.9 9091.98 15496.2 9036.53C15370.3 8979.46 15305.2 8917.49 15305.2 8853.9C15305.2 8775.62 15393.4 8697.35 15575.9 8615.82L18217.7 7430.31C18540.9 7285.18 18843 7273.77 19113.7 7394.44C19239.6 7451.51 19304.7 7513.48 19304.7 7577.07C19304.7 7655.35 19214.4 7733.62 19031.9 7815.15L16390.1 9000.66C16213.8 9078.93 16043.9 9119.7 15882.3 9119.7V9119.7ZM18725.5 7343.89C18572.3 7343.89 18408.7 7383.02 18238.7 7458.03L15596.9 8643.54C15431.1 8718.55 15347.2 8788.67 15347.2 8853.9C15347.2 8906.08 15403.9 8958.26 15517.2 9008.81C15773.2 9122.96 16060.6 9111.55 16369.1 8971.31L19010.9 7785.8C19178.8 7712.42 19262.7 7642.3 19262.7 7577.07C19262.7 7524.89 19203.9 7472.71 19092.7 7422.16C18975.2 7369.98 18853.5 7343.89 18725.5 7343.89V7343.89Z" fill="url(#paint18_linear_101_4)"/>
<path fill-rule="evenodd" clip-rule="evenodd" d="M8141.53 9617.06C8137.34 9617.06 8133.84 9616.51 8131.04 9615.43L3991.03 7758.08L3202.06 8111.94C3195.76 8115.2 3187.37 8115.2 3181.07 8111.94L2488.62 7802.11C2482.33 7798.85 2478.13 7793.95 2478.13 7787.43C2478.13 7782.54 2482.33 7776.02 2488.62 7774.39L4855.54 6711.18C4861.84 6709.55 4870.23 6709.55 4876.53 6711.18L5568.98 7022.64C5575.27 7025.9 5579.47 7030.8 5579.47 7035.69C5579.47 7042.21 5575.27 7047.1 5568.98 7050.36L4798.89 7396.07L8917.92 9243.63C8924.21 9246.89 8928.41 9251.78 8928.41 9256.68C8928.41 9263.2 8924.21 9268.09 8917.92 9271.35L8152.02 9615.43C8149.23 9616.51 8145.73 9617.06 8141.53 9617.06ZM3991.03 7722.2C3995.23 7722.2 3998.72 7723.29 4001.52 7725.47L8141.53 9581.18L8865.46 9256.68L4746.43 7409.11C4740.13 7405.85 4735.94 7400.96 4735.94 7396.07C4735.94 7389.54 4740.13 7384.65 4746.43 7381.39L5516.52 7035.69L4866.03 6745.43L2541.08 7787.43L3191.56 8079.32L3980.54 7725.47C3984.73 7723.29 3988.23 7722.2 3991.03 7722.2V7722.2Z" fill="url(#paint19_linear_101_4)"/>
<path fill-rule="evenodd" clip-rule="evenodd" d="M17294.5 6468.21C17290.3 6468.21 17286.8 6467.67 17284 6466.58L16654.5 6182.84C16648.2 6181.21 16644 6174.69 16644 6169.8C16644 6163.27 16646.1 6158.38 16652.4 6155.12L16887.4 6040.97C16895.8 6037.71 16904.2 6037.71 16910.5 6040.97L17540 6324.71C17546.3 6326.34 17550.5 6332.86 17550.5 6337.76C17550.5 6344.28 17546.3 6349.17 17540 6352.43L17305 6466.58C17302.2 6467.67 17298.7 6468.21 17294.5 6468.21ZM16704.8 6168.16L17294.5 6433.97L17489.6 6339.39L16900 6073.59L16704.8 6168.16Z" fill="url(#paint20_linear_101_4)"/>
<path fill-rule="evenodd" clip-rule="evenodd" d="M7919.11 6590.51C7914.91 6590.51 7911.42 6589.97 7908.62 6588.88L7621.15 6460.06C7612.75 6456.8 7610.65 6451.9 7610.65 6445.38C7610.65 6440.49 7612.75 6433.97 7621.15 6432.34L8212.88 6166.53C8219.17 6163.27 8225.47 6163.27 8233.86 6166.53L8521.33 6293.73C8527.63 6296.99 8531.82 6301.88 8531.82 6308.4C8531.82 6313.3 8527.63 6319.82 8521.33 6323.08L7929.6 6587.25C7926.8 6589.42 7923.31 6590.51 7919.11 6590.51V6590.51ZM7673.6 6445.38L7919.11 6554.64L8468.87 6308.4L8223.37 6199.15L7673.6 6445.38Z" fill="url(#paint21_linear_101_4)"/>
<path fill-rule="evenodd" clip-rule="evenodd" d="M14774.4 7335.73C14715.6 7335.73 14659 7324.32 14608.6 7301.49C14575 7286.81 14554 7259.09 14554 7228.11C14554 7197.12 14575 7171.03 14608.6 7154.73L15473.1 6774.78C15573.8 6729.12 15703.9 6730.75 15802.5 6774.78C15838.2 6789.45 15859.2 6817.18 15859.2 6848.16C15859.2 6879.14 15838.2 6906.86 15802.5 6921.54L14940.1 7303.12C14889.8 7324.32 14831 7335.73 14774.4 7335.73V7335.73ZM15636.8 6773.15C15586.4 6773.15 15538.2 6782.93 15494.1 6802.5L14629.6 7184.08C14608.6 7192.23 14596 7210.17 14596 7228.11C14596 7247.68 14608.6 7263.98 14629.6 7273.77C14717.7 7312.9 14831 7312.9 14919.1 7273.77L15781.6 6893.82C15804.6 6884.03 15817.2 6866.1 15817.2 6848.16C15817.2 6828.59 15804.6 6812.28 15783.7 6802.5C15739.6 6782.93 15689.2 6773.15 15636.8 6773.15V6773.15Z" fill="url(#paint22_linear_101_4)"/>
<path fill-rule="evenodd" clip-rule="evenodd" d="M6574.08 7193.86C6569.88 7193.86 6566.38 7193.32 6563.58 7192.23L6274.02 7063.41C6267.72 7060.15 6263.52 7055.26 6263.52 7048.73C6263.52 7043.84 6267.72 7038.95 6274.02 7035.69L6865.75 6769.89C6874.14 6766.63 6880.43 6766.63 6886.73 6769.89L7176.3 6897.08C7182.59 6900.34 7186.79 6906.86 7186.79 6911.75C7186.79 6918.28 7182.59 6923.17 7176.3 6926.43L6584.57 7192.23C6581.77 7193.32 6578.27 7193.86 6574.08 7193.86ZM6326.47 7048.73L6574.08 7157.99L7123.84 6911.75L6876.24 6802.5L6326.47 7048.73Z" fill="url(#paint23_linear_101_4)"/>
<path fill-rule="evenodd" clip-rule="evenodd" d="M12917.3 9408.33C12914.5 9408.33 12911 9407.78 12906.8 9406.7L12231.2 9101.76C12224.9 9098.5 12220.7 9093.61 12220.7 9088.71C12220.7 9082.19 12224.9 9077.3 12233.3 9074.04L13043.2 8716.92C13049.5 8713.66 13057.9 8713.66 13064.2 8716.92L13739.9 9021.86C13746.2 9025.12 13750.4 9030.01 13750.4 9034.9C13750.4 9041.42 13746.2 9046.32 13739.9 9049.58L12927.8 9406.7C12925 9407.78 12921.5 9408.33 12917.3 9408.33ZM12285.7 9088.71L12917.3 9374.08L13687.4 9034.9L13053.7 8749.53L12285.7 9088.71Z" fill="url(#paint24_linear_101_4)"/>
<path fill-rule="evenodd" clip-rule="evenodd" d="M10439.2 8301.1C10435 8301.1 10431.5 8300.01 10428.7 8297.83L9167.62 7731.99C9161.32 7728.73 9157.12 7723.83 9157.12 7718.94C9157.12 7712.42 9161.32 7707.53 9167.62 7704.27L9979.67 7347.15C9985.97 7343.88 9992.26 7343.88 9998.56 7347.15L11259.7 7912.99C11268 7916.25 11270.1 7921.15 11270.1 7927.67C11270.1 7932.56 11265.9 7939.08 11259.7 7940.71L10449.7 8297.83C10446.9 8300.01 10443.4 8301.1 10439.2 8301.1V8301.1ZM9220.08 7718.94L10439.2 8265.22L11207.2 7927.67L9988.07 7379.76L9220.08 7718.94Z" fill="url(#paint25_linear_101_4)"/>
<path fill-rule="evenodd" clip-rule="evenodd" d="M13742 9770.34C13739.2 9770.34 13735.7 9769.8 13731.5 9768.71L13341.2 9607.27C13334.9 9604.01 13328.6 9597.49 13328.6 9592.6C13328.6 9586.07 13332.8 9581.18 13341.2 9577.92L14151.2 9220.8C14157.5 9217.54 14163.7 9217.54 14170 9220.8L14562.4 9382.24C14568.7 9385.5 14572.9 9390.39 14575 9396.91C14575 9403.44 14570.8 9408.33 14562.4 9411.59L13752.5 9768.71C13749.7 9769.8 13746.2 9770.34 13742 9770.34ZM13393.7 9590.97L13742 9736.1L14510 9398.55L14161.7 9253.42L13393.7 9590.97Z" fill="url(#paint26_linear_101_4)"/>
<path fill-rule="evenodd" clip-rule="evenodd" d="M10302.8 9272.98C10300 9272.98 10296.5 9272.44 10292.3 9271.35L9518.04 8932.17C9511.74 8928.91 9507.55 8924.02 9507.55 8917.49C9507.55 8912.6 9511.74 8906.08 9518.04 8904.45L9952.39 8700.61C9958.69 8697.35 9967.08 8697.35 9973.38 8698.98L10749.8 9039.8C10756.1 9041.43 10760.3 9047.95 10760.3 9052.84C10760.3 9059.36 10756.1 9064.26 10749.8 9067.52L10313.3 9271.35C10310.5 9272.44 10307 9272.98 10302.8 9272.98V9272.98ZM9570.5 8917.49L10302.8 9238.74L10697.3 9054.47L9964.98 8733.23L9570.5 8917.49Z" fill="url(#paint27_linear_101_4)"/>
<path fill-rule="evenodd" clip-rule="evenodd" d="M8414.32 8415.24C8411.52 8415.24 8408.02 8414.16 8403.83 8411.98L7629.54 8072.8C7623.25 8069.54 7619.05 8064.65 7619.05 8059.75C7619.05 8053.23 7623.25 8048.34 7629.54 8045.08L8063.9 7841.24C8070.19 7837.98 8078.58 7837.98 8084.88 7841.24L8861.26 8180.43C8867.56 8183.69 8871.75 8188.58 8871.75 8193.47C8871.75 8199.99 8867.56 8204.88 8861.26 8208.15L8424.81 8411.98C8422.01 8414.16 8418.51 8415.24 8414.32 8415.24ZM7682 8058.12L8414.32 8379.37L8808.8 8195.1L8076.49 7873.86L7682 8058.12Z" fill="url(#paint28_linear_101_4)"/>
<path d="M16900 3035.62L17529.5 3319.36L18018.4 5243.57L18026.8 5248.46V3542.77L18475.8 3743.34V6593.77L17959.6 6362.22L17355.3 4010.77L17346.9 4005.88V6086.63L16900 5886.06V3035.62Z" fill="url(#paint29_linear_101_4)"/>
<path d="M17120.3 4124.92L17346.9 4010.77V6086.63L17111.9 6200.78L17120.3 4124.92Z" fill="url(#paint30_linear_101_4)"/>
<path d="M18240.8 3857.49L18475.8 3743.34V6593.77L18240.8 6707.92V3857.49Z" fill="url(#paint31_linear_101_4)"/>
<path d="M17791.8 3656.92L18026.8 3542.77L18475.8 3743.34L18240.8 3857.49L17791.8 3656.92Z" fill="url(#paint32_linear_101_4)"/>
<path d="M16665 3149.77L16900 3035.62L17529.5 3319.36L17294.5 3433.51L16665 3149.77Z" fill="url(#paint33_linear_101_4)"/>
<path d="M16665 3149.77L17294.5 3433.51L17783.4 5357.72L17791.8 5362.61V3656.91L18240.8 3857.49V6707.92L17724.6 6476.36L17120.3 4124.92L17111.9 4120.03V6200.78L16665 6000.2V3149.77Z" fill="url(#paint34_linear_101_4)"/>
<path style="mix-blend-mode:color-dodge" d="M17791.8 3656.92L18236.6 3842.81L18475.8 3743.34L18251.3 3864.01L18240.8 6707.92L18213.5 3860.75L17791.8 3656.92Z" fill="url(#paint35_radial_101_4)"/>
<path style="mix-blend-mode:color-dodge" d="M16665 3149.77L17292.4 3420.47L17529.5 3319.36L17307.1 3436.77L17783.4 5357.72L17281.9 3433.51L16665 3149.77Z" fill="url(#paint36_radial_101_4)"/>
<path d="M14463.8 7135.16C14294.5 7047.1 14209.9 6854.14 14209.9 6556.27V4508.13C14209.9 4210.26 14294.5 3941.74 14463.8 3702.57C14631.7 3463.41 14877.2 3271.53 15200.3 3126.94C15522.1 2982.36 15766.9 2954.09 15934.7 3042.15C16104 3129.12 16188.6 3321.54 16188.6 3619.41V4022.19L15552.8 4307.56V3867.27C15552.8 3630.28 15440.9 3562.33 15217.1 3663.44C14993.3 3763.45 14881.4 3931.41 14881.4 4167.32V6298.62C14881.4 6531.26 14993.3 6597.03 15217.1 6495.93C15440.9 6395.92 15552.8 6229.59 15552.8 5996.94V5413.16L16188.6 5129.42V5667.54C16188.6 5965.42 16104 6233.94 15934.7 6473.1C15766.9 6713.36 15522.1 6905.23 15200.3 7048.73C14877.2 7193.32 14631.7 7222.13 14463.8 7135.16V7135.16Z" fill="url(#paint37_linear_101_4)"/>
<path d="M15311.5 5303.9L15945.2 5018.53V5237.04L15552.8 5413.16V5996.94C15552.8 6229.59 15440.9 6395.92 15217.1 6495.93C15038.1 6576.38 14931 6550.29 14896.1 6417.66C14919.8 6410.05 14945.7 6399.72 14973.7 6386.68C15198.9 6286.66 15311.5 6120.33 15311.5 5887.69V5303.9Z" fill="url(#paint38_linear_101_4)"/>
<path d="M15552.8 3867.27V4307.56L15311.5 4198.3V3756.39C15310.1 3708.55 15305.2 3667.79 15296.8 3634.08C15467.5 3581.9 15552.8 3659.63 15552.8 3867.27Z" fill="url(#paint39_linear_101_4)"/>
<path d="M14373.6 7069.93C14316.2 7063.41 14265.2 7048.19 14220.4 7024.27C14051.1 6937.3 13966.5 6744.88 13966.5 6447.01V4398.87C13966.5 4101 14051.1 3832.48 14220.4 3593.32C14389.7 3353.06 14635.2 3161.19 14956.9 3017.69C15212.9 2902.45 15420.6 2861.14 15580.1 2893.76L15582.2 2885.6L15630.5 2906.8C15651.5 2913.32 15672.4 2921.48 15693.4 2931.26C15693.4 2932.35 15694.1 2932.89 15695.5 2932.89L15901.2 3019.32L15899.1 3025.84C15732.6 2958.44 15499.7 2992.14 15200.3 3126.94C14877.2 3271.53 14631.7 3463.41 14463.8 3702.57C14294.5 3941.74 14209.9 4210.26 14209.9 4508.13V6556.27C14209.9 6795.43 14264.5 6966.65 14373.6 7069.93Z" fill="url(#paint40_linear_101_4)"/>
<path d="M15945.2 5018.53L16188.6 5129.42L15552.8 5413.16L15311.5 5303.9L15945.2 5018.53Z" fill="url(#paint41_linear_101_4)"/>
<g style="mix-blend-mode:color-dodge">
<path d="M15527.7 5409.9L16163.5 5126.16V5153.88L15565.4 5422.94V6005.1C15565.4 6237.74 15453.5 6404.61 15229.7 6505.72C15122.7 6553 15042.9 6562.79 14986.3 6535.07C15039.5 6544.85 15108 6530.72 15191.9 6492.67C15415.8 6392.65 15527.7 6226.32 15527.7 5993.68V5409.9Z" fill="url(#paint42_radial_101_4)"/>
<path d="M15565.4 3875.43V4287.99L15527.7 4304.3V3864.01C15527.7 3738.45 15496.2 3660.18 15433.2 3629.19C15521.4 3645.5 15565.4 3727.58 15565.4 3875.43V3875.43Z" fill="url(#paint43_radial_101_4)"/>
<path d="M14516.3 7161.25C14488.3 7153.64 14462.4 7143.85 14438.6 7131.9C14269.4 7043.84 14184.7 6850.88 14184.7 6553V4504.87C14184.7 4207 14269.4 3938.48 14438.6 3699.31C14606.5 3460.15 14852 3268.27 15175.1 3123.68C15471.7 2989.97 15703.2 2955.72 15869.7 3020.95C15706 2973.11 15486.4 3011.16 15210.8 3135.1C14889.1 3279.68 14643.6 3471.56 14474.3 3710.73C14305 3949.89 14220.4 4218.41 14220.4 4516.28V6564.42C14220.4 6862.29 14305 7055.25 14474.3 7143.31C14488.3 7149.83 14502.3 7155.81 14516.3 7161.25Z" fill="url(#paint44_radial_101_4)"/>
</g>
<path fill-rule="evenodd" clip-rule="evenodd" d="M14438.6 8084.22C14451.2 7900.49 14651.3 7721.66 15038.8 7547.72L17581.9 6404.61C17969.4 6231.76 18369.5 6142.07 18782.2 6135.55C19193.5 6130.12 19586.5 6211.65 19961.4 6380.15C20337.7 6548.66 20519.6 6725.31 20507 6910.12C20494.4 7094.94 20294.4 7274.31 19906.9 7448.25L17361.6 8589.73C16974.1 8763.67 16574.7 8853.35 16163.5 8858.79C15752.2 8865.31 15358.4 8783.78 14982.1 8614.19C14607.2 8445.68 14426 8269.03 14438.6 8084.22V8084.22ZM16547.5 8268.48L19189.3 7082.98C19508.2 6940.56 19535.5 6810.11 19271.1 6691.61C19006.7 6572.03 18715 6583.99 18396.1 6727.49L15754.3 7912.99C15436.7 8055.41 15410.2 8185.86 15674.5 8304.36C15938.9 8422.85 16229.9 8410.9 16547.5 8268.48V8268.48Z" fill="url(#paint45_linear_101_4)"/>
<path d="M20339.1 6861.2V7154.73C20340.5 7166.69 20340.5 7178.1 20339.1 7188.97C20326.6 7373.78 20126.5 7553.16 19739 7727.1L17193.7 8870.2C16806.2 9043.06 16406.9 9132.74 15995.6 9139.27C15584.3 9144.7 15190.5 9063.17 14814.2 8894.66C14439.3 8726.16 14258.2 8549.5 14270.8 8364.69V8071.17C14282 8242.94 14463.1 8407.63 14814.2 8565.27C15190.5 8734.86 15584.3 8816.39 15995.6 8809.87C16406.9 8804.43 16806.2 8714.75 17193.7 8540.81L19739 7399.33C20126.5 7225.39 20326.6 7046.01 20339.1 6861.2Z" fill="url(#paint46_linear_101_4)"/>
<path d="M19126.3 6981.88C19117.9 6978.61 19111.6 6973.72 19103.2 6970.46C18838.8 6851.96 18547.2 6863.92 18228.2 7006.34L15586.4 8191.84C15547.2 8209.23 15512.3 8226.63 15481.5 8244.02C15244.4 8128.24 15280.1 8001.05 15586.4 7864.07L18228.2 6678.57C18547.2 6535.07 18838.8 6523.11 19103.2 6642.69C19335.4 6745.97 19343.1 6859.03 19126.3 6981.88V6981.88Z" fill="url(#paint47_linear_101_4)"/>
<g style="mix-blend-mode:color-dodge">
<path d="M19279.5 6809.02C19269 6756.84 19210.2 6706.29 19103.2 6659C18838.8 6539.42 18547.2 6551.37 18228.2 6694.87L15586.4 7880.38C15429.7 7951.04 15343.7 8018.44 15328.3 8082.59C15313.6 8005.94 15399.7 7926.04 15586.4 7841.24L18228.2 6655.74C18547.2 6513.33 18838.8 6501.37 19103.2 6619.86C19236.1 6680.74 19294.9 6743.79 19279.5 6809.02V6809.02Z" fill="url(#paint48_radial_101_4)"/>
<path d="M20339.1 6841.64C20340.5 6853.59 20340.5 6865.55 20339.1 6877.51C20326.6 7062.32 20126.5 7241.7 19739 7415.64L17193.7 8557.11C16806.2 8731.05 16406.9 8820.74 15995.6 8826.18C15584.3 8832.7 15190.5 8751.16 14814.2 8581.57C14439.3 8413.07 14258.2 8236.41 14270.8 8051.6C14282 8222.28 14463.1 8386.44 14814.2 8544.07C15190.5 8712.57 15584.3 8794.11 15995.6 8788.67C16406.9 8783.23 16806.2 8693.55 17193.7 8519.61L19739 7378.13C20125.1 7204.19 20325.2 7025.36 20339.1 6841.64V6841.64Z" fill="url(#paint49_radial_101_4)"/>
</g>
<path d="M6284.51 3472.65L6876.24 3206.85V4622.28L7631.64 2869.3L8223.37 2603.49L7518.33 4152.64L8233.86 5957.81L7614.85 6235.02L7113.35 4963.09L6876.24 5496.32V6566.05L6284.51 6831.85V3472.65Z" fill="url(#paint50_linear_101_4)"/>
<path d="M8223.37 2603.49L8510.84 2732.32L7919.11 2996.49L7631.64 2869.3L8223.37 2603.49Z" fill="url(#paint51_linear_101_4)"/>
<path d="M6574.08 3601.47L6284.51 3472.65L6876.24 3206.85L7165.81 3335.67L6574.08 3601.47Z" fill="url(#paint52_linear_101_4)"/>
<path d="M7113.35 4963.09L7402.92 5090.28L7902.32 6363.85L7614.85 6235.02L7113.35 4963.09Z" fill="url(#paint53_linear_101_4)"/>
<path d="M6574.08 6960.68L6284.51 6831.85V3472.65L6574.08 3601.47V6960.68Z" fill="url(#paint54_linear_101_4)"/>
<path d="M6574.08 3601.47L7165.81 3335.67V4751.1L7919.11 2996.49L8510.84 2732.32L7805.8 4281.47L8521.33 6086.63L7902.32 6363.85L7402.92 5090.28L7165.81 5623.52V6694.88L6574.08 6960.68V3601.47Z" fill="url(#paint55_linear_101_4)"/>
<path style="mix-blend-mode:color-dodge" d="M6284.51 3475.65L6578.27 3591.43L7165.81 3338.67L6599.26 3624.04L6574.08 6963.68L6557.29 3615.89L6284.51 3475.65Z" fill="url(#paint56_radial_101_4)"/>
<path style="mix-blend-mode:color-dodge" d="M7631.64 2869.3L7917.01 2972.03L8510.84 2732.32L7937.99 3017.69L7176.3 4716.86L7919.11 2996.49L7631.64 2869.3Z" fill="url(#paint57_radial_101_4)"/>
<path d="M12984.5 2349.11L13752.5 2011.56V8787.04L12984.5 9124.59V2349.11Z" fill="url(#paint58_linear_101_4)"/>
<path d="M12919.4 2003.4L13729.4 1646.28V8803.35L12919.4 9158.84V2003.4Z" fill="url(#paint59_linear_101_4)"/>
<path d="M13742 2362.15L14554 2005.03V9162.1L13742 9517.59V2362.15Z" fill="url(#paint60_linear_101_4)"/>
<path d="M12241.7 1695.2L13053.7 1338.08L13729.4 1643.02L12917.3 2000.14L12241.7 1695.2Z" fill="url(#paint61_linear_101_4)"/>
<path d="M9199.09 358.045L10009 0.925781L11270.1 566.772L10460.2 923.891L9199.09 358.045Z" fill="url(#paint62_linear_101_4)"/>
<path d="M11249.2 3448.19L10439.2 3805.31V891.277L11249.2 534.158V3448.19Z" fill="url(#paint63_linear_101_4)"/>
<path d="M10439.2 4827.74L11249.2 4470.62V7691.22L10439.2 8048.34V4827.74Z" fill="url(#paint64_linear_101_4)"/>
<path d="M12241.7 4609.23L10439.2 3805.31L11249.2 3448.19L12822.9 4147.75L12241.7 4609.23Z" fill="url(#paint65_linear_101_4)"/>
<path d="M9199.09 325.432L10460.2 891.278V3805.31L12262.7 4609.23V1695.2L12938.3 2000.14V9157.2L12262.7 8852.27V5631.67L10460.2 4827.74V8048.34L9199.09 7482.49V325.432Z" fill="url(#paint66_linear_101_4)"/>
<path d="M12988.7 2093.09L13710.5 1770.22L14086.1 1926.76L13364.3 2249.64L12988.7 2093.09Z" fill="url(#paint67_linear_101_4)"/>
<path d="M13009.7 2093.09L13385.3 2249.64V9282.77L13009.7 9126.22V2093.09Z" fill="url(#paint68_linear_101_4)"/>
<path d="M13349.6 2199.08L14161.7 1841.96L14554 2005.03L13742 2362.15L13349.6 2199.08Z" fill="url(#paint69_linear_101_4)"/>
<path d="M13349.6 5113.11V2199.08L13742 2362.15V9517.59L13349.6 9356.15V6135.55V5113.11Z" fill="url(#paint70_linear_101_4)"/>
<path style="mix-blend-mode:color-dodge" d="M14554 2005.03L13784 2384.98L13742 9517.59L13714.7 2384.98L13349.6 2199.08L13742 2362.15L14554 2005.03Z" fill="url(#paint71_radial_101_4)"/>
<path style="mix-blend-mode:color-dodge" d="M9178.11 325.432L10439.2 860.295L11249.2 534.159L10470.7 909.216L10439.2 3805.31L10401.4 919L9178.11 325.432Z" fill="url(#paint72_radial_101_4)"/>
<path fill-rule="evenodd" clip-rule="evenodd" d="M8913.72 3647.13L9952.4 4113.51L10745.6 8813.13L9979.67 8470.69L9839.09 7544.46V7557.51L8970.38 7166.14L8831.89 7955.39L8120.55 7635.78L8913.72 3647.13ZM9748.86 6926.43L9408.93 4627.17L9394.24 4620.65L9060.6 6618.23L9748.86 6926.43Z" fill="url(#paint73_linear_101_4)"/>
<path d="M8479.37 3850.97L8913.72 3647.13L9952.39 4113.51L9515.94 4317.34L8479.37 3850.97Z" fill="url(#paint74_linear_101_4)"/>
<path d="M8831.88 7955.39L8395.43 8159.23L8536.02 7369.98L8970.37 7166.14L8831.88 7955.39Z" fill="url(#paint75_linear_101_4)"/>
<path d="M9515.94 4317.34L9952.39 4113.51L10745.6 8813.13L10309.1 9016.97L9515.94 4317.34Z" fill="url(#paint76_linear_101_4)"/>
<path d="M9748.86 6926.43L9314.5 7130.27L8626.25 6822.07L9060.6 6618.23L9748.86 6926.43Z" fill="url(#paint77_linear_101_4)"/>
<path fill-rule="evenodd" clip-rule="evenodd" d="M8479.37 3850.97L9515.94 4317.34L10309.1 9016.97L9543.22 8674.52L9404.73 7748.3V7761.34L8536.02 7369.98L8395.43 8159.23L7686.2 7839.61L8479.37 3850.97ZM9314.5 7130.27L8972.47 4831.01L8959.88 4824.48L8626.25 6822.07L9314.5 7130.27Z" fill="url(#paint78_linear_101_4)"/>
<path style="mix-blend-mode:color-dodge" d="M8479.37 3850.97L9499.16 4283.1L9952.39 4113.51L9547.42 4336.91L10309.1 9016.97L9492.86 4315.71L8479.37 3850.97Z" fill="url(#paint79_radial_101_4)"/>
<path style="mix-blend-mode:color-dodge" d="M8653.53 6804.13L9314.5 7130.27L8603.17 6831.85L8974.57 4831.01L8653.53 6804.13Z" fill="url(#paint80_radial_101_4)"/>
<path d="M8141.53 9145.79V8834.33L8907.42 8490.26V8801.72L8141.53 9145.79Z" fill="url(#paint81_linear_101_4)"/>
<path d="M3991.03 7283.55V6972.09L8141.53 8834.33V9145.79L3991.03 7283.55Z" fill="url(#paint82_linear_101_4)"/>
<path d="M4756.92 6941.11V6629.65L5558.49 6269.27V6580.73L4756.92 6941.11Z" fill="url(#paint83_linear_101_4)"/>
<g style="mix-blend-mode:color-dodge">
<path d="M5558.48 6285.57L4811.48 6621.49L4756.92 6597.03L5503.93 6261.11L5558.48 6285.57Z" fill="url(#paint84_radial_101_4)"/>
<path d="M8852.87 8482.1L8907.42 8506.56L8141.53 8850.64L3991.03 6988.4L3191.56 7347.15L2499.11 7037.32L2553.67 7012.86L3191.56 7298.23L3991.03 6939.48L8141.53 8801.72L8852.87 8482.1Z" fill="url(#paint85_radial_101_4)"/>
</g>
<g style="mix-blend-mode:color-dodge">
<path fill-rule="evenodd" clip-rule="evenodd" d="M12577.4 9191.45C12532.6 9211.02 12491.4 9222.43 12453.6 9225.69C12417.2 9228.95 12383.7 9223.52 12352.9 9209.38C12323.5 9196.34 12312.3 9181.12 12319.3 9163.73C12326.3 9147.42 12351.5 9128.94 12394.9 9108.28C12441 9088.71 12482.3 9077.3 12518.7 9074.04C12555 9070.78 12588.6 9076.21 12619.4 9090.35C12650.2 9103.39 12662 9118.61 12655 9136C12646.7 9153.4 12620.8 9171.88 12577.4 9191.45ZM12449.4 9134.37C12417.2 9148.51 12397.7 9159.92 12390.7 9168.62C12382.3 9177.31 12384.4 9184.38 12397 9189.82C12409.5 9195.25 12425.6 9196.34 12445.2 9193.08C12464.8 9189.82 12490.7 9181.12 12522.9 9166.99C12555 9151.77 12574.6 9139.81 12581.6 9131.11C12590 9122.42 12587.9 9115.35 12575.3 9109.91C12562.7 9104.48 12546.6 9103.39 12527 9106.65C12507.5 9109.91 12481.6 9119.15 12449.4 9134.37Z" fill="url(#paint86_radial_101_4)"/>
</g>
<defs>
<linearGradient id="paint0_linear_101_4" x1="528.78" y1="7656.98" x2="6592.96" y2="7656.98" gradientUnits="userSpaceOnUse">
<stop offset="0.1" stop-color="#12D4F4"/>
<stop offset="0.9999" stop-color="white"/>
<stop offset="1" stop-color="#7C1DC9"/>
</linearGradient>
<linearGradient id="paint1_linear_101_4" x1="16656.6" y1="6419.29" x2="17537.9" y2="6419.29" gradientUnits="userSpaceOnUse">
<stop offset="0.1" stop-color="#12D4F4"/>
<stop offset="1" stop-color="#7C1DC9"/>
</linearGradient>
<linearGradient id="paint2_linear_101_4" x1="7623.24" y1="6543.22" x2="8519.23" y2="6543.22" gradientUnits="userSpaceOnUse">
<stop offset="0.1" stop-color="#45108A"/>
<stop offset="1" stop-color="#7C1DC9"/>
</linearGradient>
<linearGradient id="paint3_linear_101_4" x1="14566.6" y1="7122.11" x2="15846.6" y2="7122.11" gradientUnits="userSpaceOnUse">
<stop offset="0.1" stop-color="#45108A"/>
<stop offset="1" stop-color="#7C1DC9"/>
</linearGradient>
<linearGradient id="paint4_linear_101_4" x1="6276.12" y1="7146.57" x2="7174.2" y2="7146.57" gradientUnits="userSpaceOnUse">
<stop offset="0.1" stop-color="#45108A"/>
<stop offset="1" stop-color="#7C1DC9"/>
</linearGradient>
<linearGradient id="paint5_linear_101_4" x1="12233.3" y1="9093.61" x2="13737.8" y2="9093.61" gradientUnits="userSpaceOnUse">
<stop offset="0.1" stop-color="#45108A"/>
<stop offset="1" stop-color="#7C1DC9"/>
</linearGradient>
<linearGradient id="paint6_linear_101_4" x1="9169.72" y1="7723.83" x2="11257.6" y2="7723.83" gradientUnits="userSpaceOnUse">
<stop offset="0.1" stop-color="#45108A"/>
<stop offset="1" stop-color="#7C1DC9"/>
</linearGradient>
<linearGradient id="paint7_linear_101_4" x1="7631.64" y1="8217.93" x2="8859.16" y2="8217.93" gradientUnits="userSpaceOnUse">
<stop offset="0.1" stop-color="#45108A"/>
<stop offset="1" stop-color="#7C1DC9"/>
</linearGradient>
<linearGradient id="paint8_linear_101_4" x1="14266.6" y1="7004.7" x2="20343.3" y2="7004.7" gradientUnits="userSpaceOnUse">
<stop offset="0.1" stop-color="#45108A"/>
<stop offset="1" stop-color="#7C1DC9"/>
</linearGradient>
<linearGradient id="paint9_linear_101_4" x1="2484.43" y1="6877.51" x2="8922.11" y2="6877.51" gradientUnits="userSpaceOnUse">
<stop offset="0.1" stop-color="#12D4F4"/>
<stop offset="1" stop-color="#7C1DC9"/>
</linearGradient>
<linearGradient id="paint10_linear_101_4" x1="16650.3" y1="6207.3" x2="17544.2" y2="6207.3" gradientUnits="userSpaceOnUse">
<stop offset="0.1" stop-color="#45108A"/>
<stop offset="1" stop-color="#7C1DC9"/>
</linearGradient>
<linearGradient id="paint11_linear_101_4" x1="7616.95" y1="6331.23" x2="8525.53" y2="6331.23" gradientUnits="userSpaceOnUse">
<stop offset="0.1" stop-color="#45108A"/>
<stop offset="1" stop-color="#7C1DC9"/>
</linearGradient>
<linearGradient id="paint12_linear_101_4" x1="14560.3" y1="6910.12" x2="15852.9" y2="6910.12" gradientUnits="userSpaceOnUse">
<stop offset="0.1" stop-color="#45108A"/>
<stop offset="1" stop-color="#7C1DC9"/>
</linearGradient>
<linearGradient id="paint13_linear_101_4" x1="6269.82" y1="6936.21" x2="7180.5" y2="6936.21" gradientUnits="userSpaceOnUse">
<stop offset="0.1" stop-color="#45108A"/>
<stop offset="1" stop-color="#7C1DC9"/>
</linearGradient>
<linearGradient id="paint14_linear_101_4" x1="12227" y1="8883.25" x2="13744.1" y2="8883.25" gradientUnits="userSpaceOnUse">
<stop offset="0.1" stop-color="#45108A"/>
<stop offset="1" stop-color="#7C1DC9"/>
</linearGradient>
<linearGradient id="paint15_linear_101_4" x1="9163.42" y1="7513.48" x2="11263.9" y2="7513.48" gradientUnits="userSpaceOnUse">
<stop offset="0.1" stop-color="#45108A"/>
<stop offset="1" stop-color="#7C1DC9"/>
</linearGradient>
<linearGradient id="paint16_linear_101_4" x1="13334.9" y1="9387.13" x2="14566.6" y2="9387.13" gradientUnits="userSpaceOnUse">
<stop offset="0.1" stop-color="#12D4F4"/>
<stop offset="1" stop-color="#7C1DC9"/>
</linearGradient>
<linearGradient id="paint17_linear_101_4" x1="7625.34" y1="8005.94" x2="8865.46" y2="8005.94" gradientUnits="userSpaceOnUse">
<stop offset="0.1" stop-color="#45108A"/>
<stop offset="1" stop-color="#7C1DC9"/>
</linearGradient>
<linearGradient id="paint18_linear_101_4" x1="14260.3" y1="6771.52" x2="20349.6" y2="6771.52" gradientUnits="userSpaceOnUse">
<stop offset="0.1" stop-color="#AFECF7"/>
<stop offset="1" stop-color="#AFECF7"/>
</linearGradient>
<linearGradient id="paint19_linear_101_4" x1="2478.13" y1="6644.32" x2="8928.41" y2="6644.32" gradientUnits="userSpaceOnUse">
<stop offset="0.1" stop-color="#13D5F5"/>
<stop offset="1" stop-color="#39DBF6"/>
</linearGradient>
<linearGradient id="paint20_linear_101_4" x1="16644" y1="5974.11" x2="17550.5" y2="5974.11" gradientUnits="userSpaceOnUse">
<stop offset="0.1" stop-color="#45108A"/>
<stop offset="1" stop-color="#7C1DC9"/>
</linearGradient>
<linearGradient id="paint21_linear_101_4" x1="7610.65" y1="6098.05" x2="8531.82" y2="6098.05" gradientUnits="userSpaceOnUse">
<stop offset="0.1" stop-color="#45108A"/>
<stop offset="1" stop-color="#7C1DC9"/>
</linearGradient>
<linearGradient id="paint22_linear_101_4" x1="14554" y1="6676.94" x2="15859.2" y2="6676.94" gradientUnits="userSpaceOnUse">
<stop offset="0.1" stop-color="#12D4F4"/>
<stop offset="1" stop-color="#7C1DC9"/>
</linearGradient>
<linearGradient id="paint23_linear_101_4" x1="6263.52" y1="6703.03" x2="7186.79" y2="6703.03" gradientUnits="userSpaceOnUse">
<stop offset="0.1" stop-color="#45108A"/>
<stop offset="1" stop-color="#7C1DC9"/>
</linearGradient>
<linearGradient id="paint24_linear_101_4" x1="12220.7" y1="8650.06" x2="13750.4" y2="8650.06" gradientUnits="userSpaceOnUse">
<stop offset="0.1" stop-color="#45108A"/>
<stop offset="1" stop-color="#7C1DC9"/>
</linearGradient>
<linearGradient id="paint25_linear_101_4" x1="9157.12" y1="7280.29" x2="11270.1" y2="7280.29" gradientUnits="userSpaceOnUse">
<stop offset="0.1" stop-color="#45108A"/>
<stop offset="1" stop-color="#7C1DC9"/>
</linearGradient>
<linearGradient id="paint26_linear_101_4" x1="13328.6" y1="9153.94" x2="14572.9" y2="9153.94" gradientUnits="userSpaceOnUse">
<stop offset="0.1" stop-color="#45108A"/>
<stop offset="1" stop-color="#7C1DC9"/>
</linearGradient>
<linearGradient id="paint27_linear_101_4" x1="9507.55" y1="8632.13" x2="10760.3" y2="8632.13" gradientUnits="userSpaceOnUse">
<stop offset="0.1" stop-color="#B0ECF7"/>
<stop offset="1" stop-color="#B0ECF7"/>
</linearGradient>
<linearGradient id="paint28_linear_101_4" x1="7619.05" y1="7772.75" x2="8871.75" y2="7772.75" gradientUnits="userSpaceOnUse">
<stop offset="0.1" stop-color="#45108A"/>
<stop offset="1" stop-color="#7C1DC9"/>
</linearGradient>
<linearGradient id="paint29_linear_101_4" x1="21212.1" y1="6259.48" x2="18737" y2="6858.95" gradientUnits="userSpaceOnUse">
<stop stop-color="#AFECF7"/>
<stop offset="1" stop-color="#B0ECF7"/>
</linearGradient>
<linearGradient id="paint30_linear_101_4" x1="21075.7" y1="5688.74" x2="18598.5" y2="6288.24" gradientUnits="userSpaceOnUse">
<stop stop-color="#D7D7D7"/>
<stop offset="0.0001" stop-color="#A2EAF6"/>
<stop offset="1" stop-color="#D7D7D7"/>
</linearGradient>
<linearGradient id="paint31_linear_101_4" x1="21230.9" y1="6337.76" x2="18755.4" y2="6934.7" gradientUnits="userSpaceOnUse">
<stop stop-color="#B2ECF6"/>
<stop offset="1" stop-color="#CEF0F6"/>
</linearGradient>
<linearGradient id="paint32_linear_101_4" x1="17699.4" y1="3864.01" x2="17724.8" y2="2917.77" gradientUnits="userSpaceOnUse">
<stop stop-color="#D7D7D7"/>
<stop offset="1" stop-color="#D7D7D7"/>
</linearGradient>
<linearGradient id="paint33_linear_101_4" x1="16532.8" y1="3303.06" x2="16688" y2="2448.97" gradientUnits="userSpaceOnUse">
<stop stop-color="#18BFE9"/>
<stop offset="1" stop-color="#D1D1D1"/>
</linearGradient>
<linearGradient id="paint34_linear_101_4" x1="13561.5" y1="3624.3" x2="20193.9" y2="1710.61" gradientUnits="userSpaceOnUse">
<stop stop-color="#ADEBF6"/>
<stop offset="1" stop-color="#B1ECF6"/>
</linearGradient>
<radialGradient id="paint35_radial_101_4" cx="0" cy="0" r="1" gradientUnits="userSpaceOnUse" gradientTransform="translate(18238.7 4648.37) scale(1407.98 1094.19)">
<stop stop-color="white"/>
<stop offset="1"/>
</radialGradient>
<radialGradient id="paint36_radial_101_4" cx="0" cy="0" r="1" gradientUnits="userSpaceOnUse" gradientTransform="translate(17395.2 3867.27) scale(1036.58 805.557)">
<stop stop-color="white"/>
<stop offset="1"/>
</radialGradient>
<linearGradient id="paint37_linear_101_4" x1="14019" y1="3307.95" x2="19481.8" y2="1202.19" gradientUnits="userSpaceOnUse">
<stop stop-color="#19BDE8"/>
<stop offset="1" stop-color="#2AF6FF"/>
</linearGradient>
<linearGradient id="paint38_linear_101_4" x1="16085.8" y1="5049.52" x2="15691.5" y2="7087.7" gradientUnits="userSpaceOnUse">
<stop stop-color="#C3EEF6"/>
<stop offset="1" stop-color="#2AF6FF"/>
</linearGradient>
<linearGradient id="paint39_linear_101_4" x1="15498.3" y1="3353.61" x2="15755.9" y2="4331.19" gradientUnits="userSpaceOnUse">
<stop stop-color="#A0E9F6"/>
<stop offset="1" stop-color="#2AF6FF"/>
</linearGradient>
<linearGradient id="paint40_linear_101_4" x1="13966.5" y1="2817.11" x2="15901.2" y2="2817.11" gradientUnits="userSpaceOnUse">
<stop stop-color="#DFF2F6"/>
<stop offset="1" stop-color="#2AF6FF"/>
</linearGradient>
<linearGradient id="paint41_linear_101_4" x1="16329.2" y1="4591.29" x2="16278.4" y2="5408.69" gradientUnits="userSpaceOnUse">
<stop stop-color="#7C1DC9"/>
<stop offset="1" stop-color="#2AF6FF"/>
</linearGradient>
<radialGradient id="paint42_radial_101_4" cx="0" cy="0" r="1" gradientUnits="userSpaceOnUse" gradientTransform="translate(15575.9 5832.24) scale(770.088 598.46)">
<stop stop-color="white"/>
<stop offset="1"/>
</radialGradient>
<radialGradient id="paint43_radial_101_4" cx="0" cy="0" r="1" gradientUnits="userSpaceOnUse" gradientTransform="translate(15569.6 4423.33) scale(782.677 608.245)">
<stop stop-color="white"/>
<stop offset="1"/>
</radialGradient>
<radialGradient id="paint44_radial_101_4" cx="0" cy="0" r="1" gradientUnits="userSpaceOnUse" gradientTransform="translate(14801.6 3674.85) scale(1298.87 1009.39)">
<stop stop-color="white"/>
<stop offset="1"/>
</radialGradient>
<linearGradient id="paint45_linear_101_4" x1="14449.1" y1="6070.32" x2="20496.5" y2="6070.32" gradientUnits="userSpaceOnUse">
<stop offset="0.1" stop-color="#13D5F5"/>
<stop offset="1" stop-color="#F5F5F5"/>
</linearGradient>
<linearGradient id="paint46_linear_101_4" x1="14333.7" y1="6795.98" x2="19453.6" y2="6795.98" gradientUnits="userSpaceOnUse">
<stop offset="0.1" stop-color="#59DFF6"/>
<stop offset="0.3" stop-color="#55DFF6"/>
<stop offset="0.7" stop-color="#D7D7D7"/>
</linearGradient>
<linearGradient id="paint47_linear_101_4" x1="19256.4" y1="8307.62" x2="17827.4" y2="8307.62" gradientUnits="userSpaceOnUse">
<stop offset="0.1" stop-color="#96E8F6"/>
<stop offset="0.3" stop-color="#69E2F6"/>
<stop offset="0.7" stop-color="#D7D7D7"/>
</linearGradient>
<radialGradient id="paint48_radial_101_4" cx="0" cy="0" r="1" gradientUnits="userSpaceOnUse" gradientTransform="translate(18402.4 6650.85) scale(1554.86 1208.34)">
<stop stop-color="white"/>
<stop offset="1"/>
</radialGradient>
<radialGradient id="paint49_radial_101_4" cx="0" cy="0" r="1" gradientUnits="userSpaceOnUse" gradientTransform="translate(16222.2 8622.34) scale(2322.86 1805.17)">
<stop stop-color="white"/>
<stop offset="1"/>
</radialGradient>
<linearGradient id="paint50_linear_101_4" x1="1886.4" y1="3640.61" x2="11430" y2="886.588" gradientUnits="userSpaceOnUse">
<stop stop-color="#CEF0F6"/>
<stop offset="1" stop-color="#1CC5EC"/>
</linearGradient>
<linearGradient id="paint51_linear_101_4" x1="7549.8" y1="2981.81" x2="7524.45" y2="1698.14" gradientUnits="userSpaceOnUse">
<stop stop-color="#2A7BC4"/>
<stop offset="1" stop-color="#F7F7F7"/>
</linearGradient>
<linearGradient id="paint52_linear_101_4" x1="6236.25" y1="3625.93" x2="5885.84" y2="1148.45" gradientUnits="userSpaceOnUse">
<stop stop-color="#EDEDED"/>
<stop offset="1" stop-color="#7C1DC9"/>
</linearGradient>
<linearGradient id="paint53_linear_101_4" x1="6691.58" y1="4969.61" x2="7855.43" y2="4634.48" gradientUnits="userSpaceOnUse">
<stop stop-color="#30E8FC"/>
<stop offset="1" stop-color="#2786CA"/>
</linearGradient>
<linearGradient id="paint54_linear_101_4" x1="4064.47" y1="3792.26" x2="7753.23" y2="2729.31" gradientUnits="userSpaceOnUse">
<stop stop-color="#E8E3EC"/>
<stop offset="1" stop-color="#E7E0EB"/>
</linearGradient>
<linearGradient id="paint55_linear_101_4" x1="9551.61" y1="7684.7" x2="7765.48" y2="7030.96" gradientUnits="userSpaceOnUse">
<stop stop-color="#D7D7D7"/>
<stop offset="1" stop-color="#18C1EA"/>
</linearGradient>
<radialGradient id="paint56_radial_101_4" cx="0" cy="0" r="1" gradientUnits="userSpaceOnUse" gradientTransform="translate(6689.49 4212.72) scale(1678.67 1304.55)">
<stop stop-color="white"/>
<stop offset="1"/>
</radialGradient>
<radialGradient id="paint57_radial_101_4" cx="0" cy="0" r="1" gradientUnits="userSpaceOnUse" gradientTransform="translate(7789.01 3210.11) scale(971.528 755.006)">
<stop stop-color="white"/>
<stop offset="1"/>
</radialGradient>
<linearGradient id="paint58_linear_101_4" x1="11647.8" y1="2432.27" x2="17510.9" y2="172.751" gradientUnits="userSpaceOnUse">
<stop stop-color="#12D4F4"/>
<stop offset="1" stop-color="#45108A"/>
</linearGradient>
<linearGradient id="paint59_linear_101_4" x1="11509.4" y1="2094.72" x2="17701.2" y2="-290.422" gradientUnits="userSpaceOnUse">
<stop stop-color="#F7F1FF"/>
<stop offset="1" stop-color="#45108A"/>
</linearGradient>
<linearGradient id="paint60_linear_101_4" x1="12331.9" y1="2453.47" x2="18525.9" y2="68.2581" gradientUnits="userSpaceOnUse">
<stop stop-color="#12D4F4"/>
<stop offset="1" stop-color="#45108A"/>
</linearGradient>
<linearGradient id="paint61_linear_101_4" x1="14344.2" y1="888.017" x2="13511.8" y2="2890.81" gradientUnits="userSpaceOnUse">
<stop offset="0.1" stop-color="#12D4F4"/>
<stop offset="1" stop-color="#7C1DC9"/>
</linearGradient>
<linearGradient id="paint62_linear_101_4" x1="11817.8" y1="-162.142" x2="10834.2" y2="2457.42" gradientUnits="userSpaceOnUse">
<stop offset="0.1" stop-color="#1BB6E4"/>
<stop offset="1" stop-color="#9DE2E5"/>
</linearGradient>
<linearGradient id="paint63_linear_101_4" x1="9998.56" y1="757.562" x2="13459" y2="-574.702" gradientUnits="userSpaceOnUse">
<stop stop-color="#12D4F4"/>
<stop offset="1" stop-color="#45108A"/>
</linearGradient>
<linearGradient id="paint64_linear_101_4" x1="9929.31" y1="4710.34" x2="13586.6" y2="3301.3" gradientUnits="userSpaceOnUse">
<stop stop-color="#12D4F4"/>
<stop offset="1" stop-color="#45108A"/>
</linearGradient>
<linearGradient id="paint65_linear_101_4" x1="13311.8" y1="3800.41" x2="12111.4" y2="5618.82" gradientUnits="userSpaceOnUse">
<stop offset="0.1" stop-color="#12D4F4"/>
<stop offset="1" stop-color="#7C1DC9"/>
</linearGradient>
<linearGradient id="paint66_linear_101_4" x1="1632.5" y1="1577.8" x2="17721.1" y2="-3063.79" gradientUnits="userSpaceOnUse">
<stop stop-color="#12D4F4"/>
<stop offset="1" stop-color="#45108A"/>
</linearGradient>
<linearGradient id="paint67_linear_101_4" x1="12988.7" y1="1704.99" x2="18331" y2="1704.99" gradientUnits="userSpaceOnUse">
<stop stop-color="#DDF2F6"/>
<stop offset="0.2" stop-color="#D4F1F6"/>
<stop offset="0.6" stop-color="#7C1DC9"/>
<stop offset="1" stop-color="#2AF6FF"/>
</linearGradient>
<linearGradient id="paint68_linear_101_4" x1="14312.7" y1="439.58" x2="13814.9" y2="9082.96" gradientUnits="userSpaceOnUse">
<stop stop-color="#B0ECF7"/>
<stop offset="0.2" stop-color="#3162B6"/>
<stop offset="0.6" stop-color="#D7D7D7"/>
<stop offset="1" stop-color="#2AF6FF"/>
</linearGradient>
<linearGradient id="paint69_linear_101_4" x1="14969.5" y1="1540.29" x2="14165.9" y2="3467.19" gradientUnits="userSpaceOnUse">
<stop offset="0.1" stop-color="#12D4F4"/>
<stop offset="1" stop-color="#7C1DC9"/>
</linearGradient>
<linearGradient id="paint70_linear_101_4" x1="8838.18" y1="2918.22" x2="16124.1" y2="818.503" gradientUnits="userSpaceOnUse">
<stop stop-color="#12D4F4"/>
<stop offset="1" stop-color="#45108A"/>
</linearGradient>
<radialGradient id="paint71_radial_101_4" cx="0" cy="0" r="1" gradientUnits="userSpaceOnUse" gradientTransform="translate(14004.3 3030.73) scale(3445.46 2677.58)">
<stop stop-color="white"/>
<stop offset="1"/>
</radialGradient>
<radialGradient id="paint72_radial_101_4" cx="0" cy="0" r="1" gradientUnits="userSpaceOnUse" gradientTransform="translate(10535.7 1403.31) scale(2446.66 1901.38)">
<stop stop-color="white"/>
<stop offset="1"/>
</radialGradient>
<linearGradient id="paint73_linear_101_4" x1="7786.92" y1="3841.18" x2="13114.7" y2="1789.07" gradientUnits="userSpaceOnUse">
<stop stop-color="#2FD9F6"/>
<stop offset="1" stop-color="#2AF6FF"/>
</linearGradient>
<linearGradient id="paint74_linear_101_4" x1="10330.1" y1="2812.22" x2="10124.9" y2="4320.43" gradientUnits="userSpaceOnUse">
<stop stop-color="#7C1DC9"/>
<stop offset="1" stop-color="#2AF6FF"/>
</linearGradient>
<linearGradient id="paint75_linear_101_4" x1="8378.64" y1="7236.26" x2="9977.62" y2="6621.31" gradientUnits="userSpaceOnUse">
<stop stop-color="#33DAF6"/>
<stop offset="1" stop-color="#2AF6FF"/>
</linearGradient>
<linearGradient id="paint76_linear_101_4" x1="9654.43" y1="4076" x2="13461" y2="3453.37" gradientUnits="userSpaceOnUse">
<stop stop-color="#15CAEF"/>
<stop offset="1" stop-color="#2AF6FF"/>
</linearGradient>
<linearGradient id="paint77_linear_101_4" x1="11429.6" y1="5801.26" x2="9733.68" y2="7830.36" gradientUnits="userSpaceOnUse">
<stop stop-color="#7C1DC9"/>
<stop offset="1" stop-color="#2AF6FF"/>
</linearGradient>
<linearGradient id="paint78_linear_101_4" x1="3623.82" y1="4630.43" x2="12229.9" y2="2148.58" gradientUnits="userSpaceOnUse">
<stop stop-color="#7C1DC9"/>
<stop offset="1" stop-color="#2AF6FF"/>
</linearGradient>
<radialGradient id="paint79_radial_101_4" cx="0" cy="0" r="1" gradientUnits="userSpaceOnUse" gradientTransform="translate(9834.89 5173.45) scale(2438.26 1894.85)">
<stop stop-color="white"/>
<stop offset="1"/>
</radialGradient>
<radialGradient id="paint80_radial_101_4" cx="0" cy="0" r="1" gradientUnits="userSpaceOnUse" gradientTransform="translate(8212.88 6288.84) scale(1884.3 1464.35)">
<stop stop-color="white"/>
<stop offset="1"/>
</radialGradient>
<linearGradient id="paint81_linear_101_4" x1="8523.43" y1="8511.45" x2="10226.3" y2="7857.94" gradientUnits="userSpaceOnUse">
<stop offset="0.1" stop-color="#45108B"/>
<stop offset="1" stop-color="#7C1DC9"/>
</linearGradient>
<linearGradient id="paint82_linear_101_4" x1="2.09778" y1="7599.9" x2="11198.2" y2="4371.88" gradientUnits="userSpaceOnUse">
<stop offset="0.1" stop-color="#2E6CBC"/>
<stop offset="1" stop-color="#D0F0F6"/>
</linearGradient>
<linearGradient id="paint83_linear_101_4" x1="5411.6" y1="6236.65" x2="7179.46" y2="5555.22" gradientUnits="userSpaceOnUse">
<stop offset="0.1" stop-color="#12D4F4"/>
<stop offset="1" stop-color="#7C1DC9"/>
</linearGradient>
<radialGradient id="paint84_radial_101_4" cx="0" cy="0" r="1" gradientUnits="userSpaceOnUse" gradientTransform="translate(5140.91 5641.45) scale(1330.34 1033.85)">
<stop stop-color="white"/>
<stop offset="1"/>
</radialGradient>
<radialGradient id="paint85_radial_101_4" cx="0" cy="0" r="1" gradientUnits="userSpaceOnUse" gradientTransform="translate(5703.27 7895.06) scale(2425.67 1885.07)">
<stop stop-color="white"/>
<stop offset="1"/>
</radialGradient>
<radialGradient id="paint86_radial_101_4" cx="0" cy="0" r="1" gradientUnits="userSpaceOnUse" gradientTransform="translate(7352.56 13263.3) scale(7900.23 6139.51)">
<stop stop-color="#9F19AB"/>
<stop offset="1" stop-color="#0F0210"/>
</radialGradient>
</defs>
</svg>
