<svg width="936" height="2409" viewBox="0 0 936 2409" fill="none" xmlns="http://www.w3.org/2000/svg">
<path fill-rule="evenodd" clip-rule="evenodd" d="M919.225 2216.01C918.693 2211.23 920.444 2204.85 922.701 2197.49C926.553 2184.44 931.365 2168.24 926.242 2149.21L925.918 2147.93L925.386 2146.7C915.892 2122.94 898.435 2112.26 881.535 2101.96L878.448 2100.04C870.498 2095.18 860.239 2091.45 848.358 2087.15C834.455 2082.13 817.828 2076.08 806.077 2068.1L802.303 1911.5C802.381 1906.59 802.381 1901.68 802.329 1896.9C802.251 1874.79 802.199 1853.9 810.967 1840L812.717 1837.28L813.625 1834.14C824.766 1795.42 793.483 1780.29 780.163 1773.85C776.259 1771.96 769.398 1768.63 767.673 1766.58C765.897 1760.94 767.271 1756.45 771.681 1745.72C776.272 1734.49 782.55 1719.11 778.996 1699.89C772.33 1661.82 725.47 1651.32 690.841 1646.71C670.504 1644.03 607.445 1633.64 582.595 1627.72C571.48 1612.26 573.27 1586.87 575.228 1562.18L576.019 1551.33C608.016 1425.11 607.173 1344.5 594.384 1240.58C589.339 1197.28 602.594 1142.03 611.388 1105.47C614.021 1094.39 616.381 1084.89 617.613 1077.66C623.411 1044.86 628.054 925.866 613.969 852.963L613.787 851.99L613.554 851.069C609.754 837.658 607.549 826.336 606.745 804.962L606.693 803.898C606.057 786.713 605.474 770.514 612.879 761.228C664.81 729.698 675.783 677.949 685.328 632.127C686.713 625.361 688.174 618.612 689.712 611.881L690.348 608.988L690.27 606.018C689.336 577.433 696.521 550.222 704.148 521.391C715.73 477.657 727.701 432.457 711.034 380.785L710.801 380.098L710.568 379.398C698.155 348.128 671.36 333.952 647.21 323.122C641.996 320.8 635.538 318.479 628.132 315.781C600.843 305.846 555.631 289.375 543.452 259.778C540.054 233.41 545.281 203.515 550.417 174.54C558.393 129.393 566.629 82.7143 544.191 43.0528C521.845 3.50798 456.386 -5.57085 409.306 10.784L407.425 11.4195L405.674 12.3793C342.473 47.5274 350.255 149.82 360.267 183.1C366.752 204.786 372.199 230.271 376.518 258.831C376.194 269.453 366.726 278.623 348.14 286.119L346.74 286.716L345.443 287.429C328.919 296.78 311.488 305.535 294.627 314.017C272.475 325.132 249.622 336.61 227.716 349.93L227.068 350.345L226.419 350.786C191.764 375.17 195.629 418.761 198.469 450.602C198.846 454.843 199.17 458.889 199.455 462.703L199.663 465.919L200.765 468.954C211.711 499.264 214.811 533.453 218.119 569.69C222.308 615.785 226.666 663.384 248.247 705.38L251.101 710.866L256.302 714.173C283.538 731.579 300.464 759.451 300.658 787.024C286.871 914.452 296.365 1039.09 328.063 1147.84C334.769 1191.33 329.529 1239.18 324.419 1285.47L321.682 1310.68L321.617 1311.41V1312.25C319.568 1372.71 332.888 1426.39 345.728 1478.35C349.865 1494.95 354.107 1512.14 357.647 1528.65C365.092 1567.53 363.276 1602.85 353.004 1625.4C332.732 1631.56 310.891 1635 287.818 1638.49C247.327 1644.59 205.421 1650.86 168.418 1673.9L165.721 1675.61L163.568 1678C145.397 1698.05 147.278 1722.35 148.86 1741.87C149.664 1752.33 150.455 1762.14 148.134 1769C148.134 1769 147.109 1772.03 147.07 1772.58L147.005 1773.91C145.164 1775.08 143.264 1776.17 141.312 1777.15C134.451 1780.88 125.955 1785.49 119.432 1794.2L118.835 1794.98L118.303 1795.83C98.2649 1827.86 118.342 1860.3 129.6 1875.54C135.748 1922 134.036 1999.79 133.387 2029.83C133.244 2036.1 133.167 2040.25 133.167 2042.71C133.167 2045.47 133.283 2048.22 133.387 2050.94C133.543 2054.99 133.789 2062.08 133.05 2065.48L126.98 2067.58C88.9268 2080.69 45.7893 2095.58 13.5983 2129.86L11.2119 2132.4L9.68146 2135.56C-1.34284 2158.24 0.745278 2188.42 14.1301 2211.45C13.4192 2212.93 12.6401 2214.37 11.7955 2215.77C8.55307 2221.45 4.11741 2229.21 2.96311 2239.16L3.19658 2237.6C0.53778 2251.95 -7.62018 2295.69 20.4594 2322.9L22.7809 2325.16L25.6213 2326.65C51.0031 2340.18 84.8283 2357.13 122.129 2367.77C333.368 2424.43 524.763 2411.19 667.936 2393.33C700.918 2389.26 868.41 2365.99 923.635 2312.18L927.15 2308.7L928.952 2304.1C938.537 2279.75 935.061 2249.35 919.225 2216.01Z" fill="#E0BD78"/>
<path fill-rule="evenodd" clip-rule="evenodd" d="M920.172 2214.29C919.614 2209.54 921.443 2203.15 923.622 2195.77C927.5 2182.74 932.312 2166.54 927.137 2147.46L926.838 2146.2L926.333 2144.98C916.839 2121.24 899.407 2110.55 882.482 2100.23L879.395 2098.33C871.47 2093.44 861.185 2089.73 849.253 2085.43C835.376 2080.41 818.748 2074.33 807.076 2066.37L803.25 1909.8C803.301 1904.86 803.301 1899.95 803.301 1895.17C803.249 1873.06 803.146 1852.18 811.939 1838.29L813.664 1835.53L814.546 1832.41C825.713 1793.69 794.43 1778.58 781.084 1772.13C777.232 1770.25 770.345 1766.92 768.594 1764.85C766.817 1759.2 768.244 1754.74 772.602 1744.01C777.232 1732.77 783.497 1717.4 779.917 1698.16C773.224 1660.06 726.443 1649.55 691.813 1645C671.451 1642.32 608.392 1631.93 583.516 1626.05C572.427 1610.54 574.242 1585.14 576.175 1560.41L576.966 1549.57C608.988 1423.39 608.119 1342.79 595.357 1238.85C590.286 1195.57 603.567 1140.31 612.335 1103.75C614.993 1092.68 617.328 1083.12 618.547 1075.95C624.345 1043.1 629.014 924.154 614.928 851.251L614.773 850.278L614.513 849.357C610.739 835.946 608.508 824.624 607.704 803.25L607.652 802.186C606.991 784.949 606.459 768.776 613.865 759.464C665.796 727.973 676.717 676.224 686.314 630.376C687.676 623.722 689.129 616.809 690.62 610.169L691.307 607.276L691.23 604.306C690.296 575.734 697.481 548.51 705.081 519.679C716.702 475.958 728.686 430.758 711.994 379.073L711.761 378.347L711.501 377.686C699.167 346.416 672.32 332.253 648.118 321.41C642.956 319.088 636.51 316.741 629.091 314.03C601.79 304.147 556.591 287.65 544.386 258.066C541.066 231.711 546.267 201.816 551.377 172.789C559.379 127.668 567.589 80.9894 545.164 41.3278C522.791 1.75707 457.359 -7.28285 410.266 9.07202L408.385 9.7205L406.634 10.6932C343.407 45.8024 351.188 148.121 361.188 181.44C367.699 203.061 373.159 228.598 377.465 257.145C377.128 267.767 367.647 276.937 349.074 284.446L347.7 284.991L346.403 285.743C329.853 295.094 312.422 303.862 295.561 312.331C273.448 323.407 250.53 334.924 228.663 348.244L227.989 348.646L227.366 349.061C192.698 373.496 196.602 417.062 199.377 448.903C199.766 453.183 200.142 457.19 200.389 460.965L200.622 464.22L201.699 467.216C212.619 497.526 215.771 531.741 219.091 567.965C223.281 614.034 227.599 661.685 249.22 703.629L252.048 709.115L257.248 712.461C284.472 729.88 301.436 757.752 301.631 785.338C287.844 912.766 297.312 1037.38 329.049 1146.11C335.728 1189.61 330.476 1237.45 325.379 1283.75L322.655 1308.98L322.577 1309.72L322.564 1310.56C320.541 1370.99 333.861 1424.68 346.727 1476.67C350.799 1493.25 355.079 1510.45 358.607 1526.94C366.078 1565.83 364.236 1601.11 353.99 1623.69C333.705 1629.86 311.877 1633.3 288.817 1636.76C248.26 1642.85 206.368 1649.15 169.378 1672.21L166.693 1673.91L164.54 1676.28C146.383 1696.31 148.289 1720.61 149.885 1740.17C150.689 1750.59 151.48 1760.46 149.158 1767.32C149.158 1767.32 148.134 1770.34 148.095 1770.88L148.017 1772.22C146.15 1773.37 144.237 1774.45 142.284 1775.45C135.475 1779.19 126.967 1783.8 120.417 1792.47L119.834 1793.27L119.315 1794.07C99.3026 1826.17 119.341 1858.56 130.625 1873.83C136.733 1920.28 135.06 1998.05 134.412 2028.1C134.282 2034.38 134.178 2038.49 134.178 2040.95C134.178 2043.73 134.282 2046.49 134.386 2049.2C134.541 2053.25 134.788 2060.37 134.087 2063.78L128.005 2065.87C89.9124 2078.98 46.788 2093.87 14.61 2128.14L12.2495 2130.65L10.7191 2133.8C-0.318212 2156.49 1.78291 2186.71 15.1936 2209.76C14.5452 2211.07 13.5595 2212.75 12.8202 2214.02C9.57775 2219.7 5.11616 2227.47 3.98779 2237.42L4.19529 2235.88C1.54946 2250.21 -6.59556 2293.97 21.4969 2321.18L23.7926 2323.38L26.6459 2324.91C52.0148 2338.45 85.8529 2355.41 123.154 2366.04C334.405 2422.65 525.774 2409.46 668.961 2391.6C701.969 2387.48 869.434 2364.24 924.634 2310.43L928.174 2306.95L929.977 2302.36C939.497 2278.03 935.995 2247.63 920.172 2214.29Z" fill="#E0BD78"/>
<path fill-rule="evenodd" clip-rule="evenodd" d="M688.817 1667.74C668.481 1665.06 590.986 1652.47 570.52 1646.38C545.06 1620.92 552.207 1579.13 554.256 1546.07C585.643 1423.19 585.293 1344.93 572.569 1241.58C565.449 1180.46 590.908 1100.89 595.98 1072C601.077 1043.18 606.187 926.916 592.439 855.609C587.835 839.293 585.656 826.232 584.787 804.184C583.931 782.109 582.738 758.361 598.548 742.045C651.996 712.033 656.25 657.716 668.312 605.098C665.757 528.213 715.172 463.546 690.205 386.155C681.541 364.262 663.409 353.393 638.78 342.369C614.137 331.319 539.808 313.849 522.026 263.954C511.339 192.153 557.291 109.393 525.217 52.6506C508.654 23.3778 454.454 18.0083 417.801 30.7446C367.388 58.7593 375.494 149.405 383.146 174.852C390.798 200.311 396.388 228.287 400.499 255.809C400.979 281.761 379.086 297.066 357.699 305.704C319.01 327.61 278.285 344.911 240.621 367.842C213.099 387.193 221.231 428.929 223.28 459.46C249.752 532.804 233.994 623.956 269.622 693.188C300.684 713.058 324.6 747.687 324.6 785.87C311.358 906.035 319.01 1031.3 351.603 1141.77C360.28 1196.79 351.085 1256.36 345.495 1311.35C342.927 1387.73 366.376 1453.4 381.161 1522.66C388.282 1559.84 390.292 1609.74 369.917 1642.8C309.335 1664.2 237.029 1657.05 181.544 1691.7C161.687 1713.58 180.013 1747.7 170.844 1774.71C170.351 1793.54 147.939 1794.02 138.757 1806.25C126.033 1826.64 140.3 1849.03 152.517 1864.82C161.168 1920.82 157.083 2026.58 157.083 2041.01C157.083 2055.4 160.676 2075.1 146.409 2083.79C105.645 2098.06 62.3906 2110.78 31.328 2143.9C22.6642 2161.69 26.2438 2186.64 37.4368 2202.45C43.0527 2217.21 28.3061 2226.89 26.7627 2240.12C22.6642 2261.98 21.1727 2289 37.4368 2304.77C66.9559 2320.56 97.0198 2334.81 129.094 2343.95C326.637 2396.91 510.509 2388.31 666.094 2368.93C753.874 2357.96 870.446 2331.32 908.642 2294.09C917.785 2270.66 908.642 2242.13 897.929 2220.78C892.858 2198.36 911.69 2177.98 905.075 2153.54C897.929 2135.72 883.973 2128.09 867.411 2117.9C850.849 2107.7 807.322 2099.55 784.404 2077.66L780.371 1910.17C780.825 1880.62 777.816 1849.55 792.575 1826.14C802.225 1792.51 758.932 1797.16 747.739 1774.72C736.546 1746.2 762.511 1729.9 757.414 1702.39C754.781 1687.54 738.232 1674.25 688.817 1667.74Z" fill="#101827"/>
<path fill-rule="evenodd" clip-rule="evenodd" d="M468.694 192.14C470.225 197.237 464.635 194.682 462.586 196.718L455.452 195.733C459.032 192.14 463.61 191.621 468.694 192.14ZM417.788 559.755C415.22 560.287 412.691 564.346 410.136 561.298C407.568 554.697 410.136 547.537 412.704 541.429C417.788 545.008 417.788 552.635 417.788 559.755Z" fill="#C4A76A"/>
<path fill-rule="evenodd" clip-rule="evenodd" d="M464.116 1753.76C427.438 1759.9 377.063 1758.89 338.374 1750.24C379.592 1749.72 422.872 1750.76 464.116 1753.76Z" fill="white"/>
<path fill-rule="evenodd" clip-rule="evenodd" d="M880.601 2165.71V2166.74H877.061L878.072 2164.21C879.084 2165.18 879.59 2165.71 880.601 2165.71Z" fill="#C9B04C"/>
<path fill-rule="evenodd" clip-rule="evenodd" d="M480.925 48.0332C488.551 75.0362 484.972 107.097 470.225 129.522C470.225 142.764 469.213 159.534 471.25 173.827C487.527 171.259 480.393 151.389 483.454 141.74C485.983 137.654 488.045 135.631 492.118 133.595C499.238 132.064 506.359 135.112 507.902 141.74C495.698 163.127 506.89 189.105 498.227 211.504C495.698 218.637 486.502 221.193 480.925 216.588C475.828 206.42 463.092 205.395 452.897 207.963C442.716 217.094 442.716 232.891 439.655 245.628C444.259 260.867 462.067 263.435 465.115 280.244C461.042 304.692 469.719 332.175 458.02 352.044C443.741 370.371 410.136 373.419 412.704 400.915C416.764 416.193 418.294 432.509 430.006 445.193C430.512 466.114 406.076 472.754 394.378 486.463C370.449 501.223 359.23 520.068 334.276 535.346C325.106 537.875 318.479 532.285 315.95 524.633C315.431 512.416 321.047 501.21 332.227 496.152C341.409 491.067 355.157 493.078 360.254 480.354C350.605 469.654 333.251 471.717 321.047 464.57C313.913 460.005 306.3 453.39 299.141 451.328C269.103 500.198 332.745 549.626 291.527 595.409C290.503 598.496 293.525 600.545 295.587 602.543C304.757 601.518 311.345 607.627 313.913 616.303C309.854 640.738 318.479 662.152 334.276 677.417C358.192 706.43 396.375 692.695 431.03 697.754C438.164 700.827 444.778 708.48 445.803 716.08C440.161 752.758 452.91 799.579 434.584 832.211C428.475 835.752 420.862 841.861 413.742 834.727C396.388 808.749 376.544 788.905 356.688 766.506C353.147 758.361 352.096 745.119 357.712 738.492C361.798 734.432 375.053 727.299 364.833 720.165C348.063 715.081 334.302 697.274 322.084 685.523C308.842 684.045 288.48 691.178 278.311 678.403C255.887 648.883 255.887 610.713 250.284 574.515C242.631 538.381 267.585 493.065 235.498 462.028C225.33 435.531 222.256 398.372 242.632 375.468C270.659 352.044 306.806 343.912 339.386 330.164C365.857 321.501 393.885 283.305 422.38 311.812C428.488 318.933 432.081 335.754 444.285 331.15C454.96 313.849 432.081 300.619 424.947 286.366C407.594 238.494 449.875 194.202 418.839 152.933C416.271 143.789 422.379 136.137 430.032 133.595C434.078 135.112 435.622 130.547 438.19 128.498C432.081 114.218 411.705 121.364 401.537 112.7C389.281 95.9046 393.379 72.974 403.042 56.1912C417.827 36.3215 442.249 39.9011 462.625 34.2852C474.272 29.227 476.334 42.949 480.925 48.0332Z" fill="#E0BD78"/>
<path fill-rule="evenodd" clip-rule="evenodd" d="M411.679 198.249C410.136 201.31 409.111 201.31 406.595 204.358C395.882 193.658 386.725 177.861 390.785 159.028C393.353 152.92 398.437 156.512 401.511 159.028C408.593 170.779 413.716 182.997 411.679 198.249ZM504.348 266.509C503.337 271.606 502.805 276.171 497.228 277.702C490.587 274.122 488.538 265.99 489.576 257.845C495.685 249.687 504.348 259.363 504.348 266.509ZM644.863 360.682C669.817 370.345 670.322 396.31 678.96 415.661C692.202 466.088 636.705 487.955 642.334 535.32C645.394 556.694 647.405 579.625 644.863 601.492C640.258 606.096 635.187 611.712 627.561 608.625C618.391 602.517 612.788 592.361 609.196 581.648C610.765 539.911 625.512 502.74 625.512 459.434L622.983 457.424C595.98 480.341 549.678 482.378 517.603 468.111C493.129 457.424 508.914 423.806 504.361 403.444C512.493 379.514 543.53 368.322 541.014 339.801C548.134 331.63 558.315 334.704 566.473 337.272C590.908 349.489 619.429 351.5 644.863 360.682ZM472.793 492.546C482.442 505.788 484.971 525.139 479.9 541.442C470.212 552.635 446.257 534.309 442.21 556.227C444.765 568.925 438.151 577.07 433.572 586.771C419.811 604.073 400.953 582.686 384.663 591.855C368.905 597.471 366.337 620.856 348.011 619.87C334.25 607.147 352.057 590.831 356.649 579.638C351.033 563.335 345.456 544.49 356.649 529.198C383.12 504.789 414.195 471.185 457.994 482.87L472.793 492.546ZM406.595 620.843C411.679 630.038 418.294 636.64 428.462 638.183C452.897 637.665 479.913 604.579 499.238 630.531C511.949 669.739 559.833 665.173 589.871 683.487C596.991 684.472 602.101 676.353 603.113 671.269C606.654 648.352 579.703 643.255 582.725 622.373C596.485 614.721 608.184 629.001 617.886 635.615C630.09 652.917 632.1 683.487 620.389 701.813C596.473 718.596 573.075 696.223 549.665 693.149L477.345 680.945C464.116 674.33 466.126 654.966 449.343 653.942C423.884 642.749 385.688 657.534 368.905 632.075C370.902 622.892 376.518 615.772 385.688 613.696C394.871 611.725 401.498 616.277 406.595 620.843ZM560.339 811.823C584.281 856.127 591.401 910.056 587.342 963.037C587.342 965.086 584.787 966.617 583.749 968.121C578.678 966.617 576.655 959.483 575.111 954.399C568.977 920.795 562.933 887.164 544.568 858.177C538.965 842.872 552.22 824.04 533.88 815.376C532.337 802.134 538.978 784.314 552.22 776.156C565.929 780.254 555.747 800.578 560.339 811.823ZM384.676 811.823C393.859 870.381 438.669 914.686 440.667 976.785C442.21 1039.92 439.642 1104.07 433.572 1166.22C430.498 1181.46 426.945 1202.37 409.098 1206.4L400.473 1195.21C381.628 1110.18 357.141 1027.19 355.144 935.048L354.12 934.024L351.551 937.564C343.406 1001.71 365.818 1057.25 364.794 1118.34C364.794 1121.86 360.734 1122.42 357.673 1121.86C325.093 1033.8 314.912 925.853 342.888 832.185C346.999 822.484 352.589 807.205 366.35 807.698C372.965 807.711 380.098 822.497 384.676 811.823ZM542.038 940.132C554.736 987.485 530.794 1028.72 525.191 1072.99C522.156 1076.57 518.576 1083.68 512.986 1082.71C509.445 1081.68 509.445 1080.67 506.877 1078.12V917.708C508.395 911.586 509.432 902.961 516.553 900.925C534.373 905.49 534.373 926.385 542.038 940.132ZM541.001 1215.08C573.075 1264.47 569.495 1331.68 568.964 1392.25C565.449 1398.35 567.498 1409.57 558.302 1411.61L552.194 1405.47C557.265 1352.57 548.121 1299.11 541.001 1247.66C525.191 1234.92 506.877 1218.1 509.432 1195.21C521.65 1183.51 533.867 1204.92 541.001 1215.08ZM388.256 1218.67C392.821 1253.27 380.604 1284.32 379.592 1318.95L375.027 1415.2C373.483 1416.73 371.94 1418.73 369.891 1417.71C358.698 1385.14 361.759 1346.96 357.673 1311.33C356.169 1276.72 362.757 1239.53 375.014 1207.43C383.133 1204.42 385.169 1214.04 388.256 1218.67ZM467.67 1319.98C468.176 1327.59 468.176 1335.24 462.586 1340.82C454.441 1338.82 453.429 1327.58 454.441 1318.94C451.393 1304.18 468.694 1310.8 467.67 1319.98ZM544.555 1614.27L562.92 1669.23C549.12 1683 543.517 1713.03 517.603 1701.33C502.299 1694.22 491.132 1673.34 477.345 1664.68C473.26 1661.67 474.79 1655.53 476.334 1652.47C479.369 1647.88 483.454 1646.89 488.538 1647.37C495.153 1651.95 500.237 1660.12 509.432 1658.57C518.576 1647.37 507.383 1635.66 510.418 1622.94C522.143 1604.61 488.525 1587.8 517.59 1577.64C535.917 1579.63 536.902 1601.55 544.555 1614.27ZM189.131 1823.58C189.65 1831.66 189.131 1840.35 181.518 1844.41C174.903 1844.41 167.251 1844.41 163.192 1839.33C157.602 1834.23 155.552 1826.08 157.044 1819.98C166.227 1812.86 180.493 1814.89 189.131 1823.58ZM764.535 1882.09C750.242 1942.7 761.448 2009.89 759.943 2071.54C761.967 2086.31 766.584 2107.64 753.835 2119.37C750.242 2121.92 746.208 2123.46 741.63 2122.94C733.978 2104.61 741.63 2079.66 730.385 2062.83C730.917 2033.85 750.774 2011.41 743.627 1980.88C740.618 1948.29 733.978 1914.15 740.113 1881.1C744.639 1871.44 766.584 1865.81 764.535 1882.09ZM220.725 1885.69C210.012 1927.4 215.602 1974.26 216.121 2017.54C225.823 2049.62 222.749 2090.85 218.17 2123.97C215.11 2128.03 208.482 2127 204.928 2125.5C182.037 2110.73 202.879 2082.72 196.29 2059.31L204.928 2010.4C189.65 1974.77 198.301 1936.59 197.795 1896.86C199.844 1887.68 207.496 1883.62 216.121 1882.06C219.182 1880.58 219.182 1884.67 220.725 1885.69ZM321.034 1909.1C323.07 1931.5 304.251 1946.26 307.791 1967.65C318.466 2021.66 318.466 2080.2 307.791 2133.65C302.189 2147.41 283.356 2141.29 272.164 2139.73C266.055 2139.23 259.427 2132.68 258.921 2126.49C255.329 2093.92 268.571 2067.96 271.139 2037.4C273.655 1994.13 270.62 1943.23 273.175 1901.45C286.897 1891.28 312.357 1893.81 321.034 1909.1Z" fill="#E0BD78"/>
<path fill-rule="evenodd" clip-rule="evenodd" d="M521.65 1905.55C537.408 1919.78 526.747 1946.78 526.215 1966.64C510.937 2025.7 540.482 2085.8 528.796 2145.85C526.215 2156.57 515.554 2157.59 505.334 2158.07C445.284 2160.11 386.713 2162.14 332.214 2147.4C323.057 2125.5 333.744 2100.02 332.214 2075.06C332.214 2034.35 308.284 1997.17 322.045 1956.46C330.709 1939.62 340.372 1922.33 346.48 1905.54L357.673 1901.44L521.65 1905.55ZM885.685 2142.3C892.832 2156.07 893.843 2174.88 884.194 2187.6C872.975 2200.33 856.179 2206.98 837.84 2202.4C830.72 2201.88 827.659 2194.23 825.609 2188.63C824.598 2173.34 847.515 2165.17 837.84 2149.94C829.708 2138.71 810.863 2139.21 809.825 2123.97C835.311 2108.19 868.384 2119.88 885.685 2142.3ZM126.513 2159.6C130.612 2166.74 124.996 2173.35 121.948 2178.94C117.37 2184.08 111.235 2184.54 106.138 2181.52C98.5374 2175.89 104.127 2166.72 106.138 2160.63C108.706 2152.48 122.454 2151.98 126.513 2159.6ZM559.314 2171.82C568.004 2175.4 578.133 2183.04 581.181 2192.73C590.377 2215.63 577.135 2235.97 565.449 2253.8C542.039 2265.5 512.48 2261.47 484.972 2261.93C437.139 2259.9 385.701 2267.54 341.915 2255.84C328.673 2248.69 333.744 2233.97 326.157 2224.26C313.381 2205.42 288.441 2193.73 296.599 2169.3C298.609 2162.66 305.275 2163.67 309.841 2162.14C392.303 2170.81 475.828 2170.34 559.314 2171.82ZM698.817 2182.51C702.41 2197.28 683.059 2198.81 675.432 2206.99C654.538 2219.2 642.827 2236.99 625.499 2252.3C620.376 2253.8 616.861 2250.74 614.306 2247.68C616.861 2217.16 646.86 2203.88 653.514 2175.41C668.299 2163.18 685.095 2176.41 698.817 2182.51ZM156.058 2248.7C163.672 2253.81 168.795 2263.5 164.696 2273.18C162.66 2281.31 152.997 2287.41 146.37 2291.52C112.765 2289.44 83.7389 2277.22 55.7242 2261.95C47.5662 2257.39 50.6271 2245.18 53.1562 2239.07C57.7734 2231.91 64.9198 2226.85 71.5214 2223.24C102.078 2226.31 128.562 2239.05 156.058 2248.7ZM892.832 2243.63C896.904 2254.85 896.904 2271.63 888.24 2279.29C870.887 2276.73 871.419 2256.86 861.263 2246.19C858.682 2237.5 864.35 2233.46 870.887 2230.39C882.145 2224.27 889.265 2235.46 892.832 2243.63ZM571.532 2281.82C575.604 2282.32 579.184 2285.86 581.181 2287.92C572.569 2303.19 570.52 2325.59 552.207 2333.23C454.934 2337.83 358.192 2336.81 267.041 2319.48C255.848 2309.31 272.669 2292.49 272.177 2278.22C274.174 2272.65 279.829 2275.69 283.37 2273.15C376.531 2286.89 472.261 2282.84 571.532 2281.82ZM712.098 2336.81C712.578 2351.05 698.83 2348.51 690.192 2353.6C684.083 2352.07 678.973 2350.56 677.962 2343.92C679.505 2333.75 691.723 2333.75 699.893 2331.7C704.952 2331.7 710.581 2331.7 712.098 2336.81ZM599.572 1665.7C594.942 1671.81 604.138 1676.39 608.184 1677.9C642.334 1686.09 679.492 1686.58 713.11 1696.23C714.147 1697.76 719.218 1700.82 715.665 1703.88C695.782 1713.53 680.504 1691.67 660.647 1702.34C632.101 1725.27 590.377 1714.56 555.748 1722.22C518.589 1727.8 464.622 1733.92 438.151 1712.03C431.523 1706.43 430.498 1695.22 434.571 1687.59C439.175 1675.38 470.225 1668.76 459.032 1652.46C453.442 1647.87 447.307 1647.36 440.68 1649.93L418.813 1670.77C422.354 1653.99 426.958 1632.1 443.248 1619.33C451.406 1619.33 463.61 1631.07 466.658 1615.81L462.599 1518.03C461.055 1515.99 458.02 1511.92 455.465 1515.48C444.272 1532.8 447.32 1556.22 443.248 1576.61C436.127 1574.56 437.645 1565.42 434.584 1559.28C438.682 1492.06 457.514 1427.93 446.827 1357.64C441.212 1321.99 441.212 1280.25 413.729 1256.32C402.536 1255.31 400.966 1268.54 396.907 1276.15C372.472 1357.12 390.279 1446.21 400.499 1527.71C403.016 1580.63 394.391 1629.03 366.363 1669.21C361.279 1679.94 368.931 1692.68 379.605 1693.69C394.391 1695.74 404.04 1707.45 412.704 1719.65C414.208 1724.78 416.245 1736.45 406.595 1735.44C355.157 1730.34 300.139 1727.32 252.826 1709.99V1707.45C271.152 1702.33 297.104 1713.53 309.841 1697.76C309.841 1693.18 305.275 1688.59 308.816 1684.01C319.49 1677.89 332.732 1677.39 342.901 1670.77C328.167 1664.16 309.322 1684.01 296.599 1668.2C260.426 1671.8 223.773 1673.34 195.279 1695.22C187.627 1700.34 194.254 1708.46 197.795 1712.03L207.496 1720.69C201.388 1723.75 190.156 1719.16 189.131 1729.33C188.638 1738.53 189.65 1747.18 192.698 1754.79C196.29 1748.67 203.891 1737.49 213.592 1745.1C229.869 1752.29 248.195 1754.27 263.487 1762.45C262.968 1774.13 243.617 1787.4 260.919 1797.55C305.729 1811.32 354.133 1815.92 401.498 1822.01C396.894 1825.06 387.231 1833.75 394.365 1840.35C403.495 1850.53 421.822 1841.84 431.017 1848.02C394.365 1857.65 354.625 1838.31 321.034 1855.12C316.429 1858.68 316.974 1865.3 318.466 1869.88C349.048 1880.1 385.701 1876.51 418.8 1881.11C454.428 1879.56 495.684 1885.71 527.746 1870.91C530.781 1867.35 534.36 1861.73 531.287 1856.64C527.746 1850.01 521.131 1851.54 516.54 1848.02C577.109 1840.35 638.235 1835.27 693.733 1814.89C694.744 1812.35 697.766 1809.31 694.745 1806.21C685.549 1797.11 668.779 1804.18 657.08 1800.12C669.791 1794.52 660.621 1766.49 681.502 1774.67C688.143 1763.98 697.287 1753.26 693.733 1740.52L685.069 1734.43C641.27 1740.52 602.088 1746.14 556.733 1748.67C612.231 1731.38 676.47 1729.69 688.791 1725.01C700.646 1720.52 743.381 1713.93 738.621 1691.24C735.249 1675.13 619.429 1654.51 599.572 1665.7Z" fill="#E0BD78"/>
<path fill-rule="evenodd" clip-rule="evenodd" d="M919.161 2212.95C918.603 2208.17 920.431 2201.79 922.584 2194.43C926.514 2181.4 931.326 2165.18 926.151 2146.13L925.827 2144.87L925.347 2143.64C915.827 2119.88 898.37 2109.2 881.496 2098.9L878.383 2096.98C870.485 2092.13 860.174 2088.4 848.268 2084.09C834.364 2079.09 817.763 2072.99 806.038 2065.06L802.212 1908.47C802.316 1903.54 802.316 1898.62 802.316 1893.85C802.212 1871.72 802.16 1850.84 810.954 1836.95L812.653 1834.18L813.535 1831.09C824.676 1792.36 793.419 1777.23 780.073 1770.81C776.221 1768.93 769.308 1765.57 767.557 1763.52C765.806 1757.89 767.259 1753.39 771.603 1742.69C776.208 1731.46 782.472 1716.06 778.918 1696.84C772.174 1658.74 725.418 1648.22 690.789 1643.65C670.426 1640.97 607.367 1630.63 582.517 1624.7C571.376 1609.22 573.218 1583.82 575.15 1559.06L575.916 1548.25C607.964 1422.06 607.121 1341.47 594.307 1237.53C589.261 1194.22 602.542 1138.97 611.31 1102.41C613.969 1091.33 616.278 1081.8 617.536 1074.63C623.307 1041.75 627.95 922.818 613.917 849.915L613.735 848.955L613.463 848.047C609.715 834.623 607.484 823.301 606.68 801.927L606.654 800.863C605.993 783.639 605.435 767.453 612.841 758.154C664.771 726.663 675.692 674.914 685.264 629.053C686.677 622.399 688.13 615.499 689.596 608.846L690.309 605.954L690.179 602.983C689.271 574.411 696.482 547.188 704.083 518.369C715.691 474.635 727.662 429.435 710.944 377.763L710.762 377.037L710.49 376.363C698.156 345.093 671.308 330.93 647.107 320.087C640.855 317.404 634.508 314.947 628.08 312.72C600.779 302.824 555.605 286.327 543.4 256.73C540.054 230.375 545.255 200.48 550.365 171.466C558.368 126.345 566.577 79.6664 544.179 39.9919C521.806 0.421134 456.36 -8.61879 409.254 7.73608L407.373 8.38457L405.636 9.33136C342.408 44.4405 350.19 146.759 360.189 180.065C366.7 201.699 372.161 227.223 376.467 255.783C376.129 266.405 366.648 275.575 348.076 283.071L346.714 283.616L345.417 284.368C328.867 293.719 311.436 302.487 294.575 310.969C272.462 322.045 249.544 333.563 227.677 346.869L227.016 347.285L226.38 347.7C191.712 372.135 195.616 415.7 198.405 447.554C198.794 451.821 199.157 455.828 199.403 459.616L199.611 462.858L200.713 465.867C211.621 496.164 214.772 530.379 218.08 566.603C222.282 612.672 226.601 660.31 248.209 702.267L251.036 707.753L256.237 711.099C283.46 728.518 300.425 756.39 300.632 783.977C286.833 911.404 296.3 1036.02 328.025 1144.76C334.717 1188.26 329.451 1236.1 324.367 1282.4L321.63 1307.63C321.63 1307.63 321.566 1308.47 321.566 1308.33L321.553 1309.17C319.529 1369.63 332.836 1423.35 345.702 1475.28C349.788 1491.89 354.068 1509.08 357.583 1525.6C365.053 1564.48 363.211 1599.75 352.965 1622.33C332.681 1628.49 310.852 1631.94 287.792 1635.4C247.249 1641.46 205.343 1647.79 168.354 1670.84L165.656 1672.56L163.503 1674.92C145.345 1694.95 147.252 1719.24 148.834 1738.82C149.651 1749.21 150.442 1759.08 148.108 1765.94C148.108 1765.94 147.083 1768.98 147.044 1769.51L146.967 1770.86C145.475 1771.84 143.011 1773.14 141.234 1774.09C134.425 1777.81 125.917 1782.41 119.367 1791.1L118.796 1791.91L118.264 1792.71C98.2521 1824.8 118.303 1857.22 129.574 1872.48C135.683 1918.91 134.01 1996.68 133.361 2026.74C133.232 2033.03 133.115 2037.14 133.115 2039.62C133.115 2042.38 133.232 2045.14 133.335 2047.85C133.504 2051.9 133.737 2059 133.037 2062.41L126.954 2064.49C88.8621 2077.63 45.7375 2092.51 13.5725 2126.78L11.1991 2129.28L9.65569 2132.43C-1.36862 2155.11 0.732494 2185.36 14.1432 2208.41C13.4947 2209.73 12.509 2211.38 11.7827 2212.67C8.54025 2218.34 4.07866 2226.11 2.95029 2236.07L3.15784 2234.5C0.499038 2248.83 -7.63301 2292.59 20.4595 2319.8L22.7292 2322.01L25.5955 2323.57C50.9514 2337.08 84.8025 2354.03 122.104 2364.69C333.355 2421.31 524.724 2408.09 667.884 2390.26C700.918 2386.13 868.358 2362.89 923.609 2309.08L927.124 2305.62L928.953 2301.01C938.459 2276.71 934.984 2246.29 919.161 2212.95Z" fill="#E0BD78"/>
<path fill-rule="evenodd" clip-rule="evenodd" d="M687.78 1666.39C667.495 1663.7 589.975 1651.1 569.508 1645.03C544.049 1619.57 551.195 1577.76 553.244 1544.72C584.631 1421.84 584.281 1343.58 571.558 1240.2C564.437 1179.09 589.871 1099.52 594.968 1070.66C600.065 1041.82 605.175 925.554 591.427 854.26C586.823 837.944 584.644 824.883 583.775 802.821C582.945 780.747 581.752 756.999 597.549 740.683C650.972 710.671 655.252 656.341 667.262 603.736C664.732 526.851 714.147 462.184 689.193 384.793C680.53 362.887 662.372 352.031 637.716 341.02C613.126 329.957 538.796 312.487 520.989 262.592C510.301 190.804 556.253 108.031 524.179 51.2884C507.617 22.0157 453.403 16.6592 416.751 29.3955C366.35 57.4102 374.469 148.043 382.121 173.503C389.773 198.949 395.363 226.938 399.449 254.46C399.942 280.412 378.049 295.717 356.662 304.354C317.973 326.26 277.248 343.562 239.584 366.493C212.062 385.844 220.207 427.567 222.23 458.111C248.714 531.455 232.956 622.607 268.584 691.839C299.647 711.709 323.563 746.325 323.563 784.521C310.321 904.686 317.973 1029.95 350.566 1140.41C359.23 1195.46 350.034 1255.01 344.457 1310C341.889 1386.37 365.338 1452.05 380.124 1521.31C387.257 1558.5 389.268 1608.4 368.892 1641.46C308.31 1662.86 236.017 1655.73 180.519 1690.36C160.65 1712.24 178.976 1746.36 169.806 1773.35C169.326 1792.21 146.915 1792.7 137.732 1804.92C125.022 1825.28 139.262 1847.68 151.48 1863.48C160.157 1919.48 156.058 2025.23 156.058 2039.68C156.058 2054.07 159.625 2073.75 145.371 2082.44C104.62 2096.71 61.3531 2109.42 30.3035 2142.55C21.6267 2160.34 25.2063 2185.31 36.4122 2201.13C42.0281 2215.85 27.2685 2225.55 25.7381 2238.78C21.6267 2260.65 20.1352 2287.66 36.4122 2303.45C65.9314 2319.19 95.9953 2333.45 128.07 2342.6C325.625 2395.56 509.484 2386.96 665.07 2367.6C752.849 2356.64 869.421 2330 907.617 2292.74C916.761 2269.33 907.617 2240.81 896.904 2219.43C891.807 2197.01 910.678 2176.66 904.05 2152.22C896.904 2134.39 882.923 2126.76 866.386 2116.59C849.85 2106.37 806.297 2098.2 783.406 2076.34L779.333 1908.82C779.813 1879.3 776.778 1848.2 791.538 1824.79C801.213 1791.16 757.946 1795.8 746.753 1773.36C735.534 1744.87 761.5 1728.56 756.377 1701.04C753.796 1686.19 737.22 1672.9 687.78 1666.39Z" fill="#101827"/>
<path fill-rule="evenodd" clip-rule="evenodd" d="M467.67 190.804C469.226 195.888 463.61 193.333 461.561 195.37L454.441 194.384C458.02 190.804 462.586 190.273 467.67 190.804ZM416.763 558.406C414.208 558.938 411.679 562.998 409.124 559.95C406.556 553.335 409.124 546.189 411.679 540.08C416.764 543.66 416.763 551.286 416.763 558.406Z" fill="#C4A76A"/>
<path fill-rule="evenodd" clip-rule="evenodd" d="M463.105 1752.42C426.426 1758.55 376.051 1757.53 337.35 1748.89C378.58 1748.37 421.848 1749.38 463.105 1752.42Z" fill="white"/>
<path fill-rule="evenodd" clip-rule="evenodd" d="M879.589 2164.37V2165.4H876.075L877.034 2162.87C878.072 2163.84 878.578 2164.37 879.589 2164.37Z" fill="#C9B04C"/>
<path fill-rule="evenodd" clip-rule="evenodd" d="M479.875 46.6845C487.527 73.6876 483.947 105.749 469.213 128.161C469.213 141.403 468.189 158.173 470.225 172.465C486.502 169.897 479.369 150.041 482.43 140.378C484.959 136.28 487.021 134.269 491.067 132.233C498.214 130.69 505.334 133.751 506.878 140.378C494.673 161.765 505.866 187.744 497.176 210.129C494.673 217.263 485.477 219.831 479.875 215.227C474.79 205.045 462.08 204.021 451.873 206.589C441.691 215.719 441.692 231.53 438.631 244.266C443.222 259.505 461.042 262.073 464.077 278.869C460.018 303.317 468.669 330.8 456.983 350.67C442.703 368.996 409.111 372.057 411.654 399.54C415.713 414.818 417.256 431.134 428.955 443.819C429.474 464.739 405.039 471.366 393.327 485.088C369.411 499.848 358.192 518.693 333.238 533.984C324.069 536.501 317.428 530.924 314.912 523.271C314.38 511.054 319.996 499.861 331.189 494.79C340.359 489.706 354.12 491.703 359.204 478.993C349.541 468.293 332.201 470.355 319.996 463.208C312.863 458.63 305.25 452.029 298.09 449.966C268.052 498.836 331.695 548.264 290.477 594.035C289.465 597.121 292.474 599.171 294.537 601.168C303.719 600.143 310.295 606.252 312.863 614.929C308.803 639.364 317.428 660.777 333.225 676.055C357.142 705.056 395.338 691.308 429.967 696.379C437.1 699.466 443.741 707.105 444.752 714.705C439.111 751.397 451.847 798.217 433.52 830.836C427.412 834.377 419.786 840.486 412.665 833.353C395.338 807.387 375.481 787.53 355.624 765.145C352.083 757 351.033 743.757 356.649 737.13C360.734 733.07 373.976 725.937 363.782 718.804C346.999 713.719 333.238 695.912 321.021 684.161C307.779 682.67 287.416 689.803 277.248 677.028C254.823 647.509 254.823 609.339 249.233 573.153C241.581 537.019 266.535 491.703 234.448 460.653C224.266 434.169 221.206 397.011 241.568 374.106C269.596 350.67 305.742 342.538 338.322 328.79C364.794 320.126 392.821 281.943 421.316 310.438C427.425 317.571 431.004 334.393 443.209 329.776C453.896 312.474 430.991 299.245 423.858 285.004C406.53 237.133 448.799 192.841 417.749 151.584C415.194 142.427 421.303 134.775 428.942 132.233C433.002 133.751 434.545 129.198 437.1 127.136C430.991 112.869 410.616 120.016 400.448 111.352C388.191 94.5559 392.29 71.6124 401.952 54.8295C416.725 34.9598 441.16 38.5525 461.522 32.9236C473.273 27.8654 475.322 41.6004 479.875 46.6845Z" fill="#E0BD78"/>
<path fill-rule="evenodd" clip-rule="evenodd" d="M410.655 196.9C409.124 199.961 408.1 199.961 405.571 203.009C394.857 192.309 385.714 176.512 389.773 157.692C392.328 151.584 397.413 155.163 400.486 157.692C407.581 169.417 412.691 181.648 410.655 196.9ZM503.337 265.16C502.325 270.244 501.793 274.809 496.216 276.353C489.576 272.76 487.526 264.641 488.564 256.483C494.673 248.338 503.337 258.001 503.337 265.16ZM643.877 359.346C668.805 369.009 669.337 394.961 677.949 414.312C691.191 464.752 635.693 486.619 641.296 533.984C644.357 555.345 646.419 578.289 643.877 600.156C639.273 604.76 634.202 610.376 626.523 607.289C617.38 601.181 611.803 591.025 608.21 580.312C609.754 538.575 624.5 501.404 624.5 458.098L621.971 456.075C594.968 478.992 548.692 481.029 516.592 466.762C492.118 456.075 507.902 422.457 503.35 402.095C511.456 378.178 542.518 366.973 540.002 338.452C547.123 330.281 557.304 333.368 565.462 335.923C589.871 348.14 618.391 350.151 643.877 359.346ZM471.781 491.197C481.431 504.439 483.96 523.777 478.915 540.08C469.213 551.273 445.245 532.947 441.198 554.866C443.766 567.563 437.139 575.708 432.561 585.409C418.8 602.711 399.942 581.324 383.652 590.493C367.88 596.109 365.325 619.494 346.999 618.521C333.238 605.811 351.046 589.482 355.637 578.289C350.021 561.986 344.444 543.141 355.637 527.849C382.121 503.44 413.184 469.823 456.983 481.534L471.781 491.197ZM405.571 619.494C410.655 628.689 417.269 635.291 427.451 636.834C451.886 636.342 478.915 603.23 498.227 629.195C510.937 668.403 558.821 663.837 588.859 682.164C596.006 683.136 601.064 675.03 602.101 669.946C605.616 647.016 578.665 641.931 581.739 621.037C595.474 613.385 607.198 627.665 616.874 634.279C629.078 651.581 631.089 682.164 619.403 700.49C595.461 717.273 572.038 694.9 548.679 691.826L476.334 679.609C463.104 673.007 465.115 653.63 448.319 652.606C422.872 641.413 384.689 656.198 367.893 630.739C369.904 621.569 375.507 614.436 384.689 612.373C393.859 610.363 400.486 614.928 405.571 619.494ZM559.34 810.474C583.23 854.778 590.403 908.707 586.343 961.675C586.343 963.724 583.762 965.268 582.75 966.772C577.653 965.268 575.604 958.134 574.087 953.05C567.952 919.446 561.908 885.815 543.517 856.815C537.94 841.51 551.195 822.691 532.882 814.014C531.338 800.772 537.953 782.952 551.195 774.807C564.943 778.905 554.71 799.242 559.34 810.474ZM383.665 810.474C392.847 869.032 437.658 913.337 439.668 975.436C441.118 1038.66 438.749 1101.92 432.574 1164.86C429.5 1180.1 425.933 1200.99 408.1 1205.07L399.462 1193.87C380.63 1108.86 356.156 1025.85 354.145 933.712L353.121 932.688L350.553 936.228C342.395 1000.38 364.807 1055.9 363.795 1116.98C363.795 1120.55 359.735 1121.06 356.662 1120.55C324.082 1032.46 313.913 924.517 341.876 830.849C345.987 821.148 351.577 805.869 365.325 806.375C371.953 806.362 379.073 821.148 383.665 810.474ZM541.001 938.784C553.737 986.136 529.782 1027.37 524.179 1071.68C521.144 1075.21 517.539 1082.35 511.975 1081.35C508.434 1080.32 508.434 1079.31 505.866 1076.76V916.359C507.383 910.25 508.421 901.612 515.541 899.576C533.349 904.141 533.349 925.023 541.001 938.784ZM539.989 1213.73C572.037 1263.12 568.458 1330.34 567.952 1390.9C564.437 1397.03 566.46 1408.24 557.291 1410.27L551.182 1404.16C556.253 1351.21 547.11 1297.75 539.989 1246.32C524.179 1233.59 505.866 1216.75 508.421 1193.86C520.638 1182.15 532.869 1203.55 539.989 1213.73ZM387.244 1217.32C391.823 1251.91 379.605 1282.98 378.58 1317.58L374.002 1413.83C372.472 1415.36 370.928 1417.39 368.879 1416.38C357.686 1383.79 360.76 1345.59 356.662 1309.97C355.157 1275.35 361.759 1238.15 373.989 1206.08C382.121 1203.04 384.17 1212.7 387.244 1217.32ZM466.645 1318.64C467.151 1326.24 467.151 1333.91 461.548 1339.5C453.403 1337.47 452.404 1326.24 453.403 1317.59C450.368 1302.84 467.67 1309.46 466.645 1318.64ZM543.517 1612.93L561.908 1667.89C548.108 1681.67 542.505 1711.69 516.592 1699.97C501.287 1692.88 490.12 1672 476.334 1663.33C472.248 1660.3 473.778 1654.2 475.322 1651.11C478.357 1646.54 482.442 1645.53 487.526 1646.04C494.141 1650.63 499.225 1658.76 508.421 1657.23C517.539 1646.04 506.346 1634.33 509.407 1621.6C521.131 1603.26 487.513 1586.44 516.579 1576.27C534.905 1578.3 535.891 1600.2 543.517 1612.93ZM188.119 1822.22C188.651 1830.34 188.119 1839 180.506 1843.07C173.892 1843.07 166.239 1843.07 162.18 1837.96C156.59 1832.89 154.528 1824.72 156.045 1818.64C165.228 1811.51 179.482 1813.54 188.119 1822.22ZM763.523 1880.75C749.256 1941.33 760.462 2008.54 758.932 2070.16C760.955 2084.93 765.546 2106.3 752.823 2117.99C749.256 2120.55 745.171 2122.08 740.618 2121.57C732.966 2103.27 740.618 2078.29 729.4 2061.47C729.88 2032.47 749.762 2010.05 742.629 1979.53C739.594 1946.92 732.979 1912.8 739.088 1879.75C743.653 1870.06 765.546 1864.45 763.523 1880.75ZM219.714 1884.33C209.001 1926.07 214.578 1972.91 215.11 2016.21C224.798 2048.26 221.711 2089.51 217.146 2122.62C214.098 2126.7 207.444 2125.63 203.904 2124.17C181.012 2109.37 201.867 2081.37 195.266 2057.97L203.904 2009.06C188.638 1973.43 197.276 1935.26 196.783 1895.54C198.819 1886.37 206.472 1882.29 215.11 1880.76C218.17 1879.23 218.17 1883.31 219.714 1884.33ZM320.022 1907.73C322.058 1930.13 303.239 1944.89 306.78 1966.31C317.454 2020.28 317.454 2078.86 306.78 2132.27C301.177 2146.04 282.345 2139.94 271.152 2138.38C265.043 2137.86 258.416 2131.3 257.91 2125.15C254.317 2092.56 267.559 2066.58 270.114 2036.04C272.643 1992.78 269.596 1941.88 272.164 1900.08C285.886 1889.93 311.345 1892.46 320.022 1907.73Z" fill="#E0BD78"/>
<path fill-rule="evenodd" clip-rule="evenodd" d="M520.639 1904.2C536.423 1918.43 525.71 1945.41 525.23 1965.29C509.925 2024.33 539.497 2084.44 527.785 2144.49C525.23 2155.22 514.543 2156.24 504.323 2156.7C444.26 2158.75 385.701 2160.81 331.215 2146.02C322.058 2124.16 332.733 2098.67 331.215 2073.7C331.215 2033 307.273 1995.81 321.034 1955.11C329.711 1938.27 339.36 1920.97 345.469 1904.19L356.662 1900.06L520.639 1904.2ZM884.674 2140.96C891.794 2154.71 892.858 2173.53 883.156 2186.28C871.963 2198.98 855.168 2205.62 836.828 2201.08C829.708 2200.55 826.647 2192.9 824.624 2187.31C823.612 2172 846.53 2163.84 836.828 2148.62C828.67 2137.38 809.877 2137.88 808.84 2122.64C834.299 2106.81 867.372 2118.53 884.674 2140.96ZM125.502 2158.24C129.6 2165.4 123.984 2172 120.923 2177.6C116.345 2182.73 110.21 2183.19 105.126 2180.17C97.5129 2174.54 103.116 2165.39 105.126 2159.26C107.681 2151.13 121.442 2150.64 125.502 2158.24ZM558.303 2170.46C566.966 2174.05 577.148 2181.69 580.17 2191.35C589.365 2214.3 576.136 2234.61 564.437 2252.44C541.001 2264.19 511.443 2260.1 483.96 2260.58C436.115 2258.55 384.689 2266.19 340.903 2254.48C327.661 2247.34 332.733 2232.6 325.132 2222.91C312.37 2204.07 287.429 2192.38 295.587 2167.93C297.585 2161.29 304.251 2162.31 308.829 2160.81C391.291 2169.43 474.79 2168.98 558.303 2170.46ZM697.806 2181.14C701.398 2195.93 682.021 2197.49 674.421 2205.63C653.527 2217.85 641.815 2235.63 624.487 2250.96C619.39 2252.45 615.85 2249.42 613.294 2246.36C615.85 2215.81 645.875 2202.54 652.476 2174.08C667.262 2161.83 684.084 2175.07 697.806 2181.14ZM155.047 2247.36C162.66 2252.45 167.783 2262.15 163.672 2271.82C161.635 2279.95 151.986 2286.06 145.345 2290.16C111.754 2288.09 82.7273 2275.88 54.7126 2260.6C46.5676 2256.02 49.6155 2243.8 52.1446 2237.72C56.7748 2230.56 63.8952 2225.5 70.5098 2221.9C101.067 2224.96 127.551 2237.72 155.047 2247.36ZM891.794 2242.27C895.919 2253.5 895.919 2270.27 887.255 2277.94C869.901 2275.38 870.407 2255.51 860.226 2244.81C857.697 2236.15 863.313 2232.09 869.901 2229.02C881.133 2222.92 888.279 2234.11 891.794 2242.27ZM570.546 2280.45C574.58 2280.96 578.172 2284.5 580.17 2286.59C571.558 2301.88 569.509 2324.25 551.195 2331.88C453.922 2336.5 357.181 2335.45 266.029 2318.12C254.836 2307.95 271.658 2291.14 271.165 2276.9C273.162 2271.28 278.817 2274.36 282.358 2271.8C375.52 2285.51 471.263 2281.48 570.546 2280.45ZM711.061 2335.45C711.592 2349.73 697.818 2347.14 689.194 2352.27C683.059 2350.74 677.949 2349.21 676.937 2342.55C678.455 2332.38 690.698 2332.38 698.843 2330.35C703.914 2330.34 709.556 2330.34 711.061 2335.45ZM598.561 1664.34C593.957 1670.47 603.126 1675.05 607.199 1676.56C641.296 1684.73 678.455 1685.25 712.098 1694.89C713.11 1696.44 718.207 1699.49 714.653 1702.52C694.797 1712.18 679.492 1690.32 659.661 1700.99C631.089 1723.93 589.365 1713.21 554.71 1720.86C517.552 1726.45 463.61 1732.59 437.139 1710.69C430.512 1705.09 429.5 1693.88 433.56 1686.26C438.151 1674.05 469.226 1667.42 458.033 1651.1C452.418 1646.53 446.309 1646.02 439.668 1648.59L417.788 1669.45C421.342 1652.63 425.933 1630.76 442.223 1618C450.368 1618 462.586 1629.75 465.634 1614.44L461.574 1516.68C460.044 1514.63 457.009 1510.58 454.454 1514.12C443.261 1531.48 446.322 1554.89 442.236 1575.25C435.103 1573.21 436.633 1564.06 433.573 1557.95C437.671 1490.72 456.503 1426.56 445.816 1356.31C440.2 1320.65 440.2 1278.9 412.704 1254.99C401.511 1253.97 399.955 1267.2 395.895 1274.8C371.46 1355.79 389.268 1444.88 399.475 1526.37C402.004 1579.3 393.366 1627.69 365.352 1667.88C360.267 1678.61 367.907 1691.32 378.594 1692.34C393.366 1694.38 403.029 1706.11 411.692 1718.32C413.21 1723.42 415.246 1735.11 405.584 1734.1C354.159 1728.98 299.141 1725.97 251.814 1708.64V1706.11C270.14 1700.98 296.093 1712.18 308.829 1696.44C308.829 1691.85 304.264 1687.26 307.805 1682.68C318.479 1676.54 331.708 1676.05 341.889 1669.44C327.156 1662.81 308.311 1682.68 295.587 1666.85C259.415 1670.45 222.762 1671.99 194.267 1693.87C186.615 1698.98 193.243 1707.11 196.796 1710.68L206.485 1719.34C200.376 1722.38 189.144 1717.79 188.12 1727.97C187.627 1737.16 188.651 1745.8 191.699 1753.43C195.279 1747.33 202.892 1736.14 212.581 1743.77C228.858 1750.91 247.184 1752.93 262.475 1761.08C261.957 1772.79 242.606 1786.03 259.907 1796.2C304.718 1809.96 353.121 1814.55 400.474 1820.64C395.869 1823.7 386.207 1832.39 393.34 1838.99C402.484 1849.16 420.81 1840.49 429.993 1846.65C393.34 1856.32 353.614 1836.95 320.022 1853.79C315.418 1857.33 315.963 1863.96 317.454 1868.53C348.037 1878.75 384.702 1875.16 417.788 1879.77C453.416 1878.22 494.673 1884.33 526.747 1869.56C529.782 1866 533.362 1860.36 530.288 1855.29C526.747 1848.65 520.133 1850.17 515.541 1846.65C576.136 1838.99 637.263 1833.93 692.734 1813.53C693.746 1810.97 696.781 1807.95 693.746 1804.87C684.576 1795.73 667.78 1802.83 656.082 1798.74C668.792 1793.17 659.648 1765.15 680.53 1773.3C687.144 1762.62 696.288 1751.91 692.734 1739.17L684.07 1733.07C640.272 1739.17 601.064 1744.79 555.735 1747.33C611.258 1730 675.472 1728.34 687.819 1723.66C699.647 1719.19 742.383 1712.56 737.623 1689.88C734.238 1673.79 618.392 1653.16 598.561 1664.34Z" fill="#E0BD78"/>
<mask id="mask0_2_203" style="mask-type:luminance" maskUnits="userSpaceOnUse" x="413" y="1939" width="85" height="124">
<path d="M413.421 1939.4H497.791V2062.4H413.421V1939.4Z" fill="white"/>
</mask>
<g mask="url(#mask0_2_203)">
<path d="M437.859 1966.03C438.239 1966.41 438.718 1966.61 439.192 1966.61H450.661C451.135 1966.61 451.614 1966.41 451.999 1966.03L455.15 1962.87C456.104 1963.35 457.156 1963.64 458.301 1963.64C462.031 1963.64 464.989 1960.67 464.989 1956.93C464.989 1953.2 462.031 1950.23 458.301 1950.23C454.578 1950.23 451.614 1953.2 451.614 1956.93C451.614 1958.08 451.9 1959.13 452.38 1960.09L449.895 1962.77H439.958L433.463 1956.26V1943.62H439.005C439.192 1943.62 439.385 1943.71 439.578 1943.62C456.583 1942.95 474.067 1950.71 482.572 1966.61H476.171C475.312 1963.83 472.828 1961.82 469.77 1961.82C466.041 1961.82 463.078 1964.79 463.078 1968.52C463.078 1971.59 465.088 1974.08 467.859 1974.94V1992.47H453.525C452.473 1992.47 451.614 1993.34 451.614 1994.39V2004.93H447.791V1993.43C447.791 1992.86 447.505 1992.38 447.124 1991.99L441.104 1986.82V1974.27H448.942L451.52 1976.86C451.041 1977.82 450.755 1978.87 450.755 1980.02C450.755 1983.75 453.718 1986.73 457.442 1986.73C461.171 1986.73 464.13 1983.75 464.13 1980.02C464.13 1976.28 461.171 1973.32 457.442 1973.32C456.296 1973.32 455.244 1973.6 454.291 1974.08L451.135 1970.92C450.661 1970.63 450.182 1970.44 449.703 1970.44H439.192C438.145 1970.44 437.286 1971.3 437.286 1972.36V1987.68C437.286 1988.26 437.572 1988.74 437.953 1989.12L443.973 1994.29V2004.93H436.328C435.848 2004.93 435.374 2005.12 434.989 2005.5L419.703 2020.83C419.322 2021.21 419.13 2021.69 419.13 2022.17V2037.78C416.359 2038.64 414.354 2041.13 414.354 2044.2C414.354 2047.94 417.317 2050.9 421.041 2050.9C424.77 2050.9 427.729 2047.94 427.729 2044.2C427.729 2041.13 425.723 2038.64 422.953 2037.78V2022.94L437.093 2008.76H471.676C472.442 2008.76 473.114 2008.37 473.4 2007.7L479.13 1996.21C479.229 1995.92 479.322 1995.63 479.322 1995.35V1988.64H487.729V1996.5L485.244 2001.96C485.057 2002.44 485.057 2002.91 485.15 2003.39L493.557 2025.9C493.557 2026 493.557 2026.1 493.557 2026.19C493.463 2026.29 493.463 2026.29 493.369 2026.29H485.15C484.578 2026.29 484.005 2026.58 483.619 2027.06C483.239 2027.53 483.145 2028.2 483.333 2028.78L485.63 2035.48L481.234 2037.02C480.661 2037.21 480.182 2037.69 479.989 2038.26C479.801 2038.84 479.895 2039.51 480.275 2039.99L483.145 2043.91L480.661 2045.83C480.182 2046.21 479.895 2046.79 479.895 2047.36V2052.25C479.895 2054.45 478.749 2056.56 476.838 2057.61C475.979 2058.19 474.926 2058.48 473.874 2058.48C465.947 2058.57 435.374 2048.51 435.374 2031.75V2027.73C435.374 2026.67 434.515 2025.81 433.463 2025.81C432.411 2025.81 431.551 2026.67 431.551 2027.73V2031.75C431.551 2052.15 465.848 2062.4 473.973 2062.4C475.692 2062.4 477.411 2061.93 478.843 2061.06C481.9 2059.24 483.718 2055.98 483.718 2052.34V2048.32L486.869 2045.83C487.635 2045.16 487.828 2044.01 487.255 2043.24L484.864 2039.89L488.687 2038.55C489.64 2038.16 490.213 2037.11 489.833 2036.15L487.828 2030.12H493.369C494.703 2030.12 495.947 2029.45 496.713 2028.39C497.473 2027.25 497.666 2025.81 497.187 2024.57L489.067 2002.82L491.359 1997.74C491.458 1997.45 491.551 1997.26 491.551 1996.98V1986.44C490.979 1971.97 485.057 1959.81 474.546 1951.19C464.989 1943.33 452.666 1939.4 439.578 1939.78C439.484 1939.78 439.291 1939.78 439.192 1939.78H431.551C430.499 1939.78 429.64 1940.65 429.64 1941.7V1957.03C429.64 1957.51 429.833 1957.99 430.213 1958.37L437.859 1966.03ZM458.301 1954.15C459.926 1954.15 461.171 1955.4 461.171 1957.03C461.171 1958.65 459.926 1959.9 458.301 1959.9C456.676 1959.9 455.437 1958.65 455.437 1957.03C455.437 1955.4 456.676 1954.15 458.301 1954.15ZM457.348 1977.14C458.973 1977.14 460.213 1978.39 460.213 1980.02C460.213 1981.65 458.973 1982.89 457.348 1982.89C455.723 1982.89 454.484 1981.65 454.484 1980.02C454.484 1978.39 455.723 1977.14 457.348 1977.14ZM423.906 2044.2C423.906 2045.83 422.666 2047.08 421.041 2047.08C419.416 2047.08 418.176 2045.83 418.176 2044.2C418.176 2042.57 419.416 2041.33 421.041 2041.33C422.666 2041.33 423.906 2042.57 423.906 2044.2ZM466.9 1968.52C466.9 1966.89 468.145 1965.65 469.77 1965.65C471.39 1965.65 472.635 1966.89 472.635 1968.52C472.635 1970.15 471.39 1971.4 469.77 1971.4C468.145 1971.4 466.9 1970.15 466.9 1968.52ZM487.635 1984.81H477.411C476.359 1984.81 475.499 1985.67 475.499 1986.73V1994.87L470.531 2004.93H455.437V1996.31H469.77C470.817 1996.31 471.676 1995.44 471.676 1994.39V1974.94C473.874 1974.27 475.499 1972.54 476.171 1970.44H484.385C486.104 1974.75 487.255 1979.54 487.635 1984.81Z" fill="#101827"/>
</g>
<mask id="mask1_2_203" style="mask-type:luminance" maskUnits="userSpaceOnUse" x="381" y="1939" width="40" height="99">
<path d="M381.421 1939.4H420.088V2037.58H381.421V1939.4Z" fill="white"/>
</mask>
<g mask="url(#mask1_2_203)">
<path d="M386.645 1952.91V1969.48C386.645 1970.06 386.932 1970.63 387.317 1971.01L397.828 1979.45C397.921 1979.54 398.015 1979.54 398.114 1979.63V2000.13C398.114 2000.61 398.301 2001 398.588 2001.38L403.843 2007.51V2023.41C401.072 2024.27 399.067 2026.77 399.067 2029.83C399.067 2033.57 402.031 2036.54 405.755 2036.54C409.484 2036.54 412.442 2033.57 412.442 2029.83C412.442 2026.77 410.437 2024.27 407.666 2023.41V2006.84C407.666 2006.36 407.473 2005.98 407.187 2005.6L401.932 1999.47V1957.41L411.489 1962.87V1966.8C408.718 1967.66 406.713 1970.15 406.713 1973.22C406.713 1976.95 409.671 1979.93 413.4 1979.93C417.124 1979.93 420.088 1976.95 420.088 1973.22C420.088 1970.15 418.078 1967.66 415.307 1966.8V1961.82C415.307 1961.15 414.926 1960.48 414.354 1960.19L400.979 1952.52C400.406 1952.14 399.64 1952.14 399.067 1952.52C398.494 1952.91 398.114 1953.48 398.114 1954.15V1974.75L390.468 1968.52V1952.91C393.239 1952.05 395.244 1949.56 395.244 1946.49C395.244 1942.75 392.286 1939.78 388.557 1939.78C384.833 1939.78 381.869 1942.75 381.869 1946.49C381.869 1949.56 383.874 1952.05 386.645 1952.91ZM408.619 2029.83C408.619 2031.46 407.38 2032.71 405.755 2032.71C404.13 2032.71 402.89 2031.46 402.89 2029.83C402.89 2028.2 404.13 2026.96 405.755 2026.96C407.38 2026.96 408.619 2028.2 408.619 2029.83ZM416.265 1973.32C416.265 1974.94 415.02 1976.19 413.4 1976.19C411.775 1976.19 410.531 1974.94 410.531 1973.32C410.531 1971.69 411.775 1970.44 413.4 1970.44C415.02 1970.44 416.265 1971.69 416.265 1973.32ZM388.557 1943.62C390.182 1943.62 391.421 1944.86 391.421 1946.49C391.421 1948.12 390.182 1949.36 388.557 1949.36C386.932 1949.36 385.692 1948.12 385.692 1946.49C385.692 1944.86 386.932 1943.62 388.557 1943.62Z" fill="#101827"/>
</g>
<path d="M429.64 1970.25V1998.32L415.307 2012.69V1998.89C418.077 1998.03 420.088 1995.54 420.088 1992.47C420.088 1988.74 417.124 1985.77 413.4 1985.77C409.671 1985.77 406.713 1988.74 406.713 1992.47C406.713 1995.54 408.718 1998.03 411.489 1998.89V2017.38C411.489 2018.14 411.963 2018.82 412.635 2019.1C412.921 2019.29 413.114 2019.29 413.4 2019.29C413.874 2019.29 414.354 2019.1 414.734 2018.72L432.89 2000.52C433.27 2000.13 433.463 1999.65 433.463 1999.18V1969.48C433.463 1969 433.27 1968.52 432.89 1968.14L425.817 1961.05V1946.49C425.817 1945.44 424.958 1944.58 423.906 1944.58C422.859 1944.58 421.999 1945.44 421.999 1946.49V1961.82C421.999 1962.29 422.187 1962.77 422.572 1963.16L429.64 1970.25ZM413.4 1995.35C411.775 1995.35 410.531 1994.1 410.531 1992.47C410.531 1990.84 411.775 1989.6 413.4 1989.6C415.02 1989.6 416.265 1990.84 416.265 1992.47C416.265 1994.1 415.02 1995.35 413.4 1995.35Z" fill="#101827"/>
<mask id="mask2_2_203" style="mask-type:luminance" maskUnits="userSpaceOnUse" x="380" y="1982" width="15" height="43">
<path d="M380.791 1982.91H394.755V2024.24H380.791V1982.91Z" fill="white"/>
</mask>
<g mask="url(#mask2_2_203)">
<path d="M380.916 2016.42C380.916 2020.15 383.874 2023.13 387.604 2023.13C391.327 2023.13 394.291 2020.15 394.291 2016.42C394.291 2013.36 392.286 2010.86 389.515 2010V1996.98C392.286 1996.11 394.291 1993.62 394.291 1990.56C394.291 1986.82 391.327 1983.85 387.604 1983.85C383.874 1983.85 380.916 1986.82 380.916 1990.56C380.916 1993.62 382.921 1996.11 385.692 1996.98V2010C382.921 2010.86 380.916 2013.36 380.916 2016.42ZM384.734 1990.56C384.734 1988.93 385.979 1987.68 387.604 1987.68C389.229 1987.68 390.468 1988.93 390.468 1990.56C390.468 1992.19 389.229 1993.43 387.604 1993.43C385.979 1993.43 384.734 1992.19 384.734 1990.56ZM387.604 2013.55C389.229 2013.55 390.468 2014.8 390.468 2016.42C390.468 2018.05 389.229 2019.3 387.604 2019.3C385.979 2019.3 384.734 2018.05 384.734 2016.42C384.734 2014.8 385.979 2013.55 387.604 2013.55Z" fill="#101827"/>
</g>
<path d="M356.177 2080.29V2084.07H365.849V2109.12H369.781V2084.07H379.453V2080.29H356.177Z" fill="#101827"/>
<path d="M382.444 2080.29V2109.12H386.376V2096.74H401.793V2109.12H405.72V2080.29H401.793V2092.67H386.376V2080.29H382.444Z" fill="#101827"/>
<path d="M411.007 2080.29V2109.12H414.939V2080.29H411.007Z" fill="#101827"/>
<path d="M420.195 2080.29V2109.12H424.127V2086.7L439.544 2109.12H443.471V2080.29H439.544V2102.71L424.127 2080.29H420.195Z" fill="#101827"/>
<path d="M448.758 2080.29V2109.12H452.69V2096.6L463.211 2096.52L469.956 2109.12H474.258L466.695 2094.71L474.258 2080.29H469.956L463.247 2092.82H452.69V2080.29H448.758Z" fill="#101827"/>
<path d="M496.589 2080.29L485.73 2109.12H489.845L492.772 2101.49H506.485L509.412 2109.12H513.527L502.668 2080.29H496.589ZM494.22 2097.71L499.631 2083.63L505.037 2097.71H494.22Z" fill="#101827"/>
<path d="M516.554 2080.29V2109.12H520.486V2080.29H516.554Z" fill="#101827"/>
</svg>
