 <svg class="w-auto h-[80px] fill-current" viewBox="0 0 1869 1947" fill="none"
                xmlns="http://www.w3.org/2000/svg">
                <g clip-path="url(#clip0_206_106)">
                  <path
                    d="M191.884 0.50396C196.664 2.62999 232.909 18.0437 239.017 20.4355C243.53 22.1628 253.488 23.3587 278.182 25.0861C296.503 26.282 314.693 27.6108 318.676 27.8765L325.977 28.5409L319.339 24.9533C301.017 14.9875 277.916 5.55327 269.552 4.49026C249.372 1.83273 188.035 -1.22344 191.884 0.50396Z"
                    fill="#8F8F8F" />
                  <path
                    d="M91.6474 1.43396C88.3283 1.69971 71.4672 3.02848 54.2076 4.49013C36.9482 5.95177 21.6803 7.14766 20.3526 7.28054C19.0249 7.28054 28.1857 10.7353 40.5329 15.1202C53.0128 19.3723 66.4221 24.1559 70.405 25.7504L77.707 28.6737L106.915 26.5477C122.98 25.3518 145.019 24.023 155.773 23.4915C166.527 23.0929 174.891 22.1627 174.36 21.6312C173.165 20.4353 162.676 16.1833 139.044 7.01478C122.714 0.769576 121.387 0.503822 109.837 0.769576C103.065 0.902452 94.9666 1.1682 91.6474 1.43396Z"
                    fill="#8F8F8F" />
                  <path
                    d="M299.425 19.1343C305.665 21.9248 316.419 27.2399 323.322 30.9604C333.944 36.807 338.59 38.4015 354.92 41.8563C365.542 44.1152 381.207 47.7029 389.97 49.9618C398.732 52.0878 406.035 53.6823 406.3 53.4165C406.566 53.1509 396.741 47.8357 384.527 41.5906C369.392 33.7508 358.77 29.233 351.07 27.2399C340.715 24.5823 290.396 13.9521 288.803 13.9521C288.272 13.9521 293.184 16.3439 299.425 19.1343Z"
                    fill="#8F8F8F" />
                  <path
                    d="M156.703 44.3529C138.78 45.6816 122.715 46.8775 120.857 46.8775C118.467 47.0103 121.918 49.4021 132.806 55.1159C141.17 59.5008 155.243 67.4734 164.005 72.6556L179.937 81.957L201.843 80.3624C213.925 79.4323 234.636 78.3693 248.046 77.9707C261.322 77.572 272.209 76.7748 272.209 76.3761C272.209 75.9775 270.616 74.6488 268.491 73.4529C266.5 72.257 253.888 64.5501 240.478 56.4446L216.049 41.6953L202.64 41.8282C195.205 41.9611 174.627 43.157 156.703 44.3529Z"
                    fill="#8F8F8F" />
                  <path
                    d="M280.174 42.0943C280.174 42.4929 285.086 45.5491 291.06 49.0039C297.035 52.4587 309.515 60.2984 318.676 66.2779L335.271 77.3067L357.177 78.9012C369.259 79.6985 386.917 81.16 396.344 82.2231C405.903 83.1532 413.869 83.8176 414.001 83.5518C414.267 83.2861 402.981 75.4464 389.041 66.145C359.7 46.745 364.48 48.2067 321.729 45.1505C305.797 43.9546 289.999 42.7587 286.547 42.3601C282.962 41.9614 280.174 41.8286 280.174 42.0943Z"
                    fill="#8F8F8F" />
                  <path
                    d="M419.577 58.04C419.975 58.4386 431.261 66.4112 444.803 75.7127L469.364 92.588L483.968 95.6442C492.067 97.3716 506.937 100.826 517.159 103.351C527.382 105.876 535.879 107.736 536.145 107.47C536.543 107.071 504.945 84.7482 493.261 77.1743C487.951 73.7195 464.186 67.0757 437.368 61.6277C430.066 60.1661 423.029 58.5716 421.568 58.1729C420.109 57.6414 419.179 57.6414 419.577 58.04Z"
                    fill="#8F8F8F" />
                  <path
                    d="M541.721 91.3918C541.721 91.6576 546.368 94.9795 552.076 98.9658C557.653 102.819 567.742 109.994 574.248 114.778C583.409 121.554 589.516 124.743 600.138 128.597C615.007 134.045 633.461 141.087 641.693 144.542C644.348 145.738 646.605 146.403 646.605 146.137C646.605 145.34 608.502 118.365 602.792 115.044C595.623 110.925 541.721 90.0631 541.721 91.3918Z"
                    fill="#8F8F8F" />
                  <path
                    d="M287.477 103.749C273.537 104.413 222.421 108.399 222.023 108.798C221.758 109.064 227.733 113.581 235.3 118.897C242.868 124.212 256.941 134.576 266.632 141.752C283.228 153.977 284.689 154.774 289.203 154.109C296.638 152.913 327.571 150.788 350.54 149.857C361.825 149.326 371.251 148.927 371.384 148.794C371.782 148.528 360.896 140.157 334.077 119.827L311.507 102.818L303.541 103.084C299.028 103.217 291.858 103.483 287.477 103.749Z"
                    fill="#8F8F8F" />
                  <path
                    d="M375.766 105.876C376.827 106.939 386.785 114.645 397.672 123.149C408.691 131.654 420.64 140.955 424.224 143.745L430.863 148.928L466.444 151.187C485.96 152.383 502.954 153.711 504.282 154.11C506.273 154.774 506.273 154.641 504.548 153.046C500.432 149.459 454.628 113.051 452.105 111.324C449.715 109.729 392.892 104.148 379.217 104.148C374.703 104.148 374.173 104.414 375.766 105.876Z"
                    fill="#8F8F8F" />
                  <path
                    d="M504.548 119.162C504.946 119.428 514.239 126.87 525.127 135.64C536.145 144.409 547.962 154.109 551.679 157.032C555.264 160.089 559.512 162.613 560.973 162.613C564.292 162.613 597.483 169.523 611.423 173.111C617.265 174.572 622.177 175.635 622.311 175.369C622.575 175.104 611.423 165.802 597.483 154.774C579.958 140.556 570.532 133.912 566.416 132.716C553.67 128.863 503.087 117.701 504.548 119.162Z"
                    fill="#8F8F8F" />
                  <path
                    d="M621.38 149.724C621.38 150.123 628.682 156.235 637.71 163.41C646.605 170.453 657.226 179.223 661.209 182.544C667.184 187.594 671.433 189.72 684.443 194.238C693.205 197.161 706.349 201.679 713.519 204.336C720.821 206.994 726.796 208.987 727.061 208.721C727.194 208.589 716.971 200.084 704.093 189.986C679 170.187 677.672 169.523 643.95 157.298C634.125 153.71 624.965 150.521 623.77 149.99C622.442 149.458 621.38 149.325 621.38 149.724Z"
                    fill="#8F8F8F" />
                  <path
                    d="M476.135 187.196C480.382 190.784 493.924 202.61 506.272 213.373L528.71 233.038L544.774 233.171C553.669 233.171 563.361 233.437 566.282 233.703C569.202 233.968 578.098 234.5 586.064 235.032L600.535 235.961L575.443 213.772C540.127 182.545 544.376 185.203 527.515 183.741C519.681 183.077 503.085 182.014 490.872 181.483L468.434 180.552L476.135 187.196Z"
                    fill="#8F8F8F" />
                  <path
                    d="M373.11 182.81C364.746 183.342 350.407 184.671 341.379 185.601L324.916 187.195L338.59 198.357C346.158 204.602 360.895 216.96 371.383 225.995L390.369 242.339L406.699 240.479C415.594 239.416 431.526 237.821 442.147 237.024C452.769 236.227 463.921 235.297 466.974 234.898L472.418 234.234L466.974 229.184C463.921 226.394 450.113 214.435 436.439 202.742L411.478 181.216L399.928 181.348C393.555 181.482 381.474 182.146 373.11 182.81Z"
                    fill="#8F8F8F" />
                  <path
                    d="M725.601 191.581C726.398 192.246 737.152 200.483 749.499 210.05C771.539 226.926 772.734 227.59 799.021 239.284C813.758 245.927 825.839 251.109 825.839 250.977C825.839 250.711 816.148 243.403 804.331 234.633C789.594 223.87 777.38 216.03 766.095 210.449C745.384 200.085 723.876 189.986 725.601 191.581Z"
                    fill="#8F8F8F" />
                  <path
                    d="M594.163 192.91C594.959 193.574 607.572 204.603 622.309 217.492L649.127 240.878L662.802 243.004C670.369 244.067 684.31 246.459 693.736 248.186C703.295 249.914 711.129 251.243 711.394 250.977C711.925 250.578 660.678 206.995 657.624 205.4C656.031 204.47 642.887 201.414 628.416 198.624C593.498 191.714 592.702 191.581 594.163 192.91Z"
                    fill="#8F8F8F" />
                  <path
                    d="M703.96 217.624C724.406 235.961 757.996 262.537 761.845 263.6C804.331 275.692 813.093 278.084 813.359 277.818C813.491 277.685 801.941 268.25 787.735 256.956C764.235 238.088 761.049 236.095 751.091 232.64C736.09 227.59 703.296 217.226 703.96 217.624Z"
                    fill="#8F8F8F" />
                  <path
                    d="M809.774 256.691C812.296 258.684 824.112 267.719 835.928 276.888C855.976 292.302 858.631 293.896 871.244 298.281C878.811 301.072 890.893 305.324 898.062 307.981C905.365 310.639 911.073 312.632 910.675 312.233C910.409 311.967 899.124 303.73 885.582 294.029C860.224 275.826 860.888 276.224 819.598 258.95C806.72 253.635 805.657 253.369 809.774 256.691Z"
                    fill="#8F8F8F" />
                  <path
                    d="M569.602 269.447C569.602 269.712 583.144 282.336 599.74 297.616L630.01 325.388L663.865 324.989C682.451 324.723 697.853 324.325 698.118 324.06C698.649 323.527 639.834 271.042 637.578 269.978C635.32 269.049 569.602 268.516 569.602 269.447Z"
                    fill="#8F8F8F" />
                  <path
                    d="M487.288 273.034C474.543 274.364 445.334 277.818 437.9 279.014L433.12 279.678L463.655 307.849C480.517 323.395 495.652 337.081 497.378 338.41C500.432 340.801 501.095 340.801 518.754 338.144C528.843 336.55 545.97 334.158 556.856 332.696C567.744 331.234 576.771 329.906 577.037 329.64C577.303 329.507 563.363 316.22 545.97 300.407L514.505 271.573L506.539 271.706C502.158 271.838 493.528 272.37 487.288 273.034Z"
                    fill="#8F8F8F" />
                  <path
                    d="M689.09 276.09C690.152 277.153 703.562 289.112 718.83 302.533L746.578 327.115L761.315 328.046C769.413 328.444 782.823 329.773 791.187 330.836C799.551 331.766 806.587 332.563 806.72 332.297C807.251 331.898 752.552 285.657 749.498 283.93C747.374 282.734 694.135 274.23 688.692 274.23C687.895 274.23 688.028 275.028 689.09 276.09Z"
                    fill="#8F8F8F" />
                  <path
                    d="M821.723 315.688L849.603 338.543L877.219 343.991C892.355 347.047 904.967 349.439 905.232 349.306C905.631 349.04 853.322 308.912 850.268 307.051C848.94 306.254 796.498 292.833 794.639 292.833C794.108 292.833 806.323 303.065 821.723 315.688Z"
                    fill="#8F8F8F" />
                  <path
                    d="M905.631 297.218C905.897 297.484 916.915 304.925 930.059 313.695C954.489 330.039 954.355 329.905 999.094 347.579C1008.39 351.166 1006.13 349.572 980.776 334.025C966.968 325.654 948.381 315.821 932.449 308.646C909.083 298.015 903.772 295.757 905.631 297.218Z"
                    fill="#8F8F8F" />
                  <path
                    d="M893.548 320.072C893.548 320.605 942.671 356.215 946.389 358.475C949.84 360.6 1001.62 373.489 999.093 371.629C997.639 370.566 985.422 362.461 971.88 353.691L947.318 337.612L920.5 328.577C905.629 323.66 893.548 319.807 893.548 320.072Z"
                    fill="#8F8F8F" />
                  <path
                    d="M993.122 354.488C993.122 355.019 1035.74 380.664 1041.58 383.455C1044.64 385.049 1075.84 393.952 1094.68 398.602C1096.15 399.001 1085.13 392.889 1070.13 385.049C1049.42 374.286 1037.07 368.839 1018.48 362.461C993.388 353.691 993.122 353.557 993.122 354.488Z"
                    fill="#8F8F8F" />
                  <path
                    d="M708.341 361.264C707.678 361.529 699.314 362.194 690.02 362.593C680.727 363.124 673.159 363.921 673.425 364.453C673.69 364.985 688.028 378.405 705.421 394.351L737.152 423.451L757.597 421.191C768.882 419.996 783.088 418.534 789.329 418.135C795.568 417.736 801.012 416.939 801.277 416.408C801.676 415.877 787.868 403.12 770.741 387.973L739.674 360.6L724.671 360.732C716.441 360.732 709.138 360.998 708.341 361.264Z"
                    fill="#8F8F8F" />
                  <path
                    d="M787.336 362.327C791.983 366.447 809.242 381.196 828.494 397.274L849.072 414.415L878.679 414.016L908.153 413.618L881.998 392.889C867.527 381.461 853.587 370.433 851.063 368.44C846.55 364.852 845.355 364.586 826.503 363.258C815.483 362.593 801.808 361.663 795.966 361.265C786.938 360.6 785.611 360.732 787.336 362.327Z"
                    fill="#8F8F8F" />
                  <path
                    d="M616.069 369.503C612.75 370.035 558.582 378.805 549.819 380.399C547.297 380.798 545.306 381.728 545.306 382.392C545.306 383.056 552.475 390.231 561.237 398.338C570 406.443 585.268 420.793 595.225 430.094L613.281 447.103L636.914 441.788C649.924 438.998 666.387 435.41 673.423 434.081C680.593 432.752 686.302 431.29 686.036 430.759C685.77 429.563 627.885 375.748 622.84 371.895C620.848 370.3 617.928 369.37 616.069 369.503Z"
                    fill="#8F8F8F" />
                  <path
                    d="M891.557 370.964C892.354 371.761 906.028 382.258 922.094 394.351L951.302 416.408L959.932 416.54C964.711 416.54 977.058 417.338 987.414 418.135C997.77 419.066 1005.87 419.331 1005.34 418.932C1004.81 418.401 997.899 413.75 989.804 408.435C981.838 402.987 968.561 394.084 960.462 388.371L945.726 378.007L925.28 374.684C895.54 370.034 889.964 369.369 891.557 370.964Z"
                    fill="#8F8F8F" />
                  <path
                    d="M988.476 386.909C990.335 388.636 1027.64 412.155 1038.92 418.667C1048.75 424.38 1049.42 424.513 1094.03 429.296L1100 429.961L1093.36 426.107C1089.78 423.982 1076.23 416.408 1063.36 409.365L1040.12 396.476L1016.89 391.825C1004.14 389.301 992.327 386.909 990.468 386.378C988.476 385.979 987.68 386.112 988.476 386.909Z"
                    fill="#8F8F8F" />
                  <path
                    d="M1818.92 396.61C1809.1 400.198 1787.59 407.639 1771.13 413.087C1746.43 421.192 1737.93 424.78 1722 433.417C1711.38 439.13 1697.18 446.704 1690.53 450.292C1683.76 453.88 1678.46 456.936 1678.72 457.202C1679.38 457.866 1724.13 446.97 1748.95 440.194L1768.6 434.745L1802.59 412.954C1834.86 392.358 1838.7 389.7 1837.38 389.834C1837.11 389.966 1828.74 392.889 1818.92 396.61Z"
                    fill="#8F8F8F" />
                  <path
                    d="M1113.54 421.325L1141.82 435.277L1167.31 438.466C1193.2 441.655 1198.78 442.054 1194.93 440.725C1193.86 440.326 1180.19 435.011 1164.66 428.766C1140.49 419.066 1132.66 416.674 1112.21 412.289C1098.94 409.499 1087.52 407.107 1086.72 407.24C1086.06 407.24 1098.14 413.618 1113.54 421.325Z"
                    fill="#8F8F8F" />
                  <path
                    d="M1194.26 431.025C1197.98 432.487 1210.19 436.739 1221.48 440.326C1241.13 446.572 1243.25 446.97 1268.48 448.964C1293.57 450.957 1302.59 451.089 1290.25 449.096C1287.06 448.565 1273.79 445.508 1260.64 442.319C1240.33 437.271 1209.53 431.291 1192.27 428.899C1188.02 428.367 1188.28 428.501 1194.26 431.025Z"
                    fill="#8F8F8F" />
                  <path
                    d="M1665.44 442.319C1658.81 443.914 1641.15 447.501 1626.28 450.292C1599.72 455.075 1583.79 459.726 1547.42 473.146L1535.47 477.531L1547.42 476.734C1554.06 476.335 1572.11 474.476 1587.64 472.748L1615.79 469.426L1638.76 459.062C1686.42 437.27 1686.95 436.871 1665.44 442.319Z"
                    fill="#8F8F8F" />
                  <path
                    d="M993.122 445.109C993.122 445.774 1016.76 461.453 1039.46 476.203L1058.71 488.428L1086.32 486.168C1101.59 484.84 1113.8 483.644 1113.67 483.511C1113.4 483.378 1098.67 474.874 1080.74 464.642L1048.08 446.039L1020.6 445.376C1005.47 444.977 993.122 444.977 993.122 445.109Z"
                    fill="#8F8F8F" />
                  <path
                    d="M924.748 446.439C922.623 446.704 914.259 447.236 906.427 447.767C894.61 448.432 892.353 448.831 893.548 450.292C894.478 451.355 909.215 463.048 926.341 476.336L957.673 500.653L983.696 497.065C998.038 495.072 1011.04 493.477 1012.77 493.477C1014.37 493.477 1015.69 493.079 1015.69 492.414C1015.69 491.883 1011.31 488.56 1006 484.972C1000.83 481.252 986.086 471.02 973.473 461.985L950.504 445.642L939.618 445.907C933.643 445.907 927.005 446.305 924.748 446.439Z"
                    fill="#8F8F8F" />
                  <path
                    d="M1091.37 448.697C1092.69 449.893 1107.3 457.599 1130.93 469.558L1155.23 481.783L1170.76 480.986C1179.26 480.455 1191.61 479.79 1198.11 479.391L1209.93 478.594L1189.48 470.223C1178.2 465.705 1163.46 459.46 1156.69 456.403C1149.92 453.48 1142.22 450.69 1139.43 450.424C1131.07 449.494 1090.7 447.9 1091.37 448.697Z"
                    fill="#8F8F8F" />
                  <path
                    d="M832.477 454.411C803.136 458.397 781.893 461.985 782.292 462.916C782.69 463.713 815.484 492.414 842.434 515.535L850.4 522.312L857.039 520.717C860.756 519.786 874.165 516.731 886.911 514.073C899.656 511.415 910.941 509.023 911.871 508.625C912.932 508.36 905.631 501.583 895.275 493.212C885.185 485.105 870.448 473.014 862.349 466.237C854.383 459.593 847.214 453.88 846.417 453.481C845.754 453.082 839.381 453.481 832.477 454.411Z"
                    fill="#8F8F8F" />
                  <path
                    d="M1192.27 455.74C1197.58 458.132 1224.93 467.964 1241.4 473.412C1252.41 477.132 1253.08 477.132 1271.27 476.07C1281.48 475.538 1293.7 475.007 1298.48 475.007C1308.44 474.874 1307.77 473.28 1296.49 470.888C1292.11 469.957 1278.04 466.369 1265.29 462.915C1245.91 457.6 1239.4 456.404 1226.12 455.74C1217.36 455.341 1205.15 454.544 1198.91 454.278C1187.76 453.613 1187.63 453.613 1192.27 455.74Z"
                    fill="#8F8F8F" />
                  <path
                    d="M1292.11 459.061C1294.1 460.125 1319.99 465.44 1340.43 469.027C1353.18 471.154 1355.17 471.154 1376.95 469.027C1389.69 467.831 1402.44 466.902 1405.22 466.902C1413.19 466.902 1410.27 465.706 1399.92 464.776C1394.87 464.377 1382.39 463.048 1372.17 461.985C1361.94 460.922 1346.55 459.726 1338.04 459.46C1303.13 458.264 1290.52 458.132 1292.11 459.061Z"
                    fill="#8F8F8F" />
                  <path
                    d="M1528.03 463.447C1527.63 463.845 1512.77 464.775 1494.97 465.572C1474 466.503 1455.28 468.23 1442.54 470.223C1431.64 471.95 1419.69 473.811 1415.98 474.342C1406.29 475.672 1402.71 477.399 1409.34 477.399C1412.27 477.531 1428.46 478.196 1445.45 478.993L1476.12 480.455L1494.57 475.538C1515.28 469.957 1534.8 464.51 1536.79 463.713C1537.59 463.314 1536 463.048 1533.35 463.048C1530.69 462.915 1528.3 463.18 1528.03 463.447Z"
                    fill="#8F8F8F" />
                  <path
                    d="M1712.58 467.433C1711.78 468.23 1661.6 478.063 1641.68 481.385C1625.75 484.042 1625.75 484.042 1594.55 500.12L1563.35 516.198L1575.96 515.401C1592.03 514.338 1626.28 511.149 1641.54 509.289L1653.36 507.827L1684.03 488.56C1716.96 467.831 1718.29 466.901 1715.23 466.901C1714.03 466.901 1712.84 467.166 1712.58 467.433Z"
                    fill="#8F8F8F" />
                  <path
                    d="M697.72 479.391C682.452 483.245 667.317 487.098 664.263 488.029L658.82 489.49L676.876 506.366C695.994 524.038 708.341 535.598 721.883 548.222C726.397 552.473 730.778 555.928 731.841 555.928C732.903 555.928 739.01 554.068 745.649 551.942C752.154 549.683 766.758 545.165 778.043 541.844C789.328 538.521 799.418 535.598 800.347 535.332C801.277 534.934 795.037 528.555 786.407 520.982C777.777 513.275 762.111 499.323 751.49 489.756C737.284 476.867 731.442 472.349 728.92 472.349C727.061 472.482 713.121 475.671 697.72 479.391Z"
                    fill="#8F8F8F" />
                  <path
                    d="M1326.09 486.567C1311.63 488.428 1300.07 490.155 1300.2 490.421C1300.87 490.952 1334.06 498.26 1354.37 502.246L1372.56 505.701L1402.17 498.659L1431.91 491.483L1419.96 490.421C1413.46 489.756 1396.19 487.896 1381.85 486.036C1367.52 484.308 1354.91 482.979 1353.97 482.979C1353.05 483.112 1340.43 484.707 1326.09 486.567Z"
                    fill="#8F8F8F" />
                  <path
                    d="M1555.38 490.819C1548.88 491.35 1530.29 492.28 1514.23 492.812L1485.01 493.742L1459.79 501.714C1445.98 506.232 1433.23 510.086 1431.51 510.484C1425.14 511.813 1427.8 513.009 1438.95 513.806C1445.32 514.338 1463.11 515.4 1478.51 516.198L1506.66 517.66L1536.26 504.771C1552.59 497.728 1566.53 491.35 1567.33 490.685C1568 490.022 1568.26 489.623 1568 489.623C1567.6 489.756 1562.02 490.287 1555.38 490.819Z"
                    fill="#8F8F8F" />
                  <path
                    d="M1228.78 498.127C1215.64 499.854 1203.96 501.316 1202.89 501.449C1200.1 501.582 1205.95 503.974 1238.61 516.332C1254.27 522.178 1269.01 527.227 1271.27 527.626C1274.71 528.157 1327.03 517.129 1328.62 515.534C1328.88 515.268 1320.26 512.877 1309.5 510.086C1298.61 507.296 1282.28 502.645 1272.86 499.854C1263.56 497.064 1255.2 494.806 1254.27 494.938C1253.47 495.071 1241.92 496.533 1228.78 498.127Z"
                    fill="#8F8F8F" />
                  <path
                    d="M1130.27 510.618C1116.86 512.611 1105.71 514.604 1105.31 515.003C1104.64 515.667 1145.01 537.725 1166.25 548.222L1175.41 552.872L1202.36 546.096C1217.1 542.376 1229.58 539.054 1229.98 538.655C1230.37 538.257 1223.6 534.934 1215.11 531.346C1206.61 527.892 1190.67 520.85 1179.66 515.8C1168.77 510.884 1158.55 506.897 1157.09 506.897C1155.62 507.03 1143.55 508.625 1130.27 510.618Z"
                    fill="#8F8F8F" />
                  <path
                    d="M1031.36 527.227C1016.09 530.15 1003.74 532.94 1003.74 533.339C1003.74 535.067 1074.64 581.308 1076.63 580.776C1091.5 576.79 1132.52 564.432 1132.52 563.901C1132.52 563.502 1127.34 560.313 1120.84 556.726C1114.47 553.138 1098.41 543.703 1085.26 535.731C1071.98 527.892 1060.7 521.514 1060.03 521.514C1059.37 521.646 1046.49 524.171 1031.36 527.227Z"
                    fill="#8F8F8F" />
                  <path
                    d="M1352.65 535.067C1338.18 539.585 1326.36 543.571 1326.36 543.97C1326.36 545.298 1397.26 561.243 1402.71 561.243C1404.96 561.243 1459.66 538.521 1461.38 536.927C1461.65 536.528 1455.14 535.599 1446.92 534.669C1438.68 533.871 1421.43 531.612 1408.68 529.885C1395.93 528.157 1383.99 526.696 1382.12 526.829C1380.26 526.829 1366.99 530.549 1352.65 535.067Z"
                    fill="#8F8F8F" />
                  <path
                    d="M1552.07 538.655L1516.88 539.319L1490.33 552.872C1475.72 560.314 1462.71 567.223 1461.26 568.287C1458.99 569.881 1460.72 570.28 1476.52 571.742C1499.49 573.735 1531.09 575.86 1538.92 575.86C1544.36 575.86 1547.69 574.133 1574.77 557.125C1591.1 546.76 1604.77 538.123 1605.04 537.858C1605.3 537.592 1601.46 537.459 1596.41 537.592C1591.36 537.725 1571.44 538.257 1552.07 538.655Z"
                    fill="#8F8F8F" />
                  <path
                    d="M951.965 544.635C948.646 545.564 935.502 549.152 922.757 552.475C910.011 555.929 898.727 558.985 897.664 559.384C896.071 559.915 949.044 603.366 964.312 613.996L969.357 617.451L979.58 613.864C985.157 611.737 999.232 606.821 1010.64 602.835L1031.49 595.393L1010.64 580.644C999.232 572.406 982.767 560.58 974.137 554.202C965.64 547.824 958.471 542.641 958.205 542.774C958.073 542.774 955.284 543.571 951.965 544.635Z"
                    fill="#8F8F8F" />
                  <path
                    d="M1253.74 566.293C1238.87 571.21 1226.79 575.461 1226.79 575.86C1226.79 576.657 1252.68 587.155 1284.67 599.247L1303.26 606.289L1332.21 593.4L1361.01 580.511L1355.97 579.049C1353.18 578.119 1344.02 575.461 1335.65 573.203C1327.29 570.944 1311.89 566.426 1301.67 563.104C1291.31 559.915 1282.28 557.258 1281.75 557.39C1281.09 557.523 1268.48 561.509 1253.74 566.293Z"
                    fill="#8F8F8F" />
                  <path
                    d="M827.83 581.174C791.983 593.931 779.238 598.848 779.636 599.777C780.034 600.707 810.437 627.682 840.177 653.46L853.719 665.153L878.679 654.522C892.353 648.676 907.489 642.165 912.534 640.172C917.446 638.179 921.297 636.053 921.163 635.654C920.898 635.123 910.277 626.22 897.531 615.723C884.786 605.226 868.456 591.672 861.286 585.559C853.985 579.447 847.744 574.531 847.346 574.664C846.815 574.664 838.053 577.587 827.83 581.174Z"
                    fill="#8F8F8F" />
                  <path
                    d="M1153.5 600.841C1138.24 606.422 1125.89 611.338 1125.89 611.736C1125.89 613.331 1199.18 652.928 1202.22 652.928C1203.02 652.928 1216.56 646.683 1232.24 639.109L1260.64 625.29L1255.34 623.031C1241.4 617.185 1203.82 600.176 1194.66 595.659C1188.95 592.735 1183.64 590.477 1182.71 590.609C1181.78 590.609 1168.64 595.26 1153.5 600.841Z"
                    fill="#8F8F8F" />
                  <path
                    d="M1404.7 596.589C1399.92 599.114 1387.3 605.758 1376.42 611.339C1365.66 616.919 1357.3 621.969 1357.83 622.5C1359.02 623.696 1405.23 635.256 1425.94 639.641L1440.01 642.564L1470.28 623.165C1487.01 612.534 1499.75 603.765 1498.56 603.765C1493.92 603.765 1443.19 596.855 1429.39 594.464C1421.43 593.002 1414.52 591.806 1414.12 591.806C1413.72 591.938 1409.48 594.065 1404.7 596.589Z"
                    fill="#8F8F8F" />
                  <path
                    d="M1053.53 639.775C1039.72 645.621 1026.32 651.335 1023.79 652.397L1019.28 654.258L1022.46 656.65C1027.37 660.504 1087.52 701.296 1092.69 704.353L1097.34 707.143L1126.82 691.729C1143.02 683.092 1156.56 675.784 1157.09 675.385C1157.49 674.854 1150.84 670.469 1142.22 665.552C1133.59 660.504 1116.46 650.272 1104.24 642.698C1092.04 635.256 1081.28 629.012 1080.35 629.012C1079.42 629.144 1067.47 633.928 1053.53 639.775Z"
                    fill="#8F8F8F" />
                  <path
                    d="M1283.87 660.768C1268.21 669.406 1255.47 676.98 1255.6 677.644C1255.86 678.973 1282.95 690.533 1313.49 702.359C1330.08 708.738 1335.25 710.199 1337.64 709.269C1339.38 708.604 1353.32 699.702 1368.71 689.47C1392.08 673.923 1396.19 670.734 1393.67 669.937C1392.08 669.538 1383.85 667.146 1375.48 664.888C1363.67 661.566 1323.05 648.809 1313.89 645.488C1313.09 645.222 1299.55 652.132 1283.87 660.768Z"
                    fill="#8F8F8F" />
                  <path
                    d="M938.158 691.861L905.1 708.073L936.83 733.453C954.222 747.271 972.146 761.489 976.527 764.811L984.625 770.924L1006.53 758.168C1018.75 750.992 1033.49 742.621 1039.32 739.298C1045.3 735.977 1050.08 732.92 1049.82 732.389C1049.68 731.991 1039.72 724.417 1027.64 715.779C1015.56 707.009 998.297 694.387 989.272 687.743C980.377 680.966 972.544 675.518 972.146 675.518C971.615 675.518 956.346 682.959 938.158 691.861Z"
                    fill="#8F8F8F" />
                  <path
                    d="M1179.39 719.898C1163.19 729.466 1149.65 737.704 1149.12 738.235C1148.2 739.033 1174.61 754.314 1210.46 773.713L1230.5 784.61L1260.25 763.615C1276.58 752.055 1290.12 741.957 1290.12 741.292C1290.25 740.495 1282.82 736.641 1273.52 732.522C1264.23 728.403 1245.91 719.898 1232.89 713.654C1219.75 707.276 1208.99 702.094 1208.99 702.226C1208.87 702.226 1195.59 710.199 1179.39 719.898Z"
                    fill="#8F8F8F" />
                  <path
                    d="M1070.13 787.267C1053 798.296 1038.4 807.731 1037.87 808.394C1037.2 808.926 1041.85 813.045 1047.95 817.43C1070.26 833.243 1113.8 862.874 1117.13 864.336C1120.18 865.797 1122.56 864.203 1152.31 842.145C1169.83 828.991 1184.17 818.095 1184.3 817.696C1184.3 817.298 1177.27 812.913 1168.77 807.863C1160.14 802.813 1142.22 791.918 1128.94 783.547C1115.53 775.308 1103.85 768.133 1103.05 767.868C1102.12 767.469 1087.26 776.239 1070.13 787.267Z"
                    fill="#8F8F8F" />
                  <path
                    d="M28.5845 952.167C28.0535 953.761 21.5479 987.246 6.6783 1064.58C3.09364 1083.85 0.0400391 1100.46 0.0400391 1101.52C0.0400391 1102.98 1.89875 1103.38 7.87318 1103.38H15.5735L17.565 1092.36C18.7599 1086.38 23.1411 1060.72 27.3896 1035.35C31.6382 1009.84 35.4883 989.506 36.1521 990.169C36.6832 990.701 45.844 1015.95 56.4652 1046.24C67.0864 1076.54 76.2472 1102.32 76.911 1103.38C77.5748 1104.57 79.8319 1105.37 82.3544 1105.37C84.8769 1105.37 87.1339 1104.57 87.7978 1103.38C88.4615 1102.32 95.7637 1081.59 104.127 1057.54C112.492 1033.36 121.254 1008.11 123.644 1001.2C126.964 991.764 128.291 989.239 128.955 991.233C129.486 992.561 133.071 1011.69 136.788 1033.62C140.506 1055.54 144.754 1080.26 146.347 1088.37L149.002 1103.38H156.836C163.473 1103.38 164.668 1102.98 164.536 1100.99C164.536 1099.79 158.163 1065.51 150.33 1024.99L136.125 951.237L131.345 950.838C126.565 950.44 126.565 950.572 123.777 958.146C118.998 971.169 86.7356 1062.59 85.0097 1067.9C84.0803 1070.83 82.8854 1072.55 82.3544 1071.89C81.5578 1071.09 53.6771 994.289 40.2678 956.153C38.4092 951.103 37.878 950.572 33.7624 950.572C31.2399 950.572 28.8501 951.37 28.5845 952.167Z"
                    fill="#8F8F8F" />
                  <path
                    d="M280.174 952.035C276.855 952.699 269.155 955.622 263.048 958.679C215.916 981.932 205.561 1045.98 243 1083.45C277.254 1117.73 335.537 1112.29 362.223 1072.42C372.18 1057.41 375.102 1047.71 375.102 1028.97C375.102 1010.9 371.916 999.206 363.551 986.051C352.664 969.442 333.281 955.755 314.959 952.035C306.86 950.307 288.804 950.307 280.174 952.035ZM314.029 967.315C337.264 973.294 356.382 994.954 360.232 1019.54C364.613 1048.37 347.221 1077.21 318.942 1087.83C312.968 1090.09 308.587 1090.76 297.434 1090.62C281.237 1090.62 273.271 1088.1 260.924 1079.33C229.989 1057.01 226.272 1011.04 253.488 983.925C269.819 967.714 292.123 961.602 314.029 967.315Z"
                    fill="#8F8F8F" />
                  <path
                    d="M674.885 977.413C668.246 992.296 653.244 1025.78 641.428 1051.83C629.744 1077.87 620.053 1100.19 620.053 1101.26C620.053 1102.98 621.646 1103.38 627.753 1103.38H635.32L643.42 1085.04L651.386 1066.84L690.551 1066.57L729.584 1066.18L737.682 1084.51L745.782 1102.72L752.817 1103.12C756.668 1103.38 760.385 1102.98 761.049 1102.32C761.713 1101.65 747.773 1068.97 728.521 1026.18C695.596 952.698 694.932 951.237 691.082 950.838C687.099 950.44 686.966 950.572 674.885 977.413ZM707.678 1017.02L723.211 1052.22L691.348 1052.62C673.823 1052.75 659.218 1052.62 658.953 1052.35C657.891 1051.3 689.622 981.134 690.949 981.533C691.613 981.798 699.181 997.741 707.678 1017.02Z"
                    fill="#8F8F8F" />
                  <path
                    d="M835.928 951.769C834.999 953.231 807.251 1097.67 807.251 1100.99C807.251 1102.98 808.446 1103.38 815.217 1103.38C819.598 1103.38 823.183 1102.85 823.183 1102.18C823.183 1101.65 826.767 1080 831.149 1054.09C835.53 1028.18 839.779 1002.92 840.708 998.011C841.504 993.094 842.567 989.506 843.098 990.037C843.628 990.569 846.55 998.011 849.47 1006.38C854.382 1020.33 877.882 1087.03 882.529 1100.33C884.388 1105.51 884.919 1106.04 888.902 1106.04C891.424 1106.04 893.681 1105.51 894.212 1104.84C894.61 1104.18 903.638 1078.53 914.127 1047.97C924.748 1017.41 933.776 991.632 934.175 990.569C935.37 987.114 936.166 990.037 939.485 1009.17C941.344 1019.67 944.265 1036.95 946.124 1047.57C947.982 1058.2 950.637 1074.02 952.098 1082.79C955.815 1104.97 954.886 1103.38 963.25 1103.38C967.233 1103.38 970.684 1102.85 971.083 1102.32C971.481 1101.65 965.374 1067.5 957.408 1026.18L943.07 951.238H938.158H933.112L912.003 1010.9C900.32 1043.85 890.495 1070.96 890.229 1071.36C889.831 1071.63 889.3 1071.63 888.902 1071.36C888.371 1070.69 860.888 994.953 851.063 966.518C848.674 959.609 846.018 953.097 845.355 952.168C843.894 950.307 836.991 950.042 835.928 951.769Z"
                    fill="#8F8F8F" />
                  <path
                    d="M1056.19 952.034C1054.99 953.761 1029.1 1087.57 1028.04 1097L1027.24 1103.38H1034.68C1038.79 1103.38 1042.38 1102.98 1042.65 1102.32C1043.04 1101.78 1047.29 1077.74 1052.07 1048.91C1062.42 986.98 1062.16 988.574 1063.36 990.036C1063.89 990.567 1066.28 996.814 1068.66 1003.72C1076.63 1026.71 1102.12 1099.13 1103.98 1103.78C1104.78 1105.64 1106.1 1106.04 1109.69 1105.77L1114.47 1105.37L1128.81 1064.18C1136.64 1041.46 1145.27 1016.75 1147.8 1009.17C1154.3 990.701 1155.09 988.708 1155.76 989.239C1156.02 989.638 1158.41 1002.39 1161.07 1017.67C1163.73 1033.09 1167.31 1054.22 1169.16 1064.85C1171.03 1075.47 1173.29 1088.23 1174.21 1093.41L1175.81 1102.72L1183.24 1103.12C1188.42 1103.38 1190.81 1102.98 1191.21 1101.78C1191.47 1100.86 1188.15 1080.93 1183.64 1057.54C1179.12 1034.16 1172.89 1001.87 1169.83 985.784C1166.77 969.706 1163.86 955.223 1163.46 953.495C1162.79 950.971 1162 950.439 1158.01 950.838L1153.37 951.237L1143.15 979.804C1137.57 995.485 1128.01 1022.46 1122.04 1039.6C1115.93 1056.74 1110.75 1071.09 1110.49 1071.36C1110.22 1071.63 1109.56 1071.63 1109.16 1071.09C1108.76 1070.69 1098.67 1043.45 1086.86 1010.77L1065.48 951.237L1061.23 950.838C1058.98 950.572 1056.72 951.103 1056.19 952.034Z"
                    fill="#8F8F8F" />
                  <path
                    d="M443.741 953.629C442.546 955.09 442.148 974.358 442.414 1029.1L442.812 1102.72L450.512 1103.12L458.08 1103.52V1068.84V1034.29H502.556H547.032L547.298 1068.44L547.696 1102.72L555.396 1103.12L562.964 1103.52L562.699 1028.04L562.301 952.566L556.591 952.167C546.9 951.503 547.032 950.839 547.032 987.247V1019.67H502.556H458.08L457.814 986.051L457.416 952.566L451.309 952.167C447.326 951.901 444.67 952.433 443.741 953.629Z"
                    fill="#8F8F8F" />
                  <path
                    d="M1259.58 952.832C1259.05 953.231 1258.65 987.379 1258.65 1028.58V1103.38L1304.85 1103.12L1350.93 1102.72V1096.74V1090.76L1312.82 1090.36L1274.58 1090.09V1062.19V1034.29L1307.51 1034.02L1340.3 1033.62L1340.7 1028.58C1341.5 1019.67 1341.63 1019.67 1306.32 1019.67H1274.58V993.094V966.518L1312.82 966.252L1350.93 965.853L1351.33 960.805C1352.12 951.636 1353.58 951.901 1304.46 951.901C1280.29 951.901 1259.98 952.3 1259.58 952.832Z"
                    fill="#8F8F8F" />
                  <path
                    d="M1420.89 953.628C1419.69 955.09 1419.29 973.161 1419.56 1029.1L1419.96 1102.72L1452.89 1103.12C1485.01 1103.38 1485.95 1103.38 1495.77 1100.06C1526.31 1089.82 1545.69 1064.18 1547.69 1031.62C1549.81 997.88 1527.9 966.783 1494.31 955.754C1485.95 953.097 1481.83 952.699 1453.69 952.166C1427.53 951.768 1422.22 952.034 1420.89 953.628ZM1490.33 970.238C1501.88 974.49 1511.57 981.533 1518.07 990.435C1536.26 1015.02 1533.48 1051.7 1512.1 1072.16C1497.63 1086.11 1481.57 1090.62 1450.5 1089.82L1435.89 1089.43L1435.5 1027.91L1435.23 966.252L1458.73 966.783C1478.91 967.314 1483.56 967.713 1490.33 970.238Z"
                    fill="#8F8F8F" />
                  <path
                    d="M1645.53 953.894C1644.47 956.419 1642.61 951.901 1679.78 1034.95C1718.68 1121.85 1713.9 1117.47 1729.96 1081.85C1780.55 970.371 1786.92 955.355 1785.6 953.628C1783.73 951.369 1773.25 951.369 1771.39 953.628C1770.59 954.558 1757.98 982.197 1743.38 1015.02C1728.77 1047.84 1716.29 1074.95 1715.77 1075.08C1715.1 1075.34 1702.48 1048.11 1687.62 1014.75C1672.75 981.266 1659.86 953.496 1659.07 952.964C1656.28 951.103 1646.32 951.768 1645.53 953.894Z"
                    fill="#8F8F8F" />
                  <path
                    d="M1848.26 953.761C1847.2 954.957 1846.93 975.819 1847.06 1029.1L1847.46 1102.72H1855.43H1863.39L1863.79 1029.1C1863.93 975.819 1863.66 954.957 1862.6 953.761C1861.8 952.699 1858.61 951.901 1855.43 951.901C1852.24 951.901 1849.05 952.699 1848.26 953.761Z"
                    fill="#8F8F8F" />
                  <path
                    d="M206.888 1160.38C197.859 1163.97 190.956 1169.95 186.442 1178.06C182.99 1184.44 182.592 1186.29 182.592 1197.06C182.592 1210.75 184.716 1216.19 193.478 1224.56C213.526 1243.96 248.31 1235.86 256.941 1209.81C259.993 1200.64 259.197 1187.36 255.082 1179.39C246.187 1161.85 224.679 1153.48 206.888 1160.38ZM237.955 1170.62C249.24 1178.86 254.417 1192.54 250.966 1205.03C248.841 1212.47 240.212 1222.57 233.043 1225.76C226.138 1228.95 214.721 1228.95 207.817 1225.76C197.063 1220.71 188.566 1208.09 188.566 1197.2C188.566 1186.03 196.266 1173.54 206.091 1168.62C210.738 1166.23 213.659 1165.83 222.023 1166.1C230.918 1166.5 232.777 1167.03 237.955 1170.62Z"
                    fill="#8F8F8F" />
                  <path
                    d="M1092.83 1160.78C1084.6 1163.84 1075.97 1171.81 1072.12 1179.79C1070.53 1183.1 1069.33 1188.82 1069.06 1195.33C1068.67 1203.97 1069.06 1206.62 1071.72 1212.6C1080.88 1232.4 1104.51 1241.17 1123.63 1231.74C1133.19 1227.09 1134.91 1225.1 1132 1221.77C1129.73 1219.25 1129.48 1219.25 1123.1 1223.24C1107.3 1233.07 1087.78 1227.35 1079.95 1210.35C1074.51 1198.79 1076.23 1186.03 1084.47 1176.47C1095.48 1163.57 1110.62 1162.12 1126.82 1172.48C1129.48 1174.2 1130.13 1174.2 1132.12 1172.21C1134.26 1169.95 1134.26 1169.69 1131.2 1166.5C1126.95 1161.98 1115.27 1157.86 1106.9 1157.99C1103.05 1157.99 1096.82 1159.19 1092.83 1160.78Z"
                    fill="#8F8F8F" />
                  <path
                    d="M1461.12 1159.59C1460.72 1160.52 1460.59 1177.66 1460.72 1197.72L1461.12 1234.27L1464.84 1234.67L1468.43 1235.07V1205.03C1468.43 1187.36 1468.95 1175.13 1469.62 1175.4C1470.28 1175.53 1481.7 1189.48 1494.97 1206.1C1508.38 1222.71 1519.93 1236.12 1520.73 1235.86C1521.8 1235.46 1522.2 1224.3 1522.2 1197.59V1159.85L1518.61 1159.46L1514.89 1159.06V1188.29C1514.89 1204.5 1514.49 1217.66 1513.96 1217.53C1513.29 1217.53 1502.28 1204.1 1489.14 1187.63C1476.12 1171.29 1464.57 1157.86 1463.65 1157.86C1462.58 1157.86 1461.39 1158.66 1461.12 1159.59Z"
                    fill="#8F8F8F" />
                  <path
                    d="M1826.89 1159.06C1799.01 1168.23 1788.51 1200.51 1806.58 1221.64C1818.92 1235.99 1841.76 1239.98 1856.36 1230.28C1862.47 1226.3 1863.79 1223.51 1861.27 1220.84C1859.55 1219.25 1858.75 1219.38 1854.77 1222.04C1841.89 1230.68 1827.95 1230.14 1817.46 1220.72C1807.37 1211.55 1803.92 1200.25 1807.5 1188.29C1813.21 1168.36 1833.12 1160.12 1851.58 1169.82C1858.22 1173.41 1859.41 1173.68 1861.14 1171.94C1864.06 1169.02 1862.47 1166.9 1854.77 1162.64C1847.33 1158.53 1833.66 1156.8 1826.89 1159.06Z"
                    fill="#8F8F8F" />
                  <path
                    d="M9.33301 1197.06V1234.93H12.6522H15.9712V1220.97V1207.02H27.6545C44.3829 1206.89 51.8178 1203.18 56.4646 1192.01C61.5096 1179.79 56.9956 1167.96 44.9141 1161.72C40.9311 1159.72 37.0809 1159.19 24.601 1159.19H9.33301V1197.06ZM42.5243 1169.15C49.9591 1173.01 52.7471 1183.64 48.3659 1191.08C44.6485 1197.33 40.0017 1199.05 27.3891 1199.05H15.9712V1183.1V1167.16H27.2562C34.8238 1167.16 40.0017 1167.83 42.5243 1169.15Z"
                    fill="#8F8F8F" />
                  <path
                    d="M390.369 1197.06V1235.07L410.682 1234.67C430.465 1234.27 430.863 1234.27 431.261 1231.21C431.659 1228.29 431.526 1228.29 415.063 1228.29H398.335L398.069 1194.01L397.671 1159.85L394.086 1159.46L390.369 1159.06V1197.06Z"
                    fill="#8F8F8F" />
                  <path
                    d="M540.394 1160.52C540.394 1161.18 546.368 1170.09 553.67 1180.31L566.947 1198.65V1216.86V1235.07L570.664 1234.67L574.249 1234.27L574.647 1215.93L575.045 1197.59L588.189 1179.66C595.491 1169.69 601.465 1161.05 601.465 1160.25C601.465 1159.59 599.474 1159.19 597.217 1159.46C593.367 1159.85 591.641 1161.58 582.215 1174.73C576.373 1182.97 571.195 1189.48 570.664 1189.35C570.266 1189.22 564.955 1182.31 558.981 1174.08C549.422 1160.92 547.829 1159.19 544.377 1159.19C542.119 1159.19 540.394 1159.72 540.394 1160.52Z"
                    fill="#8F8F8F" />
                  <path
                    d="M720.157 1161.18C718.697 1164.77 721.087 1165.83 730.911 1165.83H740.868L741.134 1199.99L741.533 1234.27H744.851H748.171L748.57 1200.12L748.834 1165.96L759.19 1165.56C768.617 1165.17 769.413 1164.91 769.812 1162.12L770.21 1159.19H745.516C725.203 1159.19 720.689 1159.59 720.157 1161.18Z"
                    fill="#8F8F8F" />
                  <path
                    d="M896.204 1197.06V1234.93L919.173 1234.67C941.742 1234.27 942.008 1234.27 942.406 1231.21C942.805 1228.29 942.805 1228.29 923.554 1228.29H904.17V1214.34V1200.51L920.5 1200.12L936.698 1199.72V1196.4V1193.07L920.5 1192.67L904.17 1192.27V1179.12V1165.83H923.421H942.672V1162.52V1159.19H919.438H896.204V1197.06Z"
                    fill="#8F8F8F" />
                  <path
                    d="M1264.63 1160.92C1264.23 1161.85 1264.1 1178.72 1264.23 1198.39L1264.63 1234.27L1268.34 1234.67L1271.93 1235.07V1217.79V1200.38H1294.5H1317.07V1217.79V1235.07L1320.79 1234.67L1324.37 1234.27L1324.77 1196.66L1325.04 1159.19H1321.06H1317.07V1175.8V1192.41H1294.5H1271.93V1175.8V1159.19H1268.61C1266.75 1159.19 1264.9 1159.98 1264.63 1160.92Z"
                    fill="#8F8F8F" />
                  <path
                    d="M1658.94 1160.78C1658.54 1161.72 1658.41 1178.72 1658.54 1198.39L1658.94 1234.27H1662.92H1666.91V1197.06V1159.85L1663.19 1159.46C1661.06 1159.19 1659.34 1159.72 1658.94 1160.78Z"
                    fill="#8F8F8F" />
                  <path
                    d="M233.707 1375.24V1451.65L240.744 1451.25L247.647 1450.85L248.312 1390.39L248.975 1329.94L292.124 1383.75C315.888 1413.25 338.193 1441.29 341.777 1445.8C348.284 1454.31 352.001 1456.17 355.585 1452.58C357.709 1450.46 357.843 1306.55 355.851 1302.56C354.921 1300.84 353.063 1300.04 349.877 1300.04C340.583 1300.04 341.247 1295.39 341.247 1360.63C341.247 1393.05 340.848 1419.63 340.318 1419.49C339.654 1419.49 317.615 1392.26 291.062 1359.04C244.329 1300.57 242.602 1298.71 238.221 1298.71H233.707V1375.24Z"
                    fill="#8F8F8F" />
                  <path
                    d="M1273.39 1300.84C1259.98 1305.62 1251.61 1313.99 1247.23 1326.88C1244.71 1334.72 1245.38 1345.62 1248.82 1354.39C1251.21 1360.24 1262.11 1371.13 1269.41 1374.72C1271.93 1375.91 1281.62 1380.57 1290.91 1384.95C1310.3 1394.25 1318.67 1401.15 1321.06 1410.19C1323.97 1421.23 1317.2 1433.31 1305.38 1437.83C1292.38 1442.75 1276.45 1439.29 1261.31 1428.13C1256.93 1424.94 1252.81 1422.28 1252.01 1422.28C1250.29 1422.28 1244.04 1430.79 1244.04 1433.31C1244.04 1435.84 1252.28 1442.21 1261.44 1446.87C1278.3 1455.51 1299.55 1456.43 1314.68 1449.13C1323.97 1444.75 1328.75 1440.62 1334.06 1432.65C1337.25 1427.6 1337.64 1426.01 1337.64 1415.11C1337.64 1404.34 1337.25 1402.35 1334.06 1396.77C1327.56 1385.88 1314.94 1377.38 1289.19 1366.61C1275.65 1360.89 1267.68 1354.78 1263.96 1347.21C1258.12 1335.12 1263.03 1321.3 1275.11 1315.85C1287.6 1310.41 1298.48 1311.33 1314.81 1319.58L1323.7 1323.96L1326.89 1320.63C1334.2 1312.8 1330.74 1308.14 1312.82 1302.17C1300.74 1298.05 1283.08 1297.51 1273.39 1300.84Z"
                    fill="#8F8F8F" />
                  <path
                    d="M1.63299 1301.64C-0.358485 1303.63 -0.624014 1392.78 1.36746 1406.61C5.48318 1434.91 28.0532 1454.04 57.1288 1454.17C87.1337 1454.17 109.571 1435.31 114.085 1406.34C114.881 1401.55 115.545 1376.58 115.545 1350.4C115.545 1297.38 115.944 1299.5 105.986 1300.3L100.278 1300.7L99.4809 1353.19C98.9498 1386.8 98.1532 1407.4 97.2239 1410.32C91.2494 1428.8 73.3261 1440.89 54.4734 1439.16C38.6745 1437.83 27.2566 1429.6 20.0873 1414.45L16.6354 1407L15.9716 1353.86L15.3078 1300.7L9.33336 1300.3C5.88148 1300.04 2.69511 1300.57 1.63299 1301.64Z"
                    fill="#8F8F8F" />
                  <path
                    d="M478.26 1301.1C476.933 1302.04 476.667 1317.98 476.933 1376.58L477.331 1450.85L485.031 1451.25L492.598 1451.65V1376.71C492.598 1309.47 492.333 1301.64 490.475 1300.84C487.553 1299.64 480.251 1299.9 478.26 1301.1Z"
                    fill="#8F8F8F" />
                  <path
                    d="M592.703 1302.04C592.172 1303.09 592.172 1305.09 592.57 1306.42C592.968 1307.62 607.839 1341.23 625.762 1381.09C657.227 1450.98 658.422 1453.52 662.139 1453.91L665.99 1454.31L699.579 1380.03C718.033 1339.11 732.903 1304.56 732.637 1303.23C732.372 1301.37 730.778 1300.57 726.531 1300.3C723.344 1300.04 720.024 1300.57 718.963 1301.37C718.033 1302.17 705.155 1329.94 690.418 1363.16C675.681 1396.37 663.068 1423.62 662.67 1423.62C662.139 1423.62 649.526 1396.24 634.657 1362.76C619.787 1329.4 607.042 1301.64 606.245 1301.1C603.457 1299.25 593.5 1299.9 592.703 1302.04Z"
                    fill="#8F8F8F" />
                  <path
                    d="M833.14 1301.64C832.742 1302.56 832.61 1336.58 832.742 1377.11L833.14 1450.85L879.343 1451.25L925.545 1451.52L925.146 1445.27L924.748 1438.89L886.644 1438.5L848.408 1438.23V1410.32V1382.42L881.334 1382.16L914.127 1381.76V1375.11V1368.47L881.334 1368.07L848.408 1367.81V1341.23V1314.65L886.644 1314.39L924.748 1313.99L925.146 1308.14C925.412 1304.43 925.014 1301.9 923.819 1301.24C922.889 1300.57 902.178 1300.04 877.882 1300.04C843.762 1300.04 833.539 1300.44 833.14 1301.64Z"
                    fill="#8F8F8F" />
                  <path
                    d="M1037.07 1302.56C1035.48 1305.35 1034.94 1445.54 1036.4 1449.39C1037.6 1452.45 1050.87 1452.45 1052.07 1449.39C1052.46 1448.19 1052.86 1435.04 1052.86 1420.16V1393.05H1073.84H1094.68L1109.29 1422.28L1123.9 1451.52H1132.26C1137.97 1451.52 1140.76 1450.98 1141.28 1449.79C1141.68 1448.73 1135.05 1435.18 1126.69 1419.63L1111.41 1391.19L1117.66 1387.6C1126.02 1382.82 1134.65 1374.05 1138.89 1365.82C1142.08 1359.97 1142.48 1357.7 1142.48 1346.54C1142.48 1335.25 1142.08 1333.13 1138.64 1326.61C1133.59 1316.91 1123.63 1307.62 1114.2 1303.76C1107.17 1300.97 1104.24 1300.7 1072.52 1300.3C1039.46 1299.9 1038.39 1299.9 1037.07 1302.56ZM1107.3 1318.78C1127.48 1327.81 1132.92 1351.73 1118.45 1367.67C1109.82 1377.24 1105.44 1378.43 1077.43 1378.43H1052.86V1347.21V1315.99H1077.16C1098.54 1315.99 1101.99 1316.39 1107.3 1318.78Z"
                    fill="#8F8F8F" />
                  <path
                    d="M1447.44 1301.77C1446.25 1303.23 1445.85 1322.5 1446.12 1377.24L1446.52 1450.85L1454.22 1451.25L1461.78 1451.65L1461.51 1376.18L1461.12 1300.7L1455.01 1300.3C1451.03 1300.04 1448.37 1300.57 1447.44 1301.77Z"
                    fill="#8F8F8F" />
                  <path
                    d="M1562.95 1301.64C1562.02 1302.56 1561.36 1305.08 1561.36 1307.35C1561.36 1314.25 1562.68 1314.65 1584.19 1314.65H1603.84L1604.1 1382.69L1604.5 1450.85H1611.81H1619.11L1619.51 1382.69L1619.78 1314.65H1639.42C1660.93 1314.65 1662.25 1314.25 1662.25 1307.35C1662.25 1305.08 1661.6 1302.56 1660.66 1301.64C1659.47 1300.44 1646.86 1300.04 1611.81 1300.04C1576.76 1300.04 1564.14 1300.44 1562.95 1301.64Z"
                    fill="#8F8F8F" />
                  <path
                    d="M1747.63 1300.84C1746.69 1301.24 1745.9 1302.43 1745.9 1303.63C1745.9 1304.69 1757.85 1322.1 1772.45 1342.3L1799.01 1379.1L1799.27 1414.98L1799.67 1450.85L1807.37 1451.25L1814.94 1451.65V1415.38L1815.07 1379.1L1838.97 1346.54C1870.83 1303.36 1870.04 1304.56 1868.04 1302.04C1866.98 1300.84 1864.06 1300.04 1860.21 1300.04C1852.51 1300.04 1854.1 1298.31 1828.22 1334.32C1815.74 1351.73 1807.37 1362.09 1806.58 1361.29C1805.91 1360.63 1795.68 1346.81 1783.87 1330.47L1762.37 1300.7L1755.73 1300.44C1752.14 1300.3 1748.43 1300.44 1747.63 1300.84Z"
                    fill="#8F8F8F" />
                </g>
                <rect x="122.5" y="1619.5" width="1656" height="327" rx="163.5" fill="#B8B8B8" stroke="white" />
                <path
                  d="M645.757 1726.94C644.81 1718.54 640.904 1712.03 634.038 1707.41C627.173 1702.74 618.531 1700.4 608.115 1700.4C600.657 1700.4 594.206 1701.58 588.761 1703.95C583.316 1706.26 579.084 1709.46 576.066 1713.54C573.107 1717.56 571.627 1722.15 571.627 1727.3C571.627 1731.62 572.633 1735.35 574.645 1738.49C576.717 1741.62 579.41 1744.26 582.724 1746.39C586.098 1748.46 589.708 1750.2 593.555 1751.62C597.402 1752.99 601.101 1754.11 604.652 1755L622.408 1759.62C628.208 1761.04 634.156 1762.96 640.253 1765.39C646.349 1767.81 652.001 1771.01 657.209 1774.97C662.418 1778.94 666.62 1783.85 669.816 1789.71C673.071 1795.57 674.699 1802.58 674.699 1810.75C674.699 1821.05 672.035 1830.19 666.709 1838.18C661.441 1846.17 653.776 1852.48 643.715 1857.09C633.713 1861.71 621.609 1864.02 607.405 1864.02C593.792 1864.02 582.014 1861.86 572.071 1857.54C562.128 1853.22 554.345 1847.09 548.722 1839.16C543.099 1831.17 539.992 1821.7 539.4 1810.75H566.922C567.454 1817.32 569.585 1822.8 573.314 1827.18C577.102 1831.5 581.925 1834.72 587.785 1836.85C593.703 1838.92 600.184 1839.96 607.227 1839.96C614.98 1839.96 621.875 1838.75 627.912 1836.32C634.008 1833.83 638.803 1830.4 642.294 1826.02C645.786 1821.58 647.532 1816.4 647.532 1810.49C647.532 1805.1 645.994 1800.69 642.916 1797.26C639.897 1793.82 635.784 1790.98 630.576 1788.73C625.427 1786.49 619.597 1784.5 613.086 1782.79L591.602 1776.93C577.042 1772.96 565.501 1767.13 556.978 1759.44C548.515 1751.74 544.283 1741.56 544.283 1728.9C544.283 1718.42 547.124 1709.28 552.806 1701.47C558.488 1693.65 566.182 1687.59 575.888 1683.27C585.595 1678.89 596.544 1676.7 608.736 1676.7C621.047 1676.7 631.907 1678.86 641.318 1683.18C650.788 1687.5 658.245 1693.45 663.69 1701.02C669.135 1708.54 671.976 1717.18 672.213 1726.94H645.757ZM722.839 1862.69C717.985 1862.69 713.813 1860.97 710.321 1857.54C706.829 1854.05 705.083 1849.84 705.083 1844.93C705.083 1840.08 706.829 1835.93 710.321 1832.5C713.813 1829.01 717.985 1827.26 722.839 1827.26C727.692 1827.26 731.864 1829.01 735.356 1832.5C738.848 1835.93 740.594 1840.08 740.594 1844.93C740.594 1848.19 739.766 1851.18 738.109 1853.9C736.511 1856.56 734.38 1858.69 731.717 1860.29C729.053 1861.89 726.094 1862.69 722.839 1862.69ZM936.218 1770.09C936.218 1789.5 932.666 1806.19 925.564 1820.16C918.462 1834.07 908.726 1844.78 896.356 1852.3C884.045 1859.76 870.048 1863.49 854.364 1863.49C838.621 1863.49 824.564 1859.76 812.194 1852.3C799.884 1844.78 790.177 1834.04 783.075 1820.07C775.973 1806.11 772.421 1789.44 772.421 1770.09C772.421 1750.68 775.973 1734.02 783.075 1720.11C790.177 1706.14 799.884 1695.43 812.194 1687.97C824.564 1680.45 838.621 1676.7 854.364 1676.7C870.048 1676.7 884.045 1680.45 896.356 1687.97C908.726 1695.43 918.462 1706.14 925.564 1720.11C932.666 1734.02 936.218 1750.68 936.218 1770.09ZM909.051 1770.09C909.051 1755.29 906.654 1742.84 901.86 1732.72C897.126 1722.54 890.615 1714.84 882.329 1709.63C874.102 1704.37 864.781 1701.73 854.364 1701.73C843.888 1701.73 834.537 1704.37 826.31 1709.63C818.083 1714.84 811.573 1722.54 806.779 1732.72C802.044 1742.84 799.676 1755.29 799.676 1770.09C799.676 1784.89 802.044 1797.38 806.779 1807.56C811.573 1817.68 818.083 1825.37 826.31 1830.64C834.537 1835.85 843.888 1838.45 854.364 1838.45C864.781 1838.45 874.102 1835.85 882.329 1830.64C890.615 1825.37 897.126 1817.68 901.86 1807.56C906.654 1797.38 909.051 1784.89 909.051 1770.09ZM974.304 1862.69C969.45 1862.69 965.278 1860.97 961.786 1857.54C958.294 1854.05 956.548 1849.84 956.548 1844.93C956.548 1840.08 958.294 1835.93 961.786 1832.5C965.278 1829.01 969.45 1827.26 974.304 1827.26C979.157 1827.26 983.329 1829.01 986.821 1832.5C990.313 1835.93 992.059 1840.08 992.059 1844.93C992.059 1848.19 991.231 1851.18 989.573 1853.9C987.975 1856.56 985.845 1858.69 983.181 1860.29C980.518 1861.89 977.559 1862.69 974.304 1862.69ZM1029.75 1861V1679.18H1057.18V1837.38H1139.56V1861H1029.75ZM1186.22 1862.69C1181.36 1862.69 1177.19 1860.97 1173.7 1857.54C1170.21 1854.05 1168.46 1849.84 1168.46 1844.93C1168.46 1840.08 1170.21 1835.93 1173.7 1832.5C1177.19 1829.01 1181.36 1827.26 1186.22 1827.26C1191.07 1827.26 1195.24 1829.01 1198.74 1832.5C1202.23 1835.93 1203.97 1840.08 1203.97 1844.93C1203.97 1848.19 1203.14 1851.18 1201.49 1853.9C1199.89 1856.56 1197.76 1858.69 1195.1 1860.29C1192.43 1861.89 1189.47 1862.69 1186.22 1862.69ZM1241.66 1861V1679.18H1355.65V1702.8H1269.09V1758.19H1349.7V1781.72H1269.09V1837.38H1356.72V1861H1241.66Z"
                  fill="#FFFFFF" />
                <defs>
                  <clipPath id="clip0_206_106">
                    <rect width="1869" height="1455" fill="white" />
                  </clipPath>
                </defs>
              </svg>