<svg xmlns="http://www.w3.org/2000/svg" xmlns:xlink="http://www.w3.org/1999/xlink" width="500" zoomAndPan="magnify" viewBox="0 0 375 374.999991" height="500" preserveAspectRatio="xMidYMid meet" version="1.0"><defs><g/><clipPath id="2faa713630"><path d="M 168 120.371094 L 231.277344 120.371094 L 231.277344 212.621094 L 168 212.621094 Z M 168 120.371094 " clip-rule="nonzero"/></clipPath><clipPath id="49a48bb84a"><path d="M 144 120.371094 L 173 120.371094 L 173 194 L 144 194 Z M 144 120.371094 " clip-rule="nonzero"/></clipPath><clipPath id="e8c8a43452"><path d="M 143.527344 153 L 154 153 L 154 184 L 143.527344 184 Z M 143.527344 153 " clip-rule="nonzero"/></clipPath></defs><rect x="-37.5" width="450" fill="#ffffff" y="-37.499999" height="449.999989" fill-opacity="1"/><rect x="-37.5" width="450" fill="#ffffff" y="-37.499999" height="449.999989" fill-opacity="1"/><rect x="-37.5" width="450" fill="#000000" y="-37.499999" height="449.999989" fill-opacity="1"/><g clip-path="url(#2faa713630)"><path fill="#ffffff" d="M 186.328125 140.34375 C 186.613281 140.628906 186.972656 140.773438 187.328125 140.773438 L 195.929688 140.773438 C 196.285156 140.773438 196.644531 140.628906 196.933594 140.34375 L 199.296875 137.972656 C 200.011719 138.332031 200.800781 138.546875 201.660156 138.546875 C 204.457031 138.546875 206.675781 136.320312 206.675781 133.515625 C 206.675781 130.714844 204.457031 128.488281 201.660156 128.488281 C 198.867188 128.488281 196.644531 130.714844 196.644531 133.515625 C 196.644531 134.378906 196.859375 135.167969 197.21875 135.886719 L 195.355469 137.898438 L 187.902344 137.898438 L 183.03125 133.015625 L 183.03125 123.53125 L 187.1875 123.53125 C 187.328125 123.53125 187.472656 123.601562 187.617188 123.53125 C 200.371094 123.027344 213.484375 128.847656 219.863281 140.773438 L 215.0625 140.773438 C 214.417969 138.691406 212.554688 137.179688 210.261719 137.179688 C 207.464844 137.179688 205.242188 139.410156 205.242188 142.210938 C 205.242188 144.507812 206.75 146.378906 208.828125 147.023438 L 208.828125 160.171875 L 198.078125 160.171875 C 197.289062 160.171875 196.644531 160.820312 196.644531 161.609375 L 196.644531 169.511719 L 193.777344 169.511719 L 193.777344 160.890625 C 193.777344 160.460938 193.5625 160.101562 193.277344 159.8125 L 188.761719 155.933594 L 188.761719 146.519531 L 194.640625 146.519531 L 196.574219 148.460938 C 196.214844 149.179688 196 149.96875 196 150.832031 C 196 153.632812 198.222656 155.863281 201.015625 155.863281 C 203.8125 155.863281 206.03125 153.632812 206.03125 150.832031 C 206.03125 148.03125 203.8125 145.804688 201.015625 145.804688 C 200.15625 145.804688 199.367188 146.019531 198.652344 146.378906 L 196.285156 144.007812 C 195.929688 143.792969 195.570312 143.648438 195.210938 143.648438 L 187.328125 143.648438 C 186.542969 143.648438 185.898438 144.292969 185.898438 145.085938 L 185.898438 156.578125 C 185.898438 157.011719 186.113281 157.371094 186.398438 157.65625 L 190.914062 161.539062 L 190.914062 169.511719 L 185.179688 169.511719 C 184.820312 169.511719 184.464844 169.65625 184.175781 169.941406 L 172.710938 181.4375 C 172.425781 181.726562 172.28125 182.085938 172.28125 182.445312 L 172.28125 194.15625 C 170.203125 194.800781 168.699219 196.667969 168.699219 198.96875 C 168.699219 201.769531 170.921875 203.996094 173.714844 203.996094 C 176.511719 203.996094 178.730469 201.769531 178.730469 198.96875 C 178.730469 196.667969 177.226562 194.800781 175.148438 194.15625 L 175.148438 183.019531 L 185.753906 172.386719 L 211.691406 172.386719 C 212.265625 172.386719 212.769531 172.097656 212.984375 171.59375 L 217.28125 162.972656 C 217.355469 162.757812 217.425781 162.542969 217.425781 162.328125 L 217.425781 157.296875 L 223.730469 157.296875 L 223.730469 163.191406 L 221.867188 167.285156 C 221.726562 167.644531 221.726562 168.003906 221.796875 168.363281 L 228.101562 185.246094 C 228.101562 185.316406 228.101562 185.390625 228.101562 185.460938 C 228.03125 185.535156 228.03125 185.535156 227.960938 185.535156 L 221.796875 185.535156 C 221.367188 185.535156 220.9375 185.75 220.648438 186.109375 C 220.363281 186.46875 220.292969 186.96875 220.433594 187.402344 L 222.15625 192.429688 L 218.859375 193.582031 C 218.429688 193.722656 218.070312 194.082031 217.925781 194.515625 C 217.785156 194.945312 217.855469 195.449219 218.140625 195.808594 L 220.292969 198.753906 L 218.429688 200.191406 C 218.070312 200.476562 217.855469 200.910156 217.855469 201.339844 L 217.855469 205.003906 C 217.855469 206.65625 216.996094 208.238281 215.5625 209.027344 C 214.917969 209.457031 214.128906 209.675781 213.339844 209.675781 C 207.394531 209.746094 184.464844 202.203125 184.464844 189.628906 L 184.464844 186.613281 C 184.464844 185.820312 183.820312 185.175781 183.03125 185.175781 C 182.242188 185.175781 181.597656 185.820312 181.597656 186.613281 L 181.597656 189.628906 C 181.597656 204.933594 207.320312 212.621094 213.414062 212.621094 C 214.703125 212.621094 215.992188 212.261719 217.066406 211.613281 C 219.359375 210.25 220.722656 207.804688 220.722656 205.074219 L 220.722656 202.058594 L 223.085938 200.191406 C 223.660156 199.6875 223.804688 198.824219 223.375 198.25 L 221.582031 195.734375 L 224.449219 194.730469 C 225.164062 194.441406 225.59375 193.652344 225.308594 192.933594 L 223.804688 188.40625 L 227.960938 188.40625 C 228.960938 188.40625 229.894531 187.90625 230.46875 187.113281 C 231.039062 186.253906 231.183594 185.175781 230.824219 184.242188 L 224.734375 167.929688 L 226.453125 164.125 C 226.527344 163.90625 226.597656 163.765625 226.597656 163.550781 L 226.597656 155.644531 C 226.167969 144.796875 221.726562 135.671875 213.84375 129.207031 C 206.675781 123.316406 197.433594 120.371094 187.617188 120.65625 C 187.546875 120.65625 187.402344 120.65625 187.328125 120.65625 L 181.597656 120.65625 C 180.808594 120.65625 180.164062 121.304688 180.164062 122.09375 L 180.164062 133.589844 C 180.164062 133.949219 180.308594 134.308594 180.59375 134.59375 Z M 201.660156 131.433594 C 202.878906 131.433594 203.8125 132.367188 203.8125 133.589844 C 203.8125 134.808594 202.878906 135.746094 201.660156 135.746094 C 200.441406 135.746094 199.511719 134.808594 199.511719 133.589844 C 199.511719 132.367188 200.441406 131.433594 201.660156 131.433594 Z M 200.945312 148.675781 C 202.164062 148.675781 203.09375 149.609375 203.09375 150.832031 C 203.09375 152.054688 202.164062 152.988281 200.945312 152.988281 C 199.726562 152.988281 198.796875 152.054688 198.796875 150.832031 C 198.796875 149.609375 199.726562 148.675781 200.945312 148.675781 Z M 175.863281 198.96875 C 175.863281 200.191406 174.933594 201.125 173.714844 201.125 C 172.496094 201.125 171.566406 200.191406 171.566406 198.96875 C 171.566406 197.746094 172.496094 196.8125 173.714844 196.8125 C 174.933594 196.8125 175.863281 197.746094 175.863281 198.96875 Z M 208.109375 142.210938 C 208.109375 140.988281 209.042969 140.054688 210.261719 140.054688 C 211.476562 140.054688 212.410156 140.988281 212.410156 142.210938 C 212.410156 143.433594 211.476562 144.367188 210.261719 144.367188 C 209.042969 144.367188 208.109375 143.433594 208.109375 142.210938 Z M 223.660156 154.425781 L 215.992188 154.425781 C 215.203125 154.425781 214.558594 155.070312 214.558594 155.863281 L 214.558594 161.96875 L 210.832031 169.511719 L 199.511719 169.511719 L 199.511719 163.046875 L 210.261719 163.046875 C 211.046875 163.046875 211.691406 162.398438 211.691406 161.609375 L 211.691406 147.023438 C 213.339844 146.519531 214.558594 145.226562 215.0625 143.648438 L 221.222656 143.648438 C 222.511719 146.878906 223.375 150.472656 223.660156 154.425781 Z M 223.660156 154.425781 " fill-opacity="1" fill-rule="nonzero"/></g><g clip-path="url(#49a48bb84a)"><path fill="#ffffff" d="M 147.917969 130.5 L 147.917969 142.929688 C 147.917969 143.359375 148.132812 143.792969 148.421875 144.078125 L 156.304688 150.402344 C 156.375 150.472656 156.445312 150.472656 156.519531 150.542969 L 156.519531 165.917969 C 156.519531 166.277344 156.660156 166.566406 156.875 166.855469 L 160.816406 171.453125 L 160.816406 183.378906 C 158.738281 184.023438 157.234375 185.894531 157.234375 188.191406 C 157.234375 190.992188 159.457031 193.222656 162.25 193.222656 C 165.046875 193.222656 167.265625 190.992188 167.265625 188.191406 C 167.265625 185.894531 165.761719 184.023438 163.683594 183.378906 L 163.683594 170.949219 C 163.683594 170.589844 163.539062 170.300781 163.324219 170.015625 L 159.382812 165.417969 L 159.382812 133.875 L 166.550781 137.972656 L 166.550781 140.917969 C 164.472656 141.5625 162.96875 143.433594 162.96875 145.730469 C 162.96875 148.53125 165.1875 150.761719 167.984375 150.761719 C 170.777344 150.761719 173 148.53125 173 145.730469 C 173 143.433594 171.492188 141.5625 169.414062 140.917969 L 169.414062 137.179688 C 169.414062 136.679688 169.128906 136.175781 168.699219 135.960938 L 158.667969 130.210938 C 158.238281 129.925781 157.664062 129.925781 157.234375 130.210938 C 156.804688 130.5 156.519531 130.929688 156.519531 131.433594 L 156.519531 146.878906 L 150.785156 142.210938 L 150.785156 130.5 C 152.863281 129.851562 154.367188 127.984375 154.367188 125.6875 C 154.367188 122.882812 152.148438 120.65625 149.351562 120.65625 C 146.558594 120.65625 144.335938 122.882812 144.335938 125.6875 C 144.335938 127.984375 145.839844 129.851562 147.917969 130.5 Z M 164.398438 188.191406 C 164.398438 189.414062 163.46875 190.347656 162.25 190.347656 C 161.03125 190.347656 160.101562 189.414062 160.101562 188.191406 C 160.101562 186.96875 161.03125 186.035156 162.25 186.035156 C 163.46875 186.035156 164.398438 186.96875 164.398438 188.191406 Z M 170.132812 145.804688 C 170.132812 147.023438 169.199219 147.957031 167.984375 147.957031 C 166.765625 147.957031 165.832031 147.023438 165.832031 145.804688 C 165.832031 144.582031 166.765625 143.648438 167.984375 143.648438 C 169.199219 143.648438 170.132812 144.582031 170.132812 145.804688 Z M 149.351562 123.53125 C 150.570312 123.53125 151.5 124.464844 151.5 125.6875 C 151.5 126.90625 150.570312 127.839844 149.351562 127.839844 C 148.132812 127.839844 147.203125 126.90625 147.203125 125.6875 C 147.203125 124.464844 148.132812 123.53125 149.351562 123.53125 Z M 149.351562 123.53125 " fill-opacity="1" fill-rule="nonzero"/></g><path fill="#ffffff" d="M 180.164062 143.503906 L 180.164062 164.554688 L 169.414062 175.332031 L 169.414062 164.984375 C 171.492188 164.339844 173 162.472656 173 160.171875 C 173 157.371094 170.777344 155.144531 167.984375 155.144531 C 165.1875 155.144531 162.96875 157.371094 162.96875 160.171875 C 162.96875 162.472656 164.472656 164.339844 166.550781 164.984375 L 166.550781 178.851562 C 166.550781 179.425781 166.90625 179.929688 167.410156 180.144531 C 167.625 180.289062 167.769531 180.289062 167.984375 180.289062 C 168.339844 180.289062 168.699219 180.144531 168.984375 179.859375 L 182.601562 166.207031 C 182.886719 165.917969 183.03125 165.558594 183.03125 165.203125 L 183.03125 142.929688 C 183.03125 142.570312 182.886719 142.210938 182.601562 141.921875 L 177.296875 136.605469 L 177.296875 125.6875 C 177.296875 124.894531 176.652344 124.25 175.863281 124.25 C 175.078125 124.25 174.433594 124.894531 174.433594 125.6875 L 174.433594 137.179688 C 174.433594 137.539062 174.574219 137.898438 174.863281 138.1875 Z M 167.984375 162.328125 C 166.765625 162.328125 165.832031 161.394531 165.832031 160.171875 C 165.832031 158.949219 166.765625 158.015625 167.984375 158.015625 C 169.199219 158.015625 170.132812 158.949219 170.132812 160.171875 C 170.132812 161.394531 169.199219 162.328125 167.984375 162.328125 Z M 167.984375 162.328125 " fill-opacity="1" fill-rule="nonzero"/><g clip-path="url(#e8c8a43452)"><path fill="#ffffff" d="M 143.621094 178.132812 C 143.621094 180.933594 145.839844 183.164062 148.636719 183.164062 C 151.429688 183.164062 153.652344 180.933594 153.652344 178.132812 C 153.652344 175.835938 152.148438 173.964844 150.070312 173.320312 L 150.070312 163.550781 C 152.148438 162.902344 153.652344 161.035156 153.652344 158.734375 C 153.652344 155.933594 151.429688 153.707031 148.636719 153.707031 C 145.839844 153.707031 143.621094 155.933594 143.621094 158.734375 C 143.621094 161.035156 145.125 162.902344 147.203125 163.550781 L 147.203125 173.320312 C 145.125 173.964844 143.621094 175.835938 143.621094 178.132812 Z M 146.484375 158.734375 C 146.484375 157.515625 147.417969 156.578125 148.636719 156.578125 C 149.855469 156.578125 150.785156 157.515625 150.785156 158.734375 C 150.785156 159.957031 149.855469 160.890625 148.636719 160.890625 C 147.417969 160.890625 146.484375 159.957031 146.484375 158.734375 Z M 148.636719 175.976562 C 149.855469 175.976562 150.785156 176.914062 150.785156 178.132812 C 150.785156 179.355469 149.855469 180.289062 148.636719 180.289062 C 147.417969 180.289062 146.484375 179.355469 146.484375 178.132812 C 146.484375 176.914062 147.417969 175.976562 148.636719 175.976562 Z M 148.636719 175.976562 " fill-opacity="1" fill-rule="nonzero"/></g><g fill="#ffffff" fill-opacity="1"><g transform="translate(124.762138, 247.660018)"><g><path d="M 0.304688 -21.625 L 0.304688 -18.789062 L 7.558594 -18.789062 L 7.558594 0 L 10.507812 0 L 10.507812 -18.789062 L 17.761719 -18.789062 L 17.761719 -21.625 Z M 0.304688 -21.625 "/></g></g></g><g fill="#ffffff" fill-opacity="1"><g transform="translate(142.766931, 247.660018)"><g><path d="M 2 -21.625 L 2 0 L 4.949219 0 L 4.949219 -9.285156 L 16.511719 -9.285156 L 16.511719 0 L 19.457031 0 L 19.457031 -21.625 L 16.511719 -21.625 L 16.511719 -12.339844 L 4.949219 -12.339844 L 4.949219 -21.625 Z M 2 -21.625 "/></g></g></g><g fill="#ffffff" fill-opacity="1"><g transform="translate(164.189308, 247.660018)"><g><path d="M 2 -21.625 L 2 0 L 4.949219 0 L 4.949219 -21.625 Z M 2 -21.625 "/></g></g></g><g fill="#ffffff" fill-opacity="1"><g transform="translate(171.080036, 247.660018)"><g><path d="M 2 -21.625 L 2 0 L 4.949219 0 L 4.949219 -16.816406 L 16.511719 0 L 19.457031 0 L 19.457031 -21.625 L 16.511719 -21.625 L 16.511719 -4.808594 L 4.949219 -21.625 Z M 2 -21.625 "/></g></g></g><g fill="#ffffff" fill-opacity="1"><g transform="translate(192.502413, 247.660018)"><g><path d="M 2 -21.625 L 2 0 L 4.949219 0 L 4.949219 -9.394531 L 12.839844 -9.449219 L 17.898438 0 L 21.125 0 L 15.453125 -10.8125 L 21.125 -21.625 L 17.898438 -21.625 L 12.867188 -12.230469 L 4.949219 -12.230469 L 4.949219 -21.625 Z M 2 -21.625 "/></g></g></g><g fill="#ffffff" fill-opacity="1"><g transform="translate(213.674725, 247.660018)"><g/></g></g><g fill="#ffffff" fill-opacity="1"><g transform="translate(221.926922, 247.660018)"><g><path d="M 8.449219 -21.625 L 0.304688 0 L 3.390625 0 L 5.585938 -5.726562 L 15.871094 -5.726562 L 18.066406 0 L 21.152344 0 L 13.007812 -21.625 Z M 6.671875 -8.5625 L 10.730469 -19.121094 L 14.785156 -8.5625 Z M 6.671875 -8.5625 "/></g></g></g><g fill="#ffffff" fill-opacity="1"><g transform="translate(243.349299, 247.660018)"><g><path d="M 2 -21.625 L 2 0 L 4.949219 0 L 4.949219 -21.625 Z M 2 -21.625 "/></g></g></g></svg>