<svg width="1000" height="1000" viewBox="0 0 1000 1000" fill="none" xmlns="http://www.w3.org/2000/svg">
<path d="M249.196 241.272C248.457 240.248 247.523 239.38 246.449 238.717C245.374 238.055 244.179 237.611 242.932 237.41C241.686 237.21 240.412 237.257 239.183 237.549C237.955 237.841 236.796 238.372 235.773 239.112C214.463 254.517 194.824 272.108 177.175 291.6C175.47 293.421 174.541 295.834 174.584 298.327C174.627 300.821 175.638 303.201 177.404 304.962C178.295 305.855 179.355 306.563 180.521 307.046C181.687 307.528 182.936 307.776 184.198 307.773C185.545 307.775 186.878 307.493 188.109 306.947C189.34 306.4 190.442 305.601 191.344 304.6C208.114 286.065 226.781 269.338 247.039 254.695C248.062 253.955 248.929 253.021 249.592 251.946C250.254 250.871 250.698 249.677 250.898 248.43C251.099 247.184 251.052 245.91 250.759 244.681C250.467 243.453 249.936 242.295 249.196 241.272ZM732.977 305.156C734.821 303.4 735.894 300.984 735.959 298.439C736.024 295.893 735.077 293.425 733.325 291.577C715.701 272.09 696.082 254.505 674.789 239.112C672.721 237.639 670.154 237.043 667.649 237.455C665.144 237.867 662.903 239.253 661.416 241.311C659.929 243.369 659.316 245.932 659.711 248.44C660.106 250.948 661.477 253.198 663.525 254.698C683.773 269.336 702.426 286.062 719.175 304.6C720.077 305.612 721.183 306.421 722.42 306.974C723.657 307.528 724.997 307.812 726.352 307.81C728.82 307.811 731.193 306.86 732.977 305.156ZM802.675 466.272C803.082 468.483 804.251 470.483 805.979 471.921C807.708 473.36 809.886 474.147 812.135 474.145C813.573 474.143 814.992 473.819 816.288 473.197C817.585 472.575 818.725 471.671 819.626 470.55C820.527 469.43 821.165 468.122 821.494 466.722C821.823 465.322 821.835 463.867 821.527 462.462C816.624 440.074 809.665 418.186 800.739 397.077C800.236 395.919 799.51 394.871 798.602 393.994C797.694 393.116 796.622 392.426 795.447 391.962C794.273 391.499 793.018 391.271 791.756 391.293C790.493 391.314 789.247 391.584 788.089 392.087C786.93 392.59 785.882 393.316 785.005 394.224C784.127 395.132 783.437 396.204 782.974 397.378C782.51 398.553 782.283 399.807 782.304 401.07C782.325 402.333 782.595 403.579 783.098 404.737C791.489 424.608 798.042 445.205 802.675 466.272ZM820.539 555.708C817.993 555.557 815.492 556.422 813.584 558.113C811.677 559.805 810.518 562.184 810.364 564.729C809.136 585.299 806.129 605.723 801.375 625.773C801.068 627.007 801.008 628.289 801.199 629.546C801.391 630.803 801.83 632.01 802.49 633.096C803.151 634.182 804.021 635.126 805.049 635.874C806.077 636.622 807.243 637.159 808.48 637.453C809.717 637.747 811 637.793 812.255 637.588C813.509 637.383 814.711 636.932 815.79 636.259C816.869 635.587 817.804 634.707 818.541 633.671C819.278 632.635 819.802 631.463 820.083 630.223C825.093 609.09 828.264 587.562 829.56 565.881C829.712 563.336 828.848 560.834 827.156 558.927C825.464 557.019 823.084 555.861 820.539 555.708ZM774.731 710.943C772.279 710.94 769.918 711.877 768.135 713.56C767.417 714.233 766.798 715.022 766.306 715.906C755.342 735.627 742.522 754.257 728.019 771.543C726.421 773.345 725.559 775.683 725.603 778.091C725.647 780.5 726.595 782.804 728.258 784.547C729.155 785.49 730.235 786.24 731.432 786.752C732.629 787.265 733.918 787.528 735.219 787.525C736.625 787.528 738.013 787.221 739.287 786.628C740.561 786.035 741.69 785.17 742.592 784.093C757.87 765.908 771.38 746.309 782.941 725.562C783.83 724.104 784.316 722.436 784.347 720.729C784.378 719.022 783.953 717.337 783.117 715.848C782.281 714.359 781.063 713.12 779.589 712.258C778.116 711.396 776.439 710.942 774.731 710.943ZM647.51 842.568C590.204 879.435 523.731 898.923 455.269 898.923C386.81 898.923 320.335 879.435 263.029 842.568C260.885 841.207 258.289 840.75 255.808 841.296C253.328 841.843 251.164 843.348 249.79 845.484C248.416 847.62 247.943 850.213 248.474 852.697C249.005 855.181 250.498 857.354 252.625 858.741C313.039 897.608 383.114 918.154 455.269 918.154C527.425 918.154 597.5 897.608 657.914 858.741C658.984 858.062 659.909 857.177 660.637 856.139C661.364 855.101 661.879 853.929 662.152 852.691C662.425 851.453 662.45 850.173 662.226 848.925C662.002 847.678 661.534 846.486 660.848 845.42C660.162 844.354 659.273 843.434 658.23 842.713C657.187 841.992 656.012 841.484 654.772 841.219C653.533 840.954 652.253 840.937 651.006 841.168C649.76 841.4 648.572 841.875 647.51 842.568ZM144.21 715.9C143.761 715.093 143.198 714.355 142.539 713.708C140.868 712.062 138.653 711.083 136.311 710.956C133.969 710.829 131.661 711.563 129.822 713.019C127.983 714.475 126.74 716.552 126.326 718.861C125.912 721.17 126.356 723.55 127.575 725.554C139.153 746.296 152.661 765.898 167.921 784.102C168.102 784.316 168.31 784.543 168.51 784.741C169.402 785.634 170.462 786.342 171.628 786.825C172.794 787.307 174.044 787.555 175.306 787.555C176.568 787.554 177.818 787.304 178.983 786.819C180.149 786.335 181.207 785.625 182.098 784.731C183.809 783.016 184.81 780.719 184.902 778.299C184.995 775.878 184.171 773.512 182.596 771.672C168.069 754.334 155.216 735.661 144.21 715.9ZM100.166 564.868C100.057 562.394 98.9967 560.058 97.207 558.347C95.4173 556.635 93.036 555.681 90.5598 555.683C89.248 555.684 87.9502 555.953 86.7463 556.474C85.5423 556.995 84.4575 557.757 83.5586 558.712C82.6597 559.668 81.9656 560.797 81.5191 562.03C81.0725 563.264 80.8829 564.576 80.9618 565.885C82.2623 587.566 85.4389 609.094 90.456 630.227C91.0471 632.708 92.5988 634.852 94.7699 636.188C96.9411 637.525 99.5541 637.945 102.035 637.356C103.263 637.064 104.422 636.533 105.445 635.793C106.468 635.053 107.336 634.119 107.998 633.043C108.66 631.968 109.103 630.773 109.304 629.526C109.504 628.28 109.456 627.006 109.164 625.777C104.414 605.772 101.403 585.392 100.166 564.868ZM98.3848 474.125C100.61 474.124 102.766 473.351 104.486 471.939C106.206 470.526 107.383 468.562 107.818 466.379C112.472 445.268 119.038 424.625 127.435 404.704C127.949 403.542 128.227 402.29 128.254 401.019C128.28 399.749 128.055 398.486 127.591 397.303C127.126 396.12 126.432 395.041 125.548 394.129C124.665 393.216 123.609 392.487 122.441 391.985C121.274 391.482 120.019 391.216 118.749 391.202C117.478 391.188 116.217 391.425 115.039 391.901C113.861 392.377 112.789 393.082 111.885 393.975C110.981 394.867 110.262 395.93 109.771 397.102C100.868 418.201 93.9133 440.071 88.9945 462.437C88.6827 463.842 88.6907 465.299 89.0178 466.701C89.3449 468.103 89.9827 469.413 90.8842 470.535C91.7856 471.657 92.9277 472.562 94.2259 473.184C95.5242 473.805 96.9455 474.127 98.3848 474.125Z" fill="#D0DCE7"/>
<path d="M455.269 302.77C577.404 302.77 676.423 401.789 676.423 523.923C676.423 646.058 577.404 745.077 455.269 745.077C333.115 745.077 234.115 646.058 234.115 523.923C234.115 401.789 333.115 302.77 455.269 302.77Z" fill="#12D4F4"/>
<path d="M825.462 201.807C857.324 201.807 883.154 175.978 883.154 144.115C883.154 112.253 857.324 86.4229 825.462 86.4229C793.599 86.4229 767.77 112.253 767.77 144.115C767.77 175.978 793.599 201.807 825.462 201.807Z" fill="#07CC66"/>
<path d="M80.2692 850.846C101.5 850.846 118.731 868.057 118.731 889.307C118.731 910.557 101.5 927.769 80.2692 927.769C59.0192 927.769 41.8076 910.557 41.8076 889.307C41.8076 868.057 59.0192 850.846 80.2692 850.846Z" fill="#07CC66"/>
<path d="M669.156 246.904C597.779 259.854 527.343 194.904 521.829 112.596C592.825 99.7074 663.571 164.165 669.156 246.904Z" fill="#E5E7EB"/>
<path d="M758.942 235.712C818.583 276.437 823.811 371.787 769.692 434.827C710.811 394.664 704.231 299.425 758.942 235.712Z" fill="#5C5C5C"/>
<path d="M899.807 412.327C922.156 481.398 867.259 559.744 786.386 576.308C764.282 508.208 818.052 429.012 899.807 412.327Z" fill="#E5E7EB"/>
<path d="M730.173 712.635C745.481 641.66 832.402 601.412 910.538 627.635C895.211 699.094 807.786 738.719 730.173 712.635Z" fill="#5C5C5C"/>
<path d="M794.887 810.866C753.431 869.677 657.898 873.727 595.637 818.481C637.227 759.654 732.712 755.639 794.887 810.866ZM314.885 818.481C252.975 873.418 157.337 869.968 115.637 810.866C177.977 755.56 273.494 759.76 314.885 818.481Z" fill="#E5E7EB"/>
<path d="M0 627.634C79.4327 600.998 165.277 642.763 180.346 712.634C102.269 738.877 15.3173 698.642 0 627.634Z" fill="#5C5C5C"/>
<path d="M124.137 576.308C41.7465 559.433 -11.2285 480.066 10.7311 412.327C92.1331 428.919 146.335 507.906 124.137 576.308Z" fill="#E5E7EB"/>
<path d="M140.847 434.827C86.7061 372.018 92.0792 276.427 151.577 235.712C204.912 297.679 201.289 393.57 140.847 434.827Z" fill="#5C5C5C"/>
<path d="M388.77 112.577C383.095 195.482 312.285 259.748 241.404 246.903C246.891 164.94 317.191 99.6034 388.77 112.577Z" fill="#E5E7EB"/>
<path d="M346.473 401.546C344.67 399.744 342.224 398.731 339.674 398.731C337.124 398.731 334.679 399.744 332.875 401.546C300.19 434.233 282.19 477.692 282.19 523.923C282.19 570.152 300.19 613.614 332.875 646.298C333.767 647.193 334.827 647.902 335.994 648.386C337.161 648.869 338.412 649.117 339.675 649.116C341.577 649.117 343.437 648.554 345.019 647.498C346.601 646.441 347.834 644.939 348.562 643.182C349.29 641.424 349.48 639.49 349.108 637.625C348.736 635.759 347.819 634.046 346.473 632.702C317.421 603.648 301.419 565.017 301.419 523.925C301.419 482.831 317.419 444.2 346.473 415.148C348.277 413.344 349.29 410.898 349.29 408.347C349.29 405.797 348.277 403.35 346.473 401.546ZM577.646 401.546C576.755 400.647 575.694 399.933 574.526 399.445C573.358 398.956 572.104 398.704 570.838 398.701C569.572 398.699 568.318 398.946 567.147 399.43C565.977 399.913 564.914 400.623 564.018 401.518C563.123 402.414 562.414 403.477 561.93 404.648C561.447 405.818 561.2 407.073 561.203 408.339C561.206 409.605 561.459 410.858 561.948 412.027C562.436 413.195 563.151 414.255 564.05 415.146C593.112 444.198 609.115 482.831 609.115 523.923C609.115 565.016 593.112 603.646 564.048 632.698C562.258 634.504 561.255 636.945 561.261 639.488C561.266 642.031 562.278 644.468 564.076 646.267C565.874 648.065 568.311 649.078 570.854 649.084C573.396 649.09 575.838 648.088 577.644 646.298C610.34 613.616 628.346 570.154 628.346 523.923C628.346 477.692 610.34 434.231 577.646 401.546Z" fill="#F2F2F2"/>
<path d="M873.538 312.384C881.504 312.384 887.961 305.927 887.961 297.961C887.961 289.996 881.504 283.538 873.538 283.538C865.573 283.538 859.115 289.996 859.115 297.961C859.115 305.927 865.573 312.384 873.538 312.384Z" fill="#313A52"/>
<path d="M863.923 802.769C871.889 802.769 878.346 796.312 878.346 788.346C878.346 780.38 871.889 773.923 863.923 773.923C855.957 773.923 849.5 780.38 849.5 788.346C849.5 796.312 855.957 802.769 863.923 802.769Z" fill="#313A52"/>
<path d="M738.923 918.154C746.889 918.154 753.346 911.696 753.346 903.731C753.346 895.765 746.889 889.308 738.923 889.308C730.957 889.308 724.5 895.765 724.5 903.731C724.5 911.696 730.957 918.154 738.923 918.154Z" fill="#313A52"/>
<path d="M690.846 120.077C698.812 120.077 705.269 113.619 705.269 105.654C705.269 97.6879 698.812 91.2305 690.846 91.2305C682.88 91.2305 676.423 97.6879 676.423 105.654C676.423 113.619 682.88 120.077 690.846 120.077Z" fill="#313A52"/>
<path d="M219.693 100.846C227.658 100.846 234.116 94.3887 234.116 86.4231C234.116 78.4574 227.658 72 219.693 72C211.727 72 205.27 78.4574 205.27 86.4231C205.27 94.3887 211.727 100.846 219.693 100.846Z" fill="#313A52"/>
<path d="M200.461 918.154C208.427 918.154 214.884 911.696 214.884 903.731C214.884 895.765 208.427 889.308 200.461 889.308C192.496 889.308 186.038 895.765 186.038 903.731C186.038 911.696 192.496 918.154 200.461 918.154Z" fill="#313A52"/>
<path d="M56.2307 254.692C64.1963 254.692 70.6538 248.234 70.6538 240.269C70.6538 232.303 64.1963 225.846 56.2307 225.846C48.265 225.846 41.8076 232.303 41.8076 240.269C41.8076 248.234 48.265 254.692 56.2307 254.692Z" fill="#313A52"/>
<path d="M457.716 636.983C440.528 636.983 425.259 634.036 411.906 628.141C398.625 622.175 388.185 613.972 380.585 603.531C372.986 593.091 369.151 581.088 369.08 567.523H428.739C428.81 571.713 430.088 575.477 432.574 578.815C435.131 582.082 438.611 584.639 443.014 586.486C447.418 588.332 452.46 589.256 458.142 589.256C463.611 589.256 468.44 588.297 472.631 586.379C476.821 584.391 480.088 581.656 482.432 578.176C484.776 574.696 485.912 570.719 485.841 566.244C485.912 561.841 484.563 557.935 481.793 554.526C479.094 551.116 475.294 548.453 470.393 546.536C465.493 544.618 459.847 543.659 453.455 543.659H431.295V502.75H453.455C459.349 502.75 464.534 501.791 469.009 499.874C473.554 497.956 477.07 495.293 479.555 491.884C482.112 488.474 483.355 484.568 483.284 480.165C483.355 475.903 482.325 472.139 480.195 468.872C478.064 465.605 475.081 463.048 471.246 461.202C467.482 459.355 463.114 458.432 458.142 458.432C452.744 458.432 447.915 459.391 443.653 461.308C439.463 463.226 436.161 465.889 433.746 469.298C431.331 472.707 430.088 476.614 430.017 481.017H373.341C373.412 467.665 377.07 455.875 384.314 445.648C391.629 435.42 401.643 427.395 414.357 421.571C427.07 415.747 441.665 412.835 458.142 412.835C474.264 412.835 488.504 415.57 500.862 421.038C513.291 426.507 522.986 434.036 529.946 443.624C536.977 453.141 540.457 464.043 540.386 476.33C540.528 488.545 536.338 498.56 527.815 506.372C519.364 514.185 508.639 518.801 495.642 520.222V521.926C513.256 523.844 526.501 529.241 535.379 538.119C544.257 546.926 548.625 558.006 548.483 571.358C548.554 584.142 544.719 595.47 536.977 605.342C529.307 615.214 518.618 622.956 504.911 628.567C491.274 634.178 475.543 636.983 457.716 636.983Z" fill="white"/>
</svg>
